<svg width="246" height="246" viewBox="0 0 246 246" fill="none" xmlns="http://www.w3.org/2000/svg">
<rect width="246" height="246" rx="123" fill="white" fill-opacity="0.2"/>
<circle cx="122.496" cy="123.496" r="95.4957" fill="white" fill-opacity="0.2"/>
<path d="M125.116 58.1217L131.062 74.632C137.666 92.9563 152.097 107.386 170.422 113.99L186.933 119.936C188.421 120.476 188.421 122.586 186.933 123.119L170.422 129.064C152.097 135.669 137.666 150.098 131.062 168.423L125.116 184.933C124.576 186.421 122.466 186.421 121.933 184.933L115.987 168.423C109.383 150.098 94.9523 135.669 76.6272 129.064L60.1162 123.119C58.6279 122.579 58.6279 120.469 60.1162 119.936L76.6272 113.99C94.9523 107.386 109.383 92.9563 115.987 74.632L121.933 58.1217C122.466 56.6261 124.576 56.6261 125.116 58.1217Z" fill="white"/>
</svg>
