<svg width="35" height="35" viewBox="0 0 35 35" fill="none" xmlns="http://www.w3.org/2000/svg">
<rect x="0.214062" y="0.214062" width="33.8219" height="33.8219" rx="1.78594" stroke="#BDBDBD" stroke-opacity="0.5" stroke-width="0.428125"/>
<g clip-path="url(#clip0_268_47455)">
<path fill-rule="evenodd" clip-rule="evenodd" d="M13.9656 12.1982C14.4703 12.1982 14.9248 12.2422 15.3391 12.3322C15.7544 12.4188 16.1052 12.5664 16.403 12.7668C16.6972 12.9678 16.9241 13.2355 17.0919 13.5692C17.2525 13.8998 17.3327 14.3148 17.3327 14.8062C17.3327 15.3381 17.213 15.779 16.9712 16.1342C16.7272 16.4885 16.3729 16.7764 15.8976 17.0043C16.5461 17.1914 17.0246 17.5191 17.3457 17.9843C17.6665 18.453 17.8207 19.0146 17.8207 19.6761C17.8207 20.2111 17.7167 20.6691 17.5138 21.0572C17.3065 21.4488 17.0256 21.7661 16.6814 22.0107C16.3337 22.2578 15.9324 22.4386 15.4839 22.5555C15.0386 22.6718 14.5807 22.7328 14.1072 22.7328H9V12.1992L13.9663 12.1995L13.9657 12.1982H13.9656ZM20.1746 13.0481H24.4455V14.0885L20.1746 14.0882V13.0477V13.0481ZM21.1236 20.9001C21.4384 21.207 21.8897 21.3612 22.4788 21.3612C22.9001 21.3612 23.2686 21.2538 23.5723 21.0398C23.876 20.8258 24.0606 20.5992 24.1311 20.3647L25.9764 20.365C25.6787 21.2841 25.2306 21.937 24.6156 22.3317C24.0097 22.7265 23.2683 22.9269 22.408 22.9269C21.8054 22.9269 21.2674 22.8292 20.7823 22.6386C20.2975 22.4449 19.893 22.1744 19.5516 21.8188C19.2208 21.4646 18.96 21.0433 18.7758 20.548C18.595 20.0569 18.5021 19.5111 18.5021 18.9226C18.5021 18.3509 18.5963 17.819 18.7824 17.3273C18.973 16.8317 19.234 16.4079 19.5817 16.0495C19.929 15.6914 20.337 15.4073 20.819 15.2C21.2975 14.9923 21.8259 14.8884 22.4112 14.8884C23.0562 14.8884 23.6213 15.0126 24.1064 15.2663C24.5881 15.5167 24.986 15.8548 25.297 16.2764C25.6086 16.6983 25.8288 17.1828 25.966 17.7242C26.1032 18.2656 26.15 18.8306 26.1123 19.4235H20.605C20.605 20.0218 20.806 20.5945 21.123 20.8979L21.1236 20.9001ZM23.5284 16.8943C23.2813 16.6203 22.8562 16.4695 22.3448 16.4695C22.0098 16.4695 21.733 16.5261 21.5124 16.6399C21.2952 16.753 21.1177 16.8933 20.9805 17.0612C20.8468 17.2283 20.7526 17.4091 20.7005 17.599C20.6471 17.783 20.6139 17.9533 20.6028 18.1009L24.0145 18.1006C23.9642 17.5659 23.7803 17.1711 23.5297 16.8936L23.5284 16.8943H23.5284ZM13.6638 16.4521C14.0747 16.4521 14.4157 16.3545 14.683 16.1576C14.9504 15.9638 15.0778 15.6427 15.0778 15.2009C15.0778 14.9573 15.0342 14.7525 14.9472 14.5951C14.8575 14.438 14.7396 14.3138 14.5895 14.2272C14.4419 14.1374 14.2754 14.0761 14.0784 14.043C13.8879 14.0066 13.6869 13.9899 13.4834 13.9899H11.3166V16.4509H13.6644L13.6638 16.4521ZM13.7909 20.9365C14.019 20.9365 14.2362 20.9162 14.4387 20.8688C14.6461 20.822 14.8303 20.7522 14.9836 20.6454C15.1375 20.5414 15.2683 20.4049 15.3613 20.2241C15.4555 20.0465 15.4984 19.8196 15.4984 19.5424C15.4984 19.001 15.3442 18.6126 15.0405 18.3781C14.7368 18.1467 14.3322 18.0336 13.8307 18.0336H11.3159V20.9323L13.7909 20.932V20.9364V20.9365Z" fill="#BDBDBD"/>
</g>
<defs>
<clipPath id="clip0_268_47455">
<rect width="17.125" height="17.125" fill="white" transform="translate(9 9)"/>
</clipPath>
</defs>
</svg>
