<svg width="32" height="32" viewBox="0 0 32 32" fill="none" xmlns="http://www.w3.org/2000/svg">
<path d="M26.7954 19.5262C26.7019 19.8189 24.2696 26.6031 16.0371 26.6031C13.6583 26.6031 12.2951 25.7783 11.8273 24.0889C11.7048 23.6066 11.6508 23.1096 11.667 22.6124C16.6385 22.0803 22.3986 19.1937 24.4032 15.7218C25.6327 13.5934 25.3655 11.3985 23.6548 9.69586C21.8105 7.86014 19.2847 7.64731 16.7454 9.11056C13.5112 10.9729 10.2904 15.6154 9.2881 20.0184C8.88717 19.9785 8.4996 19.912 8.1254 19.8189C6.21429 19.3134 5.31887 18.0896 5.31887 15.9612C5.31887 8.96423 13.7785 5.2529 13.8721 5.21299L15.1016 4.6809L14.0458 2.24658L12.8163 2.76537C12.402 2.9383 2.646 7.19503 2.646 15.9612C2.646 19.2735 4.34327 21.5615 7.43045 22.3862C7.91157 22.5193 8.43278 22.5991 8.96735 22.6523C8.96735 23.3972 9.04754 24.1022 9.23464 24.7806C9.68903 26.4567 11.1725 29.2768 16.0238 29.2768C26.2208 29.2768 29.2946 20.4707 29.3213 20.3909L29.7356 19.1272L27.2097 18.2891L26.7821 19.5395L26.7954 19.5262ZM18.0819 11.4119C18.857 10.9596 19.4985 10.7999 20.0197 10.7999C20.9819 10.7999 21.5299 11.3453 21.7571 11.5715C22.6124 12.4228 22.7059 13.2875 22.0778 14.3783C20.6746 16.7993 16.1708 19.2735 12.0946 19.8987C13.0569 16.5731 15.4624 12.9017 18.0819 11.3985V11.4119Z" fill="white"/>
</svg>
