<svg width="331" height="187" viewBox="0 0 331 187" fill="none" xmlns="http://www.w3.org/2000/svg">
<circle cx="177.943" cy="93.5" r="73.25" fill="#FFC8B7" stroke="#FF5E2D" stroke-width="0.5"/>
<circle cx="177.943" cy="93.5" r="93" stroke="#FF5E2D" stroke-dasharray="2 2"/>
<circle cx="177.207" cy="93.5" r="32.25" fill="#FF5E2D" stroke="white" stroke-width="0.5"/>
<g filter="url(#filter0_d_222_10704)">
<circle cx="177.207" cy="93.5" r="16.5" fill="white"/>
</g>
<path d="M173.448 89.5417C173.448 87.4683 175.135 85.7812 177.208 85.7812C179.282 85.7812 180.969 87.4683 180.969 89.5417C180.969 91.615 179.282 93.3021 177.208 93.3021C175.135 93.3021 173.448 91.615 173.448 89.5417ZM179.583 94.4896H174.833C172.324 94.4896 170.281 96.5321 170.281 99.0417C170.281 100.243 171.257 101.219 172.458 101.219H181.958C183.159 101.219 184.135 100.243 184.135 99.0417C184.135 96.5321 182.093 94.4896 179.583 94.4896Z" fill="#FF5E2D"/>
<circle cx="222.5" cy="12.0566" r="4" fill="white"/>
<circle cx="222.5" cy="12.0566" r="2" fill="#FF5E2D"/>
<circle cx="113.5" cy="59.0566" r="4" fill="white"/>
<circle cx="113.5" cy="59.0566" r="2" fill="#FF5E2D"/>
<rect x="222.5" y="23" width="103.5" height="20" rx="4" fill="white"/>
<path d="M244.168 37V29.776H241.372V28.84H248.068V29.776H245.272V37H244.168ZM249.281 29.776V28.36H250.337V29.776H249.281ZM249.281 37V30.628H250.337V37H249.281ZM252.012 37V30.628H253.068V31.444C253.476 30.796 254.112 30.472 254.892 30.472C255.768 30.472 256.404 30.856 256.704 31.6C257.124 30.856 257.82 30.472 258.672 30.472C259.968 30.472 260.748 31.264 260.748 32.74V37H259.692V32.956C259.692 31.996 259.308 31.372 258.444 31.372C257.484 31.372 256.908 32.32 256.908 33.232V37H255.852V32.956C255.852 31.996 255.468 31.372 254.604 31.372C253.644 31.372 253.068 32.32 253.068 33.232V37H252.012ZM267.938 34.924C267.59 36.412 266.522 37.144 265.07 37.144C263.222 37.144 262.106 35.896 262.106 33.82C262.106 31.66 263.222 30.472 265.01 30.472C266.81 30.472 267.89 31.708 267.89 33.736V34H263.186C263.246 35.428 263.918 36.232 265.07 36.232C265.97 36.232 266.606 35.8 266.834 34.924H267.938ZM265.01 31.384C263.99 31.384 263.378 32.02 263.222 33.208H266.786C266.642 32.032 266.006 31.384 265.01 31.384ZM271.843 35.164V31.468H270.955V30.628H271.843V29.164H272.899V30.628H274.303V31.468H272.899V35.164C272.899 35.932 273.127 36.292 274.063 36.292H274.279V37.048C274.159 37.108 273.895 37.144 273.595 37.144C272.407 37.144 271.843 36.508 271.843 35.164ZM277.901 37.144C276.077 37.144 274.985 35.896 274.985 33.82C274.985 31.66 276.113 30.472 277.901 30.472C279.725 30.472 280.817 31.744 280.817 33.82C280.817 35.968 279.689 37.144 277.901 37.144ZM277.901 36.232C279.089 36.232 279.737 35.38 279.737 33.82C279.737 32.272 279.077 31.384 277.901 31.384C276.713 31.384 276.065 32.248 276.065 33.82C276.065 35.356 276.725 36.232 277.901 36.232ZM285.514 30.832C285.514 33.136 290.518 31.348 290.518 34.696C290.518 36.268 289.246 37.144 287.506 37.144C285.754 37.144 284.554 36.34 284.194 34.696H285.346C285.61 35.668 286.342 36.196 287.518 36.196C288.742 36.196 289.39 35.656 289.39 34.84C289.39 32.344 284.386 34.204 284.386 30.904C284.386 29.728 285.37 28.696 287.17 28.696C288.742 28.696 290.002 29.452 290.302 31.192H289.138C288.886 30.112 288.19 29.644 287.146 29.644C286.114 29.644 285.514 30.112 285.514 30.832ZM291.809 37V28.36H292.865V31.492C293.297 30.82 293.993 30.472 294.833 30.472C296.189 30.472 296.993 31.264 296.993 32.74V37H295.937V32.956C295.937 31.996 295.505 31.372 294.545 31.372C293.489 31.372 292.865 32.32 292.865 33.232V37H291.809ZM298.676 29.776V28.36H299.732V29.776H298.676ZM298.676 37V30.628H299.732V37H298.676ZM302.474 39.64H301.418V30.628H302.474V31.42C302.894 30.82 303.506 30.472 304.262 30.472C305.954 30.472 306.974 31.72 306.974 33.796C306.974 35.956 305.93 37.144 304.262 37.144C303.506 37.144 302.894 36.832 302.474 36.244V39.64ZM304.19 31.384C303.074 31.384 302.474 32.236 302.474 33.796C302.474 35.344 303.098 36.232 304.19 36.232C305.294 36.232 305.894 35.368 305.894 33.796C305.894 32.26 305.27 31.384 304.19 31.384Z" fill="#FF5E2D"/>
<rect y="28" width="137" height="20" rx="4" fill="white"/>
<path d="M11.936 43V34.84H14.876C16.592 34.84 17.684 35.728 17.684 37.144C17.684 38.08 17.228 38.74 16.46 39.088C16.988 39.328 17.264 39.772 17.468 40.576L18.08 43H16.916L16.4 40.792C16.16 39.772 15.752 39.58 14.768 39.58H13.04V43H11.936ZM14.852 35.74H13.04V38.68H14.828C15.908 38.68 16.544 38.104 16.544 37.204C16.544 36.304 15.908 35.74 14.852 35.74ZM24.8128 40.924C24.4648 42.412 23.3968 43.144 21.9448 43.144C20.0968 43.144 18.9808 41.896 18.9808 39.82C18.9808 37.66 20.0968 36.472 21.8848 36.472C23.6848 36.472 24.7648 37.708 24.7648 39.736V40H20.0608C20.1208 41.428 20.7928 42.232 21.9448 42.232C22.8448 42.232 23.4808 41.8 23.7088 40.924H24.8128ZM21.8848 37.384C20.8648 37.384 20.2528 38.02 20.0968 39.208H23.6608C23.5168 38.032 22.8808 37.384 21.8848 37.384ZM27.6508 43L25.2748 36.628H26.4148L28.1788 41.572L28.3348 42.124L28.4908 41.572L30.2548 36.628H31.3228L28.9468 43H27.6508ZM37.7269 40.924C37.3789 42.412 36.3109 43.144 34.8589 43.144C33.0109 43.144 31.8949 41.896 31.8949 39.82C31.8949 37.66 33.0109 36.472 34.7989 36.472C36.5989 36.472 37.6789 37.708 37.6789 39.736V40H32.9749C33.0349 41.428 33.7069 42.232 34.8589 42.232C35.7589 42.232 36.3949 41.8 36.6229 40.924H37.7269ZM34.7989 37.384C33.7789 37.384 33.1669 38.02 33.0109 39.208H36.5749C36.4309 38.032 35.7949 37.384 34.7989 37.384ZM39.0861 43V36.628H40.1421V37.492C40.5741 36.82 41.2701 36.472 42.1101 36.472C43.4661 36.472 44.2701 37.264 44.2701 38.74V43H43.2141V38.956C43.2141 37.996 42.7821 37.372 41.8221 37.372C40.7661 37.372 40.1421 38.32 40.1421 39.232V43H39.0861ZM50.0093 40.396V36.628H51.0653V43H50.0093V42.136C49.5773 42.808 48.9053 43.144 48.0773 43.144C46.7453 43.144 45.9533 42.364 45.9533 40.888V36.628H47.0093V40.672C47.0093 41.632 47.4293 42.244 48.3653 42.244C49.3973 42.244 50.0093 41.308 50.0093 40.396ZM58.2582 40.924C57.9102 42.412 56.8422 43.144 55.3902 43.144C53.5422 43.144 52.4262 41.896 52.4262 39.82C52.4262 37.66 53.5422 36.472 55.3302 36.472C57.1302 36.472 58.2102 37.708 58.2102 39.736V40H53.5062C53.5662 41.428 54.2382 42.232 55.3902 42.232C56.2902 42.232 56.9262 41.8 57.1542 40.924H58.2582ZM55.3302 37.384C54.3102 37.384 53.6982 38.02 53.5422 39.208H57.1062C56.9622 38.032 56.3262 37.384 55.3302 37.384ZM62.0197 35.776V34.36H63.0757V35.776H62.0197ZM62.0197 43V36.628H63.0757V43H62.0197ZM64.7502 43V36.628H65.8062V37.492C66.2382 36.82 66.9342 36.472 67.7742 36.472C69.1302 36.472 69.9342 37.264 69.9342 38.74V43H68.8782V38.956C68.8782 37.996 68.4462 37.372 67.4862 37.372C66.4302 37.372 65.8062 38.32 65.8062 39.232V43H64.7502ZM70.8373 37.468V36.628H71.7253V36.196C71.7253 34.852 72.2773 34.216 73.4533 34.216C73.7173 34.216 73.9333 34.264 74.0413 34.312V35.068H73.9333C73.0093 35.068 72.7813 35.428 72.7813 36.196V36.628H74.0413V37.468H72.7813V43H71.7253V37.468H70.8373ZM74.8813 43V34.36H75.9373V43H74.8813ZM81.6733 40.396V36.628H82.7293V43H81.6733V42.136C81.2413 42.808 80.5693 43.144 79.7413 43.144C78.4093 43.144 77.6173 42.364 77.6173 40.888V36.628H78.6733V40.672C78.6733 41.632 79.0933 42.244 80.0293 42.244C81.0613 42.244 81.6733 41.308 81.6733 40.396ZM89.9222 40.924C89.5742 42.412 88.5062 43.144 87.0542 43.144C85.2062 43.144 84.0902 41.896 84.0902 39.82C84.0902 37.66 85.2062 36.472 86.9942 36.472C88.7942 36.472 89.8742 37.708 89.8742 39.736V40H85.1702C85.2302 41.428 85.9022 42.232 87.0542 42.232C87.9542 42.232 88.5902 41.8 88.8182 40.924H89.9222ZM86.9942 37.384C85.9742 37.384 85.3622 38.02 85.2062 39.208H88.7702C88.6262 38.032 87.9902 37.384 86.9942 37.384ZM91.2814 43V36.628H92.3374V37.492C92.7694 36.82 93.4654 36.472 94.3054 36.472C95.6614 36.472 96.4654 37.264 96.4654 38.74V43H95.4094V38.956C95.4094 37.996 94.9774 37.372 94.0174 37.372C92.9614 37.372 92.3374 38.32 92.3374 39.232V43H91.2814ZM103.417 38.824H102.361C102.193 37.852 101.545 37.384 100.705 37.384C99.5286 37.384 98.9046 38.248 98.9046 39.82C98.9046 41.368 99.5646 42.244 100.741 42.244C101.593 42.244 102.205 41.788 102.409 40.876H103.465C103.177 42.46 102.109 43.144 100.717 43.144C98.9046 43.144 97.8246 41.884 97.8246 39.82C97.8246 37.66 98.9286 36.472 100.705 36.472C102.109 36.472 103.213 37.264 103.417 38.824ZM110.278 40.924C109.93 42.412 108.862 43.144 107.41 43.144C105.562 43.144 104.446 41.896 104.446 39.82C104.446 37.66 105.562 36.472 107.35 36.472C109.15 36.472 110.23 37.708 110.23 39.736V40H105.526C105.586 41.428 106.258 42.232 107.41 42.232C108.31 42.232 108.946 41.8 109.174 40.924H110.278ZM107.35 37.384C106.33 37.384 105.718 38.02 105.562 39.208H109.126C108.982 38.032 108.346 37.384 107.35 37.384ZM114.025 43.144C112.333 43.144 111.313 41.896 111.313 39.82C111.313 37.66 112.357 36.472 114.025 36.472C114.781 36.472 115.393 36.784 115.813 37.372V34.36H116.869V43H115.813V42.196C115.393 42.796 114.781 43.144 114.025 43.144ZM114.097 42.232C115.213 42.232 115.813 41.38 115.813 39.82C115.813 38.272 115.189 37.384 114.097 37.384C112.993 37.384 112.393 38.248 112.393 39.82C112.393 41.356 113.017 42.232 114.097 42.232Z" fill="#FF5E2D"/>
<rect x="251" y="124" width="80" height="20" rx="4" fill="white"/>
<path d="M257.936 138V129.84H260.876C262.592 129.84 263.684 130.728 263.684 132.144C263.684 133.08 263.228 133.74 262.46 134.088C262.988 134.328 263.264 134.772 263.468 135.576L264.08 138H262.916L262.4 135.792C262.16 134.772 261.752 134.58 260.768 134.58H259.04V138H257.936ZM260.852 130.74H259.04V133.68H260.828C261.908 133.68 262.544 133.104 262.544 132.204C262.544 131.304 261.908 130.74 260.852 130.74ZM270.813 135.924C270.465 137.412 269.397 138.144 267.945 138.144C266.097 138.144 264.981 136.896 264.981 134.82C264.981 132.66 266.097 131.472 267.885 131.472C269.685 131.472 270.765 132.708 270.765 134.736V135H266.061C266.121 136.428 266.793 137.232 267.945 137.232C268.845 137.232 269.481 136.8 269.709 135.924H270.813ZM267.885 132.384C266.865 132.384 266.253 133.02 266.097 134.208H269.661C269.517 133.032 268.881 132.384 267.885 132.384ZM271.392 132.468V131.628H272.28V131.196C272.28 129.852 272.832 129.216 274.008 129.216C274.272 129.216 274.488 129.264 274.596 129.312V130.068H274.488C273.564 130.068 273.336 130.428 273.336 131.196V131.628H274.596V132.468H273.336V138H272.28V132.468H271.392ZM280.95 135.924C280.602 137.412 279.534 138.144 278.082 138.144C276.234 138.144 275.118 136.896 275.118 134.82C275.118 132.66 276.234 131.472 278.022 131.472C279.822 131.472 280.902 132.708 280.902 134.736V135H276.198C276.258 136.428 276.93 137.232 278.082 137.232C278.982 137.232 279.618 136.8 279.846 135.924H280.95ZM278.022 132.384C277.002 132.384 276.39 133.02 276.234 134.208H279.798C279.654 133.032 279.018 132.384 278.022 132.384ZM282.309 138V131.628H283.365V132.612C283.797 131.832 284.481 131.472 285.249 131.472C285.501 131.472 285.729 131.532 285.849 131.628V132.576C285.669 132.516 285.441 132.492 285.189 132.492C283.917 132.492 283.365 133.284 283.365 134.436V138H282.309ZM286.785 138V131.628H287.841V132.612C288.273 131.832 288.957 131.472 289.725 131.472C289.977 131.472 290.205 131.532 290.325 131.628V132.576C290.145 132.516 289.917 132.492 289.665 132.492C288.393 132.492 287.841 133.284 287.841 134.436V138H286.785ZM292.117 133.704H291.061C291.265 132.3 292.189 131.472 293.749 131.472C295.453 131.472 296.281 132.468 296.281 133.956V136.464C296.281 137.196 296.341 137.652 296.509 138H295.393C295.273 137.748 295.237 137.376 295.225 136.992C294.685 137.796 293.821 138.144 293.053 138.144C291.733 138.144 290.845 137.532 290.845 136.32C290.845 135.444 291.325 134.808 292.261 134.496C293.125 134.208 294.001 134.136 295.225 134.124V133.98C295.225 132.948 294.745 132.384 293.653 132.384C292.741 132.384 292.249 132.888 292.117 133.704ZM291.925 136.296C291.925 136.884 292.417 137.232 293.161 137.232C294.337 137.232 295.225 136.308 295.225 135.216V134.916C292.513 134.94 291.925 135.516 291.925 136.296ZM298.012 138V129.36H299.068V138H298.012ZM303.145 138V131.628H304.201V132.612C304.633 131.832 305.317 131.472 306.085 131.472C306.337 131.472 306.565 131.532 306.685 131.628V132.576C306.505 132.516 306.277 132.492 306.025 132.492C304.753 132.492 304.201 133.284 304.201 134.436V138H303.145ZM308.476 133.704H307.42C307.624 132.3 308.548 131.472 310.108 131.472C311.812 131.472 312.64 132.468 312.64 133.956V136.464C312.64 137.196 312.7 137.652 312.868 138H311.752C311.632 137.748 311.596 137.376 311.584 136.992C311.044 137.796 310.18 138.144 309.412 138.144C308.092 138.144 307.204 137.532 307.204 136.32C307.204 135.444 307.684 134.808 308.62 134.496C309.484 134.208 310.36 134.136 311.584 134.124V133.98C311.584 132.948 311.104 132.384 310.012 132.384C309.1 132.384 308.608 132.888 308.476 133.704ZM308.284 136.296C308.284 136.884 308.776 137.232 309.52 137.232C310.696 137.232 311.584 136.308 311.584 135.216V134.916C308.872 134.94 308.284 135.516 308.284 136.296ZM314.515 136.164V132.468H313.627V131.628H314.515V130.164H315.571V131.628H316.975V132.468H315.571V136.164C315.571 136.932 315.799 137.292 316.735 137.292H316.951V138.048C316.831 138.108 316.567 138.144 316.267 138.144C315.079 138.144 314.515 137.508 314.515 136.164ZM323.489 135.924C323.141 137.412 322.073 138.144 320.621 138.144C318.773 138.144 317.657 136.896 317.657 134.82C317.657 132.66 318.773 131.472 320.561 131.472C322.361 131.472 323.441 132.708 323.441 134.736V135H318.737C318.797 136.428 319.469 137.232 320.621 137.232C321.521 137.232 322.157 136.8 322.385 135.924H323.489ZM320.561 132.384C319.541 132.384 318.929 133.02 318.773 134.208H322.337C322.193 133.032 321.557 132.384 320.561 132.384Z" fill="#FF5E2D"/>
<rect x="21" y="147" width="121" height="20" rx="4" fill="white"/>
<path d="M48.656 155.192H47.504C47.204 154.196 46.352 153.644 45.308 153.644C43.712 153.644 42.764 154.892 42.764 156.932C42.764 158.972 43.7 160.196 45.308 160.196C46.316 160.196 47.132 159.68 47.48 158.696H48.644C48.188 160.244 46.856 161.144 45.296 161.144C43.016 161.144 41.636 159.548 41.636 156.932C41.636 154.328 43.04 152.696 45.344 152.696C46.916 152.696 48.26 153.56 48.656 155.192ZM52.6 161.144C50.776 161.144 49.684 159.896 49.684 157.82C49.684 155.66 50.812 154.472 52.6 154.472C54.424 154.472 55.516 155.744 55.516 157.82C55.516 159.968 54.388 161.144 52.6 161.144ZM52.6 160.232C53.788 160.232 54.436 159.38 54.436 157.82C54.436 156.272 53.776 155.384 52.6 155.384C51.412 155.384 50.764 156.248 50.764 157.82C50.764 159.356 51.424 160.232 52.6 160.232ZM56.8752 161V154.628H57.9312V155.492C58.3632 154.82 59.0592 154.472 59.8992 154.472C61.2552 154.472 62.0592 155.264 62.0592 156.74V161H61.0032V156.956C61.0032 155.996 60.5712 155.372 59.6112 155.372C58.5552 155.372 57.9312 156.32 57.9312 157.232V161H56.8752ZM65.104 161L62.728 154.628H63.868L65.632 159.572L65.788 160.124L65.944 159.572L67.708 154.628H68.776L66.4 161H65.104ZM75.18 158.924C74.832 160.412 73.764 161.144 72.312 161.144C70.464 161.144 69.348 159.896 69.348 157.82C69.348 155.66 70.464 154.472 72.252 154.472C74.052 154.472 75.132 155.708 75.132 157.736V158H70.428C70.488 159.428 71.16 160.232 72.312 160.232C73.212 160.232 73.848 159.8 74.076 158.924H75.18ZM72.252 155.384C71.232 155.384 70.62 156.02 70.464 157.208H74.028C73.884 156.032 73.248 155.384 72.252 155.384ZM76.5392 161V154.628H77.5952V155.612C78.0272 154.832 78.7112 154.472 79.4792 154.472C79.7312 154.472 79.9592 154.532 80.0792 154.628V155.576C79.8992 155.516 79.6712 155.492 79.4192 155.492C78.1472 155.492 77.5952 156.284 77.5952 157.436V161H76.5392ZM81.7958 156.26C81.7958 158.036 85.9358 156.572 85.9358 159.2C85.9358 160.388 84.8798 161.144 83.3798 161.144C81.8678 161.144 80.8118 160.424 80.5718 158.924H81.6278C81.7718 159.812 82.4318 160.304 83.4158 160.304C84.3758 160.304 84.8798 159.872 84.8798 159.272C84.8798 157.532 80.7878 158.972 80.7878 156.332C80.7878 155.36 81.5438 154.472 83.1038 154.472C84.4838 154.472 85.5038 155.12 85.7078 156.704H84.6518C84.4958 155.708 83.9438 155.336 83.0438 155.336C82.2518 155.336 81.7958 155.732 81.7958 156.26ZM87.1916 153.776V152.36H88.2476V153.776H87.1916ZM87.1916 161V154.628H88.2476V161H87.1916ZM92.514 161.144C90.69 161.144 89.598 159.896 89.598 157.82C89.598 155.66 90.726 154.472 92.514 154.472C94.338 154.472 95.43 155.744 95.43 157.82C95.43 159.968 94.302 161.144 92.514 161.144ZM92.514 160.232C93.702 160.232 94.35 159.38 94.35 157.82C94.35 156.272 93.69 155.384 92.514 155.384C91.326 155.384 90.678 156.248 90.678 157.82C90.678 159.356 91.338 160.232 92.514 160.232ZM96.7892 161V154.628H97.8452V155.492C98.2772 154.82 98.9732 154.472 99.8132 154.472C101.169 154.472 101.973 155.264 101.973 156.74V161H100.917V156.956C100.917 155.996 100.485 155.372 99.5252 155.372C98.4692 155.372 97.8452 156.32 97.8452 157.232V161H96.7892ZM106.155 161V152.84H107.259V160.1H111.363V161H106.155ZM112.586 153.776V152.36H113.642V153.776H112.586ZM112.586 161V154.628H113.642V161H112.586ZM114.537 155.468V154.628H115.425V154.196C115.425 152.852 115.977 152.216 117.153 152.216C117.417 152.216 117.633 152.264 117.741 152.312V153.068H117.633C116.709 153.068 116.481 153.428 116.481 154.196V154.628H117.741V155.468H116.481V161H115.425V155.468H114.537ZM118.73 159.164V155.468H117.842V154.628H118.73V153.164H119.786V154.628H121.19V155.468H119.786V159.164C119.786 159.932 120.014 160.292 120.95 160.292H121.166V161.048C121.046 161.108 120.782 161.144 120.482 161.144C119.294 161.144 118.73 160.508 118.73 159.164Z" fill="#FF5E2D"/>
<circle cx="90.5" cy="125.057" r="4" fill="white"/>
<circle cx="90.5" cy="125.057" r="2" fill="#FF5E2D"/>
<circle cx="244.5" cy="158.057" r="4" fill="white"/>
<circle cx="244.5" cy="158.057" r="2" fill="#FF5E2D"/>
<defs>
<filter id="filter0_d_222_10704" x="158.715" y="75.0083" width="36.9835" height="36.9835" filterUnits="userSpaceOnUse" color-interpolation-filters="sRGB">
<feFlood flood-opacity="0" result="BackgroundImageFix"/>
<feColorMatrix in="SourceAlpha" type="matrix" values="0 0 0 0 0 0 0 0 0 0 0 0 0 0 0 0 0 0 127 0" result="hardAlpha"/>
<feOffset/>
<feGaussianBlur stdDeviation="0.995874"/>
<feComposite in2="hardAlpha" operator="out"/>
<feColorMatrix type="matrix" values="0 0 0 0 1 0 0 0 0 0.368627 0 0 0 0 0.176471 0 0 0 1 0"/>
<feBlend mode="normal" in2="BackgroundImageFix" result="effect1_dropShadow_222_10704"/>
<feBlend mode="normal" in="SourceGraphic" in2="effect1_dropShadow_222_10704" result="shape"/>
</filter>
</defs>
</svg>
