<svg width="425" height="274" viewBox="0 0 425 274" fill="none" xmlns="http://www.w3.org/2000/svg">
<rect x="0.5" y="0.5" width="424" height="273" rx="9.5" fill="url(#paint0_linear_701_4312)"/>
<rect x="0.5" y="0.5" width="424" height="273" rx="9.5" stroke="#E2E2E2"/>
<path d="M35 65H390V227C390 233.627 384.627 239 378 239H47C40.3726 239 35 233.627 35 227V65Z" fill="#FAFAFA"/>
<path d="M389.5 65.5V227C389.5 233.351 384.351 238.5 378 238.5H47C40.6487 238.5 35.5 233.351 35.5 227V65.5H389.5Z" stroke="#BDBDBD" stroke-opacity="0.5"/>
<mask id="path-4-inside-1_701_4312" fill="white">
<path d="M390 65L35 65L35 47C35 40.3726 40.3726 35 47 35L378 35C384.627 35 390 40.3726 390 47L390 65Z"/>
</mask>
<path d="M390 65L35 65L35 47C35 40.3726 40.3726 35 47 35L378 35C384.627 35 390 40.3726 390 47L390 65Z" fill="white"/>
<path d="M390 65L35 65L390 65M34 47C34 39.8203 39.8203 34 47 34L378 34C385.18 34 391 39.8203 391 47L389 47C389 40.9249 384.075 36 378 36L47 36C40.9249 36 36 40.9249 36 47L34 47ZM378 34C385.18 34 391 39.8203 391 47L391 65L389 65L389 47C389 40.9249 384.075 36 378 36L378 34ZM34 65L34 47C34 39.8203 39.8203 34 47 34L47 36C40.9249 36 36 40.9249 36 47L36 65L34 65Z" fill="#BDBDBD" fill-opacity="0.5" mask="url(#path-4-inside-1_701_4312)"/>
<circle cx="57" cy="51" r="5" fill="#FD2929"/>
<circle cx="73" cy="51" r="5" fill="#FABA0A"/>
<circle cx="89" cy="51" r="5" fill="#51D201"/>
<rect x="52" y="193" width="62" height="19" rx="9.5" fill="#4558ED"/>
<path d="M62.73 206V199.2H65.06C67.19 199.2 68.51 200.48 68.51 202.61C68.51 204.74 67.19 206 65.06 206H62.73ZM65.06 205.09C66.51 205.09 67.37 204.17 67.37 202.61C67.37 201.03 66.51 200.11 65.06 200.11H63.85V205.09H65.06ZM74.3917 204.26C74.1017 205.5 73.1817 206.13 71.9317 206.13C70.3617 206.13 69.4017 205.08 69.4017 203.34C69.4017 201.53 70.3617 200.53 71.8817 200.53C73.4217 200.53 74.3517 201.57 74.3517 203.28V203.54H70.4917C70.5517 204.63 71.0617 205.24 71.9317 205.24C72.6117 205.24 73.0917 204.92 73.2717 204.26H74.3917ZM71.8817 201.42C71.1117 201.42 70.6517 201.91 70.5217 202.81H73.2417C73.1117 201.91 72.6417 201.42 71.8817 201.42ZM76.2734 202.07C76.2734 203.43 79.6834 202.29 79.6834 204.46C79.6834 205.47 78.7734 206.13 77.4834 206.13C76.1934 206.13 75.2834 205.53 75.0834 204.26H76.1534C76.2634 204.93 76.7634 205.3 77.5134 205.3C78.2334 205.3 78.6134 204.98 78.6134 204.53C78.6134 203.2 75.2534 204.32 75.2534 202.13C75.2534 201.3 75.9034 200.53 77.2534 200.53C78.4434 200.53 79.3234 201.08 79.4934 202.41H78.4234C78.3034 201.66 77.8834 201.38 77.2034 201.38C76.6134 201.38 76.2734 201.67 76.2734 202.07ZM80.6578 200.01V198.8H81.7278V200.01H80.6578ZM80.6578 206V200.67H81.7278V206H80.6578ZM84.9411 206.03C83.5811 206.03 82.7611 204.99 82.7611 203.29C82.7611 201.51 83.6011 200.53 84.9411 200.53C85.6211 200.53 86.1311 200.77 86.4711 201.23V200.67H87.5411V206.17C87.5411 207.63 86.5711 208.34 85.2911 208.34C84.0111 208.34 83.0911 207.74 82.9011 206.5H83.9711C84.0711 207.14 84.5811 207.48 85.2811 207.48C85.9911 207.48 86.4711 207.11 86.4711 206.19V205.29C86.1111 205.78 85.5911 206.03 84.9411 206.03ZM85.1611 205.13C86.0111 205.13 86.4711 204.48 86.4711 203.28C86.4711 202.11 85.9911 201.43 85.1611 201.43C84.3111 201.43 83.8511 202.08 83.8511 203.29C83.8511 204.46 84.3211 205.13 85.1611 205.13ZM88.8414 206V200.67H89.9114V201.38C90.2714 200.81 90.8314 200.53 91.5214 200.53C92.6314 200.53 93.3214 201.18 93.3214 202.44V206H92.2614V202.66C92.2614 201.89 91.9214 201.42 91.1914 201.42C90.3914 201.42 89.9114 202.13 89.9114 202.87V206H88.8414ZM99.3527 204.26C99.0627 205.5 98.1427 206.13 96.8927 206.13C95.3227 206.13 94.3627 205.08 94.3627 203.34C94.3627 201.53 95.3227 200.53 96.8427 200.53C98.3827 200.53 99.3127 201.57 99.3127 203.28V203.54H95.4527C95.5127 204.63 96.0227 205.24 96.8927 205.24C97.5727 205.24 98.0527 204.92 98.2327 204.26H99.3527ZM96.8427 201.42C96.0727 201.42 95.6127 201.91 95.4827 202.81H98.2027C98.0727 201.91 97.6027 201.42 96.8427 201.42ZM100.384 206V200.67H101.454V201.46C101.804 200.82 102.354 200.53 102.974 200.53C103.184 200.53 103.384 200.58 103.484 200.67V201.61C103.324 201.56 103.134 201.54 102.914 201.54C101.894 201.54 101.454 202.16 101.454 203.09V206H100.384Z" fill="white"/>
<path d="M125.528 183.826C125.199 183.515 124.718 183.42 124.295 183.57L109.275 188.897C108.8 189.066 108.47 189.521 108.501 190.041C108.532 190.559 108.913 190.971 109.401 191.087L116.223 192.699L117.924 199.139C118.056 199.637 118.505 199.971 119.004 199.998C119.502 200.025 119.985 199.742 120.174 199.265L125.806 185.057C125.977 184.624 125.862 184.142 125.528 183.826Z" fill="#4558ED" stroke="white" stroke-linecap="square" stroke-linejoin="round"/>
<rect x="212.25" y="77.25" width="117.5" height="139.5" rx="10.75" fill="#F4F4F4" stroke="#EDEDED" stroke-width="1.5"/>
<rect x="222" y="107" width="90" height="17" rx="2" fill="white"/>
<rect x="222" y="128" width="69" height="17" rx="2" fill="white"/>
<rect x="222" y="198" width="43" height="48" rx="2" transform="rotate(-90 222 198)" fill="white"/>
<rect x="276" y="198" width="43" height="47" rx="2" transform="rotate(-90 276 198)" fill="white"/>
<path d="M220 97H322" stroke="#F4F4F4" stroke-width="0.5" stroke-dasharray="2 2"/>
<rect x="326.887" y="113" width="59" height="19" rx="9.5" fill="#FF2F66"/>
<path d="M337.617 126V119.2H342.307V120.1H338.737V122.24H341.927V123.14H338.737V126H337.617ZM345.333 126.13C343.783 126.13 342.843 125.08 342.843 123.34C342.843 121.53 343.813 120.53 345.333 120.53C346.883 120.53 347.823 121.6 347.823 123.34C347.823 125.14 346.853 126.13 345.333 126.13ZM345.333 125.23C346.243 125.23 346.733 124.57 346.733 123.34C346.733 122.12 346.233 121.43 345.333 121.43C344.433 121.43 343.933 122.1 343.933 123.34C343.933 124.55 344.433 125.23 345.333 125.23ZM352.225 123.79V120.67H353.285V126H352.225V125.28C351.875 125.85 351.315 126.13 350.635 126.13C349.545 126.13 348.865 125.49 348.865 124.23V120.67H349.935V124.01C349.935 124.78 350.255 125.24 350.965 125.24C351.745 125.24 352.225 124.53 352.225 123.79ZM354.588 126V120.67H355.658V121.38C356.018 120.81 356.577 120.53 357.268 120.53C358.378 120.53 359.068 121.18 359.068 122.44V126H358.008V122.66C358.008 121.89 357.668 121.42 356.938 121.42C356.138 121.42 355.658 122.13 355.658 122.87V126H354.588ZM362.369 126.13C360.959 126.13 360.109 125.08 360.109 123.34C360.109 121.53 360.979 120.53 362.369 120.53C362.979 120.53 363.479 120.78 363.819 121.27V118.8H364.889V126H363.819V125.35C363.479 125.85 362.979 126.13 362.369 126.13ZM362.509 125.23C363.359 125.23 363.819 124.57 363.819 123.34C363.819 122.12 363.339 121.43 362.509 121.43C361.659 121.43 361.199 122.11 361.199 123.34C361.199 124.55 361.679 125.23 362.509 125.23ZM370.909 124.26C370.619 125.5 369.699 126.13 368.449 126.13C366.879 126.13 365.919 125.08 365.919 123.34C365.919 121.53 366.879 120.53 368.399 120.53C369.939 120.53 370.869 121.57 370.869 123.28V123.54H367.009C367.069 124.63 367.579 125.24 368.449 125.24C369.129 125.24 369.609 124.92 369.789 124.26H370.909ZM368.399 121.42C367.629 121.42 367.169 121.91 367.039 122.81H369.759C369.629 121.91 369.159 121.42 368.399 121.42ZM371.941 126V120.67H373.011V121.46C373.361 120.82 373.911 120.53 374.531 120.53C374.741 120.53 374.941 120.58 375.041 120.67V121.61C374.881 121.56 374.691 121.54 374.471 121.54C373.451 121.54 373.011 122.16 373.011 123.09V126H371.941Z" fill="white"/>
<path d="M307.856 99.8262C308.186 99.5147 308.667 99.4202 309.09 99.5703L324.109 104.897C324.585 105.066 324.915 105.521 324.884 106.041C324.852 106.559 324.472 106.971 323.983 107.087L317.162 108.699L315.461 115.139C315.329 115.637 314.88 115.971 314.381 115.998C313.882 116.025 313.4 115.742 313.211 115.265L307.579 101.057C307.408 100.624 307.523 100.142 307.856 99.8262Z" fill="#FF2F66" stroke="white" stroke-linecap="square" stroke-linejoin="round"/>
<rect x="265.001" y="179" width="35" height="19" rx="9.5" fill="#FF5E2D"/>
<path d="M275.731 192V185.2H278.151C279.741 185.2 280.721 186.03 280.721 187.39C280.721 188.78 279.721 189.59 278.171 189.59H276.851V192H275.731ZM278.141 186.1H276.851V188.69H278.111C279.051 188.69 279.571 188.19 279.571 187.4C279.571 186.61 279.041 186.1 278.141 186.1ZM281.834 192V185.2H283.344L285.264 189.91L285.494 190.63L285.724 189.91L287.624 185.2H289.094V192H287.974L288.004 186.49L287.514 187.95L285.864 192H285.064L283.404 187.94L282.924 186.52L282.954 192H281.834Z" fill="white"/>
<path d="M251.856 166.826C252.186 166.515 252.667 166.42 253.09 166.57L268.109 171.897C268.585 172.066 268.915 172.521 268.884 173.041C268.852 173.559 268.472 173.971 267.983 174.087L261.162 175.699L259.461 182.139C259.329 182.637 258.88 182.971 258.381 182.998C257.882 183.025 257.4 182.742 257.211 182.265L251.579 168.057C251.408 167.624 251.523 167.142 251.856 166.826Z" fill="#FF5E2D" stroke="white" stroke-linecap="square" stroke-linejoin="round"/>
<rect x="46" y="93" width="158.036" height="82" fill="white"/>
<rect x="113.836" y="104.182" width="8.94545" height="8.2" rx="0.745455" fill="#E0FFED"/>
<path d="M118.309 146.673C126.212 146.673 126.212 140.074 134.115 140.074C142.017 140.074 142.017 146.673 149.92 146.673C157.822 146.673 157.822 138.995 165.724 138.995C173.624 138.995 173.979 147.635 181.525 144.993C189.489 142.203 189.427 116.854 197.327 116.854" stroke="#5DD77B" stroke-width="0.745455"/>
<path d="M58.9609 107.056V106.591H62.2138V107.056H60.8499V110.928H60.3247V107.056H58.9609ZM63.8063 110.996C63.5127 110.996 63.255 110.926 63.0333 110.786C62.8131 110.646 62.6408 110.451 62.5166 110.199C62.3938 109.948 62.3324 109.654 62.3324 109.318C62.3324 108.979 62.3938 108.684 62.5166 108.431C62.6408 108.178 62.8131 107.982 63.0333 107.842C63.255 107.702 63.5127 107.632 63.8063 107.632C64.1 107.632 64.3569 107.702 64.5772 107.842C64.7989 107.982 64.9711 108.178 65.0939 108.431C65.2182 108.684 65.2803 108.979 65.2803 109.318C65.2803 109.654 65.2182 109.948 65.0939 110.199C64.9711 110.451 64.7989 110.646 64.5772 110.786C64.3569 110.926 64.1 110.996 63.8063 110.996ZM63.8063 110.547C64.0294 110.547 64.2129 110.489 64.3569 110.375C64.501 110.261 64.6075 110.11 64.6767 109.924C64.7459 109.738 64.7805 109.536 64.7805 109.318C64.7805 109.101 64.7459 108.898 64.6767 108.71C64.6075 108.523 64.501 108.371 64.3569 108.255C64.2129 108.139 64.0294 108.081 63.8063 108.081C63.5833 108.081 63.3997 108.139 63.2557 108.255C63.1117 108.371 63.0051 108.523 62.9359 108.71C62.8667 108.898 62.8321 109.101 62.8321 109.318C62.8321 109.536 62.8667 109.738 62.9359 109.924C63.0051 110.11 63.1117 110.261 63.2557 110.375C63.3997 110.489 63.5833 110.547 63.8063 110.547ZM67.4579 107.675V108.098H65.7721V107.675H67.4579ZM66.2635 106.896H66.7633V109.996C66.7633 110.137 66.7837 110.243 66.8247 110.314C66.867 110.383 66.9207 110.429 66.9856 110.453C67.052 110.476 67.1219 110.487 67.1953 110.487C67.2503 110.487 67.2955 110.484 67.3308 110.479C67.3661 110.472 67.3944 110.466 67.4155 110.462L67.5172 110.911C67.4833 110.923 67.436 110.936 67.3753 110.949C67.3146 110.963 67.2376 110.97 67.1445 110.97C67.0033 110.97 66.8649 110.94 66.7294 110.879C66.5952 110.818 66.4837 110.726 66.3948 110.602C66.3072 110.477 66.2635 110.321 66.2635 110.131V106.896ZM69.1669 111.004C68.9608 111.004 68.7737 110.965 68.6057 110.887C68.4377 110.808 68.3043 110.695 68.2055 110.547C68.1066 110.397 68.0572 110.216 68.0572 110.004C68.0572 109.818 68.0939 109.667 68.1673 109.551C68.2408 109.434 68.3389 109.342 68.4617 109.276C68.5845 109.21 68.7201 109.16 68.8683 109.128C69.018 109.094 69.1683 109.067 69.3194 109.047C69.5171 109.022 69.6773 109.003 69.8001 108.99C69.9244 108.976 70.0147 108.953 70.0712 108.92C70.1291 108.888 70.158 108.831 70.158 108.751V108.734C70.158 108.525 70.1009 108.362 69.9865 108.247C69.8736 108.131 69.702 108.073 69.4719 108.073C69.2333 108.073 69.0462 108.125 68.9107 108.23C68.7751 108.334 68.6798 108.446 68.6248 108.564L68.1504 108.395C68.2351 108.197 68.3481 108.043 68.4892 107.933C68.6318 107.822 68.7871 107.744 68.9551 107.7C69.1246 107.655 69.2912 107.632 69.4549 107.632C69.5594 107.632 69.6794 107.645 69.815 107.671C69.9519 107.695 70.0839 107.745 70.211 107.821C70.3395 107.897 70.4461 108.012 70.5308 108.166C70.6155 108.32 70.6578 108.526 70.6578 108.785V110.928H70.158V110.487H70.1326C70.0987 110.558 70.0423 110.633 69.9632 110.714C69.8841 110.794 69.779 110.863 69.6477 110.919C69.5164 110.976 69.3561 111.004 69.1669 111.004ZM69.2432 110.555C69.4408 110.555 69.6074 110.516 69.743 110.439C69.8799 110.361 69.983 110.261 70.0522 110.138C70.1227 110.015 70.158 109.886 70.158 109.75V109.293C70.1369 109.318 70.0903 109.342 70.0183 109.363C69.9477 109.382 69.8658 109.4 69.7726 109.416C69.6808 109.43 69.5912 109.442 69.5036 109.454C69.4175 109.464 69.3476 109.472 69.294 109.479C69.1641 109.496 69.0427 109.524 68.9297 109.562C68.8182 109.598 68.7278 109.654 68.6587 109.729C68.5909 109.802 68.557 109.903 68.557 110.03C68.557 110.203 68.6212 110.335 68.7497 110.424C68.8796 110.511 69.0441 110.555 69.2432 110.555ZM72.0699 106.591V110.928H71.5701V106.591H72.0699ZM78.3898 108.759C78.3898 109.217 78.3072 109.612 78.142 109.945C77.9768 110.278 77.7502 110.535 77.4622 110.716C77.1742 110.897 76.8452 110.987 76.4753 110.987C76.1054 110.987 75.7765 110.897 75.4885 110.716C75.2004 110.535 74.9738 110.278 74.8087 109.945C74.6435 109.612 74.5609 109.217 74.5609 108.759C74.5609 108.302 74.6435 107.906 74.8087 107.573C74.9738 107.24 75.2004 106.983 75.4885 106.802C75.7765 106.622 76.1054 106.531 76.4753 106.531C76.8452 106.531 77.1742 106.622 77.4622 106.802C77.7502 106.983 77.9768 107.24 78.142 107.573C78.3072 107.906 78.3898 108.302 78.3898 108.759ZM77.8815 108.759C77.8815 108.384 77.8187 108.067 77.6931 107.808C77.5688 107.55 77.4001 107.354 77.1869 107.222C76.9751 107.089 76.7379 107.023 76.4753 107.023C76.2127 107.023 75.9748 107.089 75.7617 107.222C75.5499 107.354 75.3812 107.55 75.2555 107.808C75.1313 108.067 75.0691 108.384 75.0691 108.759C75.0691 109.135 75.1313 109.452 75.2555 109.71C75.3812 109.968 75.5499 110.164 75.7617 110.297C75.9748 110.429 76.2127 110.496 76.4753 110.496C76.7379 110.496 76.9751 110.429 77.1869 110.297C77.4001 110.164 77.5688 109.968 77.6931 109.71C77.8187 109.452 77.8815 109.135 77.8815 108.759ZM79.2051 110.928V107.675H79.688V108.166H79.7219C79.7812 108.005 79.8885 107.875 80.0438 107.774C80.1991 107.674 80.3742 107.624 80.569 107.624C80.6057 107.624 80.6516 107.625 80.7066 107.626C80.7617 107.628 80.8034 107.63 80.8316 107.632V108.141C80.8147 108.137 80.7758 108.13 80.7151 108.122C80.6558 108.112 80.593 108.107 80.5266 108.107C80.3685 108.107 80.2273 108.14 80.1031 108.206C79.9803 108.271 79.8828 108.362 79.8108 108.477C79.7402 108.592 79.7049 108.722 79.7049 108.869V110.928H79.2051ZM82.5533 110.996C82.2823 110.996 82.043 110.927 81.8354 110.79C81.6279 110.652 81.4655 110.457 81.3483 110.206C81.2311 109.953 81.1726 109.654 81.1726 109.31C81.1726 108.968 81.2311 108.672 81.3483 108.42C81.4655 108.169 81.6286 107.975 81.8375 107.838C82.0465 107.701 82.2879 107.632 82.5618 107.632C82.7736 107.632 82.9409 107.668 83.0637 107.738C83.188 107.808 83.2826 107.887 83.3475 107.976C83.4139 108.063 83.4654 108.135 83.5021 108.192H83.5445V106.591H84.0442V110.928H83.5614V110.428H83.5021C83.4654 110.487 83.4132 110.562 83.3454 110.652C83.2776 110.741 83.1809 110.821 83.0553 110.892C82.9296 110.961 82.7623 110.996 82.5533 110.996ZM82.6211 110.547C82.8216 110.547 82.991 110.494 83.1294 110.39C83.2677 110.284 83.3729 110.138 83.4449 109.951C83.5169 109.764 83.5529 109.547 83.5529 109.301C83.5529 109.058 83.5176 108.846 83.447 108.664C83.3764 108.48 83.272 108.338 83.1336 108.236C82.9952 108.133 82.8244 108.081 82.6211 108.081C82.4093 108.081 82.2329 108.136 82.0917 108.245C81.9519 108.352 81.8467 108.498 81.7761 108.683C81.7069 108.866 81.6723 109.073 81.6723 109.301C81.6723 109.533 81.7076 109.743 81.7782 109.932C81.8502 110.12 81.9561 110.27 82.0959 110.381C82.2371 110.491 82.4122 110.547 82.6211 110.547ZM86.3929 110.996C86.0794 110.996 85.8091 110.926 85.5817 110.788C85.3559 110.648 85.1815 110.453 85.0587 110.203C84.9372 109.952 84.8765 109.66 84.8765 109.327C84.8765 108.994 84.9372 108.7 85.0587 108.446C85.1815 108.19 85.3523 107.991 85.5712 107.848C85.7914 107.704 86.0484 107.632 86.342 107.632C86.5114 107.632 86.6788 107.661 86.8439 107.717C87.0091 107.774 87.1595 107.865 87.295 107.993C87.4306 108.118 87.5386 108.285 87.619 108.492C87.6995 108.7 87.7398 108.955 87.7398 109.259V109.471H85.2323V109.039H87.2315C87.2315 108.855 87.1948 108.691 87.1214 108.547C87.0494 108.403 86.9463 108.29 86.8122 108.206C86.6795 108.123 86.5227 108.081 86.342 108.081C86.143 108.081 85.9707 108.131 85.8253 108.23C85.6813 108.327 85.5705 108.454 85.4928 108.611C85.4152 108.768 85.3763 108.936 85.3763 109.115V109.403C85.3763 109.649 85.4187 109.857 85.5034 110.028C85.5895 110.197 85.7088 110.326 85.8613 110.415C86.0138 110.503 86.191 110.547 86.3929 110.547C86.5242 110.547 86.6428 110.528 86.7486 110.491C86.8559 110.453 86.9484 110.397 87.0261 110.322C87.1037 110.246 87.1637 110.151 87.2061 110.038L87.6889 110.174C87.6381 110.338 87.5527 110.482 87.4327 110.606C87.3127 110.729 87.1644 110.825 86.9879 110.894C86.8115 110.962 86.6131 110.996 86.3929 110.996ZM88.5 110.928V107.675H88.9829V108.166H89.0168C89.0761 108.005 89.1834 107.875 89.3387 107.774C89.494 107.674 89.669 107.624 89.8639 107.624C89.9006 107.624 89.9465 107.625 90.0015 107.626C90.0566 107.628 90.0982 107.63 90.1265 107.632V108.141C90.1095 108.137 90.0707 108.13 90.01 108.122C89.9507 108.112 89.8879 108.107 89.8215 108.107C89.6634 108.107 89.5222 108.14 89.398 108.206C89.2751 108.271 89.1777 108.362 89.1057 108.477C89.0351 108.592 88.9998 108.722 88.9998 108.869V110.928H88.5ZM93.0231 108.403L92.5741 108.53C92.5459 108.456 92.5042 108.383 92.4491 108.312C92.3955 108.24 92.3221 108.181 92.2289 108.134C92.1357 108.088 92.0164 108.065 91.871 108.065C91.6719 108.065 91.506 108.11 91.3733 108.202C91.242 108.293 91.1764 108.408 91.1764 108.547C91.1764 108.672 91.2215 108.77 91.3119 108.842C91.4023 108.914 91.5434 108.974 91.7355 109.022L92.2183 109.14C92.5091 109.211 92.7259 109.319 92.8685 109.464C93.0111 109.608 93.0824 109.794 93.0824 110.021C93.0824 110.208 93.0287 110.374 92.9214 110.521C92.8155 110.668 92.6673 110.784 92.4767 110.868C92.2861 110.953 92.0644 110.996 91.8117 110.996C91.4799 110.996 91.2053 110.923 90.9879 110.779C90.7705 110.635 90.6328 110.425 90.5749 110.148L91.0493 110.03C91.0945 110.205 91.1799 110.336 91.3055 110.424C91.4326 110.511 91.5985 110.555 91.8032 110.555C92.0362 110.555 92.2211 110.506 92.3581 110.407C92.4964 110.307 92.5656 110.187 92.5656 110.047C92.5656 109.934 92.5261 109.839 92.447 109.763C92.368 109.685 92.2465 109.627 92.0828 109.589L91.5406 109.462C91.2427 109.392 91.0239 109.282 90.8841 109.134C90.7458 108.984 90.6766 108.797 90.6766 108.573C90.6766 108.389 90.7281 108.227 90.8312 108.086C90.9356 107.945 91.0775 107.834 91.2568 107.753C91.4376 107.673 91.6423 107.632 91.871 107.632C92.1929 107.632 92.4456 107.703 92.6292 107.844C92.8141 107.985 92.9454 108.172 93.0231 108.403Z" fill="#7A7A7A"/>
<path d="M76.1064 156.256V155.79H79.3593V156.256H77.9954V160.127H77.4702V156.256H76.1064ZM80.9518 160.195C80.6582 160.195 80.4005 160.125 80.1788 159.985C79.9586 159.845 79.7864 159.65 79.6621 159.398C79.5393 159.147 79.4779 158.853 79.4779 158.517C79.4779 158.179 79.5393 157.883 79.6621 157.63C79.7864 157.377 79.9586 157.181 80.1788 157.041C80.4005 156.902 80.6582 156.832 80.9518 156.832C81.2455 156.832 81.5025 156.902 81.7227 157.041C81.9444 157.181 82.1166 157.377 82.2394 157.63C82.3637 157.883 82.4258 158.179 82.4258 158.517C82.4258 158.853 82.3637 159.147 82.2394 159.398C82.1166 159.65 81.9444 159.845 81.7227 159.985C81.5025 160.125 81.2455 160.195 80.9518 160.195ZM80.9518 159.746C81.1749 159.746 81.3584 159.689 81.5025 159.574C81.6465 159.46 81.7531 159.309 81.8222 159.123C81.8914 158.937 81.926 158.735 81.926 158.517C81.926 158.3 81.8914 158.097 81.8222 157.91C81.7531 157.722 81.6465 157.57 81.5025 157.454C81.3584 157.339 81.1749 157.281 80.9518 157.281C80.7288 157.281 80.5452 157.339 80.4012 157.454C80.2572 157.57 80.1506 157.722 80.0814 157.91C80.0122 158.097 79.9777 158.3 79.9777 158.517C79.9777 158.735 80.0122 158.937 80.0814 159.123C80.1506 159.309 80.2572 159.46 80.4012 159.574C80.5452 159.689 80.7288 159.746 80.9518 159.746ZM84.417 160.195C84.146 160.195 83.9066 160.126 83.6991 159.989C83.4916 159.851 83.3292 159.656 83.212 159.405C83.0948 159.152 83.0362 158.853 83.0362 158.509C83.0362 158.167 83.0948 157.871 83.212 157.62C83.3292 157.368 83.4923 157.174 83.7012 157.037C83.9102 156.9 84.1516 156.832 84.4255 156.832C84.6373 156.832 84.8046 156.867 84.9274 156.938C85.0517 157.007 85.1462 157.086 85.2112 157.175C85.2775 157.262 85.3291 157.334 85.3658 157.391H85.4081V155.79H85.9079V160.127H85.4251V159.627H85.3658C85.3291 159.686 85.2768 159.761 85.2091 159.852C85.1413 159.941 85.0446 160.02 84.9189 160.091C84.7933 160.16 84.626 160.195 84.417 160.195ZM84.4848 159.746C84.6853 159.746 84.8547 159.694 84.9931 159.589C85.1314 159.483 85.2366 159.337 85.3086 159.151C85.3806 158.963 85.4166 158.746 85.4166 158.501C85.4166 158.258 85.3813 158.045 85.3107 157.863C85.2401 157.68 85.1357 157.537 84.9973 157.435C84.8589 157.332 84.6881 157.281 84.4848 157.281C84.273 157.281 84.0965 157.335 83.9554 157.444C83.8156 157.551 83.7104 157.697 83.6398 157.882C83.5706 158.066 83.536 158.272 83.536 158.501C83.536 158.732 83.5713 158.942 83.6419 159.132C83.7139 159.319 83.8198 159.469 83.9596 159.581C84.1008 159.691 84.2758 159.746 84.4848 159.746ZM87.8499 160.203C87.6438 160.203 87.4567 160.164 87.2887 160.087C87.1207 160.008 86.9873 159.894 86.8885 159.746C86.7896 159.596 86.7402 159.415 86.7402 159.204C86.7402 159.017 86.7769 158.866 86.8503 158.75C86.9238 158.633 87.0219 158.541 87.1447 158.475C87.2675 158.409 87.4031 158.359 87.5513 158.327C87.701 158.293 87.8513 158.266 88.0024 158.246C88.2001 158.221 88.3603 158.202 88.4831 158.189C88.6074 158.175 88.6977 158.152 88.7542 158.119C88.8121 158.087 88.841 158.03 88.841 157.95V157.933C88.841 157.724 88.7839 157.562 88.6695 157.446C88.5566 157.33 88.385 157.272 88.1549 157.272C87.9163 157.272 87.7292 157.324 87.5937 157.429C87.4581 157.533 87.3628 157.645 87.3078 157.764L86.8334 157.594C86.9181 157.396 87.0311 157.243 87.1722 157.132C87.3148 157.021 87.4701 156.943 87.6382 156.899C87.8076 156.854 87.9742 156.832 88.1379 156.832C88.2424 156.832 88.3624 156.844 88.498 156.87C88.6349 156.894 88.7669 156.944 88.894 157.02C89.0225 157.096 89.1291 157.211 89.2138 157.365C89.2985 157.519 89.3408 157.725 89.3408 157.984V160.127H88.841V159.686H88.8156C88.7818 159.757 88.7253 159.833 88.6462 159.913C88.5671 159.994 88.462 160.062 88.3307 160.118C88.1994 160.175 88.0391 160.203 87.8499 160.203ZM87.9262 159.754C88.1238 159.754 88.2904 159.715 88.426 159.638C88.5629 159.56 88.666 159.46 88.7352 159.337C88.8058 159.214 88.841 159.085 88.841 158.949V158.492C88.8199 158.517 88.7733 158.541 88.7013 158.562C88.6307 158.582 88.5488 158.599 88.4556 158.615C88.3638 158.629 88.2742 158.642 88.1867 158.653C88.1005 158.663 88.0306 158.671 87.977 158.678C87.8471 158.695 87.7257 158.723 87.6127 158.761C87.5012 158.798 87.4108 158.853 87.3417 158.928C87.2739 159.002 87.24 159.102 87.24 159.229C87.24 159.403 87.3043 159.534 87.4327 159.623C87.5626 159.71 87.7271 159.754 87.9262 159.754ZM90.4585 161.347C90.3738 161.347 90.2982 161.34 90.2319 161.326C90.1655 161.313 90.1197 161.3 90.0942 161.287L90.2213 160.847C90.3427 160.878 90.45 160.889 90.5432 160.881C90.6364 160.872 90.719 160.831 90.791 160.756C90.8644 160.683 90.9315 160.563 90.9922 160.398L91.0854 160.144L89.8825 156.874H90.4246L91.3225 159.466H91.3564L92.2544 156.874H92.7965L91.4157 160.601C91.3536 160.769 91.2767 160.908 91.1849 161.019C91.0931 161.13 90.9865 161.213 90.8651 161.266C90.7451 161.32 90.6096 161.347 90.4585 161.347Z" fill="#7A7A7A"/>
<path d="M147.907 110.928V106.591H149.373C149.713 106.591 149.991 106.652 150.207 106.775C150.424 106.896 150.585 107.061 150.69 107.268C150.794 107.476 150.847 107.707 150.847 107.963C150.847 108.218 150.794 108.451 150.69 108.66C150.587 108.869 150.427 109.035 150.211 109.159C149.995 109.282 149.718 109.344 149.381 109.344H148.331V108.878H149.364C149.597 108.878 149.784 108.837 149.925 108.757C150.066 108.677 150.169 108.568 150.232 108.431C150.297 108.293 150.33 108.137 150.33 107.963C150.33 107.789 150.297 107.634 150.232 107.497C150.169 107.36 150.066 107.253 149.923 107.175C149.781 107.096 149.591 107.056 149.356 107.056H148.432V110.928H147.907ZM152.582 111.004C152.376 111.004 152.189 110.965 152.021 110.887C151.853 110.808 151.719 110.695 151.621 110.547C151.522 110.397 151.472 110.216 151.472 110.004C151.472 109.818 151.509 109.667 151.582 109.551C151.656 109.434 151.754 109.342 151.877 109.276C152 109.21 152.135 109.16 152.283 109.128C152.433 109.094 152.583 109.067 152.734 109.047C152.932 109.022 153.092 109.003 153.215 108.99C153.339 108.976 153.43 108.953 153.486 108.92C153.544 108.888 153.573 108.831 153.573 108.751V108.734C153.573 108.525 153.516 108.362 153.402 108.247C153.289 108.131 153.117 108.073 152.887 108.073C152.648 108.073 152.461 108.125 152.326 108.23C152.19 108.334 152.095 108.446 152.04 108.564L151.565 108.395C151.65 108.197 151.763 108.043 151.904 107.933C152.047 107.822 152.202 107.744 152.37 107.7C152.54 107.655 152.706 107.632 152.87 107.632C152.975 107.632 153.095 107.645 153.23 107.671C153.367 107.695 153.499 107.745 153.626 107.821C153.755 107.897 153.861 108.012 153.946 108.166C154.031 108.32 154.073 108.526 154.073 108.785V110.928H153.573V110.487H153.548C153.514 110.558 153.457 110.633 153.378 110.714C153.299 110.794 153.194 110.863 153.063 110.919C152.931 110.976 152.771 111.004 152.582 111.004ZM152.658 110.555C152.856 110.555 153.023 110.516 153.158 110.439C153.295 110.361 153.398 110.261 153.467 110.138C153.538 110.015 153.573 109.886 153.573 109.75V109.293C153.552 109.318 153.505 109.342 153.433 109.363C153.363 109.382 153.281 109.4 153.188 109.416C153.096 109.43 153.006 109.442 152.919 109.454C152.833 109.464 152.763 109.472 152.709 109.479C152.579 109.496 152.458 109.524 152.345 109.562C152.233 109.598 152.143 109.654 152.074 109.729C152.006 109.802 151.972 109.903 151.972 110.03C151.972 110.203 152.036 110.335 152.165 110.424C152.295 110.511 152.459 110.555 152.658 110.555ZM157.289 108.403L156.84 108.53C156.812 108.456 156.77 108.383 156.715 108.312C156.662 108.24 156.588 108.181 156.495 108.134C156.402 108.088 156.283 108.065 156.137 108.065C155.938 108.065 155.772 108.11 155.64 108.202C155.508 108.293 155.443 108.408 155.443 108.547C155.443 108.672 155.488 108.77 155.578 108.842C155.668 108.914 155.81 108.974 156.002 109.022L156.485 109.14C156.775 109.211 156.992 109.319 157.135 109.464C157.277 109.608 157.349 109.794 157.349 110.021C157.349 110.208 157.295 110.374 157.188 110.521C157.082 110.668 156.934 110.784 156.743 110.868C156.552 110.953 156.331 110.996 156.078 110.996C155.746 110.996 155.472 110.923 155.254 110.779C155.037 110.635 154.899 110.425 154.841 110.148L155.316 110.03C155.361 110.205 155.446 110.336 155.572 110.424C155.699 110.511 155.865 110.555 156.069 110.555C156.302 110.555 156.487 110.506 156.624 110.407C156.763 110.307 156.832 110.187 156.832 110.047C156.832 109.934 156.792 109.839 156.713 109.763C156.634 109.685 156.513 109.627 156.349 109.589L155.807 109.462C155.509 109.392 155.29 109.282 155.15 109.134C155.012 108.984 154.943 108.797 154.943 108.573C154.943 108.389 154.994 108.227 155.097 108.086C155.202 107.945 155.344 107.834 155.523 107.753C155.704 107.673 155.909 107.632 156.137 107.632C156.459 107.632 156.712 107.703 156.895 107.844C157.08 107.985 157.212 108.172 157.289 108.403ZM159.516 107.675V108.098H157.83V107.675H159.516ZM158.321 106.896H158.821V109.996C158.821 110.137 158.841 110.243 158.882 110.314C158.925 110.383 158.978 110.429 159.043 110.453C159.11 110.476 159.18 110.487 159.253 110.487C159.308 110.487 159.353 110.484 159.389 110.479C159.424 110.472 159.452 110.466 159.473 110.462L159.575 110.911C159.541 110.923 159.494 110.936 159.433 110.949C159.372 110.963 159.295 110.97 159.202 110.97C159.061 110.97 158.923 110.94 158.787 110.879C158.653 110.818 158.541 110.726 158.452 110.602C158.365 110.477 158.321 110.321 158.321 110.131V106.896ZM163.402 110.987C163.122 110.987 162.873 110.939 162.654 110.843C162.437 110.747 162.264 110.614 162.135 110.443C162.008 110.271 161.939 110.071 161.928 109.843H162.461C162.473 109.983 162.521 110.104 162.605 110.206C162.69 110.306 162.801 110.383 162.938 110.439C163.075 110.494 163.227 110.521 163.393 110.521C163.58 110.521 163.745 110.489 163.889 110.424C164.033 110.359 164.146 110.268 164.228 110.153C164.31 110.037 164.35 109.903 164.35 109.75C164.35 109.591 164.311 109.45 164.232 109.329C164.153 109.206 164.037 109.11 163.885 109.041C163.732 108.972 163.546 108.937 163.325 108.937H162.978V108.471H163.325C163.498 108.471 163.649 108.44 163.779 108.378C163.91 108.316 164.012 108.228 164.086 108.115C164.161 108.002 164.198 107.87 164.198 107.717C164.198 107.57 164.166 107.443 164.101 107.334C164.036 107.225 163.944 107.14 163.825 107.08C163.708 107.019 163.57 106.989 163.41 106.989C163.261 106.989 163.119 107.016 162.987 107.071C162.855 107.125 162.748 107.203 162.665 107.306C162.581 107.408 162.536 107.531 162.529 107.675H162.021C162.029 107.448 162.098 107.248 162.226 107.078C162.355 106.905 162.523 106.771 162.73 106.675C162.939 106.579 163.169 106.531 163.419 106.531C163.687 106.531 163.917 106.586 164.109 106.694C164.301 106.802 164.449 106.944 164.552 107.12C164.655 107.296 164.706 107.487 164.706 107.692C164.706 107.936 164.642 108.144 164.514 108.317C164.386 108.489 164.214 108.608 163.995 108.674V108.708C164.269 108.753 164.482 108.87 164.636 109.058C164.79 109.244 164.867 109.475 164.867 109.75C164.867 109.986 164.803 110.198 164.674 110.386C164.547 110.572 164.374 110.719 164.154 110.826C163.933 110.933 163.683 110.987 163.402 110.987ZM167.148 110.987C166.829 110.987 166.557 110.9 166.333 110.727C166.108 110.551 165.937 110.298 165.818 109.966C165.699 109.633 165.64 109.231 165.64 108.759C165.64 108.29 165.699 107.89 165.818 107.558C165.938 107.225 166.11 106.971 166.335 106.796C166.561 106.619 166.832 106.531 167.148 106.531C167.464 106.531 167.735 106.619 167.959 106.796C168.185 106.971 168.357 107.225 168.476 107.558C168.596 107.89 168.656 108.29 168.656 108.759C168.656 109.231 168.597 109.633 168.478 109.966C168.359 110.298 168.188 110.551 167.963 110.727C167.739 110.9 167.467 110.987 167.148 110.987ZM167.148 110.521C167.464 110.521 167.71 110.369 167.885 110.064C168.06 109.759 168.148 109.324 168.148 108.759C168.148 108.384 168.107 108.064 168.027 107.8C167.948 107.536 167.833 107.335 167.684 107.196C167.536 107.058 167.357 106.989 167.148 106.989C166.835 106.989 166.59 107.143 166.413 107.452C166.237 107.76 166.148 108.196 166.148 108.759C166.148 109.135 166.188 109.454 166.267 109.716C166.346 109.979 166.46 110.179 166.608 110.316C166.758 110.453 166.938 110.521 167.148 110.521ZM172.553 110.928H171.214V106.591H172.612C173.033 106.591 173.393 106.677 173.692 106.851C173.991 107.023 174.221 107.271 174.38 107.594C174.54 107.916 174.62 108.302 174.62 108.751C174.62 109.202 174.539 109.591 174.378 109.918C174.217 110.242 173.983 110.492 173.675 110.667C173.367 110.841 172.993 110.928 172.553 110.928ZM171.739 110.462H172.519C172.877 110.462 173.174 110.393 173.41 110.254C173.646 110.116 173.822 109.919 173.938 109.663C174.053 109.408 174.111 109.104 174.111 108.751C174.111 108.401 174.054 108.099 173.94 107.846C173.825 107.592 173.655 107.397 173.427 107.262C173.2 107.125 172.917 107.056 172.578 107.056H171.739V110.462ZM176.39 111.004C176.184 111.004 175.997 110.965 175.829 110.887C175.661 110.808 175.527 110.695 175.429 110.547C175.33 110.397 175.28 110.216 175.28 110.004C175.28 109.818 175.317 109.667 175.39 109.551C175.464 109.434 175.562 109.342 175.685 109.276C175.808 109.21 175.943 109.16 176.091 109.128C176.241 109.094 176.391 109.067 176.542 109.047C176.74 109.022 176.9 109.003 177.023 108.99C177.147 108.976 177.238 108.953 177.294 108.92C177.352 108.888 177.381 108.831 177.381 108.751V108.734C177.381 108.525 177.324 108.362 177.21 108.247C177.097 108.131 176.925 108.073 176.695 108.073C176.456 108.073 176.269 108.125 176.134 108.23C175.998 108.334 175.903 108.446 175.848 108.564L175.373 108.395C175.458 108.197 175.571 108.043 175.712 107.933C175.855 107.822 176.01 107.744 176.178 107.7C176.348 107.655 176.514 107.632 176.678 107.632C176.782 107.632 176.902 107.645 177.038 107.671C177.175 107.695 177.307 107.745 177.434 107.821C177.563 107.897 177.669 108.012 177.754 108.166C177.839 108.32 177.881 108.526 177.881 108.785V110.928H177.381V110.487H177.356C177.322 110.558 177.265 110.633 177.186 110.714C177.107 110.794 177.002 110.863 176.871 110.919C176.739 110.976 176.579 111.004 176.39 111.004ZM176.466 110.555C176.664 110.555 176.83 110.516 176.966 110.439C177.103 110.361 177.206 110.261 177.275 110.138C177.346 110.015 177.381 109.886 177.381 109.75V109.293C177.36 109.318 177.313 109.342 177.241 109.363C177.171 109.382 177.089 109.4 176.996 109.416C176.904 109.43 176.814 109.442 176.727 109.454C176.641 109.464 176.571 109.472 176.517 109.479C176.387 109.496 176.266 109.524 176.153 109.562C176.041 109.598 175.951 109.654 175.882 109.729C175.814 109.802 175.78 109.903 175.78 110.03C175.78 110.203 175.844 110.335 175.973 110.424C176.103 110.511 176.267 110.555 176.466 110.555ZM178.999 112.148C178.914 112.148 178.838 112.141 178.772 112.126C178.706 112.114 178.66 112.101 178.634 112.088L178.761 111.648C178.883 111.679 178.99 111.69 179.083 111.682C179.176 111.673 179.259 111.632 179.331 111.557C179.404 111.483 179.472 111.364 179.532 111.199L179.625 110.945L178.423 107.675H178.965L179.863 110.267H179.896L180.794 107.675H181.337L179.956 111.402C179.894 111.57 179.817 111.709 179.725 111.819C179.633 111.931 179.527 112.013 179.405 112.067C179.285 112.121 179.15 112.148 178.999 112.148ZM184.3 108.403L183.851 108.53C183.823 108.456 183.782 108.383 183.726 108.312C183.673 108.24 183.599 108.181 183.506 108.134C183.413 108.088 183.294 108.065 183.148 108.065C182.949 108.065 182.783 108.11 182.651 108.202C182.519 108.293 182.454 108.408 182.454 108.547C182.454 108.672 182.499 108.77 182.589 108.842C182.68 108.914 182.821 108.974 183.013 109.022L183.496 109.14C183.786 109.211 184.003 109.319 184.146 109.464C184.288 109.608 184.36 109.794 184.36 110.021C184.36 110.208 184.306 110.374 184.199 110.521C184.093 110.668 183.945 110.784 183.754 110.868C183.563 110.953 183.342 110.996 183.089 110.996C182.757 110.996 182.483 110.923 182.265 110.779C182.048 110.635 181.91 110.425 181.852 110.148L182.327 110.03C182.372 110.205 182.457 110.336 182.583 110.424C182.71 110.511 182.876 110.555 183.081 110.555C183.313 110.555 183.498 110.506 183.635 110.407C183.774 110.307 183.843 110.187 183.843 110.047C183.843 109.934 183.803 109.839 183.724 109.763C183.645 109.685 183.524 109.627 183.36 109.589L182.818 109.462C182.52 109.392 182.301 109.282 182.161 109.134C182.023 108.984 181.954 108.797 181.954 108.573C181.954 108.389 182.005 108.227 182.108 108.086C182.213 107.945 182.355 107.834 182.534 107.753C182.715 107.673 182.92 107.632 183.148 107.632C183.47 107.632 183.723 107.703 183.906 107.844C184.091 107.985 184.223 108.172 184.3 108.403Z" fill="#7A7A7A"/>
<path d="M63.1029 136.752V149.764H61.5273V138.404H61.4511L58.2744 140.513V138.912L61.5273 136.752H63.1029ZM70.9111 149.942C70.1657 149.942 69.4943 149.793 68.8971 149.497C68.2999 149.2 67.8213 148.794 67.4613 148.277C67.1013 147.76 66.9043 147.172 66.8704 146.511H68.3952C68.4545 147.1 68.7214 147.587 69.1957 147.972C69.6744 148.353 70.2462 148.544 70.9111 148.544C71.4448 148.544 71.9192 148.419 72.3343 148.169C72.7536 147.919 73.0818 147.576 73.319 147.14C73.5605 146.699 73.6812 146.202 73.6812 145.647C73.6812 145.079 73.5562 144.573 73.3063 144.128C73.0607 143.679 72.7218 143.326 72.2898 143.067C71.8578 142.809 71.3643 142.678 70.8095 142.673C70.4113 142.669 70.0026 142.731 69.5833 142.858C69.164 142.98 68.8188 143.139 68.5477 143.334L67.0737 143.156L67.8615 136.752H74.6215V138.15H69.183L68.7256 141.987H68.8018C69.0687 141.775 69.4033 141.6 69.8057 141.46C70.208 141.32 70.6274 141.25 71.0636 141.25C71.8599 141.25 72.5693 141.441 73.192 141.822C73.8188 142.199 74.3102 142.716 74.6659 143.372C75.026 144.029 75.206 144.778 75.206 145.621C75.206 146.451 75.0196 147.193 74.6469 147.845C74.2784 148.493 73.7701 149.006 73.1221 149.382C72.474 149.755 71.7371 149.942 70.9111 149.942ZM77.7298 149.764V148.62L82.0247 143.919C82.5287 143.368 82.9438 142.889 83.2699 142.483C83.596 142.072 83.8375 141.687 83.9942 141.326C84.1551 140.962 84.2356 140.581 84.2356 140.183C84.2356 139.725 84.1255 139.329 83.9052 138.995C83.6892 138.66 83.3927 138.402 83.0158 138.22C82.6388 138.038 82.2153 137.947 81.7451 137.947C81.2453 137.947 80.8091 138.05 80.4363 138.258C80.0678 138.461 79.7819 138.747 79.5786 139.116C79.3796 139.484 79.28 139.916 79.28 140.412H77.7806C77.7806 139.649 77.9564 138.98 78.308 138.404C78.6595 137.828 79.1381 137.379 79.7438 137.057C80.3537 136.735 81.0378 136.574 81.7959 136.574C82.5583 136.574 83.2339 136.735 83.8226 137.057C84.4114 137.379 84.8731 137.813 85.2077 138.359C85.5423 138.906 85.7096 139.514 85.7096 140.183C85.7096 140.662 85.6227 141.13 85.4491 141.587C85.2797 142.04 84.9832 142.546 84.5596 143.105C84.1403 143.66 83.5579 144.338 82.8125 145.138L79.8899 148.264V148.366H85.9383V149.764H77.7298ZM92.9587 149.942C92.1201 149.942 91.3725 149.798 90.716 149.51C90.0637 149.222 89.5449 148.821 89.1594 148.309C88.7782 147.792 88.5707 147.193 88.5368 146.511H90.1378C90.1717 146.93 90.3157 147.292 90.5699 147.597C90.824 147.898 91.1565 148.131 91.5673 148.296C91.9782 148.461 92.4335 148.544 92.9333 148.544C93.4924 148.544 93.9879 148.446 94.42 148.252C94.852 148.057 95.1908 147.786 95.4365 147.438C95.6821 147.091 95.805 146.689 95.805 146.231C95.805 145.753 95.6864 145.331 95.4492 144.967C95.212 144.598 94.8647 144.31 94.4072 144.103C93.9498 143.895 93.3907 143.792 92.73 143.792H91.688V142.394H92.73C93.2467 142.394 93.6999 142.301 94.0896 142.114C94.4835 141.928 94.7906 141.665 95.0108 141.326C95.2353 140.988 95.3475 140.589 95.3475 140.132C95.3475 139.692 95.2501 139.308 95.0553 138.982C94.8605 138.656 94.5851 138.402 94.2294 138.22C93.8778 138.038 93.4627 137.947 92.9841 137.947C92.5351 137.947 92.1116 138.029 91.7134 138.194C91.3195 138.355 90.9976 138.59 90.7477 138.9C90.4978 139.204 90.3623 139.573 90.3411 140.005H88.8163C88.8418 139.323 89.0472 138.726 89.4326 138.213C89.818 137.697 90.3221 137.294 90.9447 137.006C91.5716 136.718 92.2598 136.574 93.0095 136.574C93.8143 136.574 94.5047 136.737 95.0807 137.063C95.6567 137.385 96.0993 137.811 96.4085 138.34C96.7177 138.87 96.8723 139.442 96.8723 140.056C96.8723 140.789 96.6796 141.413 96.2942 141.93C95.913 142.447 95.3941 142.805 94.7376 143.004V143.105C95.5593 143.241 96.201 143.59 96.6627 144.154C97.1243 144.713 97.3552 145.405 97.3552 146.231C97.3552 146.939 97.1625 147.574 96.777 148.137C96.3958 148.696 95.8749 149.137 95.2141 149.459C94.5534 149.781 93.8016 149.942 92.9587 149.942Z" fill="#7A7A7A"/>
<path d="M126.822 110.987C126.574 110.987 126.35 110.938 126.151 110.839C125.952 110.74 125.792 110.604 125.672 110.432C125.552 110.26 125.487 110.064 125.476 109.843H125.984C126.004 110.04 126.092 110.202 126.251 110.331C126.41 110.458 126.601 110.521 126.822 110.521C127 110.521 127.158 110.479 127.297 110.396C127.437 110.313 127.546 110.199 127.625 110.053C127.706 109.906 127.746 109.74 127.746 109.555C127.746 109.366 127.704 109.198 127.621 109.049C127.539 108.9 127.426 108.782 127.282 108.696C127.138 108.609 126.973 108.566 126.789 108.564C126.656 108.563 126.52 108.583 126.38 108.626C126.24 108.667 126.125 108.72 126.035 108.785L125.543 108.725L125.806 106.591H128.059V107.056H126.246L126.094 108.336H126.119C126.208 108.265 126.32 108.206 126.454 108.16C126.588 108.113 126.728 108.09 126.873 108.09C127.139 108.09 127.375 108.153 127.583 108.281C127.792 108.406 127.955 108.578 128.074 108.797C128.194 109.016 128.254 109.266 128.254 109.547C128.254 109.824 128.192 110.071 128.068 110.288C127.945 110.504 127.775 110.675 127.559 110.801C127.343 110.925 127.098 110.987 126.822 110.987ZM130.535 110.987C130.357 110.984 130.18 110.95 130.002 110.885C129.824 110.82 129.661 110.711 129.515 110.557C129.368 110.402 129.25 110.192 129.161 109.928C129.072 109.663 129.028 109.33 129.028 108.929C129.028 108.545 129.064 108.204 129.136 107.908C129.208 107.61 129.312 107.359 129.449 107.156C129.586 106.951 129.751 106.796 129.945 106.69C130.139 106.584 130.359 106.531 130.603 106.531C130.846 106.531 131.062 106.58 131.251 106.677C131.442 106.773 131.597 106.908 131.717 107.08C131.837 107.252 131.915 107.45 131.95 107.675H131.433C131.385 107.48 131.292 107.318 131.154 107.19C131.015 107.061 130.832 106.997 130.603 106.997C130.267 106.997 130.002 107.143 129.809 107.436C129.617 107.728 129.52 108.138 129.519 108.666H129.553C129.632 108.546 129.726 108.444 129.834 108.359C129.945 108.273 130.066 108.206 130.199 108.16C130.331 108.113 130.472 108.09 130.62 108.09C130.869 108.09 131.096 108.152 131.302 108.276C131.508 108.399 131.673 108.569 131.798 108.787C131.922 109.003 131.984 109.25 131.984 109.53C131.984 109.798 131.924 110.044 131.804 110.267C131.684 110.489 131.515 110.665 131.298 110.796C131.082 110.926 130.828 110.99 130.535 110.987ZM130.535 110.521C130.713 110.521 130.873 110.477 131.014 110.388C131.157 110.299 131.269 110.179 131.351 110.03C131.434 109.88 131.476 109.714 131.476 109.53C131.476 109.351 131.435 109.188 131.355 109.041C131.276 108.893 131.166 108.775 131.027 108.687C130.888 108.6 130.73 108.556 130.552 108.556C130.418 108.556 130.293 108.583 130.177 108.636C130.062 108.689 129.96 108.761 129.873 108.852C129.786 108.944 129.719 109.049 129.669 109.168C129.62 109.285 129.595 109.409 129.595 109.538C129.595 109.711 129.635 109.872 129.716 110.021C129.798 110.171 129.909 110.292 130.05 110.383C130.193 110.475 130.355 110.521 130.535 110.521ZM132.986 110.962C132.881 110.962 132.792 110.924 132.717 110.849C132.642 110.775 132.604 110.685 132.604 110.58C132.604 110.476 132.642 110.386 132.717 110.311C132.792 110.237 132.881 110.199 132.986 110.199C133.09 110.199 133.18 110.237 133.255 110.311C133.329 110.386 133.367 110.476 133.367 110.58C133.367 110.65 133.349 110.713 133.314 110.771C133.28 110.829 133.234 110.875 133.176 110.911C133.12 110.945 133.056 110.962 132.986 110.962ZM134.154 110.038V109.606L136.06 106.591H136.373V107.26H136.161L134.721 109.538V109.572H137.288V110.038H134.154ZM136.195 110.928V109.907V109.706V106.591H136.695V110.928H136.195ZM140.292 110.115V109.886C140.292 109.728 140.325 109.583 140.39 109.452C140.456 109.319 140.552 109.213 140.678 109.134C140.805 109.054 140.959 109.013 141.14 109.013C141.323 109.013 141.477 109.054 141.601 109.134C141.725 109.213 141.819 109.319 141.883 109.452C141.946 109.583 141.978 109.728 141.978 109.886V110.115C141.978 110.273 141.946 110.418 141.881 110.551C141.817 110.682 141.723 110.788 141.597 110.868C141.473 110.948 141.32 110.987 141.14 110.987C140.956 110.987 140.801 110.948 140.676 110.868C140.55 110.788 140.455 110.682 140.39 110.551C140.325 110.418 140.292 110.273 140.292 110.115ZM140.724 109.886V110.115C140.724 110.246 140.756 110.364 140.818 110.468C140.88 110.571 140.987 110.623 141.14 110.623C141.288 110.623 141.392 110.571 141.453 110.468C141.515 110.364 141.546 110.246 141.546 110.115V109.886C141.546 109.754 141.517 109.637 141.457 109.534C141.398 109.43 141.292 109.378 141.14 109.378C140.991 109.378 140.885 109.43 140.82 109.534C140.756 109.637 140.724 109.754 140.724 109.886ZM138.132 107.632V107.404C138.132 107.246 138.165 107.101 138.23 106.97C138.296 106.837 138.392 106.731 138.518 106.652C138.645 106.571 138.799 106.531 138.979 106.531C139.163 106.531 139.317 106.571 139.441 106.652C139.565 106.731 139.659 106.837 139.723 106.97C139.786 107.101 139.818 107.246 139.818 107.404V107.632C139.818 107.791 139.786 107.936 139.721 108.069C139.657 108.2 139.563 108.306 139.437 108.386C139.313 108.465 139.16 108.505 138.979 108.505C138.796 108.505 138.641 108.465 138.516 108.386C138.39 108.306 138.295 108.2 138.23 108.069C138.165 107.936 138.132 107.791 138.132 107.632ZM138.564 107.404V107.632C138.564 107.764 138.595 107.882 138.658 107.986C138.72 108.089 138.827 108.141 138.979 108.141C139.128 108.141 139.232 108.089 139.293 107.986C139.355 107.882 139.386 107.764 139.386 107.632V107.404C139.386 107.272 139.356 107.155 139.297 107.052C139.238 106.948 139.132 106.896 138.979 106.896C138.831 106.896 138.725 106.948 138.66 107.052C138.596 107.155 138.564 107.272 138.564 107.404ZM138.293 110.928L141.275 106.591H141.758L138.776 110.928H138.293Z" fill="#0FCC3E"/>
<path d="M60.401 159.365V156.569H60.8753V159.365H60.401ZM59.2404 158.204V157.73H62.0359V158.204H59.2404ZM64.4485 160.186C64.169 160.186 63.9198 160.138 63.701 160.042C63.4835 159.946 63.3106 159.813 63.1821 159.642C63.055 159.47 62.9859 159.27 62.9746 159.043H63.5082C63.5195 159.182 63.5675 159.303 63.6523 159.405C63.737 159.505 63.8478 159.583 63.9847 159.638C64.1217 159.693 64.2735 159.72 64.4401 159.72C64.6264 159.72 64.7916 159.688 64.9356 159.623C65.0796 159.558 65.1926 159.468 65.2745 159.352C65.3564 159.236 65.3973 159.102 65.3973 158.949C65.3973 158.79 65.3578 158.649 65.2787 158.528C65.1996 158.405 65.0839 158.309 64.9314 158.24C64.7789 158.171 64.5925 158.136 64.3723 158.136H64.025V157.67H64.3723C64.5445 157.67 64.6956 157.639 64.8255 157.577C64.9568 157.515 65.0592 157.428 65.1326 157.315C65.2074 157.202 65.2448 157.069 65.2448 156.916C65.2448 156.77 65.2123 156.642 65.1474 156.533C65.0825 156.424 64.9907 156.34 64.8721 156.279C64.7549 156.218 64.6165 156.188 64.457 156.188C64.3074 156.188 64.1662 156.215 64.0335 156.27C63.9022 156.324 63.7949 156.403 63.7116 156.506C63.6283 156.607 63.5831 156.73 63.576 156.874H63.0678C63.0762 156.647 63.1447 156.448 63.2732 156.277C63.4017 156.105 63.5697 155.97 63.7772 155.874C63.9862 155.778 64.2156 155.73 64.4655 155.73C64.7337 155.73 64.9639 155.785 65.1559 155.894C65.3479 156.001 65.4954 156.143 65.5985 156.319C65.7015 156.496 65.7531 156.686 65.7531 156.891C65.7531 157.135 65.6888 157.343 65.5604 157.516C65.4333 157.688 65.2603 157.807 65.0415 157.874V157.908C65.3154 157.953 65.5293 158.069 65.6832 158.257C65.8371 158.443 65.914 158.674 65.914 158.949C65.914 159.185 65.8498 159.397 65.7213 159.585C65.5942 159.771 65.4206 159.918 65.2003 160.025C64.9801 160.133 64.7295 160.186 64.4485 160.186ZM68.1949 160.186C67.8758 160.186 67.604 160.099 67.3795 159.926C67.155 159.751 66.9835 159.497 66.8649 159.165C66.7463 158.832 66.687 158.43 66.687 157.958C66.687 157.49 66.7463 157.089 66.8649 156.758C66.9849 156.424 67.1572 156.17 67.3816 155.995C67.6075 155.819 67.8786 155.73 68.1949 155.73C68.5111 155.73 68.7815 155.819 69.006 155.995C69.2319 156.17 69.4041 156.424 69.5227 156.758C69.6427 157.089 69.7027 157.49 69.7027 157.958C69.7027 158.43 69.6434 158.832 69.5248 159.165C69.4062 159.497 69.2347 159.751 69.0102 159.926C68.7857 160.099 68.5139 160.186 68.1949 160.186ZM68.1949 159.72C68.5111 159.72 68.7568 159.568 68.9319 159.263C69.1069 158.958 69.1945 158.523 69.1945 157.958C69.1945 157.583 69.1542 157.263 69.0737 156.999C68.9947 156.735 68.8803 156.534 68.7307 156.395C68.5824 156.257 68.4038 156.188 68.1949 156.188C67.8814 156.188 67.6365 156.343 67.46 156.652C67.2835 156.959 67.1953 157.395 67.1953 157.958C67.1953 158.334 67.2348 158.653 67.3139 158.916C67.3929 159.178 67.5066 159.378 67.6548 159.515C67.8045 159.652 67.9845 159.72 68.1949 159.72ZM71.9221 160.186C71.6031 160.186 71.3313 160.099 71.1068 159.926C70.8823 159.751 70.7108 159.497 70.5922 159.165C70.4736 158.832 70.4143 158.43 70.4143 157.958C70.4143 157.49 70.4736 157.089 70.5922 156.758C70.7122 156.424 70.8844 156.17 71.1089 155.995C71.3348 155.819 71.6059 155.73 71.9221 155.73C72.2384 155.73 72.5088 155.819 72.7332 155.995C72.9591 156.17 73.1314 156.424 73.25 156.758C73.37 157.089 73.43 157.49 73.43 157.958C73.43 158.43 73.3707 158.832 73.2521 159.165C73.1335 159.497 72.962 159.751 72.7375 159.926C72.513 160.099 72.2412 160.186 71.9221 160.186ZM71.9221 159.72C72.2384 159.72 72.4841 159.568 72.6591 159.263C72.8342 158.958 72.9217 158.523 72.9217 157.958C72.9217 157.583 72.8815 157.263 72.801 156.999C72.722 156.735 72.6076 156.534 72.4579 156.395C72.3097 156.257 72.1311 156.188 71.9221 156.188C71.6087 156.188 71.3638 156.343 71.1873 156.652C71.0108 156.959 70.9226 157.395 70.9226 157.958C70.9226 158.334 70.9621 158.653 71.0411 158.916C71.1202 159.178 71.2339 159.378 71.3821 159.515C71.5318 159.652 71.7118 159.72 71.9221 159.72Z" fill="#0FCC3E"/>
<path d="M118.52 106.207C118.403 106.091 118.215 106.091 118.098 106.207L116.201 108.105C116.084 108.221 116.084 108.41 116.201 108.526C116.317 108.643 116.506 108.643 116.622 108.526L118.309 106.84L119.996 108.526C120.112 108.643 120.301 108.643 120.418 108.526C120.534 108.41 120.534 108.221 120.418 108.105L118.52 106.207ZM118.309 110.891L118.607 110.891L118.607 106.418L118.309 106.418L118.011 106.418L118.011 110.891L118.309 110.891Z" fill="#0FCC3E"/>
<path opacity="0.5" d="M133.962 140.51C125.981 140.51 125.981 147.073 118 147.073V162.585H197.8V117.415C189.822 117.415 189.884 142.628 181.842 145.402C174.22 148.031 173.862 139.437 165.884 139.437C157.904 139.437 157.904 147.073 149.924 147.073C141.943 147.073 141.943 140.51 133.962 140.51Z" fill="#DFF3E7"/>
<rect opacity="0.8" x="45.5" y="92.5" width="159" height="83" stroke="#4558ED"/>
<rect x="43.5" y="90.5" width="5" height="5" fill="white" stroke="#4558ED"/>
<rect x="201.5" y="90.5" width="5" height="5" fill="white" stroke="#4558ED"/>
<rect x="43.5" y="172.5" width="5" height="5" fill="white" stroke="#4558ED"/>
<rect x="201.5" y="172.5" width="5" height="5" fill="white" stroke="#4558ED"/>
<path d="M197.08 50H196.023C195.96 49.696 195.851 49.429 195.695 49.1989C195.541 48.9688 195.354 48.7756 195.132 48.6193C194.913 48.4602 194.67 48.3409 194.403 48.2614C194.136 48.1818 193.858 48.142 193.568 48.142C193.04 48.142 192.561 48.2756 192.132 48.5426C191.706 48.8097 191.366 49.2031 191.114 49.723C190.864 50.2429 190.739 50.8807 190.739 51.6364C190.739 52.392 190.864 53.0298 191.114 53.5497C191.366 54.0696 191.706 54.4631 192.132 54.7301C192.561 54.9972 193.04 55.1307 193.568 55.1307C193.858 55.1307 194.136 55.0909 194.403 55.0114C194.67 54.9318 194.913 54.8139 195.132 54.6577C195.354 54.4986 195.541 54.304 195.695 54.0739C195.851 53.8409 195.96 53.5739 196.023 53.2727H197.08C197 53.7187 196.855 54.1179 196.645 54.4702C196.435 54.8224 196.173 55.1222 195.861 55.3693C195.548 55.6136 195.197 55.7997 194.808 55.9276C194.422 56.0554 194.009 56.1193 193.568 56.1193C192.824 56.1193 192.162 55.9375 191.582 55.5739C191.003 55.2102 190.547 54.6932 190.214 54.0227C189.882 53.3523 189.716 52.5568 189.716 51.6364C189.716 50.7159 189.882 49.9205 190.214 49.25C190.547 48.5795 191.003 48.0625 191.582 47.6989C192.162 47.3352 192.824 47.1534 193.568 47.1534C194.009 47.1534 194.422 47.2173 194.808 47.3452C195.197 47.473 195.548 47.6605 195.861 47.9077C196.173 48.152 196.435 48.4503 196.645 48.8026C196.855 49.152 197 49.5511 197.08 50ZM201.31 56.1364C200.719 56.1364 200.201 55.9957 199.755 55.7145C199.311 55.4332 198.965 55.0398 198.715 54.5341C198.468 54.0284 198.344 53.4375 198.344 52.7614C198.344 52.0795 198.468 51.4844 198.715 50.9759C198.965 50.4673 199.311 50.0724 199.755 49.7912C200.201 49.5099 200.719 49.3693 201.31 49.3693C201.901 49.3693 202.418 49.5099 202.861 49.7912C203.307 50.0724 203.654 50.4673 203.901 50.9759C204.151 51.4844 204.276 52.0795 204.276 52.7614C204.276 53.4375 204.151 54.0284 203.901 54.5341C203.654 55.0398 203.307 55.4332 202.861 55.7145C202.418 55.9957 201.901 56.1364 201.31 56.1364ZM201.31 55.233C201.759 55.233 202.128 55.1179 202.418 54.8878C202.708 54.6577 202.922 54.3551 203.061 53.9801C203.201 53.6051 203.27 53.1989 203.27 52.7614C203.27 52.3239 203.201 51.9162 203.061 51.5384C202.922 51.1605 202.708 50.8551 202.418 50.6222C202.128 50.3892 201.759 50.2727 201.31 50.2727C200.861 50.2727 200.492 50.3892 200.202 50.6222C199.912 50.8551 199.698 51.1605 199.559 51.5384C199.419 51.9162 199.35 52.3239 199.35 52.7614C199.35 53.1989 199.419 53.6051 199.559 53.9801C199.698 54.3551 199.912 54.6577 200.202 54.8878C200.492 55.1179 200.861 55.233 201.31 55.233ZM209.322 56V47.2727H212.374C212.982 47.2727 213.483 47.3778 213.878 47.5881C214.273 47.7955 214.567 48.0753 214.76 48.4276C214.953 48.777 215.05 49.1648 215.05 49.5909C215.05 49.9659 214.983 50.2756 214.849 50.5199C214.719 50.7642 214.545 50.9574 214.33 51.0994C214.116 51.2415 213.885 51.3466 213.635 51.4148V51.5C213.902 51.517 214.17 51.6108 214.44 51.7812C214.71 51.9517 214.936 52.196 215.118 52.5142C215.3 52.8324 215.391 53.2216 215.391 53.6818C215.391 54.1193 215.291 54.5128 215.092 54.8622C214.893 55.2116 214.58 55.4886 214.151 55.6932C213.722 55.8977 213.163 56 212.476 56H209.322ZM210.379 55.0625H212.476C213.166 55.0625 213.656 54.929 213.946 54.6619C214.239 54.392 214.385 54.0653 214.385 53.6818C214.385 53.3864 214.31 53.1136 214.159 52.8636C214.009 52.6108 213.794 52.4091 213.516 52.2585C213.237 52.1051 212.908 52.0284 212.527 52.0284H210.379V55.0625ZM210.379 51.108H212.339C212.658 51.108 212.945 51.0455 213.2 50.9205C213.459 50.7955 213.663 50.6193 213.814 50.392C213.967 50.1648 214.044 49.8977 214.044 49.5909C214.044 49.2074 213.911 48.8821 213.643 48.6151C213.376 48.3452 212.953 48.2102 212.374 48.2102H210.379V51.108ZM221.116 53.3239V49.4545H222.121V56H221.116V54.892H221.048C220.894 55.2244 220.656 55.5071 220.332 55.7401C220.008 55.9702 219.599 56.0852 219.104 56.0852C218.695 56.0852 218.332 55.9957 218.013 55.8168C217.695 55.6349 217.445 55.3622 217.263 54.9986C217.082 54.6321 216.991 54.1705 216.991 53.6136V49.4545H217.996V53.5455C217.996 54.0227 218.13 54.4034 218.397 54.6875C218.667 54.9716 219.011 55.1136 219.428 55.1136C219.678 55.1136 219.933 55.0497 220.191 54.9219C220.452 54.794 220.671 54.598 220.847 54.3338C221.026 54.0696 221.116 53.733 221.116 53.3239ZM223.963 56V49.4545H224.969V56H223.963ZM224.475 48.3636C224.279 48.3636 224.11 48.2969 223.968 48.1634C223.828 48.0298 223.759 47.8693 223.759 47.6818C223.759 47.4943 223.828 47.3338 223.968 47.2003C224.11 47.0668 224.279 47 224.475 47C224.671 47 224.838 47.0668 224.978 47.2003C225.12 47.3338 225.191 47.4943 225.191 47.6818C225.191 47.8693 225.12 48.0298 224.978 48.1634C224.838 48.2969 224.671 48.3636 224.475 48.3636ZM227.817 47.2727V56H226.811V47.2727H227.817ZM232.13 56.1364C231.585 56.1364 231.103 55.9986 230.686 55.723C230.268 55.4446 229.941 55.0526 229.706 54.5469C229.47 54.0384 229.352 53.4375 229.352 52.7443C229.352 52.0568 229.47 51.4602 229.706 50.9545C229.941 50.4489 230.27 50.0582 230.69 49.7827C231.11 49.5071 231.596 49.3693 232.147 49.3693C232.574 49.3693 232.91 49.4403 233.157 49.5824C233.407 49.7216 233.598 49.8807 233.728 50.0597C233.862 50.2358 233.966 50.3807 234.039 50.4943H234.125V47.2727H235.13V56H234.159V54.9943H234.039C233.966 55.1136 233.86 55.2642 233.724 55.446C233.588 55.625 233.393 55.7855 233.14 55.9276C232.887 56.0668 232.551 56.1364 232.13 56.1364ZM232.267 55.233C232.67 55.233 233.011 55.1278 233.289 54.9176C233.568 54.7045 233.779 54.4105 233.924 54.0355C234.069 53.6577 234.142 53.2216 234.142 52.7273C234.142 52.2386 234.071 51.8111 233.929 51.4446C233.787 51.0753 233.576 50.7884 233.298 50.5838C233.02 50.3764 232.676 50.2727 232.267 50.2727C231.841 50.2727 231.485 50.3821 231.201 50.6009C230.92 50.8168 230.708 51.1108 230.566 51.483C230.427 51.8523 230.358 52.267 230.358 52.7273C230.358 53.1932 230.429 53.6165 230.571 53.9972C230.716 54.375 230.929 54.6761 231.21 54.9006C231.494 55.1222 231.846 55.233 232.267 55.233Z" fill="#6A6969"/>
<defs>
<linearGradient id="paint0_linear_701_4312" x1="212.5" y1="274" x2="212.5" y2="-8.99327e-06" gradientUnits="userSpaceOnUse">
<stop stop-color="#FF7B50"/>
<stop offset="1" stop-color="#FFBAA2"/>
</linearGradient>
</defs>
</svg>
