<svg width="324" height="185" viewBox="0 0 324 185" fill="none" xmlns="http://www.w3.org/2000/svg">
<rect x="0.5" y="0.5" width="323" height="184" rx="9.5" fill="url(#paint0_linear_706_4880)"/>
<rect x="0.5" y="0.5" width="323" height="184" rx="9.5" stroke="#E2E2E2"/>
<path d="M15.0005 37.4219H309V160.989C309 165.966 304.965 170 299.988 170H24.0122C19.0352 170 15.0005 165.966 15.0005 160.989V37.4219Z" fill="#FAFAFA"/>
<path d="M308.625 37.7979V160.988C308.625 165.758 304.758 169.625 299.989 169.625H24.0122C19.2425 169.625 15.3765 165.758 15.3765 160.988V37.7979H308.625Z" stroke="#BDBDBD" stroke-opacity="0.5" stroke-width="0.750979"/>
<mask id="path-4-inside-1_706_4880" fill="white">
<path d="M309 37.4219L15.0003 37.4219L15.0003 24.0122C15.0003 19.0352 19.035 15.0005 24.0121 15.0005L299.988 15.0005C304.965 15.0005 309 19.0352 309 24.0123L309 37.4219Z"/>
</mask>
<path d="M309 37.4219L15.0003 37.4219L15.0003 24.0122C15.0003 19.0352 19.035 15.0005 24.0121 15.0005L299.988 15.0005C304.965 15.0005 309 19.0352 309 24.0123L309 37.4219Z" fill="white"/>
<path d="M309 37.4219L15.0003 37.4219L309 37.4219M14.2493 24.0122C14.2493 18.6204 18.6202 14.2495 24.0121 14.2495L299.988 14.2495C305.38 14.2495 309.751 18.6205 309.751 24.0123L308.249 24.0123C308.249 19.45 304.551 15.7515 299.988 15.7515L24.0121 15.7515C19.4498 15.7515 15.7513 19.4499 15.7513 24.0122L14.2493 24.0122ZM299.988 14.2495C305.38 14.2495 309.751 18.6205 309.751 24.0123L309.751 37.4219L308.249 37.4219L308.249 24.0123C308.249 19.45 304.551 15.7515 299.988 15.7515L299.988 14.2495ZM14.2493 37.4219L14.2493 24.0122C14.2493 18.6204 18.6202 14.2495 24.0121 14.2495L24.0121 15.7515C19.4498 15.7515 15.7513 19.4499 15.7513 24.0122L15.7513 37.4219L14.2493 37.4219Z" fill="#BDBDBD" fill-opacity="0.5" mask="url(#path-4-inside-1_706_4880)"/>
<circle cx="31.3402" cy="27.0336" r="3.75233" fill="#FD2929"/>
<circle cx="43.1366" cy="27.0848" r="3.75233" fill="#FABA0A"/>
<circle cx="54.9335" cy="27.1366" r="3.75233" fill="#51D201"/>
<rect x="37.4927" y="135.375" width="47.0196" height="14.5059" rx="7.25294" fill="#4558ED"/>
<path d="M45.5507 145.628L45.5507 140.521H47.3004C48.9 140.521 49.8913 141.483 49.8913 143.082C49.8913 144.682 48.9 145.628 47.3004 145.628H45.5507ZM47.3004 144.945C48.3894 144.945 49.0352 144.254 49.0352 143.082C49.0352 141.896 48.3894 141.205 47.3004 141.205H46.3918V144.945H47.3004ZM54.3084 144.321C54.0906 145.252 53.3997 145.726 52.461 145.726C51.2819 145.726 50.561 144.937 50.561 143.63C50.561 142.271 51.2819 141.52 52.4234 141.52C53.5799 141.52 54.2783 142.301 54.2783 143.585V143.781H51.3795C51.4246 144.599 51.8076 145.057 52.461 145.057C52.9716 145.057 53.3321 144.817 53.4673 144.321H54.3084ZM52.4234 142.188C51.8452 142.188 51.4997 142.556 51.4021 143.232H53.4447C53.3471 142.556 52.9942 142.188 52.4234 142.188ZM55.7215 142.677C55.7215 143.698 58.2823 142.842 58.2823 144.471C58.2823 145.23 57.5989 145.726 56.6302 145.726C55.6614 145.726 54.978 145.275 54.8278 144.321H55.6314C55.714 144.824 56.0895 145.102 56.6527 145.102C57.1934 145.102 57.4788 144.862 57.4788 144.524C57.4788 143.525 54.9555 144.366 54.9555 142.722C54.9555 142.098 55.4436 141.52 56.4575 141.52C57.3511 141.52 58.012 141.933 58.1397 142.932H57.3361C57.246 142.369 56.9306 142.158 56.4199 142.158C55.9768 142.158 55.7215 142.376 55.7215 142.677ZM59.0141 141.13V140.221H59.8176V141.13H59.0141ZM59.0141 145.628V141.625H59.8176V145.628H59.0141ZM62.2307 145.65C61.2094 145.65 60.5936 144.869 60.5936 143.593C60.5936 142.256 61.2244 141.52 62.2307 141.52C62.7414 141.52 63.1244 141.7 63.3797 142.046V141.625H64.1833V145.756C64.1833 146.852 63.4548 147.385 62.4936 147.385C61.5323 147.385 60.8414 146.935 60.6987 146.003H61.5023C61.5774 146.484 61.9604 146.739 62.4861 146.739C63.0193 146.739 63.3797 146.462 63.3797 145.771V145.095C63.1094 145.463 62.7189 145.65 62.2307 145.65ZM62.3959 144.975C63.0343 144.975 63.3797 144.486 63.3797 143.585C63.3797 142.707 63.0193 142.196 62.3959 142.196C61.7576 142.196 61.4122 142.684 61.4122 143.593C61.4122 144.471 61.7651 144.975 62.3959 144.975ZM65.1598 145.628V141.625H65.9633V142.158C66.2337 141.73 66.6542 141.52 67.1724 141.52C68.006 141.52 68.5242 142.008 68.5242 142.954V145.628H67.7281V143.12C67.7281 142.541 67.4728 142.188 66.9246 142.188C66.3238 142.188 65.9633 142.722 65.9633 143.277V145.628H65.1598ZM73.0535 144.321C72.8357 145.252 72.1448 145.726 71.2061 145.726C70.0271 145.726 69.3061 144.937 69.3061 143.63C69.3061 142.271 70.0271 141.52 71.1686 141.52C72.3251 141.52 73.0235 142.301 73.0235 143.585V143.781H70.1247C70.1698 144.599 70.5528 145.057 71.2061 145.057C71.7168 145.057 72.0772 144.817 72.2124 144.321H73.0535ZM71.1686 142.188C70.5903 142.188 70.2449 142.556 70.1472 143.232H72.1899C72.0923 142.556 71.7393 142.188 71.1686 142.188ZM73.8283 145.628V141.625H74.6319V142.218C74.8947 141.738 75.3077 141.52 75.7733 141.52C75.9311 141.52 76.0813 141.558 76.1563 141.625V142.331C76.0362 142.294 75.8935 142.279 75.7283 142.279C74.9623 142.279 74.6319 142.744 74.6319 143.443V145.628H73.8283Z" fill="white"/>
<path d="M91.9419 128.403C91.697 128.165 91.3362 128.091 91.0171 128.207L79.896 132.26C79.5385 132.39 79.3002 132.736 79.3228 133.122C79.3454 133.508 79.6217 133.824 79.9907 133.914L85.0386 135.14L86.2983 140.04C86.3944 140.413 86.725 140.671 87.103 140.692C87.4808 140.713 87.8377 140.493 87.9761 140.135L92.147 129.327C92.2714 129.004 92.1884 128.643 91.9419 128.403Z" fill="#4558ED" stroke="white" stroke-width="0.750979" stroke-linecap="square" stroke-linejoin="round"/>
<rect x="170.199" y="46.5207" width="87.0146" height="106.096" rx="8.07303" fill="#F4F4F4" stroke="#EDEDED" stroke-width="1.12647"/>
<rect x="177.427" y="69.1436" width="66.6374" height="12.9311" rx="1.50196" fill="white"/>
<rect x="177.427" y="85.1172" width="51.0886" height="12.9311" rx="1.50196" fill="white"/>
<rect x="177.427" y="138.362" width="32.708" height="35.5399" rx="1.50196" transform="rotate(-90 177.427 138.362)" fill="white"/>
<rect x="217.409" y="138.362" width="32.708" height="34.7995" rx="1.50196" transform="rotate(-90 217.409 138.362)" fill="white"/>
<path d="M175.945 61.5371H251.468" stroke="#F4F4F4" stroke-width="0.37549" stroke-dasharray="1.5 1.5"/>
<rect x="255.085" y="73.707" width="44.0196" height="14.5059" rx="7.25294" fill="#FF2F66"/>
<path d="M263.143 83.96V78.8533H266.666V79.5292H263.985V81.1363H266.38V81.8122H263.985V83.96H263.143ZM268.938 84.0576C267.774 84.0576 267.068 83.2691 267.068 81.9624C267.068 80.6031 267.797 79.8521 268.938 79.8521C270.102 79.8521 270.808 80.6557 270.808 81.9624C270.808 83.3141 270.08 84.0576 268.938 84.0576ZM268.938 83.3817C269.622 83.3817 269.99 82.8861 269.99 81.9624C269.99 81.0462 269.614 80.528 268.938 80.528C268.262 80.528 267.887 81.0311 267.887 81.9624C267.887 82.871 268.262 83.3817 268.938 83.3817ZM274.114 82.3003V79.9572H274.91V83.96H274.114V83.4193C273.851 83.8473 273.43 84.0576 272.92 84.0576C272.101 84.0576 271.591 83.577 271.591 82.6307V79.9572H272.394V82.4655C272.394 83.0438 272.634 83.3892 273.168 83.3892C273.753 83.3892 274.114 82.856 274.114 82.3003ZM275.888 83.96V79.9572H276.692V80.4904C276.962 80.0624 277.383 79.8521 277.901 79.8521C278.734 79.8521 279.253 80.3402 279.253 81.2865V83.96H278.456V81.4517C278.456 80.8734 278.201 80.5205 277.653 80.5205C277.052 80.5205 276.692 81.0537 276.692 81.6094V83.96H275.888ZM281.732 84.0576C280.673 84.0576 280.034 83.2691 280.034 81.9624C280.034 80.6031 280.688 79.8521 281.732 79.8521C282.19 79.8521 282.565 80.0398 282.821 80.4078V78.5529H283.624V83.96H282.821V83.4718C282.565 83.8473 282.19 84.0576 281.732 84.0576ZM281.837 83.3817C282.475 83.3817 282.821 82.8861 282.821 81.9624C282.821 81.0462 282.46 80.528 281.837 80.528C281.198 80.528 280.853 81.0387 280.853 81.9624C280.853 82.871 281.214 83.3817 281.837 83.3817ZM288.145 82.6533C287.928 83.5845 287.237 84.0576 286.298 84.0576C285.119 84.0576 284.398 83.2691 284.398 81.9624C284.398 80.6031 285.119 79.8521 286.261 79.8521C287.417 79.8521 288.115 80.6331 288.115 81.9173V82.1126H285.217C285.262 82.9311 285.645 83.3892 286.298 83.3892C286.809 83.3892 287.169 83.1489 287.304 82.6533H288.145ZM286.261 80.5205C285.682 80.5205 285.337 80.8885 285.239 81.5643H287.282C287.184 80.8885 286.831 80.5205 286.261 80.5205ZM288.92 83.96V79.9572H289.724V80.5505C289.987 80.0699 290.4 79.8521 290.865 79.8521C291.023 79.8521 291.173 79.8897 291.248 79.9572V80.6632C291.128 80.6256 290.985 80.6106 290.82 80.6106C290.054 80.6106 289.724 81.0762 289.724 81.7746V83.96H288.92Z" fill="white"/>
<path d="M240.988 63.6934C241.233 63.4554 241.594 63.3808 241.913 63.4971L253.034 67.5498C253.391 67.6801 253.629 68.0261 253.607 68.4121C253.584 68.7977 253.308 69.1144 252.939 69.2041L247.891 70.4297L246.631 75.3301C246.535 75.7028 246.205 75.9614 245.827 75.9824C245.449 76.0033 245.092 75.7832 244.954 75.4248L240.783 64.6172C240.658 64.2945 240.741 63.9329 240.988 63.6934Z" fill="#FF2F66" stroke="white" stroke-width="0.750979" stroke-linecap="square" stroke-linejoin="round"/>
<rect x="209.264" y="123.911" width="27.0196" height="14.5059" rx="7.25294" fill="#FF5E2D"/>
<path d="M217.322 134.164V129.057H219.14C220.334 129.057 221.07 129.681 221.07 130.702C221.07 131.746 220.319 132.354 219.155 132.354H218.163V134.164H217.322ZM219.132 129.733H218.163V131.678H219.109C219.815 131.678 220.206 131.303 220.206 130.71C220.206 130.116 219.808 129.733 219.132 129.733ZM221.906 134.164V129.057H223.04L224.482 132.595L224.654 133.135L224.827 132.595L226.254 129.057H227.358V134.164H226.517L226.539 130.026L226.171 131.123L224.932 134.164H224.331L223.085 131.115L222.724 130.049L222.747 134.164H221.906Z" fill="white"/>
<path d="M199.525 114.657C199.77 114.419 200.131 114.345 200.45 114.461L211.571 118.514C211.928 118.644 212.167 118.99 212.144 119.376C212.121 119.762 211.845 120.078 211.476 120.168L206.428 121.394L205.168 126.294C205.072 126.667 204.742 126.925 204.364 126.946C203.986 126.967 203.629 126.747 203.491 126.389L199.32 115.581C199.195 115.258 199.278 114.897 199.525 114.657Z" fill="#FF5E2D" stroke="white" stroke-width="0.750979" stroke-linecap="square" stroke-linejoin="round"/>
<rect x="33.0503" y="59.3086" width="117.013" height="62.3735" fill="white"/>
<rect x="83.2773" y="67.8135" width="6.62335" height="6.23735" rx="0.559821" fill="#E0FFED"/>
<path d="M86.5884 100.134C92.44 100.134 92.44 95.1153 98.2911 95.1153C104.142 95.1153 104.142 100.134 109.994 100.134C115.845 100.134 115.845 94.2941 121.695 94.2941C127.545 94.2941 127.807 100.866 133.395 98.8565C139.291 96.7349 139.245 77.4531 145.095 77.4531" stroke="#5DD77B" stroke-width="0.559821"/>
<path d="M42.6494 69.4746V69.1247H45.0923V69.4746H44.068V72.3818H43.6736V69.4746H42.6494ZM46.2882 72.4327C46.0677 72.4327 45.8742 72.3802 45.7077 72.2753C45.5423 72.1703 45.413 72.0235 45.3197 71.8347C45.2274 71.646 45.1813 71.4255 45.1813 71.1731C45.1813 70.9187 45.2274 70.6965 45.3197 70.5068C45.413 70.317 45.5423 70.1696 45.7077 70.0646C45.8742 69.9597 46.0677 69.9072 46.2882 69.9072C46.5088 69.9072 46.7017 69.9597 46.8671 70.0646C47.0336 70.1696 47.163 70.317 47.2552 70.5068C47.3485 70.6965 47.3952 70.9187 47.3952 71.1731C47.3952 71.4255 47.3485 71.646 47.2552 71.8347C47.163 72.0235 47.0336 72.1703 46.8671 72.2753C46.7017 72.3802 46.5088 72.4327 46.2882 72.4327ZM46.2882 72.0956C46.4558 72.0956 46.5936 72.0526 46.7017 71.9667C46.8099 71.8809 46.8899 71.7679 46.9419 71.628C46.9938 71.488 47.0198 71.3364 47.0198 71.1731C47.0198 71.0099 46.9938 70.8577 46.9419 70.7167C46.8899 70.5757 46.8099 70.4617 46.7017 70.3748C46.5936 70.2878 46.4558 70.2443 46.2882 70.2443C46.1207 70.2443 45.9829 70.2878 45.8747 70.3748C45.7666 70.4617 45.6865 70.5757 45.6346 70.7167C45.5826 70.8577 45.5567 71.0099 45.5567 71.1731C45.5567 71.3364 45.5826 71.488 45.6346 71.628C45.6865 71.7679 45.7666 71.8809 45.8747 71.9667C45.9829 72.0526 46.1207 72.0956 46.2882 72.0956ZM49.0305 69.939V70.2571H47.7645V69.939H49.0305ZM48.1335 69.3537H48.5088V71.6821C48.5088 71.7881 48.5242 71.8676 48.555 71.9206C48.5868 71.9726 48.6271 72.0076 48.6758 72.0256C48.7257 72.0426 48.7781 72.051 48.8333 72.051C48.8746 72.051 48.9086 72.0489 48.9351 72.0447C48.9616 72.0394 48.9828 72.0351 48.9987 72.0319L49.075 72.3691C49.0496 72.3787 49.014 72.3882 48.9685 72.3977C48.9229 72.4083 48.8651 72.4136 48.7951 72.4136C48.6891 72.4136 48.5852 72.3908 48.4834 72.3453C48.3827 72.2997 48.2989 72.2302 48.2321 72.1369C48.1664 72.0436 48.1335 71.9259 48.1335 71.7838V69.3537ZM50.3139 72.4391C50.1591 72.4391 50.0187 72.4099 49.8925 72.3516C49.7663 72.2922 49.6661 72.2069 49.5919 72.0956C49.5177 71.9832 49.4806 71.8475 49.4806 71.6884C49.4806 71.5485 49.5081 71.435 49.5633 71.3481C49.6184 71.2601 49.6921 71.1912 49.7843 71.1413C49.8766 71.0915 49.9784 71.0544 50.0897 71.03C50.2021 71.0045 50.315 70.9844 50.4284 70.9696C50.5769 70.9505 50.6972 70.9362 50.7895 70.9266C50.8828 70.916 50.9506 70.8985 50.993 70.8741C51.0365 70.8498 51.0582 70.8073 51.0582 70.7469V70.7342C51.0582 70.5773 51.0153 70.4553 50.9294 70.3684C50.8446 70.2814 50.7158 70.238 50.543 70.238C50.3638 70.238 50.2233 70.2772 50.1215 70.3557C50.0197 70.4341 49.9481 70.5179 49.9068 70.6069L49.5505 70.4797C49.6142 70.3313 49.699 70.2157 49.805 70.133C49.9121 70.0492 50.0287 69.9909 50.1549 69.9581C50.2821 69.9241 50.4072 69.9072 50.5302 69.9072C50.6087 69.9072 50.6988 69.9167 50.8006 69.9358C50.9034 69.9538 51.0026 69.9915 51.098 70.0487C51.1945 70.106 51.2745 70.1924 51.3382 70.308C51.4018 70.4235 51.4336 70.5783 51.4336 70.7724V72.3818H51.0582V72.051H51.0392C51.0137 72.104 50.9713 72.1608 50.9119 72.2212C50.8526 72.2816 50.7736 72.3331 50.675 72.3755C50.5764 72.4179 50.456 72.4391 50.3139 72.4391ZM50.3712 72.1019C50.5196 72.1019 50.6447 72.0728 50.7465 72.0145C50.8494 71.9561 50.9268 71.8809 50.9787 71.7886C51.0317 71.6964 51.0582 71.5994 51.0582 71.4976V71.154C51.0423 71.1731 51.0074 71.1906 50.9533 71.2065C50.9003 71.2214 50.8388 71.2346 50.7688 71.2463C50.6999 71.2569 50.6325 71.2664 50.5668 71.2749C50.5021 71.2823 50.4497 71.2887 50.4094 71.294C50.3118 71.3067 50.2206 71.3274 50.1358 71.356C50.0521 71.3836 49.9842 71.4255 49.9322 71.4817C49.8813 71.5368 49.8559 71.6121 49.8559 71.7075C49.8559 71.8379 49.9041 71.9365 50.0006 72.0033C50.0982 72.0691 50.2217 72.1019 50.3712 72.1019ZM52.494 69.1247V72.3818H52.1186V69.1247H52.494ZM57.2401 70.7533C57.2401 71.0968 57.1781 71.3937 57.0541 71.6439C56.93 71.8941 56.7598 72.0871 56.5435 72.2228C56.3272 72.3585 56.0802 72.4264 55.8024 72.4264C55.5246 72.4264 55.2776 72.3585 55.0613 72.2228C54.845 72.0871 54.6748 71.8941 54.5508 71.6439C54.4267 71.3937 54.3647 71.0968 54.3647 70.7533C54.3647 70.4097 54.4267 70.1129 54.5508 69.8626C54.6748 69.6124 54.845 69.4195 55.0613 69.2837C55.2776 69.148 55.5246 69.0802 55.8024 69.0802C56.0802 69.0802 56.3272 69.148 56.5435 69.2837C56.7598 69.4195 56.93 69.6124 57.0541 69.8626C57.1781 70.1129 57.2401 70.4097 57.2401 70.7533ZM56.8584 70.7533C56.8584 70.4712 56.8113 70.2332 56.7169 70.0392C56.6236 69.8451 56.4969 69.6983 56.3368 69.5986C56.1777 69.499 55.9996 69.4491 55.8024 69.4491C55.6052 69.4491 55.4265 69.499 55.2664 69.5986C55.1074 69.6983 54.9807 69.8451 54.8863 70.0392C54.793 70.2332 54.7464 70.4712 54.7464 70.7533C54.7464 71.0353 54.793 71.2733 54.8863 71.4674C54.9807 71.6614 55.1074 71.8082 55.2664 71.9079C55.4265 72.0076 55.6052 72.0574 55.8024 72.0574C55.9996 72.0574 56.1777 72.0076 56.3368 71.9079C56.4969 71.8082 56.6236 71.6614 56.7169 71.4674C56.8113 71.2733 56.8584 71.0353 56.8584 70.7533ZM57.8524 72.3818V69.939H58.215V70.308H58.2405C58.285 70.1871 58.3656 70.089 58.4822 70.0137C58.5989 69.9385 58.7303 69.9008 58.8767 69.9008C58.9042 69.9008 58.9387 69.9013 58.98 69.9024C59.0214 69.9035 59.0527 69.9051 59.0739 69.9072V70.2889C59.0611 70.2857 59.032 70.2809 58.9864 70.2746C58.9419 70.2671 58.8947 70.2634 58.8448 70.2634C58.7261 70.2634 58.6201 70.2883 58.5268 70.3382C58.4345 70.3869 58.3614 70.4548 58.3073 70.5417C58.2543 70.6276 58.2278 70.7257 58.2278 70.836V72.3818H57.8524ZM60.3669 72.4327C60.1633 72.4327 59.9836 72.3813 59.8277 72.2785C59.6719 72.1746 59.5499 72.0282 59.4619 71.8395C59.3739 71.6497 59.3299 71.4255 59.3299 71.1668C59.3299 70.9102 59.3739 70.6875 59.4619 70.4988C59.5499 70.3101 59.6724 70.1643 59.8293 70.0614C59.9862 69.9586 60.1675 69.9072 60.3732 69.9072C60.5323 69.9072 60.6579 69.9337 60.7501 69.9867C60.8434 70.0386 60.9145 70.098 60.9633 70.1648C61.0131 70.2306 61.0518 70.2846 61.0794 70.327H61.1112V69.1247H61.4865V72.3818H61.1239V72.0065H61.0794C61.0518 72.051 61.0126 72.1072 60.9617 72.1751C60.9108 72.2419 60.8381 72.3018 60.7438 72.3548C60.6494 72.4068 60.5238 72.4327 60.3669 72.4327ZM60.4178 72.0956C60.5683 72.0956 60.6955 72.0563 60.7994 71.9779C60.9034 71.8984 60.9823 71.7886 61.0364 71.6487C61.0905 71.5076 61.1175 71.3449 61.1175 71.1604C61.1175 70.978 61.091 70.8185 61.038 70.6817C60.985 70.5439 60.9065 70.4368 60.8026 70.3604C60.6987 70.283 60.5704 70.2443 60.4178 70.2443C60.2587 70.2443 60.1262 70.2852 60.0202 70.3668C59.9152 70.4474 59.8362 70.5571 59.7832 70.696C59.7312 70.8338 59.7053 70.9886 59.7053 71.1604C59.7053 71.3343 59.7318 71.4923 59.7848 71.6343C59.8388 71.7754 59.9184 71.8878 60.0233 71.9715C60.1294 72.0542 60.2608 72.0956 60.4178 72.0956ZM63.2503 72.4327C63.0149 72.4327 62.8118 72.3808 62.6411 72.2769C62.4715 72.1719 62.3405 72.0256 62.2483 71.8379C62.1571 71.6492 62.1115 71.4297 62.1115 71.1795C62.1115 70.9293 62.1571 70.7087 62.2483 70.5179C62.3405 70.326 62.4688 70.1765 62.6332 70.0694C62.7986 69.9612 62.9915 69.9072 63.2121 69.9072C63.3393 69.9072 63.465 69.9284 63.589 69.9708C63.7131 70.0132 63.826 70.0821 63.9278 70.1775C64.0295 70.2719 64.1107 70.397 64.1711 70.5529C64.2315 70.7087 64.2617 70.9006 64.2617 71.1286V71.2876H62.3787V70.9632H63.8801C63.8801 70.8254 63.8525 70.7024 63.7973 70.5942C63.7433 70.4861 63.6659 70.4007 63.5652 70.3382C63.4655 70.2756 63.3478 70.2443 63.2121 70.2443C63.0626 70.2443 62.9332 70.2814 62.824 70.3557C62.7159 70.4288 62.6326 70.5242 62.5743 70.6419C62.516 70.7596 62.4869 70.8858 62.4869 71.0205V71.2367C62.4869 71.4212 62.5187 71.5776 62.5823 71.7059C62.647 71.8331 62.7366 71.9302 62.8511 71.997C62.9656 72.0627 63.0986 72.0956 63.2503 72.0956C63.3489 72.0956 63.4379 72.0818 63.5174 72.0542C63.598 72.0256 63.6675 71.9832 63.7258 71.927C63.7841 71.8697 63.8292 71.7987 63.861 71.7139L64.2236 71.8157C64.1854 71.9386 64.1213 72.0468 64.0311 72.1401C63.941 72.2323 63.8297 72.3044 63.6972 72.3564C63.5646 72.4073 63.4157 72.4327 63.2503 72.4327ZM64.8327 72.3818V69.939H65.1953V70.308H65.2208C65.2653 70.1871 65.3459 70.089 65.4625 70.0137C65.5791 69.9385 65.7106 69.9008 65.8569 69.9008C65.8845 69.9008 65.9189 69.9013 65.9603 69.9024C66.0016 69.9035 66.0329 69.9051 66.0541 69.9072V70.2889C66.0414 70.2857 66.0122 70.2809 65.9667 70.2746C65.9221 70.2671 65.8749 70.2634 65.8251 70.2634C65.7064 70.2634 65.6003 70.2883 65.507 70.3382C65.4148 70.3869 65.3416 70.4548 65.2876 70.5417C65.2345 70.6276 65.208 70.7257 65.208 70.836V72.3818H64.8327ZM68.2294 70.4861L67.8922 70.5815C67.871 70.5253 67.8397 70.4707 67.7984 70.4177C67.7581 70.3636 67.703 70.3191 67.633 70.2841C67.563 70.2491 67.4734 70.2316 67.3642 70.2316C67.2147 70.2316 67.0901 70.2661 66.9905 70.335C66.8919 70.4028 66.8426 70.4893 66.8426 70.5942C66.8426 70.6875 66.8765 70.7612 66.9444 70.8153C67.0122 70.8694 67.1182 70.9144 67.2624 70.9505L67.625 71.0395C67.8435 71.0926 68.0062 71.1737 68.1133 71.2829C68.2204 71.391 68.2739 71.5304 68.2739 71.7011C68.2739 71.8411 68.2336 71.9662 68.1531 72.0765C68.0735 72.1867 67.9622 72.2737 67.8191 72.3373C67.6759 72.4009 67.5095 72.4327 67.3197 72.4327C67.0705 72.4327 66.8643 72.3787 66.701 72.2705C66.5377 72.1624 66.4344 72.0044 66.3909 71.7966L66.7471 71.7075C66.7811 71.839 66.8452 71.9376 66.9396 72.0033C67.035 72.0691 67.1596 72.1019 67.3133 72.1019C67.4883 72.1019 67.6272 72.0648 67.73 71.9906C67.8339 71.9153 67.8859 71.8252 67.8859 71.7202C67.8859 71.6354 67.8562 71.5644 67.7968 71.5071C67.7374 71.4488 67.6463 71.4053 67.5233 71.3767L67.1161 71.2813C66.8924 71.2283 66.7281 71.1461 66.6231 71.0348C66.5192 70.9224 66.4672 70.7819 66.4672 70.6133C66.4672 70.4755 66.5059 70.3535 66.5833 70.2475C66.6618 70.1415 66.7683 70.0583 66.903 69.9978C67.0387 69.9374 67.1925 69.9072 67.3642 69.9072C67.606 69.9072 67.7957 69.9602 67.9336 70.0662C68.0725 70.1722 68.1711 70.3122 68.2294 70.4861Z" fill="#7A7A7A"/>
<path d="M55.3442 106.898V106.549H57.7871V106.898H56.7629V109.806H56.3684V106.898H55.3442ZM58.9831 109.857C58.7625 109.857 58.569 109.804 58.4026 109.699C58.2372 109.594 58.1078 109.447 58.0145 109.259C57.9223 109.07 57.8761 108.849 57.8761 108.597C57.8761 108.342 57.9223 108.12 58.0145 107.931C58.1078 107.741 58.2372 107.593 58.4026 107.488C58.569 107.383 58.7625 107.331 58.9831 107.331C59.2036 107.331 59.3966 107.383 59.562 107.488C59.7284 107.593 59.8578 107.741 59.95 107.931C60.0433 108.12 60.09 108.342 60.09 108.597C60.09 108.849 60.0433 109.07 59.95 109.259C59.8578 109.447 59.7284 109.594 59.562 109.699C59.3966 109.804 59.2036 109.857 58.9831 109.857ZM58.9831 109.519C59.1506 109.519 59.2884 109.476 59.3966 109.391C59.5047 109.305 59.5848 109.192 59.6367 109.052C59.6887 108.912 59.7146 108.76 59.7146 108.597C59.7146 108.434 59.6887 108.282 59.6367 108.141C59.5848 107.999 59.5047 107.886 59.3966 107.799C59.2884 107.712 59.1506 107.668 58.9831 107.668C58.8155 107.668 58.6777 107.712 58.5696 107.799C58.4614 107.886 58.3814 107.999 58.3294 108.141C58.2775 108.282 58.2515 108.434 58.2515 108.597C58.2515 108.76 58.2775 108.912 58.3294 109.052C58.3814 109.192 58.4614 109.305 58.5696 109.391C58.6777 109.476 58.8155 109.519 58.9831 109.519ZM61.5854 109.857C61.3818 109.857 61.2021 109.805 61.0462 109.702C60.8903 109.598 60.7684 109.452 60.6804 109.263C60.5924 109.074 60.5484 108.849 60.5484 108.591C60.5484 108.334 60.5924 108.111 60.6804 107.923C60.7684 107.734 60.8909 107.588 61.0478 107.485C61.2047 107.382 61.386 107.331 61.5917 107.331C61.7508 107.331 61.8764 107.358 61.9686 107.411C62.0619 107.462 62.133 107.522 62.1818 107.589C62.2316 107.654 62.2703 107.708 62.2979 107.751H62.3297V106.549H62.705V109.806H62.3424V109.43H62.2979C62.2703 109.475 62.2311 109.531 62.1802 109.599C62.1293 109.666 62.0566 109.726 61.9623 109.779C61.8679 109.831 61.7423 109.857 61.5854 109.857ZM61.6362 109.519C61.7868 109.519 61.914 109.48 62.0179 109.402C62.1218 109.322 62.2008 109.212 62.2549 109.072C62.309 108.931 62.336 108.769 62.336 108.584C62.336 108.402 62.3095 108.242 62.2565 108.106C62.2035 107.968 62.125 107.861 62.0211 107.784C61.9172 107.707 61.7889 107.668 61.6362 107.668C61.4772 107.668 61.3447 107.709 61.2386 107.791C61.1337 107.871 61.0547 107.981 61.0017 108.12C60.9497 108.258 60.9237 108.412 60.9237 108.584C60.9237 108.758 60.9503 108.916 61.0033 109.058C61.0573 109.199 61.1369 109.312 61.2418 109.395C61.3479 109.478 61.4793 109.519 61.6362 109.519ZM64.1634 109.863C64.0086 109.863 63.8681 109.834 63.7419 109.775C63.6158 109.716 63.5156 109.631 63.4413 109.519C63.3671 109.407 63.33 109.271 63.33 109.112C63.33 108.972 63.3576 108.859 63.4127 108.772C63.4679 108.684 63.5415 108.615 63.6338 108.565C63.726 108.515 63.8278 108.478 63.9391 108.454C64.0515 108.428 64.1645 108.408 64.2779 108.393C64.4263 108.374 64.5467 108.36 64.6389 108.35C64.7322 108.34 64.8001 108.322 64.8425 108.298C64.886 108.274 64.9077 108.231 64.9077 108.171V108.158C64.9077 108.001 64.8648 107.879 64.7789 107.792C64.6941 107.705 64.5652 107.662 64.3924 107.662C64.2132 107.662 64.0727 107.701 63.971 107.779C63.8692 107.858 63.7976 107.942 63.7562 108.031L63.4 107.904C63.4636 107.755 63.5484 107.64 63.6545 107.557C63.7615 107.473 63.8782 107.415 64.0044 107.382C64.1316 107.348 64.2567 107.331 64.3797 107.331C64.4581 107.331 64.5483 107.341 64.6501 107.36C64.7529 107.378 64.852 107.415 64.9475 107.473C65.0439 107.53 65.124 107.616 65.1876 107.732C65.2512 107.847 65.283 108.002 65.283 108.196V109.806H64.9077V109.475H64.8886C64.8632 109.528 64.8208 109.585 64.7614 109.645C64.702 109.705 64.623 109.757 64.5244 109.799C64.4258 109.842 64.3055 109.863 64.1634 109.863ZM64.2206 109.526C64.3691 109.526 64.4942 109.497 64.596 109.438C64.6988 109.38 64.7762 109.305 64.8282 109.212C64.8812 109.12 64.9077 109.023 64.9077 108.921V108.578C64.8918 108.597 64.8568 108.614 64.8027 108.63C64.7497 108.645 64.6882 108.658 64.6182 108.67C64.5493 108.681 64.482 108.69 64.4163 108.699C64.3516 108.706 64.2991 108.713 64.2588 108.718C64.1613 108.731 64.0701 108.751 63.9853 108.78C63.9015 108.807 63.8336 108.849 63.7817 108.905C63.7308 108.961 63.7054 109.036 63.7054 109.131C63.7054 109.262 63.7536 109.36 63.8501 109.427C63.9476 109.493 64.0711 109.526 64.2206 109.526ZM66.1224 110.722C66.0588 110.722 66.002 110.716 65.9522 110.706C65.9024 110.696 65.8679 110.687 65.8488 110.677L65.9442 110.346C66.0354 110.37 66.116 110.378 66.186 110.372C66.256 110.365 66.318 110.334 66.3721 110.278C66.4272 110.223 66.4776 110.133 66.5231 110.009L66.5931 109.818L65.6898 107.363H66.0969L66.7713 109.309H66.7967L67.471 107.363H67.8782L66.8412 110.162C66.7946 110.288 66.7368 110.393 66.6679 110.475C66.599 110.559 66.5189 110.621 66.4277 110.661C66.3376 110.702 66.2358 110.722 66.1224 110.722Z" fill="#7A7A7A"/>
<path d="M108.509 72.3818V69.1247H109.61C109.865 69.1247 110.074 69.1708 110.236 69.2631C110.4 69.3542 110.52 69.4778 110.599 69.6336C110.677 69.7895 110.717 69.9634 110.717 70.1553C110.717 70.3472 110.677 70.5216 110.599 70.6785C110.522 70.8354 110.402 70.9605 110.24 71.0539C110.077 71.1461 109.869 71.1922 109.616 71.1922H108.827V70.8423H109.603C109.778 70.8423 109.919 70.8121 110.025 70.7517C110.131 70.6912 110.208 70.6096 110.255 70.5068C110.304 70.4028 110.329 70.2857 110.329 70.1553C110.329 70.0249 110.304 69.9082 110.255 69.8054C110.208 69.7025 110.13 69.622 110.023 69.5636C109.916 69.5043 109.774 69.4746 109.597 69.4746H108.904V72.3818H108.509ZM112.02 72.4391C111.865 72.4391 111.725 72.4099 111.599 72.3516C111.472 72.2922 111.372 72.2069 111.298 72.0956C111.224 71.9832 111.187 71.8475 111.187 71.6884C111.187 71.5485 111.214 71.435 111.269 71.3481C111.324 71.2601 111.398 71.1912 111.49 71.1413C111.583 71.0915 111.684 71.0544 111.796 71.03C111.908 71.0045 112.021 70.9844 112.134 70.9696C112.283 70.9505 112.403 70.9362 112.496 70.9266C112.589 70.916 112.657 70.8985 112.699 70.8741C112.743 70.8498 112.764 70.8073 112.764 70.7469V70.7342C112.764 70.5773 112.721 70.4553 112.635 70.3684C112.551 70.2814 112.422 70.238 112.249 70.238C112.07 70.238 111.929 70.2772 111.828 70.3557C111.726 70.4341 111.654 70.5179 111.613 70.6069L111.257 70.4797C111.32 70.3313 111.405 70.2157 111.511 70.133C111.618 70.0492 111.735 69.9909 111.861 69.9581C111.988 69.9241 112.113 69.9072 112.236 69.9072C112.315 69.9072 112.405 69.9167 112.507 69.9358C112.609 69.9538 112.709 69.9915 112.804 70.0487C112.901 70.106 112.981 70.1924 113.044 70.308C113.108 70.4235 113.14 70.5783 113.14 70.7724V72.3818H112.764V72.051H112.745C112.72 72.104 112.677 72.1608 112.618 72.2212C112.559 72.2816 112.48 72.3331 112.381 72.3755C112.282 72.4179 112.162 72.4391 112.02 72.4391ZM112.077 72.1019C112.226 72.1019 112.351 72.0728 112.453 72.0145C112.555 71.9561 112.633 71.8809 112.685 71.7886C112.738 71.6964 112.764 71.5994 112.764 71.4976V71.154C112.748 71.1731 112.713 71.1906 112.659 71.2065C112.606 71.2214 112.545 71.2346 112.475 71.2463C112.406 71.2569 112.339 71.2664 112.273 71.2749C112.208 71.2823 112.156 71.2887 112.115 71.294C112.018 71.3067 111.927 71.3274 111.842 71.356C111.758 71.3836 111.69 71.4255 111.638 71.4817C111.587 71.5368 111.562 71.6121 111.562 71.7075C111.562 71.8379 111.61 71.9365 111.707 72.0033C111.804 72.0691 111.928 72.1019 112.077 72.1019ZM115.555 70.4861L115.218 70.5815C115.197 70.5253 115.165 70.4707 115.124 70.4177C115.084 70.3636 115.029 70.3191 114.959 70.2841C114.889 70.2491 114.799 70.2316 114.69 70.2316C114.54 70.2316 114.416 70.2661 114.316 70.335C114.218 70.4028 114.168 70.4893 114.168 70.5942C114.168 70.6875 114.202 70.7612 114.27 70.8153C114.338 70.8694 114.444 70.9144 114.588 70.9505L114.951 71.0395C115.169 71.0926 115.332 71.1737 115.439 71.2829C115.546 71.391 115.6 71.5304 115.6 71.7011C115.6 71.8411 115.559 71.9662 115.479 72.0765C115.399 72.1867 115.288 72.2737 115.145 72.3373C115.002 72.4009 114.835 72.4327 114.645 72.4327C114.396 72.4327 114.19 72.3787 114.027 72.2705C113.863 72.1624 113.76 72.0044 113.717 71.7966L114.073 71.7075C114.107 71.839 114.171 71.9376 114.265 72.0033C114.361 72.0691 114.485 72.1019 114.639 72.1019C114.814 72.1019 114.953 72.0648 115.056 71.9906C115.16 71.9153 115.212 71.8252 115.212 71.7202C115.212 71.6354 115.182 71.5644 115.122 71.5071C115.063 71.4488 114.972 71.4053 114.849 71.3767L114.442 71.2813C114.218 71.2283 114.054 71.1461 113.949 71.0348C113.845 70.9224 113.793 70.7819 113.793 70.6133C113.793 70.4755 113.832 70.3535 113.909 70.2475C113.987 70.1415 114.094 70.0583 114.229 69.9978C114.364 69.9374 114.518 69.9072 114.69 69.9072C114.932 69.9072 115.121 69.9602 115.259 70.0662C115.398 70.1722 115.497 70.3122 115.555 70.4861ZM117.227 69.939V70.2571H115.961V69.939H117.227ZM116.33 69.3537H116.705V71.6821C116.705 71.7881 116.721 71.8676 116.751 71.9206C116.783 71.9726 116.824 72.0076 116.872 72.0256C116.922 72.0426 116.975 72.051 117.03 72.051C117.071 72.051 117.105 72.0489 117.132 72.0447C117.158 72.0394 117.179 72.0351 117.195 72.0319L117.271 72.3691C117.246 72.3787 117.211 72.3882 117.165 72.3977C117.119 72.4083 117.062 72.4136 116.992 72.4136C116.886 72.4136 116.782 72.3908 116.68 72.3453C116.579 72.2997 116.495 72.2302 116.429 72.1369C116.363 72.0436 116.33 71.9259 116.33 71.7838V69.3537ZM120.145 72.4264C119.935 72.4264 119.748 72.3903 119.584 72.3182C119.421 72.2461 119.291 72.1459 119.194 72.0176C119.099 71.8883 119.047 71.7383 119.038 71.5676H119.439C119.448 71.6725 119.484 71.7632 119.547 71.8395C119.611 71.9148 119.694 71.9731 119.797 72.0145C119.9 72.0558 120.014 72.0765 120.139 72.0765C120.279 72.0765 120.403 72.0521 120.511 72.0033C120.619 71.9545 120.704 71.8867 120.766 71.7997C120.827 71.7128 120.858 71.6121 120.858 71.4976C120.858 71.3778 120.828 71.2723 120.769 71.1811C120.709 71.0888 120.622 71.0167 120.508 70.9648C120.393 70.9128 120.253 70.8869 120.088 70.8869H119.827V70.537H120.088C120.217 70.537 120.331 70.5136 120.428 70.467C120.527 70.4203 120.604 70.3546 120.659 70.2698C120.715 70.185 120.743 70.0853 120.743 69.9708C120.743 69.8605 120.719 69.7646 120.67 69.6829C120.621 69.6013 120.552 69.5377 120.463 69.4921C120.375 69.4465 120.272 69.4237 120.152 69.4237C120.039 69.4237 119.933 69.4444 119.834 69.4857C119.735 69.526 119.654 69.5849 119.592 69.6623C119.529 69.7386 119.495 69.8308 119.49 69.939H119.108C119.115 69.7683 119.166 69.6188 119.263 69.4905C119.359 69.3611 119.485 69.2604 119.641 69.1883C119.798 69.1162 119.97 69.0802 120.158 69.0802C120.36 69.0802 120.532 69.121 120.677 69.2026C120.821 69.2832 120.932 69.3898 121.009 69.5223C121.086 69.6548 121.125 69.798 121.125 69.9517C121.125 70.1351 121.077 70.2915 120.98 70.4209C120.885 70.5502 120.755 70.6398 120.591 70.6897V70.7151C120.796 70.749 120.957 70.8365 121.073 70.9775C121.188 71.1175 121.246 71.2908 121.246 71.4976C121.246 71.6746 121.198 71.8337 121.101 71.9747C121.006 72.1146 120.875 72.2249 120.71 72.3055C120.545 72.3861 120.356 72.4264 120.145 72.4264ZM122.959 72.4264C122.719 72.4264 122.515 72.3612 122.346 72.2307C122.178 72.0993 122.049 71.909 121.96 71.6598C121.871 71.4096 121.826 71.1074 121.826 70.7533C121.826 70.4013 121.871 70.1007 121.96 69.8515C122.05 69.6013 122.179 69.4104 122.348 69.279C122.518 69.1464 122.721 69.0802 122.959 69.0802C123.196 69.0802 123.399 69.1464 123.568 69.279C123.738 69.4104 123.867 69.6013 123.956 69.8515C124.046 70.1007 124.091 70.4013 124.091 70.7533C124.091 71.1074 124.047 71.4096 123.958 71.6598C123.868 71.909 123.74 72.0993 123.571 72.2307C123.402 72.3612 123.198 72.4264 122.959 72.4264ZM122.959 72.0765C123.196 72.0765 123.381 71.962 123.512 71.733C123.644 71.5039 123.709 71.1774 123.709 70.7533C123.709 70.4712 123.679 70.2311 123.619 70.0328C123.559 69.8345 123.474 69.6835 123.361 69.5796C123.25 69.4756 123.116 69.4237 122.959 69.4237C122.723 69.4237 122.539 69.5398 122.407 69.772C122.274 70.0031 122.208 70.3302 122.208 70.7533C122.208 71.0353 122.238 71.2749 122.297 71.4721C122.357 71.6693 122.442 71.8194 122.553 71.9222C122.666 72.0251 122.801 72.0765 122.959 72.0765ZM109.514 77.3818H108.509V74.1247H109.559C109.875 74.1247 110.145 74.1899 110.37 74.3203C110.595 74.4497 110.767 74.6357 110.887 74.8785C111.007 75.1203 111.067 75.4097 111.067 75.7469C111.067 76.0862 111.006 76.3783 110.885 76.6232C110.764 76.8671 110.588 77.0547 110.357 77.1862C110.126 77.3166 109.845 77.3818 109.514 77.3818ZM108.904 77.0319H109.489C109.758 77.0319 109.981 76.98 110.158 76.8761C110.335 76.7722 110.467 76.6243 110.554 76.4324C110.641 76.2405 110.685 76.012 110.685 75.7469C110.685 75.484 110.642 75.2576 110.556 75.0678C110.47 74.877 110.342 74.7306 110.171 74.6289C110 74.526 109.788 74.4746 109.533 74.4746H108.904V77.0319ZM112.396 77.4391C112.241 77.4391 112.101 77.4099 111.975 77.3516C111.848 77.2922 111.748 77.2069 111.674 77.0956C111.6 76.9832 111.563 76.8475 111.563 76.6884C111.563 76.5485 111.59 76.435 111.645 76.3481C111.701 76.2601 111.774 76.1912 111.867 76.1413C111.959 76.0915 112.061 76.0544 112.172 76.03C112.284 76.0045 112.397 75.9844 112.511 75.9696C112.659 75.9505 112.779 75.9362 112.872 75.9266C112.965 75.916 113.033 75.8985 113.075 75.8741C113.119 75.8498 113.14 75.8073 113.14 75.7469V75.7342C113.14 75.5773 113.097 75.4553 113.012 75.3684C112.927 75.2814 112.798 75.238 112.625 75.238C112.446 75.238 112.305 75.2772 112.204 75.3557C112.102 75.4341 112.03 75.5179 111.989 75.6069L111.633 75.4797C111.696 75.3313 111.781 75.2157 111.887 75.133C111.994 75.0492 112.111 74.9909 112.237 74.9581C112.364 74.9241 112.489 74.9072 112.612 74.9072C112.691 74.9072 112.781 74.9167 112.883 74.9358C112.986 74.9538 113.085 74.9915 113.18 75.0487C113.277 75.106 113.357 75.1924 113.42 75.308C113.484 75.4235 113.516 75.5783 113.516 75.7724V77.3818H113.14V77.051H113.121C113.096 77.104 113.053 77.1608 112.994 77.2212C112.935 77.2816 112.856 77.3331 112.757 77.3755C112.659 77.4179 112.538 77.4391 112.396 77.4391ZM112.453 77.1019C112.602 77.1019 112.727 77.0728 112.829 77.0145C112.932 76.9561 113.009 76.8809 113.061 76.7886C113.114 76.6964 113.14 76.5994 113.14 76.4976V76.154C113.125 76.1731 113.09 76.1906 113.035 76.2065C112.982 76.2214 112.921 76.2346 112.851 76.2463C112.782 76.2569 112.715 76.2664 112.649 76.2749C112.584 76.2823 112.532 76.2887 112.492 76.294C112.394 76.3067 112.303 76.3274 112.218 76.356C112.134 76.3836 112.066 76.4255 112.014 76.4817C111.964 76.5368 111.938 76.6121 111.938 76.7075C111.938 76.8379 111.986 76.9365 112.083 77.0033C112.18 77.0691 112.304 77.1019 112.453 77.1019ZM114.355 78.2979C114.291 78.2979 114.235 78.2926 114.185 78.282C114.135 78.2725 114.101 78.2629 114.082 78.2534L114.177 77.9226C114.268 77.9459 114.349 77.9544 114.419 77.948C114.489 77.9417 114.551 77.9104 114.605 77.8542C114.66 77.7991 114.71 77.7095 114.756 77.5854L114.826 77.3946L113.922 74.939H114.33L115.004 76.8856H115.029L115.704 74.939H116.111L115.074 77.7381C115.027 77.8643 114.97 77.9687 114.901 78.0514C114.832 78.1352 114.752 78.1972 114.66 78.2375C114.57 78.2778 114.469 78.2979 114.355 78.2979ZM118.337 75.4861L117.999 75.5815C117.978 75.5253 117.947 75.4707 117.906 75.4177C117.865 75.3636 117.81 75.3191 117.74 75.2841C117.67 75.2491 117.581 75.2316 117.471 75.2316C117.322 75.2316 117.197 75.2661 117.098 75.335C116.999 75.4028 116.95 75.4893 116.95 75.5942C116.95 75.6875 116.984 75.7612 117.052 75.8153C117.119 75.8694 117.225 75.9144 117.37 75.9505L117.732 76.0395C117.951 76.0926 118.113 76.1737 118.221 76.2829C118.328 76.391 118.381 76.5304 118.381 76.7011C118.381 76.8411 118.341 76.9662 118.26 77.0765C118.181 77.1867 118.069 77.2737 117.926 77.3373C117.783 77.4009 117.617 77.4327 117.427 77.4327C117.178 77.4327 116.972 77.3787 116.808 77.2705C116.645 77.1624 116.542 77.0044 116.498 76.7966L116.854 76.7075C116.888 76.839 116.952 76.9376 117.047 77.0033C117.142 77.0691 117.267 77.1019 117.421 77.1019C117.596 77.1019 117.734 77.0648 117.837 76.9906C117.941 76.9153 117.993 76.8252 117.993 76.7202C117.993 76.6354 117.963 76.5644 117.904 76.5071C117.845 76.4488 117.753 76.4053 117.631 76.3767L117.223 76.2813C117 76.2283 116.835 76.1461 116.73 76.0348C116.626 75.9224 116.574 75.7819 116.574 75.6133C116.574 75.4755 116.613 75.3535 116.691 75.2475C116.769 75.1415 116.876 75.0583 117.01 74.9978C117.146 74.9374 117.3 74.9072 117.471 74.9072C117.713 74.9072 117.903 74.9602 118.041 75.0662C118.18 75.1722 118.278 75.3122 118.337 75.4861Z" fill="#7A7A7A"/>
<path d="M45.7759 92.0225V101.794H44.5926V93.263H44.5353L42.1497 94.8471V93.6447L44.5926 92.0225H45.7759ZM51.6397 101.928C51.0798 101.928 50.5757 101.816 50.1272 101.594C49.6787 101.371 49.3193 101.066 49.0489 100.677C48.7785 100.289 48.6306 99.8473 48.6052 99.3511H49.7503C49.7948 99.7932 49.9952 100.159 50.3514 100.448C50.7109 100.735 51.1403 100.878 51.6397 100.878C52.0404 100.878 52.3967 100.784 52.7084 100.596C53.0233 100.409 53.2698 100.151 53.448 99.8234C53.6293 99.4926 53.7199 99.1189 53.7199 98.7022C53.7199 98.276 53.6261 97.8959 53.4384 97.5619C53.2539 97.2247 52.9995 96.9591 52.675 96.7651C52.3506 96.5711 51.98 96.4725 51.5633 96.4693C51.2643 96.4661 50.9574 96.5122 50.6425 96.6076C50.3276 96.6999 50.0684 96.8192 49.8648 96.9655L48.7579 96.8319L49.3495 92.0225H54.426V93.0722H50.3419L49.9984 95.954H50.0556C50.256 95.795 50.5073 95.663 50.8095 95.558C51.1117 95.453 51.4266 95.4005 51.7542 95.4005C52.3522 95.4005 52.885 95.5437 53.3525 95.8299C53.8233 96.113 54.1923 96.5011 54.4594 96.9941C54.7298 97.4871 54.865 98.0501 54.865 98.6831C54.865 99.3066 54.725 99.8632 54.4451 100.353C54.1684 100.84 53.7867 101.225 53.3 101.508C52.8134 101.788 52.2599 101.928 51.6397 101.928ZM56.7604 101.794V100.935L59.9857 97.4044C60.3642 96.9909 60.6759 96.6315 60.9208 96.3261C61.1658 96.0176 61.3471 95.7282 61.4648 95.4578C61.5856 95.1842 61.6461 94.898 61.6461 94.599C61.6461 94.2554 61.5634 93.958 61.398 93.7068C61.2357 93.4555 61.0131 93.2614 60.73 93.1247C60.4469 92.9879 60.1288 92.9195 59.7758 92.9195C59.4004 92.9195 59.0728 92.9974 58.7929 93.1533C58.5162 93.306 58.3015 93.5207 58.1488 93.7974C57.9993 94.0741 57.9245 94.3986 57.9245 94.7707H56.7985C56.7985 94.1982 56.9305 93.6956 57.1945 93.263C57.4585 92.8304 57.818 92.4933 58.2728 92.2515C58.7309 92.0098 59.2446 91.8889 59.8139 91.8889C60.3865 91.8889 60.8938 92.0098 61.3359 92.2515C61.7781 92.4933 62.1248 92.8193 62.3761 93.2296C62.6273 93.64 62.753 94.0964 62.753 94.599C62.753 94.9584 62.6878 95.3099 62.5574 95.6534C62.4301 95.9938 62.2075 96.3739 61.8894 96.7937C61.5745 97.2104 61.1371 97.7193 60.5773 98.3205L58.3826 100.668V100.744H62.9248V101.794H56.7604ZM68.1969 101.928C67.5671 101.928 67.0057 101.819 66.5127 101.603C66.0229 101.387 65.6332 101.086 65.3438 100.701C65.0575 100.313 64.9016 99.8632 64.8762 99.3511H66.0785C66.104 99.666 66.2121 99.9379 66.403 100.167C66.5938 100.393 66.8435 100.568 67.152 100.692C67.4606 100.816 67.8025 100.878 68.1778 100.878C68.5977 100.878 68.9699 100.805 69.2943 100.658C69.6187 100.512 69.8732 100.309 70.0577 100.048C70.2422 99.7869 70.3344 99.4847 70.3344 99.1412C70.3344 98.7817 70.2454 98.4652 70.0672 98.1917C69.8891 97.915 69.6283 97.6987 69.2848 97.5428C68.9412 97.3869 68.5214 97.309 68.0252 97.309H67.2427V96.2594H68.0252C68.4132 96.2594 68.7536 96.1894 69.0462 96.0494C69.342 95.9095 69.5726 95.7123 69.738 95.4578C69.9066 95.2033 69.9909 94.9043 69.9909 94.5608C69.9909 94.23 69.9177 93.9421 69.7714 93.6972C69.6251 93.4523 69.4184 93.2614 69.1512 93.1247C68.8872 92.9879 68.5754 92.9195 68.216 92.9195C67.8788 92.9195 67.5608 92.9815 67.2618 93.1056C66.966 93.2265 66.7242 93.403 66.5366 93.6352C66.3489 93.8642 66.2471 94.1409 66.2312 94.4654H65.0861C65.1052 93.9533 65.2595 93.5048 65.5489 93.1199C65.8384 92.7318 66.2169 92.4297 66.6845 92.2134C67.1552 91.9971 67.6721 91.8889 68.2351 91.8889C68.8395 91.8889 69.3579 92.0114 69.7905 92.2563C70.2231 92.4981 70.5555 92.8177 70.7877 93.2153C71.0199 93.6129 71.136 94.0423 71.136 94.5035C71.136 95.0538 70.9913 95.523 70.7018 95.9111C70.4155 96.2991 70.0259 96.5679 69.5329 96.7174V96.7937C70.1499 96.8955 70.6318 97.1579 70.9785 97.581C71.3252 98.0008 71.4986 98.5209 71.4986 99.1412C71.4986 99.6724 71.3539 100.149 71.0644 100.573C70.7781 100.992 70.3869 101.323 69.8907 101.565C69.3945 101.807 68.8299 101.928 68.1969 101.928Z" fill="#7A7A7A"/>
<path d="M92.9112 72.4264C92.7246 72.4264 92.5565 72.3893 92.407 72.315C92.2575 72.2408 92.1377 72.139 92.0476 72.0097C91.9575 71.8803 91.9082 71.733 91.8997 71.5676H92.2814C92.2962 71.7149 92.363 71.8369 92.4818 71.9333C92.6016 72.0288 92.7447 72.0765 92.9112 72.0765C93.0448 72.0765 93.1635 72.0452 93.2674 71.9826C93.3724 71.9201 93.4546 71.8342 93.5139 71.725C93.5744 71.6147 93.6046 71.4902 93.6046 71.3513C93.6046 71.2092 93.5733 71.0825 93.5108 70.9712C93.4493 70.8588 93.3644 70.7702 93.2563 70.7056C93.1481 70.6409 93.0246 70.608 92.8857 70.6069C92.7861 70.6059 92.6837 70.6213 92.5788 70.6531C92.4738 70.6838 92.3874 70.7236 92.3195 70.7724L91.9506 70.7278L92.1478 69.1247H93.84V69.4746H92.4786L92.3641 70.4352H92.3832C92.45 70.3822 92.5337 70.3382 92.6344 70.3032C92.7352 70.2682 92.8401 70.2507 92.9493 70.2507C93.1487 70.2507 93.3263 70.2984 93.4821 70.3938C93.639 70.4882 93.762 70.6176 93.8511 70.7819C93.9412 70.9462 93.9863 71.1339 93.9863 71.3449C93.9863 71.5527 93.9396 71.7383 93.8463 71.9015C93.7541 72.0638 93.6269 72.192 93.4646 72.2864C93.3024 72.3797 93.1179 72.4264 92.9112 72.4264ZM95.6995 72.4264C95.5659 72.4242 95.4324 72.3988 95.2988 72.35C95.1652 72.3013 95.0432 72.2191 94.933 72.1035C94.8227 71.9869 94.7342 71.8294 94.6674 71.6312C94.6006 71.4318 94.5672 71.1816 94.5672 70.8805C94.5672 70.5921 94.5942 70.3366 94.6483 70.1139C94.7024 69.8902 94.7808 69.702 94.8837 69.5493C94.9865 69.3956 95.1106 69.279 95.2558 69.1994C95.4021 69.1199 95.567 69.0802 95.7504 69.0802C95.9328 69.0802 96.095 69.1167 96.2371 69.1899C96.3802 69.262 96.4969 69.3627 96.587 69.4921C96.6771 69.6214 96.7354 69.7704 96.7619 69.939H96.3739C96.3378 69.7927 96.2678 69.6713 96.1639 69.5748C96.06 69.4783 95.9222 69.4301 95.7504 69.4301C95.4981 69.4301 95.2993 69.5398 95.154 69.7593C95.0098 69.9787 94.9372 70.2867 94.9362 70.6833H94.9616C95.021 70.5932 95.0915 70.5163 95.1731 70.4527C95.2558 70.388 95.347 70.3382 95.4467 70.3032C95.5463 70.2682 95.6518 70.2507 95.7632 70.2507C95.9498 70.2507 96.1205 70.2974 96.2753 70.3907C96.4301 70.4829 96.5541 70.6107 96.6474 70.7739C96.7407 70.9362 96.7874 71.1222 96.7874 71.3322C96.7874 71.5336 96.7423 71.7181 96.6522 71.8856C96.5621 72.0521 96.4354 72.1846 96.2721 72.2832C96.1099 72.3808 95.919 72.4285 95.6995 72.4264ZM95.6995 72.0765C95.8331 72.0765 95.9529 72.0431 96.059 71.9763C96.1661 71.9095 96.2504 71.8199 96.3118 71.7075C96.3744 71.5951 96.4057 71.47 96.4057 71.3322C96.4057 71.1975 96.3755 71.0751 96.315 70.9648C96.2557 70.8535 96.1735 70.7649 96.0685 70.6992C95.9646 70.6335 95.8459 70.6006 95.7123 70.6006C95.6115 70.6006 95.5177 70.6207 95.4308 70.661C95.3438 70.7003 95.2675 70.7543 95.2017 70.8232C95.1371 70.8922 95.0862 70.9712 95.0491 71.0602C95.012 71.1482 94.9934 71.241 94.9934 71.3385C94.9934 71.4679 95.0236 71.5888 95.0841 71.7011C95.1456 71.8135 95.2293 71.9042 95.3353 71.9731C95.4424 72.042 95.5638 72.0765 95.6995 72.0765ZM97.5396 72.4073C97.4612 72.4073 97.3938 72.3792 97.3377 72.323C97.2815 72.2668 97.2534 72.1995 97.2534 72.121C97.2534 72.0426 97.2815 71.9752 97.3377 71.919C97.3938 71.8628 97.4612 71.8347 97.5396 71.8347C97.6181 71.8347 97.6854 71.8628 97.7416 71.919C97.7978 71.9752 97.8259 72.0426 97.8259 72.121C97.8259 72.173 97.8127 72.2207 97.7861 72.2641C97.7607 72.3076 97.7262 72.3426 97.6828 72.3691C97.6404 72.3946 97.5926 72.4073 97.5396 72.4073ZM98.4167 71.7139V71.3894L99.8481 69.1247H100.083V69.6273H99.9244L98.843 71.3385V71.364H100.771V71.7139H98.4167ZM99.9499 72.3818V71.6153V71.4642V69.1247H100.325V72.3818H99.9499ZM103.027 71.7711V71.5994C103.027 71.4806 103.051 71.3719 103.1 71.2733C103.15 71.1737 103.222 71.0941 103.316 71.0348C103.412 70.9743 103.527 70.9441 103.663 70.9441C103.801 70.9441 103.916 70.9743 104.01 71.0348C104.103 71.0941 104.174 71.1737 104.221 71.2733C104.269 71.3719 104.293 71.4806 104.293 71.5994V71.7711C104.293 71.8899 104.268 71.9991 104.22 72.0987C104.172 72.1973 104.101 72.2769 104.007 72.3373C103.913 72.3967 103.799 72.4264 103.663 72.4264C103.525 72.4264 103.409 72.3967 103.315 72.3373C103.22 72.2769 103.149 72.1973 103.1 72.0987C103.051 71.9991 103.027 71.8899 103.027 71.7711ZM103.351 71.5994V71.7711C103.351 71.8697 103.375 71.9583 103.421 72.0367C103.468 72.1141 103.549 72.1528 103.663 72.1528C103.774 72.1528 103.853 72.1141 103.898 72.0367C103.945 71.9583 103.968 71.8697 103.968 71.7711V71.5994C103.968 71.5008 103.946 71.4128 103.902 71.3354C103.857 71.2569 103.778 71.2177 103.663 71.2177C103.552 71.2177 103.472 71.2569 103.423 71.3354C103.375 71.4128 103.351 71.5008 103.351 71.5994ZM101.405 69.9072V69.7354C101.405 69.6167 101.429 69.508 101.478 69.4094C101.528 69.3097 101.6 69.2302 101.694 69.1708C101.79 69.1104 101.905 69.0802 102.041 69.0802C102.179 69.0802 102.294 69.1104 102.388 69.1708C102.481 69.2302 102.551 69.3097 102.599 69.4094C102.647 69.508 102.671 69.6167 102.671 69.7354V69.9072C102.671 70.0259 102.646 70.1351 102.598 70.2348C102.55 70.3334 102.479 70.4129 102.384 70.4734C102.291 70.5327 102.177 70.5624 102.041 70.5624C101.903 70.5624 101.787 70.5327 101.693 70.4734C101.598 70.4129 101.527 70.3334 101.478 70.2348C101.429 70.1351 101.405 70.0259 101.405 69.9072ZM101.729 69.7354V69.9072C101.729 70.0058 101.752 70.0943 101.799 70.1728C101.846 70.2502 101.926 70.2889 102.041 70.2889C102.152 70.2889 102.231 70.2502 102.276 70.1728C102.323 70.0943 102.346 70.0058 102.346 69.9072V69.7354C102.346 69.6368 102.324 69.5488 102.279 69.4714C102.235 69.3929 102.155 69.3537 102.041 69.3537C101.93 69.3537 101.849 69.3929 101.801 69.4714C101.753 69.5488 101.729 69.6368 101.729 69.7354ZM101.526 72.3818L103.765 69.1247H104.127L101.888 72.3818H101.526Z" fill="#0FCC3E"/>
<path d="M43.7309 109.233V107.134H44.0871V109.233H43.7309ZM42.8593 108.362V108.005H44.9587V108.362H42.8593ZM46.7705 109.85C46.5606 109.85 46.3735 109.814 46.2091 109.742C46.0458 109.67 45.9159 109.57 45.8195 109.441C45.724 109.312 45.6721 109.162 45.6636 108.991H46.0644C46.0729 109.096 46.1089 109.187 46.1725 109.263C46.2362 109.339 46.3194 109.397 46.4222 109.438C46.5251 109.48 46.6391 109.5 46.7642 109.5C46.9041 109.5 47.0282 109.476 47.1363 109.427C47.2445 109.378 47.3293 109.311 47.3908 109.224C47.4523 109.137 47.483 109.036 47.483 108.921C47.483 108.802 47.4533 108.696 47.394 108.605C47.3346 108.513 47.2476 108.441 47.1331 108.389C47.0186 108.337 46.8787 108.311 46.7133 108.311H46.4524V107.961H46.7133C46.8426 107.961 46.9561 107.937 47.0536 107.891C47.1522 107.844 47.2291 107.778 47.2842 107.694C47.3404 107.609 47.3685 107.509 47.3685 107.395C47.3685 107.284 47.3441 107.188 47.2954 107.107C47.2466 107.025 47.1777 106.961 47.0886 106.916C47.0006 106.87 46.8967 106.848 46.7769 106.848C46.6645 106.848 46.5585 106.868 46.4588 106.91C46.3602 106.95 46.2796 107.009 46.2171 107.086C46.1545 107.162 46.1206 107.255 46.1153 107.363H45.7336C45.7399 107.192 45.7914 107.043 45.8879 106.914C45.9843 106.785 46.1105 106.684 46.2664 106.612C46.4233 106.54 46.5956 106.504 46.7832 106.504C46.9847 106.504 47.1575 106.545 47.3017 106.626C47.4459 106.707 47.5567 106.814 47.6341 106.946C47.7115 107.079 47.7502 107.222 47.7502 107.376C47.7502 107.559 47.702 107.715 47.6055 107.845C47.5101 107.974 47.3802 108.064 47.2158 108.113V108.139C47.4215 108.173 47.5822 108.26 47.6977 108.401C47.8133 108.541 47.8711 108.715 47.8711 108.921C47.8711 109.098 47.8228 109.258 47.7264 109.399C47.6309 109.538 47.5005 109.649 47.3351 109.729C47.1697 109.81 46.9815 109.85 46.7705 109.85ZM49.5839 109.85C49.3443 109.85 49.1402 109.785 48.9716 109.655C48.8031 109.523 48.6742 109.333 48.5852 109.084C48.4961 108.833 48.4516 108.531 48.4516 108.177C48.4516 107.825 48.4961 107.524 48.5852 107.275C48.6753 107.025 48.8046 106.834 48.9732 106.703C49.1429 106.57 49.3464 106.504 49.5839 106.504C49.8214 106.504 50.0245 106.57 50.1931 106.703C50.3627 106.834 50.4921 107.025 50.5811 107.275C50.6712 107.524 50.7163 107.825 50.7163 108.177C50.7163 108.531 50.6718 108.833 50.5827 109.084C50.4937 109.333 50.3648 109.523 50.1962 109.655C50.0277 109.785 49.8236 109.85 49.5839 109.85ZM49.5839 109.5C49.8214 109.5 50.0059 109.386 50.1374 109.157C50.2689 108.928 50.3346 108.601 50.3346 108.177C50.3346 107.895 50.3044 107.655 50.244 107.457C50.1846 107.258 50.0987 107.107 49.9863 107.003C49.875 106.899 49.7409 106.848 49.5839 106.848C49.3486 106.848 49.1646 106.964 49.0321 107.196C48.8995 107.427 48.8333 107.754 48.8333 108.177C48.8333 108.459 48.863 108.699 48.9223 108.896C48.9817 109.093 49.0671 109.243 49.1784 109.346C49.2908 109.449 49.426 109.5 49.5839 109.5ZM52.383 109.85C52.1434 109.85 51.9393 109.785 51.7707 109.655C51.6022 109.523 51.4733 109.333 51.3843 109.084C51.2952 108.833 51.2507 108.531 51.2507 108.177C51.2507 107.825 51.2952 107.524 51.3843 107.275C51.4744 107.025 51.6038 106.834 51.7723 106.703C51.942 106.57 52.1455 106.504 52.383 106.504C52.6205 106.504 52.8236 106.57 52.9922 106.703C53.1618 106.834 53.2912 107.025 53.3802 107.275C53.4704 107.524 53.5154 107.825 53.5154 108.177C53.5154 108.531 53.4709 108.833 53.3818 109.084C53.2928 109.333 53.1639 109.523 52.9954 109.655C52.8268 109.785 52.6227 109.85 52.383 109.85ZM52.383 109.5C52.6205 109.5 52.805 109.386 52.9365 109.157C53.068 108.928 53.1337 108.601 53.1337 108.177C53.1337 107.895 53.1035 107.655 53.0431 107.457C52.9837 107.258 52.8978 107.107 52.7854 107.003C52.6741 106.899 52.54 106.848 52.383 106.848C52.1477 106.848 51.9637 106.964 51.8312 107.196C51.6986 107.427 51.6324 107.754 51.6324 108.177C51.6324 108.459 51.6621 108.699 51.7214 108.896C51.7808 109.093 51.8662 109.243 51.9775 109.346C52.0899 109.449 52.2251 109.5 52.383 109.5Z" fill="#0FCC3E"/>
<path d="M86.7467 69.3574C86.6593 69.27 86.5175 69.27 86.43 69.3574L85.005 70.7825C84.9175 70.87 84.9175 71.0117 85.005 71.0992C85.0924 71.1866 85.2342 71.1866 85.3216 71.0992L86.5884 69.8325L87.8551 71.0992C87.9426 71.1866 88.0843 71.1866 88.1718 71.0992C88.2592 71.0117 88.2592 70.87 88.1718 70.7825L86.7467 69.3574ZM86.5884 72.918L86.8123 72.918L86.8123 69.5158L86.5884 69.5158L86.3645 69.5158L86.3645 72.918L86.5884 72.918Z" fill="#0FCC3E"/>
<path opacity="0.5" d="M98.1789 95.4474C92.2699 95.4474 92.2699 100.44 86.3604 100.44V112.238H145.445V77.8799C139.538 77.8799 139.585 97.0583 133.63 99.1685C127.987 101.168 127.722 94.6306 121.814 94.6306C115.906 94.6306 115.906 100.44 109.997 100.44C104.088 100.44 104.088 95.4474 98.1789 95.4474Z" fill="#DFF3E7"/>
<rect opacity="0.8" x="32.6748" y="58.9331" width="117.737" height="63.1244" stroke="#4558ED" stroke-width="0.750979"/>
<rect x="31.1733" y="57.4326" width="3.75284" height="3.75284" fill="white" stroke="#4558ED" stroke-width="0.750979"/>
<rect x="148.159" y="57.4326" width="3.75284" height="3.75284" fill="white" stroke="#4558ED" stroke-width="0.750979"/>
<rect x="31.1733" y="119.806" width="3.75284" height="3.75284" fill="white" stroke="#4558ED" stroke-width="0.750979"/>
<rect x="148.159" y="119.806" width="3.75284" height="3.75284" fill="white" stroke="#4558ED" stroke-width="0.750979"/>
<path d="M135.092 26.2539H134.298C134.251 26.0256 134.169 25.8251 134.052 25.6523C133.937 25.4794 133.796 25.3344 133.629 25.217C133.465 25.0976 133.283 25.0079 133.082 24.9482C132.882 24.8885 132.673 24.8586 132.455 24.8586C132.058 24.8586 131.699 24.9589 131.377 25.1594C131.057 25.36 130.802 25.6555 130.612 26.0459C130.424 26.4363 130.33 26.9153 130.33 27.4828C130.33 28.0503 130.424 28.5292 130.612 28.9197C130.802 29.3101 131.057 29.6056 131.377 29.8061C131.699 30.0067 132.058 30.1069 132.455 30.1069C132.673 30.1069 132.882 30.0771 133.082 30.0173C133.283 29.9576 133.465 29.869 133.629 29.7517C133.796 29.6322 133.937 29.4861 134.052 29.3133C134.169 29.1383 134.251 28.9378 134.298 28.7116H135.092C135.032 29.0466 134.923 29.3463 134.766 29.6109C134.608 29.8754 134.411 30.1005 134.177 30.2861C133.942 30.4696 133.679 30.6094 133.386 30.7054C133.096 30.8014 132.786 30.8494 132.455 30.8494C131.896 30.8494 131.399 30.7128 130.964 30.4397C130.529 30.1667 130.186 29.7784 129.936 29.2749C129.687 28.7714 129.562 28.174 129.562 27.4828C129.562 26.7915 129.687 26.1942 129.936 25.6907C130.186 25.1872 130.529 24.7989 130.964 24.5258C131.399 24.2527 131.896 24.1162 132.455 24.1162C132.786 24.1162 133.096 24.1642 133.386 24.2602C133.679 24.3562 133.942 24.497 134.177 24.6826C134.411 24.8661 134.608 25.0901 134.766 25.3546C134.923 25.6171 135.032 25.9168 135.092 26.2539ZM138.269 30.8622C137.825 30.8622 137.436 30.7566 137.101 30.5454C136.768 30.3341 136.508 30.0387 136.32 29.6589C136.134 29.2791 136.042 28.8354 136.042 28.3276C136.042 27.8156 136.134 27.3686 136.32 26.9867C136.508 26.6048 136.768 26.3083 137.101 26.0971C137.436 25.8859 137.825 25.7803 138.269 25.7803C138.713 25.7803 139.101 25.8859 139.434 26.0971C139.769 26.3083 140.029 26.6048 140.215 26.9867C140.402 27.3686 140.496 27.8156 140.496 28.3276C140.496 28.8354 140.402 29.2791 140.215 29.6589C140.029 30.0387 139.769 30.3341 139.434 30.5454C139.101 30.7566 138.713 30.8622 138.269 30.8622ZM138.269 30.1837C138.606 30.1837 138.883 30.0973 139.101 29.9245C139.319 29.7517 139.48 29.5245 139.584 29.2429C139.689 28.9613 139.741 28.6562 139.741 28.3276C139.741 27.9991 139.689 27.6929 139.584 27.4092C139.48 27.1254 139.319 26.8961 139.101 26.7211C138.883 26.5462 138.606 26.4587 138.269 26.4587C137.932 26.4587 137.655 26.5462 137.437 26.7211C137.219 26.8961 137.058 27.1254 136.954 27.4092C136.849 27.6929 136.797 27.9991 136.797 28.3276C136.797 28.6562 136.849 28.9613 136.954 29.2429C137.058 29.5245 137.219 29.7517 137.437 29.9245C137.655 30.0973 137.932 30.1837 138.269 30.1837ZM144.286 30.7598V24.2058H146.577C147.034 24.2058 147.411 24.2847 147.707 24.4426C148.004 24.5983 148.225 24.8085 148.37 25.073C148.515 25.3354 148.587 25.6267 148.587 25.9467C148.587 26.2283 148.537 26.4608 148.437 26.6443C148.339 26.8278 148.209 26.9729 148.046 27.0795C147.886 27.1862 147.712 27.2652 147.525 27.3164V27.3804C147.725 27.3932 147.927 27.4636 148.13 27.5916C148.332 27.7196 148.502 27.9031 148.638 28.142C148.775 28.381 148.843 28.6732 148.843 29.0189C148.843 29.3474 148.769 29.6429 148.619 29.9053C148.47 30.1677 148.234 30.3757 147.912 30.5294C147.59 30.683 147.171 30.7598 146.654 30.7598H144.286ZM145.08 30.0557H146.654C147.173 30.0557 147.541 29.9554 147.758 29.7549C147.978 29.5522 148.088 29.3069 148.088 29.0189C148.088 28.797 148.031 28.5922 147.918 28.4044C147.805 28.2145 147.644 28.0631 147.435 27.95C147.226 27.8348 146.979 27.7772 146.693 27.7772H145.08V30.0557ZM145.08 27.0859H146.552C146.791 27.0859 147.006 27.039 147.198 26.9451C147.392 26.8513 147.546 26.719 147.659 26.5483C147.774 26.3776 147.832 26.1771 147.832 25.9467C147.832 25.6587 147.732 25.4144 147.531 25.2138C147.331 25.0111 147.013 24.9098 146.577 24.9098H145.08V27.0859ZM153.143 28.75V25.8443H153.898V30.7598H153.143V29.9277H153.091C152.976 30.1773 152.797 30.3896 152.554 30.5646C152.311 30.7374 152.003 30.8238 151.632 30.8238C151.325 30.8238 151.052 30.7566 150.813 30.6222C150.574 30.4856 150.386 30.2808 150.25 30.0077C150.113 29.7325 150.045 29.3858 150.045 28.9677V25.8443H150.8V28.9165C150.8 29.2749 150.9 29.5608 151.101 29.7741C151.304 29.9875 151.562 30.0941 151.875 30.0941C152.063 30.0941 152.254 30.0461 152.448 29.9501C152.645 29.8541 152.809 29.7069 152.941 29.5085C153.075 29.3101 153.143 29.0573 153.143 28.75ZM155.281 30.7598V25.8443H156.036V30.7598H155.281ZM155.665 25.025C155.518 25.025 155.391 24.9749 155.284 24.8746C155.18 24.7743 155.128 24.6538 155.128 24.513C155.128 24.3722 155.18 24.2516 155.284 24.1514C155.391 24.0511 155.518 24.001 155.665 24.001C155.812 24.001 155.938 24.0511 156.043 24.1514C156.15 24.2516 156.203 24.3722 156.203 24.513C156.203 24.6538 156.15 24.7743 156.043 24.8746C155.938 24.9749 155.812 25.025 155.665 25.025ZM158.175 24.2058V30.7598H157.42V24.2058H158.175ZM161.414 30.8622C161.005 30.8622 160.643 30.7587 160.33 30.5518C160.016 30.3427 159.771 30.0483 159.593 29.6685C159.416 29.2866 159.328 28.8354 159.328 28.3148C159.328 27.7985 159.416 27.3505 159.593 26.9707C159.771 26.591 160.017 26.2976 160.333 26.0907C160.648 25.8837 161.013 25.7803 161.427 25.7803C161.747 25.7803 162 25.8336 162.186 25.9403C162.373 26.0448 162.516 26.1643 162.614 26.2987C162.715 26.431 162.793 26.5398 162.848 26.6251H162.912V24.2058H163.667V30.7598H162.938V30.0045H162.848C162.793 30.0941 162.714 30.2072 162.611 30.3437C162.509 30.4781 162.363 30.5987 162.173 30.7054C161.983 30.8099 161.73 30.8622 161.414 30.8622ZM161.517 30.1837C161.82 30.1837 162.076 30.1048 162.285 29.9469C162.494 29.7869 162.653 29.5661 162.762 29.2845C162.87 29.0007 162.925 28.6732 162.925 28.302C162.925 27.9351 162.872 27.614 162.765 27.3388C162.658 27.0614 162.5 26.8459 162.291 26.6923C162.082 26.5366 161.824 26.4587 161.517 26.4587C161.197 26.4587 160.93 26.5408 160.717 26.7051C160.506 26.8673 160.347 27.0881 160.24 27.3676C160.135 27.6449 160.083 27.9564 160.083 28.302C160.083 28.6519 160.136 28.9698 160.243 29.2557C160.352 29.5394 160.512 29.7656 160.723 29.9341C160.936 30.1005 161.201 30.1837 161.517 30.1837Z" fill="#6A6969"/>
<defs>
<linearGradient id="paint0_linear_706_4880" x1="162" y1="185" x2="162" y2="-6.0721e-06" gradientUnits="userSpaceOnUse">
<stop stop-color="#FF7B50"/>
<stop offset="1" stop-color="#FFBAA2"/>
</linearGradient>
</defs>
</svg>
