<svg width="271" height="227" viewBox="0 0 271 227" fill="none" xmlns="http://www.w3.org/2000/svg">
<circle cx="75.5777" cy="151.155" r="74.5777" stroke="white" stroke-width="2"/>
<circle cx="151.155" cy="75.5777" r="74.5777" stroke="white" stroke-width="2"/>
<circle cx="195.422" cy="151.155" r="74.5777" stroke="white" stroke-width="2"/>
<path d="M121.59 140.001C123.421 140.048 124.906 141.499 124.996 143.329C125.085 145.157 123.75 146.747 121.932 146.973C120.629 147.136 119.346 146.555 118.606 145.469C117.868 144.384 117.799 142.976 118.428 141.823C119.057 140.671 120.278 139.967 121.59 140.001Z" fill="#4C4C4C"/>
<path d="M76.5904 72.0012C78.421 72.0479 79.906 73.499 79.9957 75.3285C80.0855 77.1574 78.7496 78.7468 76.9324 78.973C75.6293 79.1356 74.3456 78.5546 73.6064 77.4692C72.8679 76.3837 72.7987 74.9762 73.4275 73.8234C74.057 72.6707 75.2776 71.9672 76.5904 72.0012Z" fill="#4C4C4C"/>
<path d="M224.59 79.0012C226.421 79.0479 227.906 80.499 227.996 82.3285C228.085 84.1574 226.75 85.7468 224.932 85.973C223.629 86.1356 222.346 85.5546 221.606 84.4692C220.868 83.3837 220.799 81.9762 221.428 80.8234C222.057 79.6707 223.278 78.9672 224.59 79.0012Z" fill="#4C4C4C"/>
</svg>
