<svg width="32" height="32" viewBox="0 0 32 32" fill="none" xmlns="http://www.w3.org/2000/svg">
<path d="M19.8194 20.103C14.1465 25.992 7.76034 28.9085 5.55381 26.6179C3.34846 24.3286 6.15794 17.6991 11.8297 11.8101C17.5026 5.92103 23.8899 3.0033 26.0965 5.29389C28.3018 7.58326 25.4923 14.2139 19.8194 20.103Z" stroke="white" stroke-width="2.57461"/>
<path d="M11.8316 20.103C17.5043 25.992 23.8901 28.9085 26.0965 26.6179C28.3017 24.3286 25.4924 17.6991 19.8209 11.8101C14.1471 5.92103 7.76017 3.0033 5.55376 5.29389C3.34852 7.58326 6.15785 14.2139 11.8305 20.103H11.8316Z" stroke="white" stroke-width="2.57461"/>
<path d="M16.04 15.9575H16.0452V15.9626H16.04V15.9575Z" stroke="white" stroke-width="2.57461"/>
</svg>
