<svg width="178" height="192" viewBox="0 0 178 192" fill="none" xmlns="http://www.w3.org/2000/svg">
<path d="M75.5981 25.6084C96.3315 18.7389 116.583 17.0935 132.55 19.9562C148.547 22.8241 160.074 30.1726 163.706 41.1334C167.338 52.0943 162.479 64.8728 151.359 76.725C140.26 88.5557 123.033 99.328 102.299 106.198C81.5659 113.067 61.3139 114.713 45.3462 111.85C29.3498 108.982 17.8228 101.632 14.1912 90.6717C10.5598 79.711 15.4181 66.9332 26.5372 55.0812C37.6365 43.2505 54.8645 32.478 75.5981 25.6084Z" stroke="white" stroke-width="1.3274"/>
<path d="M75.5966 85.6108C96.33 78.7413 116.581 77.096 132.549 79.9586C148.545 82.8265 160.073 90.1751 163.705 101.136C167.336 112.097 162.477 124.875 151.358 136.727C140.259 148.558 123.031 159.33 102.298 166.2C81.5644 173.07 61.3125 174.715 45.3448 171.853C29.3483 168.985 17.8214 161.635 14.1898 150.674C10.5583 139.713 15.4166 126.936 26.5357 115.084C37.635 103.253 54.863 92.4804 75.5966 85.6108Z" stroke="white" stroke-width="1.3274"/>
<path d="M88.4956 48.8679C115.209 48.8682 136.843 70.1193 136.843 96.3083C136.843 122.497 115.209 143.749 88.4956 143.75C61.7817 143.75 40.147 122.498 40.147 96.3083C40.147 70.1192 61.7817 48.8679 88.4956 48.8679Z" stroke="white" stroke-width="1.3274"/>
<rect x="30.2725" y="106.699" width="5" height="5" rx="2.5" fill="#4C4C4C" stroke="white"/>
<rect x="142.272" y="80.6987" width="5" height="5" rx="2.5" fill="#4C4C4C" stroke="white"/>
</svg>
