<svg width="44" height="44" viewBox="0 0 44 44" fill="none" xmlns="http://www.w3.org/2000/svg">
<path d="M39.0886 26.848C39.0886 32.1045 37.4825 36.4038 34.5047 39.3703C31.5895 42.3209 26.8141 43.9405 20.7961 44.0018C20.6769 44.0018 20.5558 44.0018 20.4346 44.0018C20.2529 44.0018 20.0712 44.0018 19.8914 44.0018C17.3123 43.986 15.1083 43.8575 13.211 43.6479C13.0762 43.634 12.9766 43.5173 12.9766 43.3809V29.9252C12.9766 29.2983 13.1798 28.6872 13.5569 28.1888C13.7327 27.9555 13.9262 27.734 14.1352 27.5263C15.0067 26.6562 16.1126 26.0589 17.3201 25.8038L19.7371 25.2975C20.0184 25.2382 20.0184 24.8328 19.7371 24.7735L17.3201 24.2672C16.1145 24.0141 15.0067 23.4168 14.1352 22.5447C13.9262 22.3371 13.7327 22.1156 13.5569 21.8822C13.1798 21.3838 12.9785 20.7747 12.9785 20.1478V12.1721C12.9785 12.0396 13.0743 11.9269 13.2032 11.9071C15.6573 11.5412 18.555 11.2743 21.7125 11.2743C27.6133 11.2743 31.8142 12.6586 34.6024 15.2888C37.4356 17.9151 39.0886 21.6409 39.0886 26.85V26.848Z" fill="white"/>
<path d="M44 9.38775H10.3655V20.057C10.3655 20.6443 10.1896 21.2198 9.85355 21.6984C9.64252 21.999 9.40415 22.2818 9.14232 22.5429C8.27088 23.413 7.16497 24.0103 5.95746 24.2654L3.54048 24.7716C3.25911 24.831 3.25911 25.2364 3.54048 25.2957L5.95746 25.802C7.16302 26.0551 8.26893 26.6523 9.14232 27.5245C9.40415 27.7855 9.64057 28.0683 9.85159 28.3669C10.1877 28.8455 10.3635 29.421 10.3635 30.0084V43.9031L0 33.4138V0.00593285V0H33.6795L43.998 9.38775H44Z" fill="white"/>
</svg>
