<svg width="18" height="18" viewBox="0 0 18 18" fill="none" xmlns="http://www.w3.org/2000/svg">
<g clip-path="url(#clip0_318_3175)">
<path d="M9 18C4.03748 18 0 13.9625 0 9C0 4.03748 4.03748 0 9 0C13.9625 0 18 4.03748 18 9C18 13.9625 13.9625 18 9 18ZM9 1.125C4.65764 1.125 1.125 4.65764 1.125 9C1.125 13.3424 4.65764 16.875 9 16.875C13.3424 16.875 16.875 13.3424 16.875 9C16.875 4.65764 13.3424 1.125 9 1.125ZM7.71019 12.2102L13.3352 6.58519C13.555 6.36539 13.555 6.00947 13.3352 5.78981C13.1154 5.57016 12.7595 5.57002 12.5398 5.78981L7.3125 11.0171L5.46019 9.16481C5.24039 8.94501 4.88447 8.94501 4.66481 9.16481C4.44516 9.38461 4.44502 9.74053 4.66481 9.96019L6.91481 12.2102C7.02464 12.32 7.16864 12.375 7.3125 12.375C7.45636 12.375 7.60036 12.32 7.71019 12.2102Z" fill="#4558ED"/>
</g>
<defs>
<clipPath id="clip0_318_3175">
<rect width="18" height="18" fill="white"/>
</clipPath>
</defs>
</svg>
