<svg width="325" height="185" viewBox="0 0 325 185" fill="none" xmlns="http://www.w3.org/2000/svg">
<rect x="0.5" y="0.5" width="324" height="184" rx="9.5" fill="url(#paint0_linear_706_4927)"/>
<rect x="0.5" y="0.5" width="324" height="184" rx="9.5" stroke="#E2E2E2"/>
<path d="M15.5 37H309.5V160.504C309.5 165.748 305.248 170 300.004 170H24.9962C19.7516 170 15.5 165.748 15.5 160.504V37Z" fill="#FAFAFA"/>
<path d="M309.104 37.3955V160.504C309.104 165.53 305.03 169.604 300.004 169.604H24.9961C19.9701 169.604 15.8956 165.53 15.8955 160.504V37.3955H309.104Z" stroke="#BDBDBD" stroke-opacity="0.5" stroke-width="0.79135"/>
<mask id="path-4-inside-1_706_4927" fill="white">
<path d="M309.5 37L15.5 37L15.5 24.4962C15.5 19.2516 19.7516 15 24.9962 15L300.004 15C305.248 15 309.5 19.2516 309.5 24.4962L309.5 37Z"/>
</mask>
<path d="M309.5 37L15.5 37L15.5 24.4962C15.5 19.2516 19.7516 15 24.9962 15L300.004 15C305.248 15 309.5 19.2516 309.5 24.4962L309.5 37Z" fill="white"/>
<path d="M309.5 37L15.5 37L309.5 37M14.7086 24.4962C14.7087 18.8145 19.3145 14.2086 24.9962 14.2086L300.004 14.2087C305.685 14.2087 310.291 18.8146 310.291 24.4962L308.709 24.4962C308.709 19.6887 304.811 15.7914 300.004 15.7914L24.9962 15.7914C20.1887 15.7914 16.2914 19.6886 16.2914 24.4962L14.7086 24.4962ZM300.004 14.2087C305.685 14.2087 310.291 18.8146 310.291 24.4962L310.291 37L308.709 37L308.709 24.4962C308.709 19.6887 304.811 15.7914 300.004 15.7914L300.004 14.2087ZM14.7086 37L14.7086 24.4962C14.7087 18.8145 19.3145 14.2086 24.9962 14.2086L24.9962 15.7914C20.1887 15.7914 16.2914 19.6886 16.2914 24.4962L16.2914 37L14.7086 37Z" fill="#BDBDBD" fill-opacity="0.5" mask="url(#path-4-inside-1_706_4927)"/>
<circle cx="46.5573" cy="27.6628" r="3.95675" fill="#FD2929"/>
<circle cx="59.219" cy="27.6628" r="3.95675" fill="#FABA0A"/>
<circle cx="71.8801" cy="27.6628" r="3.95675" fill="#51D201"/>
<circle cx="52.2231" cy="56.4838" r="9.97102" fill="white" stroke="#5DD77B" stroke-width="0.63308"/>
<circle cx="125.028" cy="56.4838" r="9.97102" fill="white" stroke="#5DD77B" stroke-width="0.63308"/>
<circle cx="197.831" cy="56.4838" r="9.97102" fill="white" stroke="#DADADA" stroke-width="0.63308"/>
<circle cx="270.636" cy="56.4838" r="10.2876" fill="white"/>
<path d="M68.0503 57.2749H109.201" stroke="#5DD77B" stroke-width="1.18703" stroke-linecap="round"/>
<path d="M140.854 57.2749H182.005" stroke="#5DD77B" stroke-width="1.18703" stroke-linecap="round"/>
<path d="M213.659 57.2749H254.809" stroke="#DADADA" stroke-width="1.18703" stroke-linecap="round"/>
<path d="M48.5879 57.0036L51.0114 59.4271L55.8584 54.2339" stroke="#5DD77B" stroke-width="1.18703" stroke-linecap="round" stroke-linejoin="round"/>
<path d="M121.392 57.0036L123.815 59.4271L128.662 54.2339" stroke="#5DD77B" stroke-width="1.18703" stroke-linecap="round" stroke-linejoin="round"/>
<path d="M50.3383 78.8319C49.0642 78.8319 48.3282 77.8506 48.3282 76.1888C48.3282 74.4874 49.08 73.5377 50.3383 73.5377C51.6044 73.5377 52.3404 74.519 52.3404 76.1888C52.3404 77.8902 51.5886 78.8319 50.3383 78.8319ZM50.3383 78.1118C51.0742 78.1118 51.4778 77.4312 51.4778 76.1888C51.4778 74.9543 51.0663 74.2579 50.3383 74.2579C49.6023 74.2579 49.1908 74.9384 49.1908 76.1888C49.1908 77.4074 49.6023 78.1118 50.3383 78.1118ZM53.6395 78.729V78.0722H54.605V74.7327H53.6395V74.0838H54.1539C54.6208 74.0838 54.7474 73.973 54.7474 73.7277V73.6406H55.4913V78.0722H56.4488V78.729H53.6395Z" fill="#6A6969"/>
<path d="M34.9698 88.729V83.3478H36.8136C38.4992 83.3478 39.5438 84.3607 39.5438 86.0463C39.5438 87.7319 38.4992 88.729 36.8136 88.729H34.9698ZM36.8136 88.0089C37.9611 88.0089 38.6416 87.2808 38.6416 86.0463C38.6416 84.796 37.9611 84.0679 36.8136 84.0679H35.8561V88.0089H36.8136ZM40.4552 83.9888V83.0313H41.3019V83.9888H40.4552ZM40.4552 88.729V84.5111H41.3019V88.729H40.4552ZM42.998 85.619C42.998 86.6952 45.6965 85.7931 45.6965 87.5103C45.6965 88.3096 44.9764 88.8319 43.9556 88.8319C42.9347 88.8319 42.2146 88.3571 42.0563 87.3521H42.9031C42.9901 87.8823 43.3858 88.1751 43.9793 88.1751C44.5491 88.1751 44.8498 87.9218 44.8498 87.5657C44.8498 86.5132 42.1908 87.3995 42.1908 85.6665C42.1908 85.0097 42.7052 84.4003 43.7736 84.4003C44.7153 84.4003 45.4116 84.8356 45.5462 85.8881H44.6994C44.6045 85.2945 44.2721 85.073 43.734 85.073C43.2671 85.073 42.998 85.3025 42.998 85.619ZM50.0366 85.983H49.1898C49.087 85.3816 48.6992 85.1125 48.2086 85.1125C47.5043 85.1125 47.1244 85.6507 47.1244 86.624C47.1244 87.5815 47.5201 88.1276 48.2323 88.1276C48.7388 88.1276 49.0949 87.8506 49.2215 87.3125H50.0603C49.8783 88.365 49.1503 88.8319 48.2165 88.8319C46.9978 88.8319 46.2619 87.993 46.2619 86.624C46.2619 85.1917 47.0136 84.4003 48.2086 84.4003C49.1503 84.4003 49.8942 84.9305 50.0366 85.983ZM52.6141 88.8319C51.3875 88.8319 50.6436 88.001 50.6436 86.624C50.6436 85.1917 51.4113 84.4003 52.6141 84.4003C53.8407 84.4003 54.5846 85.2471 54.5846 86.624C54.5846 88.0484 53.817 88.8319 52.6141 88.8319ZM52.6141 88.1197C53.3342 88.1197 53.722 87.5974 53.722 86.624C53.722 85.6586 53.3263 85.1125 52.6141 85.1125C51.9019 85.1125 51.5062 85.6427 51.5062 86.624C51.5062 87.5815 51.9019 88.1197 52.6141 88.1197ZM56.3845 88.729L54.8335 84.5111H55.7435L56.8277 87.6449L56.9306 88.0484L57.0334 87.6449L58.1097 84.5111H58.9722L57.4212 88.729H56.3845ZM63.2402 87.3521C63.0107 88.3333 62.2826 88.8319 61.2934 88.8319C60.051 88.8319 59.2913 88.001 59.2913 86.624C59.2913 85.1917 60.051 84.4003 61.2539 84.4003C62.4725 84.4003 63.2085 85.2233 63.2085 86.5765V86.7823H60.1539C60.2014 87.6449 60.605 88.1276 61.2934 88.1276C61.8315 88.1276 62.2114 87.8743 62.3538 87.3521H63.2402ZM61.2539 85.1046C60.6445 85.1046 60.2805 85.4924 60.1776 86.2046H62.3301C62.2272 85.4924 61.8553 85.1046 61.2539 85.1046ZM64.0566 88.729V84.5111H64.9033V85.1363C65.1803 84.6298 65.6156 84.4003 66.1062 84.4003C66.2724 84.4003 66.4307 84.4399 66.5098 84.5111V85.255C66.3832 85.2154 66.2328 85.1996 66.0587 85.1996C65.2515 85.1996 64.9033 85.6902 64.9033 86.4262V88.729H64.0566ZM67.3867 90.5729C67.2047 90.5729 67.0148 90.5254 66.9198 90.4937V89.8448H67.1493C67.632 89.8448 67.814 89.7498 68.1781 88.8714L68.3047 88.5786L66.6112 84.5111H67.5212L68.5658 87.1384L68.7478 87.7161L68.9298 87.1384L69.9428 84.5111H70.8053L68.8903 89.2196C68.4629 90.2721 68.1385 90.5729 67.3867 90.5729Z" fill="#6A6969"/>
<path d="M122.747 78.8319C121.473 78.8319 120.737 77.8506 120.737 76.1888C120.737 74.4874 121.489 73.5377 122.747 73.5377C124.013 73.5377 124.749 74.519 124.749 76.1888C124.749 77.8902 123.997 78.8319 122.747 78.8319ZM122.747 78.1118C123.483 78.1118 123.886 77.4312 123.886 76.1888C123.886 74.9543 123.475 74.2579 122.747 74.2579C122.011 74.2579 121.599 74.9384 121.599 76.1888C121.599 77.4074 122.011 78.1118 122.747 78.1118ZM125.478 78.729V78.5074C125.478 76.2283 128.24 76.3866 128.24 75.0967C128.24 74.5665 127.924 74.25 127.354 74.25C126.729 74.25 126.42 74.5744 126.325 75.1125H125.463C125.597 74.1392 126.27 73.5377 127.362 73.5377C128.509 73.5377 129.095 74.2183 129.095 75.0888C129.095 76.6794 126.697 76.7348 126.349 78.0722H129.134V78.729H125.478Z" fill="#6A6969"/>
<path d="M112.777 86.6794C112.777 88.0168 111.939 88.8319 110.585 88.8319C109.232 88.8319 108.393 88.0168 108.393 86.6794V83.3478H109.28V86.6794C109.28 87.5815 109.77 88.1197 110.585 88.1197C111.408 88.1197 111.891 87.5736 111.891 86.6794V83.3478H112.777V86.6794ZM113.866 88.729V83.3478H114.752V88.729H113.866ZM117.46 88.729V83.3478H119.304C120.989 83.3478 122.034 84.3607 122.034 86.0463C122.034 87.7319 120.989 88.729 119.304 88.729H117.46ZM119.304 88.0089C120.451 88.0089 121.132 87.2808 121.132 86.0463C121.132 84.796 120.451 84.0679 119.304 84.0679H118.346V88.0089H119.304ZM126.688 87.3521C126.459 88.3333 125.731 88.8319 124.741 88.8319C123.499 88.8319 122.739 88.001 122.739 86.624C122.739 85.1917 123.499 84.4003 124.702 84.4003C125.921 84.4003 126.657 85.2233 126.657 86.5765V86.7823H123.602C123.649 87.6449 124.053 88.1276 124.741 88.1276C125.28 88.1276 125.659 87.8743 125.802 87.3521H126.688ZM124.702 85.1046C124.093 85.1046 123.729 85.4924 123.626 86.2046H125.778C125.675 85.4924 125.303 85.1046 124.702 85.1046ZM128.177 85.619C128.177 86.6952 130.876 85.7931 130.876 87.5103C130.876 88.3096 130.156 88.8319 129.135 88.8319C128.114 88.8319 127.394 88.3571 127.236 87.3521H128.082C128.169 87.8823 128.565 88.1751 129.159 88.1751C129.728 88.1751 130.029 87.9218 130.029 87.5657C130.029 86.5132 127.37 87.3995 127.37 85.6665C127.37 85.0097 127.884 84.4003 128.953 84.4003C129.895 84.4003 130.591 84.8356 130.725 85.8881H129.879C129.784 85.2945 129.451 85.073 128.913 85.073C128.446 85.073 128.177 85.3025 128.177 85.619ZM131.647 83.9888V83.0313H132.494V83.9888H131.647ZM131.647 88.729V84.5111H132.494V88.729H131.647ZM135.036 88.7527C133.96 88.7527 133.311 87.9297 133.311 86.5844C133.311 85.1758 133.976 84.4003 135.036 84.4003C135.575 84.4003 135.978 84.5902 136.247 84.9543V84.5111H137.094V88.8635C137.094 90.0189 136.326 90.5808 135.313 90.5808C134.3 90.5808 133.572 90.106 133.422 89.1247H134.269C134.348 89.6311 134.752 89.9002 135.306 89.9002C135.867 89.9002 136.247 89.6074 136.247 88.8794V88.1671C135.962 88.5549 135.551 88.7527 135.036 88.7527ZM135.211 88.0405C135.883 88.0405 136.247 87.5262 136.247 86.5765C136.247 85.6507 135.867 85.1125 135.211 85.1125C134.538 85.1125 134.174 85.6269 134.174 86.5844C134.174 87.5103 134.546 88.0405 135.211 88.0405ZM138.123 88.729V84.5111H138.97V85.073C139.255 84.6219 139.698 84.4003 140.244 84.4003C141.122 84.4003 141.668 84.9147 141.668 85.9118V88.729H140.829V86.0859C140.829 85.4766 140.56 85.1046 139.983 85.1046C139.35 85.1046 138.97 85.6665 138.97 86.2521V88.729H138.123Z" fill="#6A6969"/>
<path d="M195.552 78.8319C194.278 78.8319 193.542 77.8506 193.542 76.1888C193.542 74.4874 194.293 73.5377 195.552 73.5377C196.818 73.5377 197.554 74.519 197.554 76.1888C197.554 77.8902 196.802 78.8319 195.552 78.8319ZM195.552 78.1118C196.288 78.1118 196.691 77.4312 196.691 76.1888C196.691 74.9543 196.28 74.2579 195.552 74.2579C194.816 74.2579 194.404 74.9384 194.404 76.1888C194.404 77.4074 194.816 78.1118 195.552 78.1118ZM202.082 77.2967C202.082 78.1592 201.417 78.8319 200.135 78.8319C198.995 78.8319 198.259 78.2305 198.117 77.2334H198.98C199.067 77.7794 199.431 78.1197 200.127 78.1197C200.839 78.1197 201.219 77.8031 201.219 77.2571C201.219 76.8535 200.997 76.4341 199.913 76.4341H199.668V75.7852H199.866C200.902 75.7852 201.077 75.3579 201.077 75.0255C201.077 74.5428 200.752 74.25 200.143 74.25C199.502 74.25 199.169 74.5744 199.074 75.1125H198.228C198.362 74.1392 199.051 73.5377 200.151 73.5377C201.322 73.5377 201.939 74.1787 201.939 75.0176C201.939 75.4924 201.741 75.8485 201.251 76.0622C201.852 76.3154 202.082 76.7585 202.082 77.2967Z" fill="#6A6969"/>
<path d="M183.464 88.729V83.3478H185.308C186.993 83.3478 188.038 84.3607 188.038 86.0463C188.038 87.7319 186.993 88.729 185.308 88.729H183.464ZM185.308 88.0089C186.455 88.0089 187.136 87.2808 187.136 86.0463C187.136 84.796 186.455 84.0679 185.308 84.0679H184.35V88.0089H185.308ZM192.692 87.3521C192.463 88.3333 191.735 88.8319 190.745 88.8319C189.503 88.8319 188.743 88.001 188.743 86.624C188.743 85.1917 189.503 84.4003 190.706 84.4003C191.925 84.4003 192.661 85.2233 192.661 86.5765V86.7823H189.606C189.653 87.6449 190.057 88.1276 190.745 88.1276C191.284 88.1276 191.663 87.8743 191.806 87.3521H192.692ZM190.706 85.1046C190.097 85.1046 189.733 85.4924 189.63 86.2046H191.782C191.679 85.4924 191.307 85.1046 190.706 85.1046ZM193.509 88.729V83.0313H194.355V88.729H193.509ZM195.379 83.9888V83.0313H196.226V83.9888H195.379ZM195.379 88.729V84.5111H196.226V88.729H195.379ZM198.317 88.729L196.766 84.5111H197.676L198.761 87.6449L198.863 88.0484L198.966 87.6449L200.042 84.5111H200.905L199.354 88.729H198.317ZM205.173 87.3521C204.943 88.3333 204.215 88.8319 203.226 88.8319C201.984 88.8319 201.224 88.001 201.224 86.624C201.224 85.1917 201.984 84.4003 203.187 84.4003C204.405 84.4003 205.141 85.2233 205.141 86.5765V86.7823H202.087C202.134 87.6449 202.538 88.1276 203.226 88.1276C203.764 88.1276 204.144 87.8743 204.287 87.3521H205.173ZM203.187 85.1046C202.577 85.1046 202.213 85.4924 202.11 86.2046H204.263C204.16 85.4924 203.788 85.1046 203.187 85.1046ZM205.989 88.729V84.5111H206.836V85.1363C207.113 84.6298 207.548 84.4003 208.039 84.4003C208.205 84.4003 208.363 84.4399 208.443 84.5111V85.255C208.316 85.2154 208.166 85.1996 207.992 85.1996C207.184 85.1996 206.836 85.6902 206.836 86.4262V88.729H205.989ZM209.32 90.5729C209.138 90.5729 208.948 90.5254 208.853 90.4937V89.8448H209.082C209.565 89.8448 209.747 89.7498 210.111 88.8714L210.238 88.5786L208.544 84.5111H209.454L210.499 87.1384L210.681 87.7161L210.863 87.1384L211.876 84.5111H212.738L210.823 89.2196C210.396 90.2721 210.071 90.5729 209.32 90.5729Z" fill="#6A6969"/>
<path d="M268.75 78.8319C267.476 78.8319 266.74 77.8506 266.74 76.1888C266.74 74.4874 267.492 73.5377 268.75 73.5377C270.017 73.5377 270.753 74.519 270.753 76.1888C270.753 77.8902 270.001 78.8319 268.75 78.8319ZM268.75 78.1118C269.486 78.1118 269.89 77.4312 269.89 76.1888C269.89 74.9543 269.479 74.2579 268.75 74.2579C268.015 74.2579 267.603 74.9384 267.603 76.1888C267.603 77.4074 268.015 78.1118 268.75 78.1118ZM274.64 78.729H273.777V77.5895H271.355V76.8298L273.864 73.6406H274.64V76.9247H275.344V77.5895H274.64V78.729ZM272.091 76.9247H273.777V74.7089L272.091 76.9247Z" fill="#6A6969"/>
<path d="M256.272 88.729V83.3478H258.29C259.453 83.3478 260.189 83.9492 260.189 84.8989C260.189 85.5082 259.912 85.9355 259.43 86.1729C259.746 86.3391 259.92 86.6319 260.039 87.1146L260.443 88.729H259.509L259.184 87.2887C259.042 86.6715 258.804 86.5528 258.211 86.5528H257.158V88.729H256.272ZM258.266 84.06H257.158V85.8406H258.251C258.907 85.8406 259.279 85.4924 259.279 84.9463C259.279 84.4082 258.907 84.06 258.266 84.06ZM264.937 87.3521C264.707 88.3333 263.979 88.8319 262.99 88.8319C261.747 88.8319 260.988 88.001 260.988 86.624C260.988 85.1917 261.747 84.4003 262.95 84.4003C264.169 84.4003 264.905 85.2233 264.905 86.5765V86.7823H261.85C261.898 87.6449 262.301 88.1276 262.99 88.1276C263.528 88.1276 263.908 87.8743 264.05 87.3521H264.937ZM262.95 85.1046C262.341 85.1046 261.977 85.4924 261.874 86.2046H264.026C263.924 85.4924 263.552 85.1046 262.95 85.1046ZM266.729 88.729L265.178 84.5111H266.088L267.172 87.6449L267.275 88.0484L267.377 87.6449L268.454 84.5111H269.316L267.765 88.729H266.729ZM269.864 83.9888V83.0313H270.711V83.9888H269.864ZM269.864 88.729V84.5111H270.711V88.729H269.864ZM272.407 85.619C272.407 86.6952 275.106 85.7931 275.106 87.5103C275.106 88.3096 274.386 88.8319 273.365 88.8319C272.344 88.8319 271.624 88.3571 271.465 87.3521H272.312C272.399 87.8823 272.795 88.1751 273.388 88.1751C273.958 88.1751 274.259 87.9218 274.259 87.5657C274.259 86.5132 271.6 87.3995 271.6 85.6665C271.6 85.0097 272.114 84.4003 273.183 84.4003C274.124 84.4003 274.821 84.8356 274.955 85.8881H274.109C274.014 85.2945 273.681 85.073 273.143 85.073C272.676 85.073 272.407 85.3025 272.407 85.619ZM275.877 83.9888V83.0313H276.723V83.9888H275.877ZM275.877 88.729V84.5111H276.723V88.729H275.877ZM279.512 88.8319C278.285 88.8319 277.541 88.001 277.541 86.624C277.541 85.1917 278.309 84.4003 279.512 84.4003C280.738 84.4003 281.482 85.2471 281.482 86.624C281.482 88.0484 280.714 88.8319 279.512 88.8319ZM279.512 88.1197C280.232 88.1197 280.619 87.5974 280.619 86.624C280.619 85.6586 280.224 85.1125 279.512 85.1125C278.799 85.1125 278.404 85.6427 278.404 86.624C278.404 87.5815 278.799 88.1197 279.512 88.1197ZM282.306 88.729V84.5111H283.153V85.073C283.438 84.6219 283.881 84.4003 284.427 84.4003C285.306 84.4003 285.852 84.9147 285.852 85.9118V88.729H285.013V86.0859C285.013 85.4766 284.744 85.1046 284.166 85.1046C283.533 85.1046 283.153 85.6665 283.153 86.2521V88.729H282.306Z" fill="#6A6969"/>
<g clip-path="url(#clip0_706_4927)">
<path d="M200.658 55.6819V52.6888C200.658 52.5932 200.58 52.5156 200.485 52.5156H195.109C195.014 52.5156 194.936 52.5932 194.936 52.6888V58.064C194.936 58.1596 195.014 58.2371 195.109 58.2371H198.103C198.192 59.4736 199.226 60.4524 200.485 60.4524C201.802 60.4524 202.873 59.381 202.873 58.064C202.873 56.8053 201.894 55.7709 200.658 55.6819ZM197.26 52.8619H198.334V54.5271H197.26V52.8619ZM195.282 52.8619H196.914V54.7002C196.914 54.7958 196.991 54.8734 197.087 54.8734H198.507C198.603 54.8734 198.68 54.7958 198.68 54.7002V52.8619H200.312V55.6819C199.132 55.7668 198.187 56.7116 198.103 57.8909H195.282V52.8619ZM200.485 60.1062C199.359 60.1062 198.442 59.1901 198.442 58.064C198.442 56.9379 199.359 56.0218 200.485 56.0218C201.611 56.0218 202.527 56.938 202.527 58.064C202.527 59.1901 201.611 60.1062 200.485 60.1062ZM201.464 57.37C201.532 57.4376 201.532 57.5472 201.464 57.6148L200.321 58.758C200.287 58.7918 200.243 58.8087 200.199 58.8087C200.155 58.8087 200.11 58.7918 200.076 58.758L199.505 58.1864C199.437 58.1188 199.437 58.0092 199.505 57.9416C199.572 57.874 199.682 57.874 199.75 57.9416L200.199 58.3908L201.22 57.37C201.287 57.3024 201.397 57.3024 201.464 57.37ZM194.07 56.3974H192.985C192.889 56.3974 192.812 56.3199 192.812 56.2243C192.812 56.1287 192.889 56.0512 192.985 56.0512H194.07C194.165 56.0512 194.243 56.1287 194.243 56.2243C194.243 56.3199 194.165 56.3974 194.07 56.3974ZM192.79 54.4565C192.79 54.3609 192.867 54.2834 192.963 54.2834H194.047C194.143 54.2834 194.221 54.3609 194.221 54.4565C194.221 54.5521 194.143 54.6296 194.047 54.6296H192.963C192.867 54.6296 192.79 54.5521 192.79 54.4565ZM194.593 57.9921C194.593 58.0877 194.516 58.1652 194.42 58.1652H193.335C193.24 58.1652 193.162 58.0877 193.162 57.9921C193.162 57.8965 193.24 57.819 193.335 57.819H194.42C194.516 57.819 194.593 57.8965 194.593 57.9921ZM194.593 52.6887C194.593 52.7843 194.516 52.8618 194.42 52.8618H193.335C193.24 52.8618 193.162 52.7843 193.162 52.6887C193.162 52.5931 193.24 52.5156 193.335 52.5156H194.42C194.516 52.5156 194.593 52.5931 194.593 52.6887Z" fill="#DADADA"/>
</g>
<path d="M274.79 56.2546V59.486C274.79 59.7921 274.668 60.0856 274.452 60.302C274.235 60.5185 273.942 60.64 273.636 60.64H268.096C267.79 60.64 267.497 60.5185 267.28 60.302C267.064 60.0856 266.942 59.7921 266.942 59.486V53.9465C266.942 53.6405 267.064 53.3469 267.28 53.1305C267.497 52.9141 267.79 52.7925 268.096 52.7925H271.328C271.389 52.7925 271.448 52.8168 271.491 52.8601C271.534 52.9034 271.559 52.9621 271.559 53.0233C271.559 53.0845 271.534 53.1432 271.491 53.1865C271.448 53.2298 271.389 53.2541 271.328 53.2541H268.096C267.913 53.2541 267.737 53.3271 267.607 53.4569C267.477 53.5868 267.404 53.7629 267.404 53.9465V59.486C267.404 59.6696 267.477 59.8458 267.607 59.9756C267.737 60.1055 267.913 60.1784 268.096 60.1784H273.636C273.82 60.1784 273.996 60.1055 274.126 59.9756C274.255 59.8458 274.328 59.6696 274.328 59.486V56.2546C274.328 56.1934 274.353 56.1347 274.396 56.0914C274.439 56.0481 274.498 56.0238 274.559 56.0238C274.62 56.0238 274.679 56.0481 274.722 56.0914C274.766 56.1347 274.79 56.1934 274.79 56.2546ZM274.435 53.1475C274.547 53.2597 274.637 53.393 274.698 53.5398C274.758 53.6866 274.79 53.8439 274.79 54.0029C274.79 54.1618 274.758 54.3191 274.698 54.4659C274.637 54.6127 274.547 54.746 274.435 54.8582L270.838 58.4556C270.731 58.5631 270.604 58.6483 270.464 58.7063C270.324 58.7643 270.173 58.7939 270.022 58.7936H269.481C269.298 58.7936 269.122 58.7206 268.992 58.5907C268.862 58.4609 268.789 58.2848 268.789 58.1011V57.5606C268.788 57.4089 268.818 57.2587 268.876 57.1186C268.934 56.9786 269.019 56.8514 269.127 56.7444L272.724 53.147C272.837 53.0346 272.97 52.9455 273.117 52.8847C273.263 52.8239 273.421 52.7926 273.58 52.7926C273.739 52.7927 273.896 52.824 274.043 52.8849C274.189 52.9458 274.323 53.035 274.435 53.1475ZM273.31 55.3314L272.251 54.2729L269.453 57.0708C269.389 57.135 269.338 57.2113 269.303 57.2954C269.268 57.3795 269.25 57.4696 269.25 57.5606V58.1011C269.25 58.1623 269.275 58.221 269.318 58.2643C269.361 58.3076 269.42 58.3319 269.481 58.3319H270.022C270.113 58.3322 270.203 58.3144 270.287 58.2796C270.371 58.2449 270.447 58.1938 270.512 58.1293L273.31 55.3314ZM274.109 53.4734C273.969 53.3331 273.778 53.2543 273.58 53.2543C273.381 53.2543 273.191 53.3331 273.051 53.4734L272.577 53.9465L273.636 55.005L274.109 54.5319C274.179 54.4624 274.234 54.3799 274.271 54.2891C274.309 54.1983 274.328 54.1009 274.328 54.0026C274.328 53.9043 274.309 53.807 274.271 53.7162C274.234 53.6254 274.179 53.5429 274.109 53.4734Z" fill="#DADADA"/>
<rect x="34.022" y="95.2612" width="37.1935" height="2.37405" rx="1.18703" fill="#E7E7E7"/>
<rect x="107.618" y="95.2612" width="37.1935" height="2.37405" rx="1.18703" fill="#E7E7E7"/>
<rect x="181.213" y="95.2612" width="37.1935" height="2.37405" rx="1.18703" fill="#E7E7E7"/>
<rect x="254.809" y="95.2612" width="37.1935" height="2.37405" rx="1.18703" fill="#E7E7E7"/>
<rect x="34.022" y="100.009" width="24.5319" height="2.37405" rx="1.18703" fill="#E7E7E7"/>
<rect x="34.022" y="111.879" width="257.98" height="49.8551" rx="1.5827" fill="#F5F5F5"/>
<rect x="38.7705" y="127.705" width="79.135" height="29.28" rx="3.1654" fill="white"/>
<rect x="122.654" y="127.705" width="79.9264" height="29.28" rx="3.1654" fill="white"/>
<rect x="207.328" y="127.705" width="79.135" height="29.28" rx="3.1654" fill="white"/>
<rect x="107.618" y="100.009" width="24.5319" height="2.37405" rx="1.18703" fill="#E7E7E7"/>
<rect x="181.213" y="100.009" width="24.5319" height="2.37405" rx="1.18703" fill="#E7E7E7"/>
<rect x="254.809" y="100.009" width="24.5319" height="2.37405" rx="1.18703" fill="#E7E7E7"/>
<path d="M40.8147 122.626V118.321H42.2898C43.6382 118.321 44.4739 119.131 44.4739 120.48C44.4739 121.828 43.6382 122.626 42.2898 122.626H40.8147ZM42.2898 122.05C43.2077 122.05 43.7522 121.467 43.7522 120.48C43.7522 119.48 43.2077 118.897 42.2898 118.897H41.5237V122.05H42.2898ZM48.1975 121.524C48.0139 122.309 47.4315 122.708 46.6401 122.708C45.6462 122.708 45.0384 122.044 45.0384 120.942C45.0384 119.796 45.6462 119.163 46.6085 119.163C47.5834 119.163 48.1722 119.821 48.1722 120.904V121.069H45.7285C45.7665 121.759 46.0893 122.145 46.6401 122.145C47.0706 122.145 47.3745 121.942 47.4884 121.524H48.1975ZM46.6085 119.726C46.121 119.726 45.8298 120.037 45.7475 120.606H47.4695C47.3871 120.037 47.0896 119.726 46.6085 119.726ZM48.8507 122.626V118.068H49.528V122.626H48.8507ZM50.3468 118.834V118.068H51.0242V118.834H50.3468ZM50.3468 122.626V119.252H51.0242V122.626H50.3468ZM52.6976 122.626L51.4568 119.252H52.1848L53.0521 121.759L53.1344 122.082L53.2167 121.759L54.0777 119.252H54.7678L53.5269 122.626H52.6976ZM58.1821 121.524C57.9985 122.309 57.4161 122.708 56.6247 122.708C55.6308 122.708 55.023 122.044 55.023 120.942C55.023 119.796 55.6308 119.163 56.5931 119.163C57.568 119.163 58.1568 119.821 58.1568 120.904V121.069H55.7131C55.7511 121.759 56.074 122.145 56.6247 122.145C57.0552 122.145 57.3591 121.942 57.4731 121.524H58.1821ZM56.5931 119.726C56.1056 119.726 55.8144 120.037 55.7321 120.606H57.4541C57.3718 120.037 57.0742 119.726 56.5931 119.726ZM58.8353 122.626V119.252H59.5127V119.752C59.7342 119.347 60.0824 119.163 60.4749 119.163C60.6079 119.163 60.7345 119.195 60.7978 119.252V119.847C60.6965 119.815 60.5762 119.802 60.437 119.802C59.7912 119.802 59.5127 120.195 59.5127 120.784V122.626H58.8353ZM61.8487 120.353H61.1713C61.279 119.606 61.7918 119.163 62.6338 119.163C63.5517 119.163 64.0075 119.701 64.0075 120.486V121.803C64.0075 122.208 64.0455 122.442 64.1215 122.626H63.4124C63.3618 122.499 63.3428 122.322 63.3365 122.132C63.0516 122.531 62.6148 122.708 62.2096 122.708C61.5259 122.708 61.0574 122.385 61.0574 121.74C61.0574 121.278 61.3106 120.936 61.8171 120.765C62.2666 120.613 62.7224 120.575 63.3301 120.568V120.492C63.3301 119.999 63.1022 119.733 62.5831 119.733C62.1463 119.733 61.912 119.973 61.8487 120.353ZM61.7411 121.714C61.7411 121.999 61.9753 122.176 62.3362 122.176C62.8996 122.176 63.3301 121.727 63.3301 121.183V121.031C62.0323 121.043 61.7411 121.328 61.7411 121.714ZM65.5343 122.626H64.857V118.068H65.5343V119.644C65.7496 119.334 66.0661 119.163 66.4523 119.163C67.3386 119.163 67.8767 119.828 67.8767 120.929C67.8767 122.075 67.326 122.708 66.4523 122.708C66.0661 122.708 65.7496 122.55 65.5343 122.246V122.626ZM66.3637 119.733C65.8192 119.733 65.5343 120.157 65.5343 120.929C65.5343 121.702 65.8319 122.139 66.3637 122.139C66.8955 122.139 67.1867 121.714 67.1867 120.929C67.1867 120.163 66.8891 119.733 66.3637 119.733ZM68.5355 122.626V118.068H69.2129V122.626H68.5355ZM73.0261 121.524C72.8425 122.309 72.2601 122.708 71.4687 122.708C70.4748 122.708 69.867 122.044 69.867 120.942C69.867 119.796 70.4748 119.163 71.4371 119.163C72.412 119.163 73.0008 119.821 73.0008 120.904V121.069H70.5571C70.5951 121.759 70.918 122.145 71.4687 122.145C71.8992 122.145 72.2031 121.942 72.3171 121.524H73.0261ZM71.4371 119.726C70.9496 119.726 70.6584 120.037 70.5761 120.606H72.2981C72.2158 120.037 71.9182 119.726 71.4371 119.726ZM74.2174 120.138C74.2174 120.999 76.3762 120.277 76.3762 121.651C76.3762 122.29 75.8001 122.708 74.9834 122.708C74.1667 122.708 73.5906 122.328 73.464 121.524H74.1414C74.2111 121.949 74.5276 122.183 75.0024 122.183C75.4582 122.183 75.6988 121.98 75.6988 121.695C75.6988 120.853 73.5717 121.562 73.5717 120.176C73.5717 119.65 73.9832 119.163 74.8378 119.163C75.5912 119.163 76.1483 119.511 76.2559 120.353H75.5785C75.5025 119.878 75.2367 119.701 74.8062 119.701C74.4326 119.701 74.2174 119.885 74.2174 120.138Z" fill="#6A6969"/>
<rect x="74.3809" y="135.618" width="37.1935" height="2.37405" rx="1.18703" fill="#E7E7E7"/>
<rect x="74.3809" y="141.157" width="29.28" height="2.37405" rx="1.18703" fill="#E7E7E7"/>
<rect x="74.3809" y="146.697" width="22.1578" height="2.37405" rx="1.18703" fill="#E7E7E7"/>
<rect x="159.055" y="135.618" width="37.1935" height="2.37405" rx="1.18703" fill="#E7E7E7"/>
<rect x="159.055" y="141.157" width="29.28" height="2.37405" rx="1.18703" fill="#E7E7E7"/>
<rect x="159.055" y="146.697" width="22.1578" height="2.37405" rx="1.18703" fill="#E7E7E7"/>
<rect x="242.939" y="135.618" width="37.1935" height="2.37405" rx="1.18703" fill="#E7E7E7"/>
<rect x="242.939" y="141.157" width="29.28" height="2.37405" rx="1.18703" fill="#E7E7E7"/>
<rect x="242.939" y="146.697" width="22.1578" height="2.37405" rx="1.18703" fill="#E7E7E7"/>
<g clip-path="url(#clip1_706_4927)">
<path d="M58.2339 136.029H56.9658V134.761C56.9658 134.362 56.6397 134.036 56.2413 134.036H47.0024C46.6039 134.036 46.2778 134.362 46.2778 134.761V146.354C46.2778 146.753 46.6039 147.079 47.0024 147.079H48.2705V148.347C48.2705 148.746 48.5964 149.072 48.9951 149.072H55.1541C55.5525 149.072 56.1162 148.848 56.4063 148.575L58.4305 146.67C58.7208 146.397 58.9582 145.847 58.9582 145.449L58.9585 136.753C58.9585 136.355 58.6324 136.029 58.2339 136.029ZM48.2705 136.753V146.536H47.0024C46.9042 146.536 46.8213 146.453 46.8213 146.355V134.761C46.8213 134.663 46.9042 134.58 47.0024 134.58H56.2414C56.3394 134.58 56.4225 134.663 56.4225 134.761V136.029H48.9951C48.5964 136.029 48.2705 136.355 48.2705 136.753ZM58.058 146.274L56.0338 148.179C55.9923 148.218 55.9383 148.257 55.8787 148.293V146.626C55.8787 146.502 55.9289 146.39 56.0117 146.306C56.0952 146.224 56.2071 146.173 56.3316 146.173H58.144C58.1159 146.212 58.0871 146.247 58.058 146.274ZM58.4146 145.449C58.4146 145.503 58.4048 145.565 58.39 145.63H56.3316C55.7818 145.631 55.3363 146.076 55.3352 146.626V148.506C55.2705 148.519 55.2082 148.528 55.1541 148.528H48.9951V148.528C48.8967 148.528 48.8139 148.445 48.8139 148.347V136.753C48.8139 136.655 48.8967 136.572 48.9951 136.572H58.2338C58.332 136.572 58.415 136.655 58.415 136.753L58.4146 145.449Z" fill="#E7E7E7"/>
<path d="M56.2419 138.564H50.9885C50.8383 138.564 50.7168 138.686 50.7168 138.836C50.7168 138.986 50.8384 139.108 50.9885 139.108H56.2419C56.3919 139.108 56.5136 138.986 56.5136 138.836C56.5136 138.686 56.3919 138.564 56.2419 138.564Z" fill="#E7E7E7"/>
<path d="M56.2419 142.188H50.9885C50.8383 142.188 50.7168 142.309 50.7168 142.459C50.7168 142.609 50.8384 142.731 50.9885 142.731H56.2419C56.3919 142.731 56.5136 142.609 56.5136 142.459C56.5136 142.309 56.3919 142.188 56.2419 142.188Z" fill="#E7E7E7"/>
<path d="M53.8869 143.999H50.9885C50.8383 143.999 50.7168 144.121 50.7168 144.271C50.7168 144.421 50.8383 144.542 50.9885 144.542H53.8869C54.0369 144.542 54.1585 144.421 54.1585 144.271C54.1585 144.121 54.0369 143.999 53.8869 143.999Z" fill="#E7E7E7"/>
<path d="M56.2419 140.377H50.9885C50.8383 140.377 50.7168 140.499 50.7168 140.649C50.7168 140.799 50.8384 140.92 50.9885 140.92H56.2419C56.3919 140.92 56.5136 140.799 56.5136 140.649C56.5136 140.499 56.3919 140.377 56.2419 140.377Z" fill="#E7E7E7"/>
</g>
<g clip-path="url(#clip2_706_4927)">
<path d="M146.394 136.146H132.149C131.713 136.146 131.358 136.5 131.358 136.937V146.961C131.358 147.397 131.713 147.752 132.149 147.752H146.394C146.83 147.752 147.185 147.397 147.185 146.961V143.049C147.185 143.049 147.185 143.049 147.185 143.049V136.937C147.185 136.5 146.83 136.146 146.394 136.146ZM132.149 147.224C132.004 147.224 131.885 147.106 131.885 146.961V143.688L134.339 141.235C134.438 141.134 134.607 141.133 134.709 141.236L137.316 143.841L133.931 147.224H132.149ZM146.657 146.961C146.657 147.106 146.539 147.224 146.394 147.224H134.678L142.516 139.388C142.615 139.288 142.785 139.286 142.886 139.389L146.657 143.158L146.657 146.961ZM146.657 142.412L143.26 139.017C142.961 138.715 142.439 138.716 142.142 139.016L137.689 143.468L135.083 140.864C134.784 140.561 134.262 140.562 133.965 140.863L131.885 142.942V136.937C131.885 136.791 132.004 136.673 132.149 136.673H146.394C146.539 136.673 146.657 136.791 146.657 136.937V142.412Z" fill="#E7E7E7"/>
<path d="M137.953 137.992C137.08 137.992 136.37 138.702 136.37 139.575C136.37 140.448 137.08 141.158 137.953 141.158C138.826 141.158 139.536 140.448 139.536 139.575C139.536 138.702 138.826 137.992 137.953 137.992ZM137.953 140.63C137.371 140.63 136.898 140.157 136.898 139.575C136.898 138.993 137.371 138.52 137.953 138.52C138.535 138.52 139.008 138.993 139.008 139.575C139.008 140.157 138.535 140.63 137.953 140.63Z" fill="#E7E7E7"/>
</g>
<path d="M220.506 143.719C220.427 143.719 220.35 143.687 220.294 143.63C220.237 143.574 220.206 143.498 220.206 143.418V141.27C220.206 141.19 220.237 141.113 220.294 141.057C220.35 141 220.427 140.969 220.506 140.969H221.315C221.426 140.968 221.535 140.988 221.637 141.03C221.739 141.072 221.832 141.133 221.91 141.211C221.988 141.29 222.05 141.382 222.092 141.485C222.133 141.587 222.154 141.696 222.153 141.807C222.152 142.028 222.063 142.241 221.906 142.398C221.75 142.555 221.537 142.643 221.315 142.644H220.807V143.418C220.807 143.498 220.775 143.574 220.719 143.63C220.663 143.687 220.586 143.719 220.506 143.719ZM220.807 142.043H221.315C221.346 142.043 221.377 142.037 221.406 142.025C221.434 142.013 221.46 141.996 221.482 141.974C221.504 141.952 221.522 141.926 221.534 141.897C221.545 141.868 221.552 141.838 221.552 141.807C221.552 141.775 221.547 141.744 221.535 141.715C221.523 141.686 221.506 141.66 221.484 141.638C221.462 141.616 221.436 141.598 221.407 141.587C221.378 141.575 221.346 141.569 221.315 141.57H220.807V142.043Z" fill="#E7E7E7"/>
<path d="M223.687 143.722H222.875C222.796 143.722 222.719 143.69 222.663 143.634C222.606 143.577 222.575 143.501 222.575 143.421V141.266C222.575 141.186 222.606 141.109 222.663 141.053C222.719 140.997 222.796 140.965 222.875 140.965H223.687C223.911 140.965 224.125 141.054 224.283 141.211C224.441 141.369 224.529 141.584 224.529 141.807V142.885C224.528 143.107 224.439 143.32 224.281 143.477C224.123 143.634 223.91 143.722 223.687 143.722ZM223.176 143.12H223.687C223.751 143.12 223.812 143.095 223.857 143.05C223.903 143.005 223.928 142.944 223.928 142.88V141.802C223.928 141.738 223.903 141.677 223.857 141.632C223.812 141.587 223.751 141.561 223.687 141.561H223.176V143.12Z" fill="#E7E7E7"/>
<path d="M225.259 143.722C225.179 143.722 225.103 143.69 225.047 143.634C224.99 143.577 224.958 143.501 224.958 143.421V141.266C224.958 141.186 224.99 141.109 225.047 141.053C225.103 140.997 225.179 140.965 225.259 140.965H226.609C226.689 140.965 226.766 140.997 226.822 141.053C226.878 141.109 226.91 141.186 226.91 141.266C226.91 141.345 226.878 141.422 226.822 141.478C226.766 141.535 226.689 141.566 226.609 141.566H225.56V143.421C225.56 143.501 225.528 143.577 225.472 143.634C225.415 143.69 225.339 143.722 225.259 143.722Z" fill="#E7E7E7"/>
<path d="M226.257 142.644H225.259C225.179 142.644 225.103 142.613 225.047 142.556C224.99 142.5 224.958 142.423 224.958 142.344C224.958 142.264 224.99 142.187 225.047 142.131C225.103 142.075 225.179 142.043 225.259 142.043H226.257C226.337 142.043 226.413 142.075 226.47 142.131C226.526 142.187 226.558 142.264 226.558 142.344C226.558 142.423 226.526 142.5 226.47 142.556C226.413 142.613 226.337 142.644 226.257 142.644Z" fill="#E7E7E7"/>
<path d="M225.422 147.825H220.016C219.631 147.825 219.262 147.672 218.99 147.399C218.717 147.127 218.564 146.758 218.563 146.373V138.314C218.564 137.929 218.717 137.56 218.99 137.288C219.262 137.016 219.631 136.863 220.016 136.862H227.085C227.47 136.863 227.839 137.016 228.111 137.288C228.384 137.56 228.537 137.929 228.538 138.314V144.71C228.537 144.789 228.506 144.866 228.449 144.922L225.634 147.737C225.577 147.794 225.501 147.825 225.422 147.825ZM220.016 137.464C219.79 137.464 219.574 137.554 219.415 137.713C219.255 137.873 219.165 138.089 219.165 138.314V146.373C219.165 146.599 219.255 146.815 219.415 146.974C219.574 147.134 219.79 147.223 220.016 147.224H225.295L227.934 144.585V138.314C227.933 138.089 227.843 137.873 227.684 137.713C227.524 137.554 227.308 137.464 227.083 137.464H220.016Z" fill="#E7E7E7"/>
<path d="M225.422 147.825C225.342 147.825 225.266 147.794 225.209 147.737C225.153 147.681 225.121 147.604 225.121 147.525V145.862C225.121 145.477 225.274 145.107 225.547 144.835C225.819 144.563 226.188 144.41 226.573 144.409H228.237C228.317 144.409 228.393 144.441 228.45 144.497C228.506 144.554 228.538 144.63 228.538 144.71C228.538 144.79 228.506 144.866 228.45 144.923C228.393 144.979 228.317 145.011 228.237 145.011H226.573C226.347 145.011 226.131 145.101 225.972 145.26C225.812 145.42 225.723 145.636 225.723 145.862V147.525C225.723 147.604 225.691 147.681 225.634 147.737C225.578 147.794 225.502 147.825 225.422 147.825Z" fill="#E7E7E7"/>
<defs>
<linearGradient id="paint0_linear_706_4927" x1="162.5" y1="0" x2="162.5" y2="185" gradientUnits="userSpaceOnUse">
<stop stop-color="#FFFDB7"/>
<stop offset="1" stop-color="#FFDF47"/>
</linearGradient>
<clipPath id="clip0_706_4927">
<rect width="11.0789" height="11.0789" fill="white" transform="translate(192.292 50.9458)"/>
</clipPath>
<clipPath id="clip1_706_4927">
<rect width="15.0357" height="15.0357" fill="white" transform="translate(45.1011 134.036)"/>
</clipPath>
<clipPath id="clip2_706_4927">
<rect width="15.827" height="15.827" fill="white" transform="translate(131.358 134.036)"/>
</clipPath>
</defs>
</svg>
