<svg width="425" height="274" viewBox="0 0 425 274" fill="none" xmlns="http://www.w3.org/2000/svg">
<rect x="0.5" y="0.5" width="424" height="273" rx="9.5" fill="url(#paint0_linear_701_4575)"/>
<rect x="0.5" y="0.5" width="424" height="273" rx="9.5" stroke="#E2E2E2"/>
<path d="M35 65H390V227C390 233.627 384.627 239 378 239H47C40.3726 239 35 233.627 35 227V65Z" fill="#FAFAFA"/>
<path d="M389.5 65.5V227C389.5 233.351 384.351 238.5 378 238.5H47C40.6487 238.5 35.5 233.351 35.5 227V65.5H389.5Z" stroke="#BDBDBD" stroke-opacity="0.5"/>
<mask id="path-4-inside-1_701_4575" fill="white">
<path d="M390 65L35 65L35 47C35 40.3726 40.3726 35 47 35L378 35C384.627 35 390 40.3726 390 47L390 65Z"/>
</mask>
<path d="M390 65L35 65L35 47C35 40.3726 40.3726 35 47 35L378 35C384.627 35 390 40.3726 390 47L390 65Z" fill="white"/>
<path d="M390 65L35 65L390 65M34 47C34 39.8203 39.8203 34 47 34L378 34C385.18 34 391 39.8203 391 47L389 47C389 40.9249 384.075 36 378 36L47 36C40.9249 36 36 40.9249 36 47L34 47ZM378 34C385.18 34 391 39.8203 391 47L391 65L389 65L389 47C389 40.9249 384.075 36 378 36L378 34ZM34 65L34 47C34 39.8203 39.8203 34 47 34L47 36C40.9249 36 36 40.9249 36 47L36 65L34 65Z" fill="#BDBDBD" fill-opacity="0.5" mask="url(#path-4-inside-1_701_4575)"/>
<circle cx="57" cy="51" r="5" fill="#FD2929"/>
<circle cx="73" cy="51" r="5" fill="#FABA0A"/>
<circle cx="89" cy="51" r="5" fill="#51D201"/>
<circle cx="73" cy="98" r="12.6" fill="white" stroke="#5DD77B" stroke-width="0.8"/>
<circle cx="165" cy="98" r="12.6" fill="white" stroke="#5DD77B" stroke-width="0.8"/>
<circle cx="257" cy="98" r="12.6" fill="white" stroke="#DADADA" stroke-width="0.8"/>
<circle cx="349" cy="98" r="13" fill="white"/>
<path d="M93 99H145" stroke="#5DD77B" stroke-width="1.5" stroke-linecap="round"/>
<path d="M185 99H237" stroke="#5DD77B" stroke-width="1.5" stroke-linecap="round"/>
<path d="M277 99H329" stroke="#DADADA" stroke-width="1.5" stroke-linecap="round"/>
<path d="M68.4062 98.6562L71.4688 101.719L77.5938 95.1562" stroke="#5DD77B" stroke-width="1.5" stroke-linecap="round" stroke-linejoin="round"/>
<path d="M160.406 98.6562L163.469 101.719L169.594 95.1562" stroke="#5DD77B" stroke-width="1.5" stroke-linecap="round" stroke-linejoin="round"/>
<path d="M70.6183 126.13C69.0083 126.13 68.0783 124.89 68.0783 122.79C68.0783 120.64 69.0283 119.44 70.6183 119.44C72.2183 119.44 73.1483 120.68 73.1483 122.79C73.1483 124.94 72.1983 126.13 70.6183 126.13ZM70.6183 125.22C71.5483 125.22 72.0583 124.36 72.0583 122.79C72.0583 121.23 71.5383 120.35 70.6183 120.35C69.6883 120.35 69.1683 121.21 69.1683 122.79C69.1683 124.33 69.6883 125.22 70.6183 125.22ZM74.79 126V125.17H76.01V120.95H74.79V120.13H75.44C76.03 120.13 76.19 119.99 76.19 119.68V119.57H77.13V125.17H78.34V126H74.79Z" fill="#6A6969"/>
<path d="M51.1978 139V132.2H53.5278C55.6578 132.2 56.9778 133.48 56.9778 135.61C56.9778 137.74 55.6578 139 53.5278 139H51.1978ZM53.5278 138.09C54.9778 138.09 55.8378 137.17 55.8378 135.61C55.8378 134.03 54.9778 133.11 53.5278 133.11H52.3178V138.09H53.5278ZM58.1295 133.01V131.8H59.1995V133.01H58.1295ZM58.1295 139V133.67H59.1995V139H58.1295ZM61.3428 135.07C61.3428 136.43 64.7528 135.29 64.7528 137.46C64.7528 138.47 63.8428 139.13 62.5528 139.13C61.2628 139.13 60.3528 138.53 60.1528 137.26H61.2228C61.3328 137.93 61.8328 138.3 62.5828 138.3C63.3028 138.3 63.6828 137.98 63.6828 137.53C63.6828 136.2 60.3228 137.32 60.3228 135.13C60.3228 134.3 60.9728 133.53 62.3228 133.53C63.5128 133.53 64.3928 134.08 64.5628 135.41H63.4928C63.3728 134.66 62.9528 134.38 62.2728 134.38C61.6828 134.38 61.3428 134.67 61.3428 135.07ZM70.2371 135.53H69.1671C69.0371 134.77 68.5471 134.43 67.9271 134.43C67.0371 134.43 66.5571 135.11 66.5571 136.34C66.5571 137.55 67.0571 138.24 67.9571 138.24C68.5971 138.24 69.0471 137.89 69.2071 137.21H70.2671C70.0371 138.54 69.1171 139.13 67.9371 139.13C66.3971 139.13 65.4671 138.07 65.4671 136.34C65.4671 134.53 66.4171 133.53 67.9271 133.53C69.1171 133.53 70.0571 134.2 70.2371 135.53ZM73.4943 139.13C71.9443 139.13 71.0043 138.08 71.0043 136.34C71.0043 134.53 71.9743 133.53 73.4943 133.53C75.0443 133.53 75.9843 134.6 75.9843 136.34C75.9843 138.14 75.0143 139.13 73.4943 139.13ZM73.4943 138.23C74.4043 138.23 74.8943 137.57 74.8943 136.34C74.8943 135.12 74.3943 134.43 73.4943 134.43C72.5943 134.43 72.0943 135.1 72.0943 136.34C72.0943 137.55 72.5943 138.23 73.4943 138.23ZM78.2588 139L76.2988 133.67H77.4488L78.8188 137.63L78.9488 138.14L79.0788 137.63L80.4388 133.67H81.5288L79.5688 139H78.2588ZM86.922 137.26C86.632 138.5 85.712 139.13 84.462 139.13C82.892 139.13 81.932 138.08 81.932 136.34C81.932 134.53 82.892 133.53 84.412 133.53C85.952 133.53 86.882 134.57 86.882 136.28V136.54H83.022C83.082 137.63 83.592 138.24 84.462 138.24C85.142 138.24 85.622 137.92 85.802 137.26H86.922ZM84.412 134.42C83.642 134.42 83.182 134.91 83.052 135.81H85.772C85.642 134.91 85.172 134.42 84.412 134.42ZM87.9537 139V133.67H89.0237V134.46C89.3737 133.82 89.9237 133.53 90.5437 133.53C90.7537 133.53 90.9537 133.58 91.0537 133.67V134.61C90.8937 134.56 90.7037 134.54 90.4837 134.54C89.4637 134.54 89.0237 135.16 89.0237 136.09V139H87.9537ZM92.1618 141.33C91.9318 141.33 91.6918 141.27 91.5718 141.23V140.41H91.8618C92.4718 140.41 92.7018 140.29 93.1618 139.18L93.3218 138.81L91.1818 133.67H92.3318L93.6518 136.99L93.8818 137.72L94.1118 136.99L95.3918 133.67H96.4818L94.0618 139.62C93.5218 140.95 93.1118 141.33 92.1618 141.33Z" fill="#6A6969"/>
<path d="M162.118 126.13C160.508 126.13 159.578 124.89 159.578 122.79C159.578 120.64 160.528 119.44 162.118 119.44C163.718 119.44 164.648 120.68 164.648 122.79C164.648 124.94 163.698 126.13 162.118 126.13ZM162.118 125.22C163.048 125.22 163.558 124.36 163.558 122.79C163.558 121.23 163.038 120.35 162.118 120.35C161.188 120.35 160.668 121.21 160.668 122.79C160.668 124.33 161.188 125.22 162.118 125.22ZM165.57 126V125.72C165.57 122.84 169.06 123.04 169.06 121.41C169.06 120.74 168.66 120.34 167.94 120.34C167.15 120.34 166.76 120.75 166.64 121.43H165.55C165.72 120.2 166.57 119.44 167.95 119.44C169.4 119.44 170.14 120.3 170.14 121.4C170.14 123.41 167.11 123.48 166.67 125.17H170.19V126H165.57Z" fill="#6A6969"/>
<path d="M149.52 136.41C149.52 138.1 148.46 139.13 146.75 139.13C145.04 139.13 143.98 138.1 143.98 136.41V132.2H145.1V136.41C145.1 137.55 145.72 138.23 146.75 138.23C147.79 138.23 148.4 137.54 148.4 136.41V132.2H149.52V136.41ZM150.896 139V132.2H152.016V139H150.896ZM155.437 139V132.2H157.767C159.897 132.2 161.217 133.48 161.217 135.61C161.217 137.74 159.897 139 157.767 139H155.437ZM157.767 138.09C159.217 138.09 160.077 137.17 160.077 135.61C160.077 134.03 159.217 133.11 157.767 133.11H156.557V138.09H157.767ZM167.099 137.26C166.809 138.5 165.889 139.13 164.639 139.13C163.069 139.13 162.109 138.08 162.109 136.34C162.109 134.53 163.069 133.53 164.589 133.53C166.129 133.53 167.059 134.57 167.059 136.28V136.54H163.199C163.259 137.63 163.769 138.24 164.639 138.24C165.319 138.24 165.799 137.92 165.979 137.26H167.099ZM164.589 134.42C163.819 134.42 163.359 134.91 163.229 135.81H165.949C165.819 134.91 165.349 134.42 164.589 134.42ZM168.98 135.07C168.98 136.43 172.39 135.29 172.39 137.46C172.39 138.47 171.48 139.13 170.19 139.13C168.9 139.13 167.99 138.53 167.79 137.26H168.86C168.97 137.93 169.47 138.3 170.22 138.3C170.94 138.3 171.32 137.98 171.32 137.53C171.32 136.2 167.96 137.32 167.96 135.13C167.96 134.3 168.61 133.53 169.96 133.53C171.15 133.53 172.03 134.08 172.2 135.41H171.13C171.01 134.66 170.59 134.38 169.91 134.38C169.32 134.38 168.98 134.67 168.98 135.07ZM173.365 133.01V131.8H174.435V133.01H173.365ZM173.365 139V133.67H174.435V139H173.365ZM177.648 139.03C176.288 139.03 175.468 137.99 175.468 136.29C175.468 134.51 176.308 133.53 177.648 133.53C178.328 133.53 178.838 133.77 179.178 134.23V133.67H180.248V139.17C180.248 140.63 179.278 141.34 177.998 141.34C176.718 141.34 175.798 140.74 175.608 139.5H176.678C176.778 140.14 177.288 140.48 177.988 140.48C178.698 140.48 179.178 140.11 179.178 139.19V138.29C178.818 138.78 178.298 139.03 177.648 139.03ZM177.868 138.13C178.718 138.13 179.178 137.48 179.178 136.28C179.178 135.11 178.698 134.43 177.868 134.43C177.018 134.43 176.558 135.08 176.558 136.29C176.558 137.46 177.028 138.13 177.868 138.13ZM181.548 139V133.67H182.618V134.38C182.978 133.81 183.538 133.53 184.228 133.53C185.338 133.53 186.028 134.18 186.028 135.44V139H184.968V135.66C184.968 134.89 184.628 134.42 183.898 134.42C183.098 134.42 182.618 135.13 182.618 135.87V139H181.548Z" fill="#6A6969"/>
<path d="M254.118 126.13C252.508 126.13 251.578 124.89 251.578 122.79C251.578 120.64 252.528 119.44 254.118 119.44C255.718 119.44 256.648 120.68 256.648 122.79C256.648 124.94 255.698 126.13 254.118 126.13ZM254.118 125.22C255.048 125.22 255.558 124.36 255.558 122.79C255.558 121.23 255.038 120.35 254.118 120.35C253.188 120.35 252.668 121.21 252.668 122.79C252.668 124.33 253.188 125.22 254.118 125.22ZM262.37 124.19C262.37 125.28 261.53 126.13 259.91 126.13C258.47 126.13 257.54 125.37 257.36 124.11H258.45C258.56 124.8 259.02 125.23 259.9 125.23C260.8 125.23 261.28 124.83 261.28 124.14C261.28 123.63 261 123.1 259.63 123.1H259.32V122.28H259.57C260.88 122.28 261.1 121.74 261.1 121.32C261.1 120.71 260.69 120.34 259.92 120.34C259.11 120.34 258.69 120.75 258.57 121.43H257.5C257.67 120.2 258.54 119.44 259.93 119.44C261.41 119.44 262.19 120.25 262.19 121.31C262.19 121.91 261.94 122.36 261.32 122.63C262.08 122.95 262.37 123.51 262.37 124.19Z" fill="#6A6969"/>
<path d="M238.843 139V132.2H241.173C243.303 132.2 244.623 133.48 244.623 135.61C244.623 137.74 243.303 139 241.173 139H238.843ZM241.173 138.09C242.623 138.09 243.483 137.17 243.483 135.61C243.483 134.03 242.623 133.11 241.173 133.11H239.963V138.09H241.173ZM250.505 137.26C250.215 138.5 249.295 139.13 248.045 139.13C246.475 139.13 245.515 138.08 245.515 136.34C245.515 134.53 246.475 133.53 247.995 133.53C249.535 133.53 250.465 134.57 250.465 136.28V136.54H246.605C246.665 137.63 247.175 138.24 248.045 138.24C248.725 138.24 249.205 137.92 249.385 137.26H250.505ZM247.995 134.42C247.225 134.42 246.765 134.91 246.635 135.81H249.355C249.225 134.91 248.755 134.42 247.995 134.42ZM251.537 139V131.8H252.607V139H251.537ZM253.9 133.01V131.8H254.97V133.01H253.9ZM253.9 139V133.67H254.97V139H253.9ZM257.613 139L255.653 133.67H256.803L258.173 137.63L258.303 138.14L258.433 137.63L259.793 133.67H260.883L258.923 139H257.613ZM266.276 137.26C265.986 138.5 265.066 139.13 263.816 139.13C262.246 139.13 261.286 138.08 261.286 136.34C261.286 134.53 262.246 133.53 263.766 133.53C265.306 133.53 266.236 134.57 266.236 136.28V136.54H262.376C262.436 137.63 262.946 138.24 263.816 138.24C264.496 138.24 264.976 137.92 265.156 137.26H266.276ZM263.766 134.42C262.996 134.42 262.536 134.91 262.406 135.81H265.126C264.996 134.91 264.526 134.42 263.766 134.42ZM267.308 139V133.67H268.378V134.46C268.728 133.82 269.278 133.53 269.898 133.53C270.108 133.53 270.308 133.58 270.408 133.67V134.61C270.248 134.56 270.058 134.54 269.838 134.54C268.818 134.54 268.378 135.16 268.378 136.09V139H267.308ZM271.516 141.33C271.286 141.33 271.046 141.27 270.926 141.23V140.41H271.216C271.826 140.41 272.056 140.29 272.516 139.18L272.676 138.81L270.536 133.67H271.686L273.006 136.99L273.236 137.72L273.466 136.99L274.746 133.67H275.836L273.416 139.62C272.876 140.95 272.466 141.33 271.516 141.33Z" fill="#6A6969"/>
<path d="M346.618 126.13C345.008 126.13 344.078 124.89 344.078 122.79C344.078 120.64 345.028 119.44 346.618 119.44C348.218 119.44 349.148 120.68 349.148 122.79C349.148 124.94 348.198 126.13 346.618 126.13ZM346.618 125.22C347.548 125.22 348.058 124.36 348.058 122.79C348.058 121.23 347.538 120.35 346.618 120.35C345.688 120.35 345.168 121.21 345.168 122.79C345.168 124.33 345.688 125.22 346.618 125.22ZM354.06 126H352.97V124.56H349.91V123.6L353.08 119.57H354.06V123.72H354.95V124.56H354.06V126ZM350.84 123.72H352.97V120.92L350.84 123.72Z" fill="#6A6969"/>
<path d="M330.85 139V132.2H333.4C334.87 132.2 335.8 132.96 335.8 134.16C335.8 134.93 335.45 135.47 334.84 135.77C335.24 135.98 335.46 136.35 335.61 136.96L336.12 139H334.94L334.53 137.18C334.35 136.4 334.05 136.25 333.3 136.25H331.97V139H330.85ZM333.37 133.1H331.97V135.35H333.35C334.18 135.35 334.65 134.91 334.65 134.22C334.65 133.54 334.18 133.1 333.37 133.1ZM341.799 137.26C341.509 138.5 340.589 139.13 339.339 139.13C337.769 139.13 336.809 138.08 336.809 136.34C336.809 134.53 337.769 133.53 339.289 133.53C340.829 133.53 341.759 134.57 341.759 136.28V136.54H337.899C337.959 137.63 338.469 138.24 339.339 138.24C340.019 138.24 340.499 137.92 340.679 137.26H341.799ZM339.289 134.42C338.519 134.42 338.059 134.91 337.929 135.81H340.649C340.519 134.91 340.049 134.42 339.289 134.42ZM344.063 139L342.103 133.67H343.253L344.623 137.63L344.753 138.14L344.883 137.63L346.243 133.67H347.333L345.373 139H344.063ZM348.026 133.01V131.8H349.096V133.01H348.026ZM348.026 139V133.67H349.096V139H348.026ZM351.239 135.07C351.239 136.43 354.649 135.29 354.649 137.46C354.649 138.47 353.739 139.13 352.449 139.13C351.159 139.13 350.249 138.53 350.049 137.26H351.119C351.229 137.93 351.729 138.3 352.479 138.3C353.199 138.3 353.579 137.98 353.579 137.53C353.579 136.2 350.219 137.32 350.219 135.13C350.219 134.3 350.869 133.53 352.219 133.53C353.409 133.53 354.289 134.08 354.459 135.41H353.389C353.269 134.66 352.849 134.38 352.169 134.38C351.579 134.38 351.239 134.67 351.239 135.07ZM355.624 133.01V131.8H356.694V133.01H355.624ZM355.624 139V133.67H356.694V139H355.624ZM360.217 139.13C358.667 139.13 357.727 138.08 357.727 136.34C357.727 134.53 358.697 133.53 360.217 133.53C361.767 133.53 362.707 134.6 362.707 136.34C362.707 138.14 361.737 139.13 360.217 139.13ZM360.217 138.23C361.127 138.23 361.617 137.57 361.617 136.34C361.617 135.12 361.117 134.43 360.217 134.43C359.317 134.43 358.817 135.1 358.817 136.34C358.817 137.55 359.317 138.23 360.217 138.23ZM363.749 139V133.67H364.819V134.38C365.179 133.81 365.739 133.53 366.429 133.53C367.539 133.53 368.229 134.18 368.229 135.44V139H367.169V135.66C367.169 134.89 366.829 134.42 366.099 134.42C365.299 134.42 364.819 135.13 364.819 135.87V139H363.749Z" fill="#6A6969"/>
<path d="M260.572 96.9865V93.2041C260.572 93.0833 260.474 92.9854 260.353 92.9854H253.56C253.44 92.9854 253.342 93.0833 253.342 93.2041V99.9967C253.342 100.117 253.44 100.215 253.56 100.215H257.343C257.455 101.778 258.762 103.015 260.353 103.015C262.017 103.015 263.371 101.661 263.371 99.9967C263.371 98.406 262.134 97.0989 260.572 96.9865ZM256.278 93.4229H257.635V95.5272H256.278V93.4229ZM253.779 93.4229H255.841V95.746C255.841 95.8668 255.939 95.9647 256.06 95.9647H257.854C257.975 95.9647 258.073 95.8668 258.073 95.746V93.4229H260.134V96.9865C258.644 97.0938 257.45 98.2877 257.343 99.7779H253.779V93.4229ZM260.353 102.577C258.93 102.577 257.772 101.42 257.772 99.9967C257.772 98.5737 258.93 97.416 260.353 97.416C261.776 97.416 262.934 98.5737 262.934 99.9967C262.934 101.42 261.776 102.577 260.353 102.577ZM261.591 99.1197C261.676 99.2051 261.676 99.3436 261.591 99.429L260.146 100.874C260.104 100.916 260.048 100.938 259.992 100.938C259.936 100.938 259.88 100.916 259.837 100.874L259.115 100.151C259.029 100.066 259.029 99.9274 259.115 99.842C259.2 99.7566 259.339 99.7566 259.424 99.842L259.992 100.41L261.282 99.1197C261.367 99.0343 261.506 99.0343 261.591 99.1197ZM252.246 97.8906H250.876C250.755 97.8906 250.657 97.7927 250.657 97.6719C250.657 97.5511 250.755 97.4531 250.876 97.4531H252.246C252.367 97.4531 252.465 97.5511 252.465 97.6719C252.465 97.7927 252.367 97.8906 252.246 97.8906ZM250.629 95.438C250.629 95.3172 250.727 95.2192 250.848 95.2192H252.218C252.339 95.2192 252.437 95.3172 252.437 95.438C252.437 95.5588 252.339 95.6567 252.218 95.6567H250.848C250.727 95.6567 250.629 95.5588 250.629 95.438ZM252.908 99.9057C252.908 100.027 252.81 100.124 252.689 100.124H251.319C251.198 100.124 251.1 100.027 251.1 99.9057C251.1 99.7849 251.198 99.687 251.319 99.687H252.689C252.81 99.687 252.908 99.7849 252.908 99.9057ZM252.908 93.2041C252.908 93.3249 252.81 93.4229 252.689 93.4229H251.319C251.198 93.4229 251.1 93.3249 251.1 93.2041C251.1 93.0833 251.198 92.9854 251.319 92.9854H252.689C252.81 92.9854 252.908 93.0833 252.908 93.2041Z" fill="#DADADA"/>
<path d="M354.25 97.7085V101.792C354.25 102.179 354.097 102.55 353.823 102.823C353.55 103.097 353.179 103.25 352.792 103.25H345.792C345.405 103.25 345.034 103.097 344.761 102.823C344.487 102.55 344.333 102.179 344.333 101.792V94.7918C344.333 94.4051 344.487 94.0341 344.761 93.7606C345.034 93.4871 345.405 93.3335 345.792 93.3335H349.875C349.953 93.3335 350.027 93.3642 350.081 93.4189C350.136 93.4736 350.167 93.5478 350.167 93.6252C350.167 93.7025 350.136 93.7767 350.081 93.8314C350.027 93.8861 349.953 93.9168 349.875 93.9168H345.792C345.56 93.9168 345.337 94.009 345.173 94.1731C345.009 94.3372 344.917 94.5598 344.917 94.7918V101.792C344.917 102.024 345.009 102.246 345.173 102.411C345.337 102.575 345.56 102.667 345.792 102.667H352.792C353.024 102.667 353.246 102.575 353.411 102.411C353.575 102.246 353.667 102.024 353.667 101.792V97.7085C353.667 97.6311 353.698 97.557 353.752 97.5023C353.807 97.4476 353.881 97.4168 353.958 97.4168C354.036 97.4168 354.11 97.4476 354.165 97.5023C354.219 97.557 354.25 97.6311 354.25 97.7085ZM353.802 93.7821C353.944 93.9239 354.056 94.0924 354.133 94.2779C354.21 94.4634 354.25 94.6622 354.25 94.863C354.25 95.0638 354.21 95.2626 354.133 95.4481C354.056 95.6336 353.944 95.8021 353.802 95.9439L349.256 100.49C349.121 100.626 348.96 100.733 348.783 100.807C348.606 100.88 348.416 100.917 348.225 100.917H347.542C347.31 100.917 347.087 100.825 346.923 100.661C346.759 100.496 346.667 100.274 346.667 100.042V99.3587C346.666 99.1671 346.704 98.9773 346.777 98.8003C346.85 98.6233 346.958 98.4626 347.094 98.3274L351.64 93.7815C351.782 93.6395 351.95 93.5268 352.136 93.45C352.321 93.3732 352.52 93.3336 352.721 93.3337C352.922 93.3337 353.12 93.3734 353.306 93.4503C353.491 93.5272 353.66 93.64 353.802 93.7821ZM352.379 96.5418L351.042 95.2042L347.506 98.7398C347.425 98.8209 347.36 98.9174 347.316 99.0236C347.272 99.1299 347.25 99.2438 347.25 99.3587V100.042C347.25 100.119 347.281 100.193 347.336 100.248C347.39 100.303 347.464 100.333 347.542 100.333H348.225C348.34 100.334 348.454 100.311 348.56 100.267C348.666 100.223 348.763 100.159 348.844 100.077L352.379 96.5418ZM353.39 94.1939C353.212 94.0166 352.972 93.917 352.721 93.917C352.47 93.917 352.23 94.0166 352.052 94.1939L351.454 94.7918L352.792 96.1294L353.39 95.5315C353.478 95.4437 353.547 95.3394 353.595 95.2247C353.642 95.1099 353.667 94.9869 353.667 94.8627C353.667 94.7385 353.642 94.6155 353.595 94.5007C353.547 94.386 353.478 94.2817 353.39 94.1939Z" fill="#DADADA"/>
<rect x="50" y="147" width="47" height="3" rx="1.5" fill="#E7E7E7"/>
<rect x="143" y="147" width="47" height="3" rx="1.5" fill="#E7E7E7"/>
<rect x="236" y="147" width="47" height="3" rx="1.5" fill="#E7E7E7"/>
<rect x="329" y="147" width="47" height="3" rx="1.5" fill="#E7E7E7"/>
<rect x="50" y="153" width="31" height="3" rx="1.5" fill="#E7E7E7"/>
<rect x="50" y="168" width="326" height="63" rx="2" fill="#F5F5F5"/>
<rect x="56" y="188" width="100" height="37" rx="4" fill="white"/>
<rect x="162" y="188" width="101" height="37" rx="4" fill="white"/>
<rect x="269" y="188" width="100" height="37" rx="4" fill="white"/>
<rect x="143" y="153" width="31" height="3" rx="1.5" fill="#E7E7E7"/>
<rect x="236" y="153" width="31" height="3" rx="1.5" fill="#E7E7E7"/>
<rect x="329" y="153" width="31" height="3" rx="1.5" fill="#E7E7E7"/>
<path d="M58.584 182V176.56H60.448C62.152 176.56 63.208 177.584 63.208 179.288C63.208 180.992 62.152 182 60.448 182H58.584ZM60.448 181.272C61.608 181.272 62.296 180.536 62.296 179.288C62.296 178.024 61.608 177.288 60.448 177.288H59.48V181.272H60.448ZM67.9134 180.608C67.6814 181.6 66.9454 182.104 65.9454 182.104C64.6894 182.104 63.9214 181.264 63.9214 179.872C63.9214 178.424 64.6894 177.624 65.9054 177.624C67.1374 177.624 67.8814 178.456 67.8814 179.824V180.032H64.7934C64.8414 180.904 65.2494 181.392 65.9454 181.392C66.4894 181.392 66.8734 181.136 67.0174 180.608H67.9134ZM65.9054 178.336C65.2894 178.336 64.9214 178.728 64.8174 179.448H66.9934C66.8894 178.728 66.5134 178.336 65.9054 178.336ZM68.7388 182V176.24H69.5948V182H68.7388ZM70.6294 177.208V176.24H71.4854V177.208H70.6294ZM70.6294 182V177.736H71.4854V182H70.6294ZM73.6 182L72.032 177.736H72.952L74.048 180.904L74.152 181.312L74.256 180.904L75.344 177.736H76.216L74.648 182H73.6ZM80.5306 180.608C80.2986 181.6 79.5626 182.104 78.5626 182.104C77.3066 182.104 76.5386 181.264 76.5386 179.872C76.5386 178.424 77.3066 177.624 78.5226 177.624C79.7546 177.624 80.4986 178.456 80.4986 179.824V180.032H77.4106C77.4586 180.904 77.8666 181.392 78.5626 181.392C79.1066 181.392 79.4906 181.136 79.6346 180.608H80.5306ZM78.5226 178.336C77.9066 178.336 77.5386 178.728 77.4346 179.448H79.6106C79.5066 178.728 79.1306 178.336 78.5226 178.336ZM81.3559 182V177.736H82.2119V178.368C82.4919 177.856 82.9319 177.624 83.4279 177.624C83.5959 177.624 83.7559 177.664 83.8359 177.736V178.488C83.7079 178.448 83.5559 178.432 83.3799 178.432C82.5639 178.432 82.2119 178.928 82.2119 179.672V182H81.3559ZM85.1639 179.128H84.3079C84.4439 178.184 85.0919 177.624 86.1559 177.624C87.3159 177.624 87.8919 178.304 87.8919 179.296V180.96C87.8919 181.472 87.9399 181.768 88.0359 182H87.1399C87.0759 181.84 87.0519 181.616 87.0439 181.376C86.6839 181.88 86.1319 182.104 85.6199 182.104C84.7559 182.104 84.1639 181.696 84.1639 180.88C84.1639 180.296 84.4839 179.864 85.1239 179.648C85.6919 179.456 86.2679 179.408 87.0359 179.4V179.304C87.0359 178.68 86.7479 178.344 86.0919 178.344C85.5399 178.344 85.2439 178.648 85.1639 179.128ZM85.0279 180.848C85.0279 181.208 85.3239 181.432 85.7799 181.432C86.4919 181.432 87.0359 180.864 87.0359 180.176V179.984C85.3959 180 85.0279 180.36 85.0279 180.848ZM89.8213 182H88.9653V176.24H89.8213V178.232C90.0933 177.84 90.4933 177.624 90.9813 177.624C92.1013 177.624 92.7813 178.464 92.7813 179.856C92.7813 181.304 92.0853 182.104 90.9813 182.104C90.4933 182.104 90.0933 181.904 89.8213 181.52V182ZM90.8693 178.344C90.1813 178.344 89.8213 178.88 89.8213 179.856C89.8213 180.832 90.1973 181.384 90.8693 181.384C91.5413 181.384 91.9093 180.848 91.9093 179.856C91.9093 178.888 91.5333 178.344 90.8693 178.344ZM93.6138 182V176.24H94.4698V182H93.6138ZM99.2884 180.608C99.0564 181.6 98.3204 182.104 97.3204 182.104C96.0644 182.104 95.2964 181.264 95.2964 179.872C95.2964 178.424 96.0644 177.624 97.2804 177.624C98.5124 177.624 99.2564 178.456 99.2564 179.824V180.032H96.1684C96.2164 180.904 96.6244 181.392 97.3204 181.392C97.8644 181.392 98.2484 181.136 98.3924 180.608H99.2884ZM97.2804 178.336C96.6644 178.336 96.2964 178.728 96.1924 179.448H98.3684C98.2644 178.728 97.8884 178.336 97.2804 178.336ZM100.794 178.856C100.794 179.944 103.522 179.032 103.522 180.768C103.522 181.576 102.794 182.104 101.762 182.104C100.73 182.104 100.002 181.624 99.8418 180.608H100.698C100.786 181.144 101.186 181.44 101.786 181.44C102.362 181.44 102.666 181.184 102.666 180.824C102.666 179.76 99.9778 180.656 99.9778 178.904C99.9778 178.24 100.498 177.624 101.578 177.624C102.53 177.624 103.234 178.064 103.37 179.128H102.514C102.418 178.528 102.082 178.304 101.538 178.304C101.066 178.304 100.794 178.536 100.794 178.856Z" fill="#6A6969"/>
<rect x="101" y="198" width="47" height="3" rx="1.5" fill="#E7E7E7"/>
<rect x="101" y="205" width="37" height="3" rx="1.5" fill="#E7E7E7"/>
<rect x="101" y="212" width="28" height="3" rx="1.5" fill="#E7E7E7"/>
<rect x="208" y="198" width="47" height="3" rx="1.5" fill="#E7E7E7"/>
<rect x="208" y="205" width="37" height="3" rx="1.5" fill="#E7E7E7"/>
<rect x="208" y="212" width="28" height="3" rx="1.5" fill="#E7E7E7"/>
<rect x="314" y="198" width="47" height="3" rx="1.5" fill="#E7E7E7"/>
<rect x="314" y="205" width="37" height="3" rx="1.5" fill="#E7E7E7"/>
<rect x="314" y="212" width="28" height="3" rx="1.5" fill="#E7E7E7"/>
<path d="M80.5952 198.518H78.9928V196.916C78.9928 196.412 78.5807 196 78.0773 196H66.4025C65.8988 196 65.4868 196.412 65.4868 196.916V211.566C65.4868 212.07 65.8988 212.482 66.4025 212.482H68.0049V214.084C68.0049 214.588 68.4167 215 68.9206 215H76.7035C77.2069 215 77.9193 214.718 78.2857 214.373L80.8436 211.965C81.2106 211.62 81.5105 210.925 81.5105 210.422L81.5109 199.434C81.5109 198.93 81.0988 198.518 80.5952 198.518ZM68.0048 199.434V211.795H66.4025C66.2784 211.795 66.1736 211.69 66.1736 211.566V196.916C66.1736 196.792 66.2784 196.687 66.4025 196.687H78.0774C78.2012 196.687 78.3063 196.792 78.3063 196.916V198.518H68.9205C68.4167 198.518 68.0048 198.93 68.0048 199.434ZM80.373 211.465L77.815 213.872C77.7626 213.922 77.6944 213.97 77.6191 214.016V211.91C77.6191 211.752 77.6825 211.611 77.7871 211.506C77.8926 211.401 78.0341 211.337 78.1914 211.337H80.4817C80.4462 211.386 80.4098 211.43 80.373 211.465ZM80.8236 210.422C80.8236 210.49 80.8113 210.568 80.7925 210.651H78.1913C77.4966 210.652 76.9337 211.215 76.9323 211.91V214.285C76.8506 214.302 76.7718 214.313 76.7034 214.313H68.9205V214.313C68.7962 214.313 68.6916 214.208 68.6916 214.084V199.434C68.6916 199.31 68.7962 199.205 68.9205 199.205H80.5952C80.7192 199.205 80.8241 199.31 80.8241 199.434L80.8236 210.422Z" fill="#E7E7E7"/>
<path d="M78.0781 201.724H71.4396C71.2498 201.724 71.0962 201.878 71.0962 202.067C71.0962 202.257 71.2498 202.411 71.4396 202.411H78.0781C78.2676 202.411 78.4215 202.257 78.4215 202.067C78.4215 201.878 78.2676 201.724 78.0781 201.724Z" fill="#E7E7E7"/>
<path d="M78.0781 206.3H71.4396C71.2498 206.3 71.0962 206.454 71.0962 206.644C71.0962 206.833 71.2498 206.987 71.4396 206.987H78.0781C78.2676 206.987 78.4215 206.833 78.4215 206.644C78.4215 206.454 78.2676 206.3 78.0781 206.3Z" fill="#E7E7E7"/>
<path d="M75.1022 208.589H71.4396C71.2498 208.589 71.0962 208.743 71.0962 208.933C71.0962 209.123 71.2498 209.276 71.4396 209.276H75.1022C75.2917 209.276 75.4453 209.123 75.4453 208.933C75.4453 208.743 75.2917 208.589 75.1022 208.589Z" fill="#E7E7E7"/>
<path d="M78.0781 204.013H71.4396C71.2498 204.013 71.0962 204.167 71.0962 204.357C71.0962 204.546 71.2498 204.7 71.4396 204.7H78.0781C78.2676 204.7 78.4215 204.546 78.4215 204.357C78.4215 204.167 78.2676 204.013 78.0781 204.013Z" fill="#E7E7E7"/>
<path d="M192 198.667H174C173.449 198.667 173 199.115 173 199.667V212.333C173 212.885 173.449 213.333 174 213.333H192C192.551 213.333 193 212.885 193 212.333V207.39C193 207.39 193 207.39 193 207.39V199.667C193 199.115 192.551 198.667 192 198.667ZM174 212.667C173.816 212.667 173.667 212.517 173.667 212.333V208.198L176.767 205.097C176.892 204.97 177.106 204.969 177.235 205.099L180.529 208.391L176.252 212.667H174ZM192.333 212.333C192.333 212.517 192.184 212.666 192 212.666H177.195L187.1 202.764C187.226 202.637 187.439 202.635 187.568 202.766L192.333 207.528L192.333 212.333ZM192.333 206.585L188.041 202.296C187.663 201.913 187.003 201.915 186.628 202.294L181.001 207.919L177.707 204.629C177.329 204.246 176.669 204.248 176.294 204.627L173.667 207.255V199.667C173.667 199.483 173.816 199.333 174 199.333H192C192.184 199.333 192.333 199.483 192.333 199.667V206.585Z" fill="#E7E7E7"/>
<path d="M181.333 201C180.231 201 179.333 201.897 179.333 203C179.333 204.103 180.231 205 181.333 205C182.436 205 183.333 204.103 183.333 203C183.333 201.897 182.436 201 181.333 201ZM181.333 204.333C180.598 204.333 180 203.735 180 203C180 202.265 180.598 201.667 181.333 201.667C182.069 201.667 182.667 202.265 182.667 203C182.667 203.735 182.069 204.333 181.333 204.333Z" fill="#E7E7E7"/>
<path d="M285.653 208.237C285.552 208.237 285.456 208.197 285.384 208.126C285.313 208.055 285.273 207.958 285.273 207.857V205.143C285.273 205.042 285.313 204.945 285.384 204.874C285.456 204.803 285.552 204.763 285.653 204.763H286.675C286.815 204.761 286.953 204.788 287.082 204.84C287.211 204.893 287.329 204.971 287.427 205.069C287.526 205.168 287.604 205.285 287.656 205.415C287.709 205.544 287.735 205.682 287.734 205.821C287.732 206.102 287.62 206.37 287.422 206.568C287.224 206.767 286.955 206.879 286.675 206.88H286.033V207.857C286.033 207.958 285.993 208.055 285.922 208.126C285.85 208.197 285.754 208.237 285.653 208.237ZM286.033 206.12H286.675C286.714 206.12 286.753 206.112 286.789 206.097C286.826 206.082 286.859 206.06 286.886 206.033C286.914 206.005 286.936 205.972 286.951 205.936C286.966 205.9 286.974 205.861 286.974 205.821C286.975 205.782 286.968 205.743 286.953 205.706C286.938 205.669 286.916 205.636 286.888 205.608C286.861 205.58 286.827 205.558 286.791 205.544C286.754 205.529 286.715 205.522 286.675 205.523H286.033V206.12Z" fill="#E7E7E7"/>
<path d="M289.672 208.242H288.646C288.545 208.242 288.449 208.202 288.377 208.131C288.306 208.06 288.266 207.963 288.266 207.862V205.138C288.266 205.038 288.306 204.941 288.377 204.87C288.449 204.798 288.545 204.758 288.646 204.758H289.672C289.954 204.758 290.225 204.87 290.424 205.07C290.624 205.269 290.736 205.54 290.736 205.822V207.184C290.735 207.465 290.622 207.734 290.422 207.933C290.223 208.131 289.953 208.242 289.672 208.242ZM289.026 207.482H289.672C289.753 207.482 289.83 207.45 289.887 207.393C289.944 207.336 289.976 207.259 289.976 207.178V205.816C289.976 205.736 289.944 205.658 289.887 205.601C289.83 205.544 289.753 205.512 289.672 205.512H289.026V207.482Z" fill="#E7E7E7"/>
<path d="M291.659 208.242C291.558 208.242 291.461 208.202 291.39 208.131C291.319 208.06 291.279 207.963 291.279 207.862V205.138C291.279 205.038 291.319 204.941 291.39 204.87C291.461 204.798 291.558 204.758 291.659 204.758H293.365C293.466 204.758 293.562 204.798 293.634 204.87C293.705 204.941 293.745 205.038 293.745 205.138C293.745 205.239 293.705 205.336 293.634 205.407C293.562 205.478 293.466 205.518 293.365 205.518H292.039V207.862C292.039 207.963 291.999 208.06 291.928 208.131C291.856 208.202 291.76 208.242 291.659 208.242Z" fill="#E7E7E7"/>
<path d="M292.92 206.88H291.659C291.558 206.88 291.461 206.84 291.39 206.769C291.319 206.698 291.279 206.601 291.279 206.5C291.279 206.399 291.319 206.303 291.39 206.231C291.461 206.16 291.558 206.12 291.659 206.12H292.92C293.02 206.12 293.117 206.16 293.188 206.231C293.26 206.303 293.3 206.399 293.3 206.5C293.3 206.601 293.26 206.698 293.188 206.769C293.117 206.84 293.02 206.88 292.92 206.88Z" fill="#E7E7E7"/>
<path d="M291.864 213.427H285.033C284.547 213.426 284.08 213.233 283.736 212.889C283.392 212.545 283.199 212.079 283.198 211.592V201.408C283.199 200.922 283.392 200.456 283.736 200.112C284.08 199.768 284.547 199.574 285.033 199.574H293.966C294.453 199.574 294.919 199.768 295.263 200.112C295.607 200.456 295.801 200.922 295.802 201.408V209.49C295.801 209.591 295.761 209.687 295.69 209.758L292.132 213.316C292.061 213.387 291.965 213.427 291.864 213.427ZM285.033 200.334C284.748 200.334 284.475 200.447 284.273 200.649C284.072 200.85 283.958 201.123 283.958 201.408V211.592C283.958 211.877 284.072 212.15 284.273 212.352C284.475 212.553 284.748 212.667 285.033 212.667H291.704L295.039 209.333V201.408C295.038 201.123 294.924 200.85 294.723 200.649C294.521 200.447 294.248 200.334 293.963 200.334H285.033Z" fill="#E7E7E7"/>
<path d="M291.864 213.427C291.764 213.427 291.667 213.387 291.596 213.315C291.524 213.244 291.484 213.147 291.484 213.047V210.945C291.485 210.459 291.678 209.992 292.022 209.648C292.366 209.304 292.832 209.11 293.319 209.11H295.422C295.523 209.11 295.619 209.15 295.691 209.221C295.762 209.292 295.802 209.389 295.802 209.49C295.802 209.591 295.762 209.687 295.691 209.759C295.619 209.83 295.523 209.87 295.422 209.87H293.319C293.034 209.87 292.761 209.984 292.559 210.185C292.358 210.387 292.245 210.66 292.244 210.945V213.047C292.244 213.147 292.204 213.244 292.133 213.315C292.062 213.387 291.965 213.427 291.864 213.427Z" fill="#E7E7E7"/>
<defs>
<linearGradient id="paint0_linear_701_4575" x1="212.5" y1="0" x2="212.5" y2="274" gradientUnits="userSpaceOnUse">
<stop stop-color="#FFFDB7"/>
<stop offset="1" stop-color="#FFDF47"/>
</linearGradient>
</defs>
</svg>
