<svg width="315" height="203" viewBox="0 0 315 203" fill="none" xmlns="http://www.w3.org/2000/svg">
<circle cx="168.532" cy="121.392" r="79.803" stroke="white" stroke-width="2"/>
<path d="M134.455 28.7853C142.531 35.7814 144.48 48.6958 140.648 64.2944C136.831 79.8347 127.33 97.734 113.011 114.264C98.6912 130.793 82.3286 142.749 67.4912 148.743C52.5984 154.759 39.5378 154.672 31.462 147.676C23.3861 140.68 21.437 127.765 25.2687 112.166C29.0862 96.6257 38.5879 78.7265 52.9074 62.1968C67.2267 45.6673 83.5882 33.7115 98.4255 27.7176C113.319 21.7012 126.38 21.7892 134.455 28.7853Z" stroke="white" stroke-width="2"/>
<path d="M283.165 144.974C275.218 152.117 262.162 152.444 247.161 146.701C232.216 140.981 215.638 129.328 201.018 113.063C186.397 96.7991 176.57 79.0765 172.468 63.6087C168.351 48.0832 170.062 35.135 178.008 27.992C185.954 20.8491 199.012 20.5215 214.012 26.2637C228.957 31.9845 245.536 43.6388 260.156 59.9031C274.776 76.1672 284.604 93.8887 288.706 109.356C292.823 124.882 291.111 137.831 283.165 144.974Z" stroke="white" stroke-width="2"/>
<path d="M89.7364 132.819C91.567 132.865 93.052 134.316 93.1417 136.146C93.2315 137.975 91.8956 139.564 90.0784 139.79C88.7753 139.953 87.4916 139.372 86.7524 138.287C86.0138 137.201 85.9447 135.794 86.5735 134.641C87.2029 133.488 88.4236 132.785 89.7364 132.819Z" fill="#4C4C4C"/>
<path d="M244.736 141.819C246.567 141.865 248.052 143.316 248.142 145.146C248.231 146.975 246.896 148.564 245.078 148.79C243.775 148.953 242.492 148.372 241.752 147.287C241.014 146.201 240.945 144.794 241.574 143.641C242.203 142.488 243.424 141.785 244.736 141.819Z" fill="#4C4C4C"/>
<path d="M170.736 37.8186C172.567 37.8653 174.052 39.3164 174.142 41.1459C174.231 42.9748 172.896 44.5642 171.078 44.7904C169.775 44.9529 168.492 44.372 167.752 43.2865C167.014 42.2011 166.945 40.7936 167.574 39.6408C168.203 38.488 169.424 37.7846 170.736 37.8186Z" fill="#4C4C4C"/>
</svg>
