<svg width="1240" height="147" viewBox="0 0 1240 147" fill="none" xmlns="http://www.w3.org/2000/svg">
<path d="M114.896 120.569C107.435 120.569 100.719 118.833 94.7324 115.361C88.7462 111.889 84.0156 107.073 80.5552 100.945C77.0949 94.8158 75.3574 87.7812 75.3574 79.8408V78.3765C75.3574 70.4513 77.0949 63.4469 80.5552 57.3633C84.0156 51.2798 88.7462 46.5246 94.7324 43.113C100.719 39.6863 107.45 37.9805 114.896 37.9805C122.342 37.9805 129.175 39.6863 135.059 43.113C140.943 46.5397 145.616 51.2647 149.091 57.2879C152.551 63.311 154.288 70.3003 154.288 78.2256V79.8559C154.288 87.7812 152.551 94.8158 149.091 100.96C145.63 107.104 140.943 111.904 135.059 115.376C129.175 118.848 122.459 120.584 114.896 120.584V120.569ZM114.896 103.949C119.101 103.949 122.795 102.952 126.007 100.93C129.205 98.9218 131.701 96.0687 133.497 92.3702C135.278 88.6718 136.169 84.4903 136.169 79.8257V78.1954C136.169 73.5308 135.278 69.4248 133.497 65.8924C131.716 62.36 129.219 59.5975 126.007 57.5898C122.795 55.582 119.101 54.5706 114.896 54.5706C110.691 54.5706 107.143 55.582 103.945 57.5898C100.733 59.5975 98.222 62.3902 96.3823 65.983C94.5426 69.5758 93.6228 73.6969 93.6228 78.3614V79.8257C93.6228 84.4903 94.5426 88.6869 96.3823 92.3702C98.222 96.0687 100.733 98.9218 103.945 100.93C107.143 102.937 110.793 103.949 114.896 103.949Z" fill="url(#paint0_linear_263_10493)"/>
<path d="M195.605 121.35C190.042 121.35 185.019 120.188 180.551 117.848C176.084 115.508 172.565 111.961 169.995 107.175C167.425 102.39 166.141 96.4273 166.141 89.2568V40.377H184.26V85.664C184.26 90.2229 184.917 93.861 186.231 96.5782C187.545 99.2955 189.385 101.243 191.75 102.45C194.115 103.643 196.773 104.247 199.707 104.247C202.963 104.247 205.854 103.537 208.38 102.133C210.906 100.73 212.892 98.5709 214.366 95.7027C215.841 92.8194 216.571 89.2115 216.571 84.864V40.392H234.691V119.735H218.936V97.9066H224.134C223.083 102.692 221.462 106.617 219.243 109.727C217.038 112.821 214.571 115.206 211.841 116.897C209.11 118.588 206.322 119.75 203.489 120.399C200.656 121.048 198.028 121.38 195.605 121.38V121.35Z" fill="url(#paint1_linear_263_10493)"/>
<path d="M246.391 118.954V39.6108H263.882V61.4392H258.991C260.144 56.6538 261.78 52.7441 263.882 49.7098C265.985 46.6756 268.379 44.3056 271.051 42.6148C273.723 40.9241 276.483 39.7316 279.33 39.0372C282.162 38.3277 284.746 37.9805 287.053 37.9805C295.668 37.9805 302.574 40.8939 307.772 46.6907C312.969 52.5025 315.568 60.8354 315.568 71.7043V118.954H297.449V74.7989C297.449 67.8548 296.033 62.828 293.2 59.7334C290.368 56.6388 286.63 55.0839 282.016 55.0839C278.76 55.0839 275.796 55.8387 273.11 57.3633C270.438 58.888 268.335 61.1373 266.802 64.1262C265.284 67.1152 264.525 70.7834 264.525 75.131V118.954H246.405H246.391Z" fill="url(#paint2_linear_263_10493)"/>
<path d="M363.513 120.569C356.578 120.569 350.373 118.894 344.912 115.512C339.451 112.146 335.144 107.421 331.99 101.337C328.837 95.2538 327.26 88.1438 327.26 79.9921V78.3618C327.26 70.3308 328.866 63.2661 332.063 57.1825C335.261 51.0989 339.626 46.374 345.146 43.0076C350.665 39.6413 356.826 37.9506 363.659 37.9506C369.543 37.9506 374.799 39.3394 379.413 42.1019C384.042 44.8644 387.765 48.6534 390.597 53.4237L386.976 57.8165V0H405.096V118.939H388.714V98.8919L392.174 102.636C389.225 108.281 385.297 112.689 380.362 115.829C375.427 118.984 369.806 120.554 363.499 120.554L363.513 120.569ZM366.346 104.115C370.551 104.115 374.274 103.104 377.53 101.096C380.786 99.0881 383.355 96.2351 385.253 92.5366C387.151 88.8382 388.086 84.4453 388.086 79.343C388.086 74.2406 387.137 69.6817 385.253 65.9833C383.37 62.2848 380.786 59.4619 377.53 57.5146C374.274 55.5673 370.536 54.586 366.346 54.586C362.462 54.586 358.943 55.5371 355.789 57.4391C352.636 59.3412 350.11 62.0584 348.226 65.5908C346.343 69.1232 345.394 73.3802 345.394 78.3768V80.0072C345.394 84.8982 346.343 89.1552 348.226 92.7932C350.124 96.4313 352.636 99.224 355.789 101.186C358.943 103.149 362.462 104.115 366.346 104.115Z" fill="url(#paint3_linear_263_10493)"/>
<path d="M437.106 39.5645H418.826V118.907H437.106V39.5645Z" fill="url(#paint4_linear_263_10493)"/>
<path d="M437.143 12.7852H418.863V31.9718H437.143V12.7852Z" fill="#4C4C4C"/>
<path d="M450.783 117.807V38.4643H468.275V60.2927H463.384C464.537 55.5074 466.172 51.5976 468.275 48.5633C470.377 45.5291 472.772 43.1591 475.444 41.4684C478.116 39.7776 480.875 38.5851 483.722 37.8907C486.555 37.1812 489.139 36.834 491.446 36.834C500.06 36.834 506.966 39.7475 512.164 45.5442C517.362 51.356 519.961 59.6889 519.961 70.5578V117.807H501.842V73.6524C501.842 66.7084 500.425 61.6815 497.593 58.5869C494.76 55.4923 491.023 53.9374 486.409 53.9374C483.153 53.9374 480.189 54.6922 477.502 56.2169C474.83 57.7415 472.728 59.9908 471.195 62.9797C469.676 65.9687 468.917 69.6369 468.917 73.9845V117.807H450.798H450.783Z" fill="url(#paint5_linear_263_10493)"/>
<path d="M608.955 41.223C601.1 41.8419 593.361 47.7141 593.011 56.3187C592.66 56.3791 592.179 56.3791 591.711 56.3187C591.551 51.8655 589.419 48.0613 585.93 45.4045C578.658 39.8644 569.022 38.9435 560.262 40.3323C556.042 40.9966 552.144 42.3552 548.45 44.5139C534.842 52.4391 530.958 68.8179 532.739 83.9136C534.842 101.817 547.179 112.263 564.496 111.946C568.496 111.871 572.293 111.207 575.928 109.561C581.447 107.07 585.93 102.496 585.492 95.7788L586.835 95.6279V116.445C586.82 118.951 586.338 121.321 585.506 123.6C582.644 131.405 574.512 132.612 567.372 132.28C564.54 132.144 561.853 131.676 559.298 130.529C554.129 128.204 552.713 123.57 552.582 118.166H536.404C536.36 121.683 536.725 124.657 537.543 127.767C540.419 137.896 548.041 143.647 557.896 145.595C564.189 146.832 570.54 146.938 576.892 146.048C587.74 144.523 596.807 138.741 600.705 127.857C602.136 123.872 602.91 119.796 602.91 115.449L602.968 72.139C602.968 69.4218 603.158 66.9008 603.684 64.3647C604.896 58.5529 609.831 57.5414 614.766 57.4962V41.1475C612.809 41.1324 610.926 41.0569 608.94 41.223H608.955ZM573.577 95.5222C569.139 96.5638 564.7 96.4581 560.437 95.2203C555.21 93.6956 551.311 89.7406 549.749 84.3514C547.588 76.9243 548.143 67.1725 553.677 61.2852C557.137 57.6169 561.809 55.6394 566.759 55.4582C573.723 55.1865 580.075 57.4056 583.842 63.7458C587.492 69.8897 587.755 79.1887 585.01 85.6194C582.863 90.6463 578.877 94.2844 573.577 95.5373V95.5222Z" fill="url(#paint6_linear_263_10493)"/>
<path d="M21.9855 19.673V50.4733H63.2411V70.1614H21.9855V96.2058L0 118.929V0H69.3141V19.673H21.9855Z" fill="url(#paint7_linear_263_10493)"/>
<path d="M864.46 119.728C858.372 119.728 852.765 118.807 847.684 116.966C842.588 115.124 838.354 112.844 834.996 110.127L842.88 97.2506C846.034 99.5301 849.451 101.402 853.13 102.866C856.809 104.33 860.591 105.07 864.475 105.07C868.358 105.07 871.279 104.255 873.542 102.625C875.805 100.994 876.929 98.8809 876.929 96.2694C876.929 93.6578 876.009 91.7407 874.17 90.4877C872.33 89.2348 869.935 88.1781 867.001 87.3025C864.051 86.4421 860.927 85.5665 857.627 84.691C854.313 83.8154 851.188 82.5776 848.253 80.9473C845.304 79.3169 842.895 77.0375 841.012 74.1089C839.128 71.1803 838.179 67.2102 838.179 62.2135C838.179 54.8317 840.851 48.8236 846.209 44.2043C851.568 39.585 858.766 37.2754 867.804 37.2754C872.841 37.2754 877.63 37.9849 882.141 39.3888C886.653 40.8078 890.697 42.7551 894.275 45.261L886.244 57.8055C883.514 55.8431 880.565 54.3335 877.425 53.2466C874.272 52.1597 871.016 51.6163 867.658 51.6163C863.978 51.6163 861.044 52.4617 858.839 54.1373C856.634 55.828 855.525 57.9716 855.525 60.5681C855.525 62.9532 856.488 64.8401 858.445 66.1837C860.387 67.5423 862.854 68.6291 865.847 69.4443C868.84 70.2595 872.023 71.1501 875.381 72.1313C878.74 73.1126 881.922 74.441 884.916 76.1166C887.909 77.8074 890.376 80.1019 892.318 83.0456C894.26 85.9741 895.238 89.9443 895.238 94.9409C895.238 99.9376 893.895 104.119 891.223 107.818C888.551 111.516 884.916 114.414 880.346 116.528C875.776 118.641 870.49 119.698 864.504 119.698L864.46 119.728Z" fill="url(#paint8_linear_263_10493)"/>
<path d="M1031.26 119.159V39.8159H1048.75V61.6443H1043.86C1045.01 56.8589 1046.65 52.9491 1048.75 49.9149C1050.85 46.8807 1053.25 44.5106 1055.92 42.8199C1058.59 41.1292 1061.35 39.9367 1064.2 39.2423C1067.03 38.5328 1069.62 38.1855 1071.92 38.1855C1080.54 38.1855 1087.44 41.099 1092.64 46.8958C1097.84 52.7076 1100.44 61.0404 1100.44 71.9093V119.159H1082.32V75.0039C1082.32 68.0599 1080.9 63.0331 1078.07 59.9384C1075.24 56.8438 1071.5 55.289 1066.89 55.289C1063.63 55.289 1060.67 56.0437 1057.98 57.5684C1055.31 59.0931 1053.2 61.3424 1051.67 64.3313C1050.15 67.3202 1049.39 70.9885 1049.39 75.3361V119.159H1031.27H1031.26Z" fill="url(#paint9_linear_263_10493)"/>
<path d="M1194.62 119.176V39.8327H1212.11V62.8084L1209.91 62.6423C1210.23 56.6644 1211.43 51.9697 1213.53 48.5429C1215.63 45.1162 1218.36 42.7009 1221.72 41.297C1225.08 39.8931 1228.76 39.1836 1232.76 39.1836H1239.07V57.7513H1231.34C1225.36 57.7513 1220.76 59.1703 1217.56 61.9932C1214.35 64.8161 1212.76 68.9523 1212.76 74.3717V119.176H1194.64H1194.62Z" fill="url(#paint10_linear_263_10493)"/>
<path d="M1182.97 90.0608C1182.97 110.002 1170.88 120.267 1149.72 120.267C1126.4 120.267 1112.15 102.258 1112.15 77.8484C1112.15 48.9854 1131.3 36.6221 1148.86 35.2936C1169.72 33.7992 1181.54 44.6681 1181.54 59.5524C1181.54 68.3381 1179.23 75.3274 1167.72 80.5354L1135.19 94.816C1138.51 100.024 1143.4 102.847 1149.01 102.847C1157.5 102.847 1164.12 99.1182 1164.12 90.0457H1182.97V90.0608ZM1131.15 81.2902L1157.93 69.3797C1160.95 68.0362 1163.4 66.5568 1163.4 62.6772C1163.4 56.2766 1157.36 52.1102 1150.45 52.1102C1141.38 52.1102 1131.02 59.2505 1131.02 77.8484C1131.02 79.041 1131.02 80.0826 1131.16 81.2751L1131.15 81.2902Z" fill="url(#paint11_linear_263_10493)"/>
<path d="M822.881 89.637C822.881 109.578 810.792 119.843 789.636 119.843C766.319 119.843 752.068 101.834 752.068 77.4246C752.068 48.5616 771.21 36.1982 788.774 34.8698C809.639 33.3753 821.451 44.2442 821.451 59.1286C821.451 67.9143 819.144 74.9036 807.638 80.1116L775.108 94.3921C778.422 99.6002 783.314 102.423 788.92 102.423C797.418 102.423 804.032 98.6944 804.032 89.6219H822.881V89.637ZM771.064 80.8513L797.841 68.9408C800.864 67.5973 803.317 66.1179 803.317 62.2383C803.317 55.8377 797.272 51.6713 790.366 51.6713C781.299 51.6713 770.932 58.8116 770.932 77.4095C770.932 78.602 770.932 79.6437 771.078 80.8362L771.064 80.8513Z" fill="url(#paint12_linear_263_10493)"/>
<path d="M1013.59 40.8636C1005.74 41.4825 997.998 47.3548 997.648 55.9593C997.297 56.0197 996.815 56.0197 996.348 55.9593C996.187 51.5061 994.056 47.702 990.566 45.0451C983.295 39.505 973.659 38.5842 964.898 39.973C960.679 40.6372 956.78 41.9958 953.086 44.1545C939.479 52.0797 935.595 68.4585 937.376 83.5542C939.479 101.458 951.816 111.904 969.133 111.587C973.133 111.511 976.929 110.847 980.565 109.202C986.084 106.711 990.566 102.137 990.128 95.4195L991.472 95.2685V116.085C991.457 118.591 990.975 120.961 990.143 123.241C987.281 131.045 979.149 132.253 972.009 131.921C969.176 131.785 966.49 131.317 963.935 130.17C958.766 127.845 957.35 123.211 957.218 117.806H941.041C940.997 121.324 941.362 124.298 942.18 127.407C945.056 137.536 952.678 143.288 962.533 145.235C968.826 146.473 975.177 146.579 981.528 145.688C992.377 144.163 1001.44 138.382 1005.34 127.498C1006.77 123.513 1007.55 119.437 1007.55 115.089L1007.61 71.7796C1007.61 69.0624 1007.79 66.5414 1008.32 64.0053C1009.53 58.1935 1014.47 57.1821 1019.4 57.1368V40.7881C1017.45 40.773 1015.56 40.6976 1013.58 40.8636H1013.59ZM978.229 95.1779C973.79 96.2195 969.352 96.1139 965.088 94.876C959.861 93.3513 955.963 89.3963 954.401 84.0071C952.24 76.58 952.794 66.8282 958.328 60.9409C961.788 57.2726 966.461 55.2951 971.41 55.114C978.375 54.8422 984.726 57.0613 988.493 63.4015C992.143 69.5454 992.406 78.8444 989.661 85.2752C987.515 90.302 983.529 93.9401 978.229 95.193V95.1779Z" fill="url(#paint13_linear_263_10493)"/>
<path d="M925.141 39.8613H906.861V119.204H925.141V39.8613Z" fill="url(#paint14_linear_263_10493)"/>
<path d="M925.165 13.0566H906.885V32.2433H925.165V13.0566Z" fill="#4C4C4C"/>
<path d="M641.797 119.374V0.359375H683.233C691.351 0.359375 698.856 1.74817 705.762 4.52578C712.668 7.30339 718.698 11.3037 723.852 16.5118C729.006 21.7198 733.007 27.8788 735.854 34.9587C738.701 42.0386 740.132 49.8883 740.132 58.508V60.3799C740.132 68.9995 738.701 76.9247 735.854 84.1858C733.007 91.4468 728.977 97.6813 723.765 102.889C718.552 108.097 712.493 112.158 705.587 115.041C698.681 117.925 691.22 119.374 683.219 119.374H641.797ZM661.873 108.671L653.492 99.8249H681.613C688.957 99.8249 695.513 98.1795 701.265 94.8886C707.018 91.5978 711.515 86.9634 714.756 80.9402C717.983 74.9321 719.604 68.0786 719.604 60.3647V58.4929C719.604 50.6733 717.983 43.8954 714.756 38.1741C711.515 32.4528 707.047 27.9694 701.353 24.7389C695.644 21.5084 689.074 19.8932 681.613 19.8932H653.477L661.858 11.0471V108.641L661.873 108.671Z" fill="url(#paint15_linear_263_10493)"/>
<defs>
<linearGradient id="paint0_linear_263_10493" x1="114.823" y1="37.9805" x2="114.823" y2="120.584" gradientUnits="userSpaceOnUse">
<stop stop-color="#4C4C4C"/>
<stop offset="0.942308" stop-color="#080200"/>
</linearGradient>
<linearGradient id="paint1_linear_263_10493" x1="200.416" y1="40.377" x2="200.416" y2="121.38" gradientUnits="userSpaceOnUse">
<stop stop-color="#4C4C4C"/>
<stop offset="0.942308" stop-color="#080200"/>
</linearGradient>
<linearGradient id="paint2_linear_263_10493" x1="280.98" y1="37.9805" x2="280.98" y2="118.954" gradientUnits="userSpaceOnUse">
<stop stop-color="#4C4C4C"/>
<stop offset="0.942308" stop-color="#080200"/>
</linearGradient>
<linearGradient id="paint3_linear_263_10493" x1="366.178" y1="0" x2="366.178" y2="120.569" gradientUnits="userSpaceOnUse">
<stop stop-color="#4C4C4C"/>
<stop offset="0.942308" stop-color="#080200"/>
</linearGradient>
<linearGradient id="paint4_linear_263_10493" x1="427.966" y1="39.5645" x2="427.966" y2="118.907" gradientUnits="userSpaceOnUse">
<stop stop-color="#4C4C4C"/>
<stop offset="0.942308" stop-color="#080200"/>
</linearGradient>
<linearGradient id="paint5_linear_263_10493" x1="485.372" y1="36.834" x2="485.372" y2="117.807" gradientUnits="userSpaceOnUse">
<stop stop-color="#4C4C4C"/>
<stop offset="0.942308" stop-color="#080200"/>
</linearGradient>
<linearGradient id="paint6_linear_263_10493" x1="573.55" y1="39.7578" x2="573.55" y2="146.633" gradientUnits="userSpaceOnUse">
<stop stop-color="#4C4C4C"/>
<stop offset="0.942308" stop-color="#080200"/>
</linearGradient>
<linearGradient id="paint7_linear_263_10493" x1="34.6571" y1="0" x2="34.6571" y2="118.929" gradientUnits="userSpaceOnUse">
<stop stop-color="#4C4C4C"/>
<stop offset="0.942308" stop-color="#080200"/>
</linearGradient>
<linearGradient id="paint8_linear_263_10493" x1="865.117" y1="37.2754" x2="865.117" y2="119.728" gradientUnits="userSpaceOnUse">
<stop stop-color="#4C4C4C"/>
<stop offset="0.942308" stop-color="#080200"/>
</linearGradient>
<linearGradient id="paint9_linear_263_10493" x1="1065.85" y1="38.1855" x2="1065.85" y2="119.159" gradientUnits="userSpaceOnUse">
<stop stop-color="#4C4C4C"/>
<stop offset="0.942308" stop-color="#080200"/>
</linearGradient>
<linearGradient id="paint10_linear_263_10493" x1="1216.84" y1="39.1836" x2="1216.84" y2="119.176" gradientUnits="userSpaceOnUse">
<stop stop-color="#4C4C4C"/>
<stop offset="0.942308" stop-color="#080200"/>
</linearGradient>
<linearGradient id="paint11_linear_263_10493" x1="1147.56" y1="35.1562" x2="1147.56" y2="120.267" gradientUnits="userSpaceOnUse">
<stop stop-color="#4C4C4C"/>
<stop offset="0.942308" stop-color="#080200"/>
</linearGradient>
<linearGradient id="paint12_linear_263_10493" x1="787.475" y1="34.7324" x2="787.475" y2="119.843" gradientUnits="userSpaceOnUse">
<stop stop-color="#4C4C4C"/>
<stop offset="0.942308" stop-color="#080200"/>
</linearGradient>
<linearGradient id="paint13_linear_263_10493" x1="978.187" y1="39.3984" x2="978.187" y2="146.274" gradientUnits="userSpaceOnUse">
<stop stop-color="#4C4C4C"/>
<stop offset="0.942308" stop-color="#080200"/>
</linearGradient>
<linearGradient id="paint14_linear_263_10493" x1="916.001" y1="39.8613" x2="916.001" y2="119.204" gradientUnits="userSpaceOnUse">
<stop stop-color="#4C4C4C"/>
<stop offset="0.942308" stop-color="#080200"/>
</linearGradient>
<linearGradient id="paint15_linear_263_10493" x1="690.964" y1="0.359375" x2="690.964" y2="119.374" gradientUnits="userSpaceOnUse">
<stop stop-color="#4C4C4C"/>
<stop offset="0.942308" stop-color="#080200"/>
</linearGradient>
</defs>
</svg>
