<svg width="133" height="41" viewBox="0 0 133 41" fill="none" xmlns="http://www.w3.org/2000/svg">
<g clip-path="url(#clip0_263_10522)">
<path d="M33.4343 24.3453C33.4343 28.8414 32.0605 32.5188 29.5135 35.0561C27.02 37.5799 22.9354 38.9652 17.788 39.0177C17.686 39.0177 17.5824 39.0177 17.4788 39.0177C17.3234 39.0177 17.1679 39.0177 17.0142 39.0177C14.8081 39.0041 12.9229 38.8942 11.3002 38.7149C11.1848 38.703 11.0996 38.6032 11.0996 38.4865V26.9773C11.0996 26.4411 11.2734 25.9184 11.596 25.4921C11.7464 25.2925 11.9118 25.1031 12.0907 24.9255C12.836 24.1812 13.782 23.6703 14.8148 23.4521L16.8822 23.0191C17.1228 22.9684 17.1228 22.6216 16.8822 22.5708L14.8148 22.1378C13.7836 21.9213 12.836 21.4105 12.0907 20.6645C11.9118 20.4869 11.7464 20.2974 11.596 20.0978C11.2734 19.6716 11.1013 19.1506 11.1013 18.6143V11.7924C11.1013 11.679 11.1832 11.5826 11.2935 11.5657C13.3926 11.2528 15.871 11.0244 18.5718 11.0244C23.619 11.0244 27.2122 12.2085 29.5971 14.4582C32.0204 16.7046 33.4343 19.8914 33.4343 24.347V24.3453Z" fill="white"/>
<path d="M37.635 9.41156H8.86601V18.5374C8.86601 19.0398 8.7156 19.532 8.42814 19.9414C8.24765 20.1985 8.04375 20.4404 7.8198 20.6637C7.07442 21.4079 6.12849 21.9188 5.09566 22.137L3.02832 22.57C2.78765 22.6208 2.78765 22.9675 3.02832 23.0183L5.09566 23.4513C6.12682 23.6678 7.07275 24.1787 7.8198 24.9246C8.04375 25.1479 8.24597 25.3898 8.42647 25.6452C8.71393 26.0546 8.86434 26.5468 8.86434 27.0492V38.934L0 29.962V1.38691V1.38184H28.8074L37.6333 9.41156H37.635Z" fill="white"/>
</g>
<path d="M74.9575 36.6517C74.066 36.6517 73.245 36.5225 72.501 36.264C71.7548 36.0056 71.1348 35.6857 70.6431 35.3044L71.7976 33.4974C72.2594 33.8173 72.7597 34.08 73.2984 34.2854C73.8372 34.4909 74.391 34.5947 74.9597 34.5947C75.5284 34.5947 75.956 34.4803 76.2873 34.2516C76.6187 34.0228 76.7834 33.7262 76.7834 33.3597C76.7834 32.9932 76.6487 32.7242 76.3793 32.5484C76.1099 32.3725 75.7593 32.2243 75.3295 32.1014C74.8977 31.9806 74.4401 31.8578 73.9569 31.7349C73.4716 31.612 73.0141 31.4383 72.5844 31.2095C72.1525 30.9808 71.7997 30.6609 71.5239 30.2499C71.2481 29.839 71.1091 29.2818 71.1091 28.5806C71.1091 27.5447 71.5004 26.7016 72.285 26.0534C73.0697 25.4052 74.1237 25.0811 75.4471 25.0811C76.1847 25.0811 76.886 25.1806 77.5466 25.3776C78.2073 25.5768 78.7995 25.85 79.3233 26.2017L78.1474 27.9621C77.7476 27.6867 77.3157 27.4748 76.8561 27.3223C76.3942 27.1698 75.9175 27.0935 75.4257 27.0935C74.887 27.0935 74.4572 27.2122 74.1344 27.4473C73.8116 27.6846 73.6491 27.9854 73.6491 28.3497C73.6491 28.6844 73.7902 28.9492 74.0767 29.1378C74.361 29.3284 74.7223 29.4809 75.1606 29.5953C75.5989 29.7097 76.065 29.8347 76.5567 29.9724C77.0485 30.1101 77.5145 30.2965 77.9528 30.5317C78.3911 30.7689 78.7524 31.0909 79.0368 31.504C79.3211 31.915 79.4644 32.4721 79.4644 33.1733C79.4644 33.8745 79.2677 34.4613 78.8764 34.9803C78.4852 35.4993 77.9528 35.906 77.2836 36.2026C76.6145 36.4992 75.8405 36.6474 74.9639 36.6474L74.9575 36.6517Z" fill="white"/>
<path d="M99.3789 36.5701V25.4358H101.94V28.499H101.224C101.393 27.8275 101.632 27.2788 101.94 26.853C102.248 26.4272 102.599 26.0946 102.99 25.8574C103.381 25.6201 103.785 25.4528 104.202 25.3553C104.617 25.2558 104.995 25.207 105.333 25.207C106.595 25.207 107.606 25.6159 108.367 26.4293C109.128 27.2449 109.509 28.4143 109.509 29.9395V36.5701H106.855V30.3738C106.855 29.3993 106.648 28.6939 106.233 28.2596C105.819 27.8254 105.271 27.6072 104.596 27.6072C104.119 27.6072 103.685 27.7131 103.291 27.927C102.9 28.141 102.592 28.4566 102.368 28.8761C102.145 29.2955 102.034 29.8103 102.034 30.4204V36.5701H99.381H99.3789Z" fill="white"/>
<path d="M123.301 36.5759V25.4417H125.862V28.6659L125.539 28.6426C125.586 27.8037 125.762 27.1449 126.069 26.664C126.377 26.1831 126.777 25.8442 127.269 25.6472C127.761 25.4502 128.299 25.3506 128.885 25.3506H129.809V27.9562H128.678C127.801 27.9562 127.128 28.1553 126.66 28.5515C126.189 28.9476 125.956 29.528 125.956 30.2885V36.5759H123.303H123.301Z" fill="white"/>
<path d="M121.594 32.4919C121.594 35.2903 119.824 36.7308 116.726 36.7308C113.311 36.7308 111.225 34.2036 111.225 30.7781C111.225 26.7278 114.028 24.9928 116.6 24.8064C119.655 24.5967 121.384 26.1219 121.384 28.2106C121.384 29.4435 121.047 30.4243 119.362 31.1552L114.598 33.1592C115.084 33.89 115.8 34.2862 116.621 34.2862C117.865 34.2862 118.834 33.7629 118.834 32.4898H121.594V32.4919ZM114.006 31.2611L117.927 29.5897C118.37 29.4012 118.729 29.1936 118.729 28.6491C118.729 27.7509 117.844 27.1663 116.833 27.1663C115.505 27.1663 113.987 28.1683 113.987 30.7781C113.987 30.9455 113.987 31.0916 114.008 31.259L114.006 31.2611Z" fill="white"/>
<path d="M68.8678 32.4294C68.8678 35.2278 67.0975 36.6683 63.9996 36.6683C60.5852 36.6683 58.4985 34.1411 58.4985 30.7156C58.4985 26.6653 61.3014 24.9303 63.8734 24.7439C66.9286 24.5342 68.6582 26.0594 68.6582 28.1481C68.6582 29.381 68.3204 30.3619 66.6357 31.0927L61.8723 33.0967C62.3576 33.8275 63.0738 34.2237 63.8948 34.2237C65.1391 34.2237 66.1076 33.7004 66.1076 32.4273H68.8678V32.4294ZM61.2801 31.1965L65.2011 29.5251C65.6437 29.3366 66.0029 29.1289 66.0029 28.5845C66.0029 27.6863 65.1177 27.1017 64.1065 27.1017C62.7788 27.1017 61.2608 28.1037 61.2608 30.7135C61.2608 30.8809 61.2608 31.027 61.2822 31.1944L61.2801 31.1965Z" fill="white"/>
<path d="M96.7934 25.5855C95.6432 25.6723 94.51 26.4964 94.4587 27.7039C94.4074 27.7124 94.3368 27.7124 94.2684 27.7039C94.2449 27.079 93.9328 26.5451 93.4218 26.1723C92.3571 25.3948 90.946 25.2656 89.6632 25.4605C89.0453 25.5537 88.4745 25.7444 87.9336 26.0473C85.941 27.1595 85.3723 29.4579 85.6331 31.5763C85.941 34.0887 87.7476 35.5546 90.2832 35.5101C90.869 35.4995 91.4249 35.4063 91.9573 35.1754C92.7654 34.8259 93.4218 34.184 93.3576 33.2413L93.5543 33.2202V36.1414C93.5522 36.4931 93.4817 36.8257 93.3598 37.1455C92.9407 38.2407 91.7499 38.4102 90.7044 38.3636C90.2896 38.3445 89.8963 38.2789 89.5221 38.1179C88.7653 37.7916 88.5579 37.1413 88.5386 36.3829H86.1697C86.1633 36.8765 86.2168 37.2938 86.3365 37.7302C86.7577 39.1516 87.8737 39.9587 89.3169 40.232C90.2383 40.4057 91.1683 40.4206 92.0984 40.2956C93.6869 40.0816 95.0146 39.2703 95.5854 37.7429C95.795 37.1837 95.9083 36.6117 95.9083 36.0016L95.9168 29.9239C95.9168 29.5426 95.9446 29.1889 96.0216 28.833C96.199 28.0174 96.9217 27.8755 97.6443 27.8691V25.5749C97.3578 25.5728 97.082 25.5622 96.7913 25.5855H96.7934ZM91.6152 33.2074C90.9652 33.3536 90.3153 33.3388 89.691 33.1651C88.9256 32.9511 88.3548 32.3961 88.126 31.6398C87.8096 30.5976 87.8908 29.2291 88.7011 28.4029C89.2078 27.8882 89.892 27.6107 90.6168 27.5852C91.6366 27.5471 92.5666 27.8585 93.1182 28.7482C93.6527 29.6104 93.6912 30.9154 93.2892 31.8178C92.9749 32.5232 92.3913 33.0337 91.6152 33.2096V33.2074Z" fill="white"/>
<path d="M83.8413 25.4434H81.1646V36.5776H83.8413V25.4434Z" fill="white"/>
<path d="M83.8447 21.6836H81.168V24.3761H83.8447V21.6836Z" fill="white"/>
<path d="M42.3521 36.6047V19.9033H48.4197C49.6084 19.9033 50.7073 20.0982 51.7186 20.488C52.7298 20.8778 53.6128 21.4391 54.3675 22.17C55.1222 22.9008 55.708 23.7651 56.125 24.7587C56.5419 25.7522 56.7514 26.8537 56.7514 28.0633V28.326C56.7514 29.5356 56.5419 30.6478 56.125 31.6667C55.708 32.6857 55.118 33.5606 54.3547 34.2914C53.5914 35.0222 52.7042 35.5921 51.6929 35.9967C50.6816 36.4013 49.5891 36.6047 48.4175 36.6047H42.3521ZM45.2918 35.1027L44.0646 33.8614H48.1823C49.2577 33.8614 50.2177 33.6305 51.0601 33.1687C51.9024 32.7068 52.5609 32.0565 53.0356 31.2113C53.5081 30.3681 53.7454 29.4064 53.7454 28.3239V28.0612C53.7454 26.9639 53.5081 26.0127 53.0356 25.2099C52.5609 24.407 51.9067 23.7778 51.0729 23.3245C50.2369 22.8712 49.2748 22.6445 48.1823 22.6445H44.0624L45.2896 21.4031V35.0985L45.2918 35.1027Z" fill="white"/>
<path d="M59.3502 16.9207C58.2577 16.9207 57.2742 16.6771 56.3977 16.1899C55.5211 15.7027 54.8284 15.0269 54.3217 14.1668C53.815 13.3068 53.5605 12.3196 53.5605 11.2053V10.9999C53.5605 9.8877 53.815 8.90477 54.3217 8.05106C54.8284 7.19735 55.5211 6.53006 56.3977 6.05131C57.2742 5.57043 58.2598 5.33105 59.3502 5.33105C60.4406 5.33105 61.4412 5.57043 62.3028 6.05131C63.1644 6.53218 63.8485 7.19524 64.3574 8.04047C64.8641 8.88571 65.1185 9.86652 65.1185 10.9787V11.2075C65.1185 12.3196 64.8641 13.3068 64.3574 14.169C63.8507 15.0311 63.1644 15.7048 62.3028 16.192C61.4412 16.6793 60.4577 16.9229 59.3502 16.9229V16.9207ZM59.3502 14.5884C59.966 14.5884 60.5069 14.4486 60.9772 14.1647C61.4454 13.883 61.811 13.4826 62.074 12.9636C62.3348 12.4446 62.4653 11.8578 62.4653 11.2032V10.9744C62.4653 10.3199 62.3348 9.74365 62.074 9.24795C61.8132 8.75225 61.4476 8.36458 60.9772 8.08284C60.5069 7.80109 59.966 7.65916 59.3502 7.65916C58.7345 7.65916 58.2149 7.80109 57.7467 8.08284C57.2764 8.36458 56.9086 8.75649 56.6392 9.26066C56.3699 9.76484 56.2352 10.3432 56.2352 10.9977V11.2032C56.2352 11.8578 56.3699 12.4467 56.6392 12.9636C56.9086 13.4826 57.2764 13.883 57.7467 14.1647C58.2149 14.4465 58.7494 14.5884 59.3502 14.5884Z" fill="white"/>
<path d="M71.1689 17.03C70.3544 17.03 69.6189 16.8669 68.9647 16.5386C68.3105 16.2102 67.7952 15.7124 67.4189 15.0409C67.0426 14.3693 66.8545 13.5326 66.8545 12.5263V5.66699H69.5077V12.0222C69.5077 12.6619 69.6039 13.1724 69.7964 13.5537C69.9888 13.9351 70.2582 14.2083 70.6045 14.3778C70.9509 14.5451 71.34 14.6299 71.7697 14.6299C72.2465 14.6299 72.6698 14.5303 73.0397 14.3333C73.4096 14.1363 73.7003 13.8334 73.9163 13.4309C74.1322 13.0263 74.2391 12.52 74.2391 11.9099V5.66911H76.8923V16.8033H74.5854V13.7402H75.3466C75.1926 14.4117 74.9553 14.9625 74.6303 15.3989C74.3075 15.8331 73.9462 16.1678 73.5464 16.4051C73.1466 16.6424 72.7382 16.8055 72.3235 16.8966C71.9087 16.9876 71.5239 17.0343 71.1689 17.0343V17.03Z" fill="white"/>
<path d="M78.6045 16.6941V5.55984H81.1658V8.62303H80.4496C80.6185 7.9515 80.8579 7.40284 81.1658 6.97704C81.4737 6.55124 81.8243 6.21866 82.2155 5.9814C82.6068 5.74414 83.0109 5.57679 83.4278 5.47934C83.8426 5.37978 84.221 5.33105 84.5588 5.33105C85.8202 5.33105 86.8315 5.7399 87.5926 6.55336C88.3537 7.36894 88.7343 8.53829 88.7343 10.0635V16.6941H86.081V10.4978C86.081 9.52334 85.8736 8.81792 85.4589 8.38365C85.0441 7.94938 84.4968 7.73119 83.8212 7.73119C83.3444 7.73119 82.9104 7.83711 82.517 8.05106C82.1258 8.26502 81.8179 8.58066 81.5934 9.0001C81.371 9.41954 81.2599 9.93431 81.2599 10.5444V16.6941H78.6066H78.6045Z" fill="white"/>
<path d="M95.7559 16.9196C94.7403 16.9196 93.8317 16.6844 93.0321 16.2099C92.2325 15.7375 91.6018 15.0744 91.14 14.2207C90.6782 13.367 90.4473 12.3693 90.4473 11.2253V10.9965C90.4473 9.86956 90.6824 8.87816 91.1507 8.02445C91.6189 7.17074 92.2581 6.50768 93.0663 6.03528C93.8745 5.56288 94.7767 5.32562 95.7773 5.32562C96.6389 5.32562 97.4085 5.52051 98.0841 5.90818C98.7619 6.29584 99.3071 6.82756 99.7218 7.49697L99.1916 8.11342V0H101.845V16.6908H99.446V13.8775L99.9527 14.4029C99.5209 15.1952 98.9458 15.8138 98.2231 16.2544C97.5005 16.6971 96.6774 16.9174 95.7537 16.9174L95.7559 16.9196ZM96.1707 14.6105C96.7864 14.6105 97.3316 14.4686 97.8084 14.1868C98.2851 13.9051 98.6614 13.5047 98.9393 12.9857C99.2173 12.4667 99.3541 11.8503 99.3541 11.1342C99.3541 10.4182 99.2151 9.77847 98.9393 9.25947C98.6635 8.74046 98.2851 8.34432 97.8084 8.07105C97.3316 7.79778 96.7843 7.66008 96.1707 7.66008C95.6019 7.66008 95.0867 7.79354 94.6249 8.06046C94.1631 8.32738 93.7932 8.70869 93.5174 9.20439C93.2416 9.70009 93.1026 10.2975 93.1026 10.9987V11.2274C93.1026 11.9138 93.2416 12.5112 93.5174 13.0217C93.7954 13.5323 94.1631 13.9242 94.6249 14.1995C95.0867 14.4749 95.6019 14.6105 96.1707 14.6105Z" fill="white"/>
<path d="M106.531 5.55566H103.854V16.6899H106.531V5.55566Z" fill="white"/>
<path d="M106.536 1.7959H103.859V4.48837H106.536V1.7959Z" fill="white"/>
<path d="M108.534 16.529V5.3948H111.095V8.45799H110.379C110.548 7.78646 110.787 7.2378 111.095 6.812C111.403 6.38621 111.753 6.05362 112.145 5.81636C112.536 5.5791 112.94 5.41175 113.357 5.3143C113.772 5.21474 114.15 5.16602 114.488 5.16602C115.749 5.16602 116.761 5.57486 117.522 6.38832C118.283 7.2039 118.663 8.37325 118.663 9.89849V16.529H116.01V10.3328C116.01 9.3583 115.803 8.65288 115.388 8.21861C114.973 7.78434 114.426 7.56615 113.75 7.56615C113.274 7.56615 112.84 7.67207 112.446 7.88602C112.055 8.09998 111.747 8.41562 111.523 8.83506C111.3 9.2545 111.189 9.76927 111.189 10.3794V16.529H108.536H108.534Z" fill="white"/>
<path d="M131.695 5.78569C130.545 5.87254 129.412 6.69659 129.361 7.90407C129.309 7.91255 129.239 7.91255 129.17 7.90407C129.147 7.27915 128.835 6.74532 128.324 6.37248C127.259 5.59503 125.848 5.46581 124.565 5.6607C123.947 5.75391 123.376 5.94457 122.835 6.2475C120.843 7.35965 120.274 9.6581 120.535 11.7765C120.843 14.2889 122.649 15.7548 125.185 15.7103C125.771 15.6997 126.327 15.6065 126.859 15.3756C127.667 15.0261 128.324 14.3842 128.26 13.4415L128.456 13.4204V16.3416C128.454 16.6933 128.384 17.0258 128.262 17.3457C127.843 18.4409 126.652 18.6104 125.606 18.5638C125.191 18.5447 124.798 18.4791 124.424 18.3181C123.667 17.9918 123.46 17.3415 123.44 16.5831H121.072C121.065 17.0767 121.119 17.494 121.238 17.9304C121.66 19.3518 122.776 20.1589 124.219 20.4322C125.14 20.6059 126.07 20.6207 127 20.4958C128.589 20.2818 129.916 19.4705 130.487 17.9431C130.697 17.3839 130.81 16.8119 130.81 16.2018L130.819 10.1241C130.819 9.74283 130.846 9.38906 130.923 9.03317C131.101 8.2176 131.824 8.07566 132.546 8.06931V5.7751C132.26 5.77298 131.984 5.76239 131.693 5.78569H131.695ZM126.515 13.4055C125.865 13.5517 125.215 13.5369 124.591 13.3632C123.825 13.1492 123.254 12.5942 123.026 11.8379C122.709 10.7957 122.791 9.42719 123.601 8.60102C124.108 8.08626 124.792 7.80875 125.516 7.78333C126.536 7.7452 127.466 8.0566 128.018 8.94632C128.552 9.8085 128.591 11.1134 128.189 12.0159C127.875 12.7213 127.291 13.2318 126.515 13.4076V13.4055Z" fill="white"/>
<path d="M45.7472 2.76072V7.08294H51.7883V9.84578H45.7472V13.5006L42.5278 16.6893V0H52.6776V2.76072H45.7472Z" fill="white"/>
<defs>
<clipPath id="clip0_263_10522">
<rect width="38.1765" height="37.635" fill="white" transform="translate(0 1.38184)"/>
</clipPath>
</defs>
</svg>
