<svg width="343" height="200" viewBox="0 0 343 200" fill="none" xmlns="http://www.w3.org/2000/svg">
<rect width="343" height="200" rx="5" fill="white"/>
<mask id="mask0_222_9346" style="mask-type:alpha" maskUnits="userSpaceOnUse" x="0" y="0" width="343" height="200">
<rect width="343" height="200" rx="5" fill="white"/>
</mask>
<g mask="url(#mask0_222_9346)">
<path d="M4.42134 -0.139669C4.42134 0.12716 4.20514 0.343459 3.93821 0.343459C3.67138 0.343459 3.45508 0.12716 3.45508 -0.139669C3.45508 -0.406497 3.67138 -0.622803 3.93821 -0.622803C4.20514 -0.622803 4.42134 -0.406598 4.42134 -0.139669Z" fill="#4C4C4C"/>
<path d="M19.8861 -0.139669C19.8861 0.12716 19.6698 0.343459 19.403 0.343459C19.1362 0.343459 18.9199 0.12716 18.9199 -0.139669C18.9199 -0.406497 19.1362 -0.622803 19.403 -0.622803C19.6698 -0.622803 19.8861 -0.406598 19.8861 -0.139669Z" fill="#4C4C4C"/>
<path d="M35.3432 -0.139669C35.3432 0.12716 35.1269 0.343459 34.8601 0.343459C34.5933 0.343459 34.377 0.12716 34.377 -0.139669C34.377 -0.406497 34.5932 -0.622803 34.8601 -0.622803C35.1268 -0.622803 35.3432 -0.406598 35.3432 -0.139669Z" fill="#4C4C4C"/>
<path d="M50.8061 -0.139669C50.8061 0.12716 50.5899 0.343459 50.323 0.343459C50.0561 0.343459 49.8398 0.12716 49.8398 -0.139669C49.8398 -0.406497 50.0561 -0.622803 50.323 -0.622803C50.5899 -0.622803 50.8061 -0.406598 50.8061 -0.139669Z" fill="#4C4C4C"/>
<path d="M66.2669 -0.139669C66.2669 0.12716 66.0506 0.343459 65.7838 0.343459C65.5171 0.343459 65.3008 0.12716 65.3008 -0.139669C65.3008 -0.406497 65.5171 -0.622803 65.7838 -0.622803C66.0506 -0.622803 66.2669 -0.406598 66.2669 -0.139669Z" fill="#4C4C4C"/>
<path d="M81.726 -0.139669C81.726 0.12716 81.5097 0.343459 81.2429 0.343459C80.9761 0.343459 80.7598 0.12716 80.7598 -0.139669C80.7598 -0.406497 80.9761 -0.622803 81.2429 -0.622803C81.5097 -0.622803 81.726 -0.406598 81.726 -0.139669Z" fill="#4C4C4C"/>
<path d="M97.185 -0.139669C97.185 0.12716 96.9688 0.343459 96.7019 0.343459C96.435 0.343459 96.2188 0.12716 96.2188 -0.139669C96.2188 -0.406497 96.435 -0.622803 96.7019 -0.622803C96.9687 -0.622803 97.185 -0.406598 97.185 -0.139669Z" fill="#4C4C4C"/>
<path d="M112.646 -0.139669C112.646 0.12716 112.43 0.343459 112.163 0.343459C111.896 0.343459 111.68 0.12716 111.68 -0.139669C111.68 -0.406497 111.896 -0.622803 112.163 -0.622803C112.43 -0.622803 112.646 -0.406598 112.646 -0.139669Z" fill="#4C4C4C"/>
<path d="M128.107 -0.139669C128.107 0.12716 127.891 0.343459 127.624 0.343459C127.357 0.343459 127.141 0.12716 127.141 -0.139669C127.141 -0.406497 127.357 -0.622803 127.624 -0.622803C127.891 -0.622803 128.107 -0.406598 128.107 -0.139669Z" fill="#4C4C4C"/>
<path d="M143.566 -0.139669C143.566 0.12716 143.35 0.343459 143.083 0.343459C142.816 0.343459 142.6 0.12716 142.6 -0.139669C142.6 -0.406497 142.816 -0.622803 143.083 -0.622803C143.35 -0.622803 143.566 -0.406598 143.566 -0.139669Z" fill="#4C4C4C"/>
<path d="M159.025 -0.139669C159.025 0.12716 158.809 0.343459 158.542 0.343459C158.275 0.343459 158.059 0.12716 158.059 -0.139669C158.059 -0.406497 158.275 -0.622803 158.542 -0.622803C158.809 -0.622803 159.025 -0.406598 159.025 -0.139669Z" fill="#4C4C4C"/>
<path d="M174.486 -0.139669C174.486 0.12716 174.269 0.343459 174.003 0.343459C173.736 0.343459 173.52 0.12716 173.52 -0.139669C173.52 -0.406497 173.736 -0.622803 174.003 -0.622803C174.269 -0.622803 174.486 -0.406598 174.486 -0.139669Z" fill="#4C4C4C"/>
<path d="M189.947 -0.139669C189.947 0.12716 189.73 0.343459 189.464 0.343459C189.197 0.343459 188.98 0.12716 188.98 -0.139669C188.98 -0.406497 189.197 -0.622803 189.464 -0.622803C189.73 -0.622803 189.947 -0.406598 189.947 -0.139669Z" fill="#4C4C4C"/>
<path d="M205.406 -0.139669C205.406 0.12716 205.189 0.343459 204.923 0.343459C204.656 0.343459 204.439 0.12716 204.439 -0.139669C204.439 -0.406497 204.656 -0.622803 204.923 -0.622803C205.189 -0.622803 205.406 -0.406598 205.406 -0.139669Z" fill="#4C4C4C"/>
<path d="M220.863 -0.139669C220.863 0.12716 220.646 0.343459 220.38 0.343459C220.113 0.343459 219.896 0.12716 219.896 -0.139669C219.896 -0.406497 220.113 -0.622803 220.38 -0.622803C220.646 -0.622803 220.863 -0.406598 220.863 -0.139669Z" fill="#4C4C4C"/>
<path d="M236.327 -0.139669C236.327 0.12716 236.111 0.343459 235.844 0.343459C235.578 0.343459 235.361 0.12716 235.361 -0.139669C235.361 -0.406497 235.578 -0.622803 235.844 -0.622803C236.111 -0.622803 236.327 -0.406598 236.327 -0.139669Z" fill="#4C4C4C"/>
<path d="M251.783 -0.139669C251.783 0.12716 251.566 0.343459 251.3 0.343459C251.033 0.343459 250.816 0.12716 250.816 -0.139669C250.816 -0.406497 251.033 -0.622803 251.3 -0.622803C251.566 -0.622803 251.783 -0.406598 251.783 -0.139669Z" fill="#4C4C4C"/>
<path d="M267.246 -0.139669C267.246 0.12716 267.029 0.343459 266.762 0.343459C266.496 0.343459 266.279 0.12716 266.279 -0.139669C266.279 -0.406497 266.496 -0.622803 266.762 -0.622803C267.029 -0.622803 267.246 -0.406598 267.246 -0.139669Z" fill="#4C4C4C"/>
<path d="M282.704 -0.139669C282.704 0.12716 282.488 0.343459 282.221 0.343459C281.955 0.343459 281.738 0.12716 281.738 -0.139669C281.738 -0.406497 281.955 -0.622803 282.221 -0.622803C282.488 -0.622803 282.704 -0.406598 282.704 -0.139669Z" fill="#4C4C4C"/>
<path d="M298.162 -0.139669C298.162 0.12716 297.945 0.343459 297.678 0.343459C297.412 0.343459 297.195 0.12716 297.195 -0.139669C297.195 -0.406497 297.412 -0.622803 297.678 -0.622803C297.945 -0.622803 298.162 -0.406598 298.162 -0.139669Z" fill="#4C4C4C"/>
<path d="M313.62 -0.139669C313.62 0.12716 313.404 0.343459 313.137 0.343459C312.871 0.343459 312.654 0.12716 312.654 -0.139669C312.654 -0.406497 312.871 -0.622803 313.137 -0.622803C313.404 -0.622803 313.62 -0.406598 313.62 -0.139669Z" fill="#4C4C4C"/>
<path d="M329.085 -0.139669C329.085 0.12716 328.869 0.343459 328.602 0.343459C328.335 0.343459 328.119 0.12716 328.119 -0.139669C328.119 -0.406497 328.335 -0.622803 328.602 -0.622803C328.869 -0.622803 329.085 -0.406598 329.085 -0.139669Z" fill="#4C4C4C"/>
<path d="M4.42134 15.323C4.42134 15.5898 4.20514 15.8061 3.93821 15.8061C3.67138 15.8061 3.45508 15.5899 3.45508 15.323C3.45508 15.0561 3.67138 14.8398 3.93821 14.8398C4.20514 14.8397 4.42134 15.0561 4.42134 15.323Z" fill="#4C4C4C"/>
<path d="M19.8861 15.323C19.8861 15.5898 19.6698 15.8061 19.403 15.8061C19.1362 15.8061 18.9199 15.5899 18.9199 15.323C18.9199 15.0561 19.1362 14.8398 19.403 14.8398C19.6698 14.8397 19.8861 15.0561 19.8861 15.323Z" fill="#4C4C4C"/>
<path d="M35.3432 15.323C35.3432 15.5898 35.1269 15.8061 34.8601 15.8061C34.5933 15.8061 34.377 15.5899 34.377 15.323C34.377 15.0561 34.5932 14.8398 34.8601 14.8398C35.1268 14.8397 35.3432 15.0561 35.3432 15.323Z" fill="#4C4C4C"/>
<path d="M50.8061 15.323C50.8061 15.5898 50.5899 15.8061 50.323 15.8061C50.0561 15.8061 49.8398 15.5899 49.8398 15.323C49.8398 15.0561 50.0561 14.8398 50.323 14.8398C50.5899 14.8397 50.8061 15.0561 50.8061 15.323Z" fill="#4C4C4C"/>
<path d="M66.2669 15.323C66.2669 15.5898 66.0506 15.8061 65.7838 15.8061C65.5171 15.8061 65.3008 15.5899 65.3008 15.323C65.3008 15.0561 65.5171 14.8398 65.7838 14.8398C66.0506 14.8397 66.2669 15.0561 66.2669 15.323Z" fill="#4C4C4C"/>
<path d="M81.726 15.323C81.726 15.5898 81.5097 15.8061 81.2429 15.8061C80.9761 15.8061 80.7598 15.5899 80.7598 15.323C80.7598 15.0561 80.9761 14.8398 81.2429 14.8398C81.5097 14.8397 81.726 15.0561 81.726 15.323Z" fill="#4C4C4C"/>
<path d="M97.185 15.323C97.185 15.5898 96.9688 15.8061 96.7019 15.8061C96.435 15.8061 96.2188 15.5899 96.2188 15.323C96.2188 15.0561 96.435 14.8398 96.7019 14.8398C96.9687 14.8397 97.185 15.0561 97.185 15.323Z" fill="#4C4C4C"/>
<path d="M112.642 15.323C112.642 15.5898 112.426 15.8061 112.159 15.8061C111.892 15.8061 111.676 15.5899 111.676 15.323C111.676 15.0561 111.892 14.8398 112.159 14.8398C112.426 14.8397 112.642 15.0561 112.642 15.323Z" fill="#4C4C4C"/>
<path d="M128.107 15.323C128.107 15.5898 127.891 15.8061 127.624 15.8061C127.357 15.8061 127.141 15.5899 127.141 15.323C127.141 15.0561 127.357 14.8398 127.624 14.8398C127.891 14.8397 128.107 15.0561 128.107 15.323Z" fill="#4C4C4C"/>
<path d="M143.566 15.323C143.566 15.5898 143.35 15.8061 143.083 15.8061C142.816 15.8061 142.6 15.5899 142.6 15.323C142.6 15.0561 142.816 14.8398 143.083 14.8398C143.35 14.8397 143.566 15.0561 143.566 15.323Z" fill="#4C4C4C"/>
<path d="M159.025 15.323C159.025 15.5898 158.809 15.8061 158.542 15.8061C158.275 15.8061 158.059 15.5899 158.059 15.323C158.059 15.0561 158.275 14.8398 158.542 14.8398C158.809 14.8397 159.025 15.0561 159.025 15.323Z" fill="#4C4C4C"/>
<path d="M174.486 15.323C174.486 15.5898 174.269 15.8061 174.003 15.8061C173.736 15.8061 173.52 15.5899 173.52 15.323C173.52 15.0561 173.736 14.8398 174.003 14.8398C174.269 14.8398 174.486 15.0561 174.486 15.323Z" fill="#4C4C4C"/>
<path d="M189.947 15.323C189.947 15.5898 189.73 15.8061 189.464 15.8061C189.197 15.8061 188.98 15.5899 188.98 15.323C188.98 15.0561 189.197 14.8398 189.464 14.8398C189.73 14.8397 189.947 15.0561 189.947 15.323Z" fill="#4C4C4C"/>
<path d="M205.406 15.323C205.406 15.5898 205.189 15.8061 204.923 15.8061C204.656 15.8061 204.439 15.5899 204.439 15.323C204.439 15.0561 204.656 14.8398 204.923 14.8398C205.189 14.8397 205.406 15.0561 205.406 15.323Z" fill="#4C4C4C"/>
<path d="M220.863 15.323C220.863 15.5898 220.646 15.8061 220.38 15.8061C220.113 15.8061 219.896 15.5899 219.896 15.323C219.896 15.0561 220.113 14.8398 220.38 14.8398C220.646 14.8397 220.863 15.0561 220.863 15.323Z" fill="#4C4C4C"/>
<path d="M236.327 15.323C236.327 15.5898 236.111 15.8061 235.844 15.8061C235.578 15.8061 235.361 15.5899 235.361 15.323C235.361 15.0561 235.578 14.8398 235.844 14.8398C236.111 14.8397 236.327 15.0561 236.327 15.323Z" fill="#4C4C4C"/>
<path d="M251.783 15.323C251.783 15.5898 251.566 15.8061 251.3 15.8061C251.033 15.8061 250.816 15.5899 250.816 15.323C250.816 15.0561 251.033 14.8398 251.3 14.8398C251.566 14.8397 251.783 15.0561 251.783 15.323Z" fill="#4C4C4C"/>
<path d="M267.246 15.323C267.246 15.5898 267.029 15.8061 266.762 15.8061C266.496 15.8061 266.279 15.5899 266.279 15.323C266.279 15.0561 266.496 14.8398 266.762 14.8398C267.029 14.8397 267.246 15.0561 267.246 15.323Z" fill="#4C4C4C"/>
<path d="M282.704 15.323C282.704 15.5898 282.488 15.8061 282.221 15.8061C281.955 15.8061 281.738 15.5899 281.738 15.323C281.738 15.0561 281.955 14.8398 282.221 14.8398C282.488 14.8397 282.704 15.0561 282.704 15.323Z" fill="#4C4C4C"/>
<path d="M298.162 15.323C298.162 15.5898 297.945 15.8061 297.678 15.8061C297.412 15.8061 297.195 15.5899 297.195 15.323C297.195 15.0561 297.412 14.8398 297.678 14.8398C297.945 14.8397 298.162 15.0561 298.162 15.323Z" fill="#4C4C4C"/>
<path d="M313.62 15.323C313.62 15.5898 313.404 15.8061 313.137 15.8061C312.871 15.8061 312.654 15.5899 312.654 15.323C312.654 15.0561 312.871 14.8398 313.137 14.8398C313.404 14.8398 313.62 15.0561 313.62 15.323Z" fill="#4C4C4C"/>
<path d="M329.085 15.323C329.085 15.5898 328.869 15.8061 328.602 15.8061C328.335 15.8061 328.119 15.5899 328.119 15.323C328.119 15.0561 328.335 14.8398 328.602 14.8398C328.869 14.8397 329.085 15.0561 329.085 15.323Z" fill="#4C4C4C"/>
<path d="M4.42134 30.7799C4.42134 31.0467 4.20514 31.2631 3.93821 31.2631C3.67138 31.2631 3.45508 31.0468 3.45508 30.7799C3.45508 30.5132 3.67138 30.2969 3.93821 30.2969C4.20514 30.2969 4.42134 30.5132 4.42134 30.7799Z" fill="#4C4C4C"/>
<path d="M19.8861 30.7799C19.8861 31.0467 19.6698 31.2631 19.403 31.2631C19.1362 31.2631 18.9199 31.0468 18.9199 30.7799C18.9199 30.5132 19.1362 30.2969 19.403 30.2969C19.6698 30.2969 19.8861 30.5132 19.8861 30.7799Z" fill="#4C4C4C"/>
<path d="M35.3432 30.7799C35.3432 31.0467 35.1269 31.2631 34.8601 31.2631C34.5933 31.2631 34.377 31.0468 34.377 30.7799C34.377 30.5132 34.5932 30.2969 34.8601 30.2969C35.1268 30.2969 35.3432 30.5132 35.3432 30.7799Z" fill="#4C4C4C"/>
<path d="M50.8061 30.7799C50.8061 31.0467 50.5899 31.2631 50.323 31.2631C50.0561 31.2631 49.8398 31.0468 49.8398 30.7799C49.8398 30.5132 50.0561 30.2969 50.323 30.2969C50.5899 30.2969 50.8061 30.5132 50.8061 30.7799Z" fill="#4C4C4C"/>
<path d="M66.2669 30.7799C66.2669 31.0467 66.0506 31.2631 65.7838 31.2631C65.5171 31.2631 65.3008 31.0468 65.3008 30.7799C65.3008 30.5132 65.5171 30.2969 65.7838 30.2969C66.0506 30.2969 66.2669 30.5132 66.2669 30.7799Z" fill="#4C4C4C"/>
<path d="M81.726 30.7799C81.726 31.0467 81.5097 31.2631 81.2429 31.2631C80.9761 31.2631 80.7598 31.0468 80.7598 30.7799C80.7598 30.5132 80.9761 30.2969 81.2429 30.2969C81.5097 30.2969 81.726 30.5132 81.726 30.7799Z" fill="#4C4C4C"/>
<path d="M97.185 30.7799C97.185 31.0467 96.9688 31.2631 96.7019 31.2631C96.435 31.2631 96.2188 31.0468 96.2188 30.7799C96.2188 30.5132 96.435 30.2969 96.7019 30.2969C96.9687 30.2969 97.185 30.5132 97.185 30.7799Z" fill="#4C4C4C"/>
<path d="M112.642 30.7799C112.642 31.0467 112.426 31.2631 112.159 31.2631C111.892 31.2631 111.676 31.0468 111.676 30.7799C111.676 30.5132 111.892 30.2969 112.159 30.2969C112.426 30.2969 112.642 30.5132 112.642 30.7799Z" fill="#4C4C4C"/>
<path d="M128.107 30.7799C128.107 31.0467 127.891 31.2631 127.624 31.2631C127.357 31.2631 127.141 31.0468 127.141 30.7799C127.141 30.5132 127.357 30.2969 127.624 30.2969C127.891 30.2969 128.107 30.5132 128.107 30.7799Z" fill="#4C4C4C"/>
<path d="M143.566 30.7799C143.566 31.0467 143.35 31.2631 143.083 31.2631C142.816 31.2631 142.6 31.0468 142.6 30.7799C142.6 30.5132 142.816 30.2969 143.083 30.2969C143.35 30.2969 143.566 30.5132 143.566 30.7799Z" fill="#4C4C4C"/>
<path d="M159.025 30.7799C159.025 31.0467 158.809 31.2631 158.542 31.2631C158.275 31.2631 158.059 31.0468 158.059 30.7799C158.059 30.5132 158.275 30.2969 158.542 30.2969C158.809 30.2969 159.025 30.5132 159.025 30.7799Z" fill="#4C4C4C"/>
<path d="M174.486 30.7799C174.486 31.0467 174.269 31.2631 174.003 31.2631C173.736 31.2631 173.52 31.0468 173.52 30.7799C173.52 30.5132 173.736 30.2969 174.003 30.2969C174.269 30.2969 174.486 30.5132 174.486 30.7799Z" fill="#4C4C4C"/>
<path d="M189.947 30.7799C189.947 31.0467 189.73 31.2631 189.464 31.2631C189.197 31.2631 188.98 31.0468 188.98 30.7799C188.98 30.5132 189.197 30.2969 189.464 30.2969C189.73 30.2969 189.947 30.5132 189.947 30.7799Z" fill="#4C4C4C"/>
<path d="M205.406 30.7799C205.406 31.0467 205.189 31.2631 204.923 31.2631C204.656 31.2631 204.439 31.0468 204.439 30.7799C204.439 30.5132 204.656 30.2969 204.923 30.2969C205.189 30.2969 205.406 30.5132 205.406 30.7799Z" fill="#4C4C4C"/>
<path d="M220.863 30.7799C220.863 31.0467 220.646 31.2631 220.38 31.2631C220.113 31.2631 219.896 31.0468 219.896 30.7799C219.896 30.5132 220.113 30.2969 220.38 30.2969C220.646 30.2969 220.863 30.5132 220.863 30.7799Z" fill="#4C4C4C"/>
<path d="M236.327 30.7799C236.327 31.0467 236.111 31.2631 235.844 31.2631C235.578 31.2631 235.361 31.0468 235.361 30.7799C235.361 30.5132 235.578 30.2969 235.844 30.2969C236.111 30.2969 236.327 30.5132 236.327 30.7799Z" fill="#4C4C4C"/>
<path d="M251.783 30.7799C251.783 31.0467 251.566 31.2631 251.3 31.2631C251.033 31.2631 250.816 31.0468 250.816 30.7799C250.816 30.5132 251.033 30.2969 251.3 30.2969C251.566 30.2969 251.783 30.5132 251.783 30.7799Z" fill="#4C4C4C"/>
<path d="M267.246 30.7799C267.246 31.0467 267.029 31.2631 266.762 31.2631C266.496 31.2631 266.279 31.0468 266.279 30.7799C266.279 30.5132 266.496 30.2969 266.762 30.2969C267.029 30.2969 267.246 30.5132 267.246 30.7799Z" fill="#4C4C4C"/>
<path d="M282.704 30.7799C282.704 31.0467 282.488 31.2631 282.221 31.2631C281.955 31.2631 281.738 31.0468 281.738 30.7799C281.738 30.5132 281.955 30.2969 282.221 30.2969C282.488 30.2969 282.704 30.5132 282.704 30.7799Z" fill="#4C4C4C"/>
<path d="M298.162 30.7799C298.162 31.0467 297.945 31.2631 297.678 31.2631C297.412 31.2631 297.195 31.0468 297.195 30.7799C297.195 30.5132 297.412 30.2969 297.678 30.2969C297.945 30.2969 298.162 30.5132 298.162 30.7799Z" fill="#4C4C4C"/>
<path d="M313.62 30.7799C313.62 31.0467 313.404 31.2631 313.137 31.2631C312.871 31.2631 312.654 31.0468 312.654 30.7799C312.654 30.5132 312.871 30.2969 313.137 30.2969C313.404 30.2969 313.62 30.5132 313.62 30.7799Z" fill="#4C4C4C"/>
<path d="M329.085 30.7799C329.085 31.0467 328.869 31.2631 328.602 31.2631C328.335 31.2631 328.119 31.0468 328.119 30.7799C328.119 30.5132 328.335 30.2969 328.602 30.2969C328.869 30.2969 329.085 30.5132 329.085 30.7799Z" fill="#4C4C4C"/>
<path d="M4.42134 46.2444C4.42134 46.5112 4.20514 46.7275 3.93821 46.7275C3.67138 46.7275 3.45508 46.5112 3.45508 46.2444C3.45508 45.9775 3.67138 45.7612 3.93821 45.7612C4.20514 45.7612 4.42134 45.9775 4.42134 46.2444Z" fill="#4C4C4C"/>
<path d="M19.8861 46.2444C19.8861 46.5112 19.6698 46.7275 19.403 46.7275C19.1362 46.7275 18.9199 46.5112 18.9199 46.2444C18.9199 45.9775 19.1362 45.7612 19.403 45.7612C19.6698 45.7612 19.8861 45.9775 19.8861 46.2444Z" fill="#4C4C4C"/>
<path d="M35.3432 46.2444C35.3432 46.5112 35.1269 46.7275 34.8601 46.7275C34.5933 46.7275 34.377 46.5112 34.377 46.2444C34.377 45.9775 34.5932 45.7612 34.8601 45.7612C35.1268 45.7612 35.3432 45.9775 35.3432 46.2444Z" fill="#4C4C4C"/>
<path d="M50.8061 46.2444C50.8061 46.5112 50.5899 46.7275 50.323 46.7275C50.0561 46.7275 49.8398 46.5112 49.8398 46.2444C49.8398 45.9775 50.0561 45.7612 50.323 45.7612C50.5899 45.7612 50.8061 45.9775 50.8061 46.2444Z" fill="#4C4C4C"/>
<path d="M66.2669 46.2444C66.2669 46.5112 66.0506 46.7275 65.7838 46.7275C65.5171 46.7275 65.3008 46.5112 65.3008 46.2444C65.3008 45.9775 65.5171 45.7612 65.7838 45.7612C66.0506 45.7612 66.2669 45.9775 66.2669 46.2444Z" fill="#4C4C4C"/>
<path d="M81.726 46.2444C81.726 46.5112 81.5097 46.7275 81.2429 46.7275C80.9761 46.7275 80.7598 46.5112 80.7598 46.2444C80.7598 45.9775 80.9761 45.7612 81.2429 45.7612C81.5097 45.7612 81.726 45.9775 81.726 46.2444Z" fill="#4C4C4C"/>
<path d="M97.185 46.2444C97.185 46.5112 96.9688 46.7275 96.7019 46.7275C96.435 46.7275 96.2188 46.5112 96.2188 46.2444C96.2188 45.9775 96.435 45.7612 96.7019 45.7612C96.9687 45.7612 97.185 45.9775 97.185 46.2444Z" fill="#4C4C4C"/>
<path d="M112.646 46.2444C112.646 46.5112 112.43 46.7275 112.163 46.7275C111.896 46.7275 111.68 46.5112 111.68 46.2444C111.68 45.9775 111.896 45.7612 112.163 45.7612C112.43 45.7612 112.646 45.9775 112.646 46.2444Z" fill="#4C4C4C"/>
<path d="M128.107 46.2444C128.107 46.5112 127.891 46.7275 127.624 46.7275C127.357 46.7275 127.141 46.5112 127.141 46.2444C127.141 45.9775 127.357 45.7612 127.624 45.7612C127.891 45.7612 128.107 45.9775 128.107 46.2444Z" fill="#4C4C4C"/>
<path d="M143.566 46.2444C143.566 46.5112 143.35 46.7275 143.083 46.7275C142.816 46.7275 142.6 46.5112 142.6 46.2444C142.6 45.9775 142.816 45.7612 143.083 45.7612C143.35 45.7612 143.566 45.9775 143.566 46.2444Z" fill="#4C4C4C"/>
<path d="M159.025 46.2444C159.025 46.5112 158.809 46.7275 158.542 46.7275C158.275 46.7275 158.059 46.5112 158.059 46.2444C158.059 45.9775 158.275 45.7612 158.542 45.7612C158.809 45.7612 159.025 45.9775 159.025 46.2444Z" fill="#4C4C4C"/>
<path d="M174.486 46.2444C174.486 46.5112 174.269 46.7275 174.003 46.7275C173.736 46.7275 173.52 46.5112 173.52 46.2444C173.52 45.9775 173.736 45.7612 174.003 45.7612C174.269 45.7612 174.486 45.9775 174.486 46.2444Z" fill="#4C4C4C"/>
<path d="M189.947 46.2444C189.947 46.5112 189.73 46.7275 189.464 46.7275C189.197 46.7275 188.98 46.5112 188.98 46.2444C188.98 45.9775 189.197 45.7612 189.464 45.7612C189.73 45.7612 189.947 45.9775 189.947 46.2444Z" fill="#4C4C4C"/>
<path d="M205.406 46.2444C205.406 46.5112 205.189 46.7275 204.923 46.7275C204.656 46.7275 204.439 46.5112 204.439 46.2444C204.439 45.9775 204.656 45.7612 204.923 45.7612C205.189 45.7612 205.406 45.9775 205.406 46.2444Z" fill="#4C4C4C"/>
<path d="M220.863 46.2444C220.863 46.5112 220.646 46.7275 220.38 46.7275C220.113 46.7275 219.896 46.5112 219.896 46.2444C219.896 45.9775 220.113 45.7612 220.38 45.7612C220.646 45.7612 220.863 45.9775 220.863 46.2444Z" fill="#4C4C4C"/>
<path d="M236.327 46.2444C236.327 46.5112 236.111 46.7275 235.844 46.7275C235.578 46.7275 235.361 46.5112 235.361 46.2444C235.361 45.9775 235.578 45.7612 235.844 45.7612C236.111 45.7612 236.327 45.9775 236.327 46.2444Z" fill="#4C4C4C"/>
<path d="M251.783 46.2444C251.783 46.5112 251.566 46.7275 251.3 46.7275C251.033 46.7275 250.816 46.5112 250.816 46.2444C250.816 45.9775 251.033 45.7612 251.3 45.7612C251.566 45.7612 251.783 45.9775 251.783 46.2444Z" fill="#4C4C4C"/>
<path d="M267.246 46.2444C267.246 46.5112 267.029 46.7275 266.762 46.7275C266.496 46.7275 266.279 46.5112 266.279 46.2444C266.279 45.9775 266.496 45.7612 266.762 45.7612C267.029 45.7612 267.246 45.9775 267.246 46.2444Z" fill="#4C4C4C"/>
<path d="M282.704 46.2444C282.704 46.5112 282.488 46.7275 282.221 46.7275C281.955 46.7275 281.738 46.5112 281.738 46.2444C281.738 45.9775 281.955 45.7612 282.221 45.7612C282.488 45.7612 282.704 45.9775 282.704 46.2444Z" fill="#4C4C4C"/>
<path d="M298.162 46.2444C298.162 46.5112 297.945 46.7275 297.678 46.7275C297.412 46.7275 297.195 46.5112 297.195 46.2444C297.195 45.9775 297.412 45.7612 297.678 45.7612C297.945 45.7612 298.162 45.9775 298.162 46.2444Z" fill="#4C4C4C"/>
<path d="M313.62 46.2444C313.62 46.5112 313.404 46.7275 313.137 46.7275C312.871 46.7275 312.654 46.5112 312.654 46.2444C312.654 45.9775 312.871 45.7612 313.137 45.7612C313.404 45.7612 313.62 45.9775 313.62 46.2444Z" fill="#4C4C4C"/>
<path d="M329.085 46.2444C329.085 46.5112 328.869 46.7275 328.602 46.7275C328.335 46.7275 328.119 46.5112 328.119 46.2444C328.119 45.9775 328.335 45.7612 328.602 45.7612C328.869 45.7612 329.085 45.9775 329.085 46.2444Z" fill="#4C4C4C"/>
<path d="M4.42134 61.6997C4.42134 61.9665 4.20514 62.1828 3.93821 62.1828C3.67138 62.1828 3.45508 61.9665 3.45508 61.6997C3.45508 61.4329 3.67138 61.2166 3.93821 61.2166C4.20514 61.2166 4.42134 61.433 4.42134 61.6997Z" fill="#4C4C4C"/>
<path d="M19.8861 61.6997C19.8861 61.9665 19.6698 62.1828 19.403 62.1828C19.1362 62.1828 18.9199 61.9665 18.9199 61.6997C18.9199 61.4329 19.1362 61.2166 19.403 61.2166C19.6698 61.2166 19.8861 61.433 19.8861 61.6997Z" fill="#4C4C4C"/>
<path d="M35.3432 61.6997C35.3432 61.9665 35.1269 62.1828 34.8601 62.1828C34.5933 62.1828 34.377 61.9665 34.377 61.6997C34.377 61.4329 34.5932 61.2166 34.8601 61.2166C35.1268 61.2166 35.3432 61.433 35.3432 61.6997Z" fill="#4C4C4C"/>
<path d="M50.8061 61.6997C50.8061 61.9665 50.5899 62.1828 50.323 62.1828C50.0561 62.1828 49.8398 61.9665 49.8398 61.6997C49.8398 61.4329 50.0561 61.2166 50.323 61.2166C50.5899 61.2166 50.8061 61.433 50.8061 61.6997Z" fill="#4C4C4C"/>
<path d="M66.2669 61.6997C66.2669 61.9665 66.0506 62.1828 65.7838 62.1828C65.5171 62.1828 65.3008 61.9665 65.3008 61.6997C65.3008 61.4329 65.5171 61.2166 65.7838 61.2166C66.0506 61.2166 66.2669 61.433 66.2669 61.6997Z" fill="#4C4C4C"/>
<path d="M81.726 61.6997C81.726 61.9665 81.5097 62.1828 81.2429 62.1828C80.9761 62.1828 80.7598 61.9665 80.7598 61.6997C80.7598 61.4329 80.9761 61.2166 81.2429 61.2166C81.5097 61.2166 81.726 61.433 81.726 61.6997Z" fill="#4C4C4C"/>
<path d="M97.185 61.6997C97.185 61.9665 96.9688 62.1828 96.7019 62.1828C96.435 62.1828 96.2188 61.9665 96.2188 61.6997C96.2188 61.4329 96.435 61.2166 96.7019 61.2166C96.9687 61.2166 97.185 61.433 97.185 61.6997Z" fill="#4C4C4C"/>
<path d="M112.646 61.6997C112.646 61.9665 112.43 62.1828 112.163 62.1828C111.896 62.1828 111.68 61.9665 111.68 61.6997C111.68 61.4329 111.896 61.2166 112.163 61.2166C112.43 61.2166 112.646 61.433 112.646 61.6997Z" fill="#4C4C4C"/>
<path d="M128.107 61.6997C128.107 61.9665 127.891 62.1828 127.624 62.1828C127.357 62.1828 127.141 61.9665 127.141 61.6997C127.141 61.4329 127.357 61.2166 127.624 61.2166C127.891 61.2166 128.107 61.433 128.107 61.6997Z" fill="#4C4C4C"/>
<path d="M143.566 61.6997C143.566 61.9665 143.35 62.1828 143.083 62.1828C142.816 62.1828 142.6 61.9665 142.6 61.6997C142.6 61.4329 142.816 61.2166 143.083 61.2166C143.35 61.2166 143.566 61.433 143.566 61.6997Z" fill="#4C4C4C"/>
<path d="M159.025 61.6997C159.025 61.9665 158.809 62.1828 158.542 62.1828C158.275 62.1828 158.059 61.9665 158.059 61.6997C158.059 61.4329 158.275 61.2166 158.542 61.2166C158.809 61.2166 159.025 61.433 159.025 61.6997Z" fill="#4C4C4C"/>
<path d="M174.486 61.6997C174.486 61.9665 174.269 62.1828 174.003 62.1828C173.736 62.1828 173.52 61.9665 173.52 61.6997C173.52 61.4329 173.736 61.2166 174.003 61.2166C174.269 61.2166 174.486 61.433 174.486 61.6997Z" fill="#4C4C4C"/>
<path d="M189.947 61.6997C189.947 61.9665 189.73 62.1828 189.464 62.1828C189.197 62.1828 188.98 61.9665 188.98 61.6997C188.98 61.4329 189.197 61.2166 189.464 61.2166C189.73 61.2166 189.947 61.433 189.947 61.6997Z" fill="#4C4C4C"/>
<path d="M205.406 61.6997C205.406 61.9665 205.189 62.1828 204.923 62.1828C204.656 62.1828 204.439 61.9665 204.439 61.6997C204.439 61.4329 204.656 61.2166 204.923 61.2166C205.189 61.2166 205.406 61.433 205.406 61.6997Z" fill="#4C4C4C"/>
<path d="M220.863 61.6997C220.863 61.9665 220.646 62.1828 220.38 62.1828C220.113 62.1828 219.896 61.9665 219.896 61.6997C219.896 61.4329 220.113 61.2166 220.38 61.2166C220.646 61.2166 220.863 61.433 220.863 61.6997Z" fill="#4C4C4C"/>
<path d="M236.327 61.6997C236.327 61.9665 236.111 62.1828 235.844 62.1828C235.578 62.1828 235.361 61.9665 235.361 61.6997C235.361 61.4329 235.578 61.2166 235.844 61.2166C236.111 61.2166 236.327 61.433 236.327 61.6997Z" fill="#4C4C4C"/>
<path d="M251.783 61.6997C251.783 61.9665 251.566 62.1828 251.3 62.1828C251.033 62.1828 250.816 61.9665 250.816 61.6997C250.816 61.4329 251.033 61.2166 251.3 61.2166C251.566 61.2166 251.783 61.433 251.783 61.6997Z" fill="#4C4C4C"/>
<path d="M267.246 61.6997C267.246 61.9665 267.029 62.1828 266.762 62.1828C266.496 62.1828 266.279 61.9665 266.279 61.6997C266.279 61.4329 266.496 61.2166 266.762 61.2166C267.029 61.2166 267.246 61.433 267.246 61.6997Z" fill="#4C4C4C"/>
<path d="M282.704 61.6997C282.704 61.9665 282.488 62.1828 282.221 62.1828C281.955 62.1828 281.738 61.9665 281.738 61.6997C281.738 61.4329 281.955 61.2166 282.221 61.2166C282.488 61.2166 282.704 61.433 282.704 61.6997Z" fill="#4C4C4C"/>
<path d="M298.162 61.6997C298.162 61.9665 297.945 62.1828 297.678 62.1828C297.412 62.1828 297.195 61.9665 297.195 61.6997C297.195 61.4329 297.412 61.2166 297.678 61.2166C297.945 61.2166 298.162 61.433 298.162 61.6997Z" fill="#4C4C4C"/>
<path d="M313.62 61.6997C313.62 61.9665 313.404 62.1828 313.137 62.1828C312.871 62.1828 312.654 61.9665 312.654 61.6997C312.654 61.4329 312.871 61.2166 313.137 61.2166C313.404 61.2166 313.62 61.433 313.62 61.6997Z" fill="#4C4C4C"/>
<path d="M329.085 61.6997C329.085 61.9665 328.869 62.1828 328.602 62.1828C328.335 62.1828 328.119 61.9665 328.119 61.6997C328.119 61.4329 328.335 61.2166 328.602 61.2166C328.869 61.2166 329.085 61.433 329.085 61.6997Z" fill="#4C4C4C"/>
<path d="M4.42134 77.164C4.42134 77.4309 4.20514 77.6472 3.93821 77.6472C3.67138 77.6472 3.45508 77.4309 3.45508 77.164C3.45508 76.8972 3.67138 76.6809 3.93821 76.6809C4.20514 76.681 4.42134 76.8972 4.42134 77.164Z" fill="#4C4C4C"/>
<path d="M19.8861 77.164C19.8861 77.4309 19.6698 77.6472 19.403 77.6472C19.1362 77.6472 18.9199 77.4309 18.9199 77.164C18.9199 76.8972 19.1362 76.6809 19.403 76.6809C19.6698 76.681 19.8861 76.8972 19.8861 77.164Z" fill="#4C4C4C"/>
<path d="M35.3432 77.164C35.3432 77.4309 35.1269 77.6472 34.8601 77.6472C34.5933 77.6472 34.377 77.4309 34.377 77.164C34.377 76.8972 34.5932 76.6809 34.8601 76.6809C35.1268 76.681 35.3432 76.8972 35.3432 77.164Z" fill="#4C4C4C"/>
<path d="M50.8061 77.164C50.8061 77.4309 50.5899 77.6472 50.323 77.6472C50.0561 77.6472 49.8398 77.4309 49.8398 77.164C49.8398 76.8972 50.0561 76.6809 50.323 76.6809C50.5899 76.681 50.8061 76.8972 50.8061 77.164Z" fill="#4C4C4C"/>
<path d="M66.2669 77.164C66.2669 77.4309 66.0506 77.6472 65.7838 77.6472C65.5171 77.6472 65.3008 77.4309 65.3008 77.164C65.3008 76.8972 65.5171 76.6809 65.7838 76.6809C66.0506 76.681 66.2669 76.8972 66.2669 77.164Z" fill="#4C4C4C"/>
<path d="M81.726 77.164C81.726 77.4309 81.5097 77.6472 81.2429 77.6472C80.9761 77.6472 80.7598 77.4309 80.7598 77.164C80.7598 76.8972 80.9761 76.6809 81.2429 76.6809C81.5097 76.681 81.726 76.8972 81.726 77.164Z" fill="#4C4C4C"/>
<path d="M97.185 77.164C97.185 77.4309 96.9688 77.6472 96.7019 77.6472C96.435 77.6472 96.2188 77.4309 96.2188 77.164C96.2188 76.8972 96.435 76.6809 96.7019 76.6809C96.9687 76.681 97.185 76.8972 97.185 77.164Z" fill="#4C4C4C"/>
<path d="M112.646 77.164C112.646 77.4309 112.43 77.6472 112.163 77.6472C111.896 77.6472 111.68 77.4309 111.68 77.164C111.68 76.8972 111.896 76.6809 112.163 76.6809C112.43 76.681 112.646 76.8972 112.646 77.164Z" fill="#4C4C4C"/>
<path d="M128.107 77.164C128.107 77.4309 127.891 77.6472 127.624 77.6472C127.357 77.6472 127.141 77.4309 127.141 77.164C127.141 76.8972 127.357 76.6809 127.624 76.6809C127.891 76.681 128.107 76.8972 128.107 77.164Z" fill="#4C4C4C"/>
<path d="M143.566 77.164C143.566 77.4309 143.35 77.6472 143.083 77.6472C142.816 77.6472 142.6 77.4309 142.6 77.164C142.6 76.8972 142.816 76.6809 143.083 76.6809C143.35 76.681 143.566 76.8972 143.566 77.164Z" fill="#4C4C4C"/>
<path d="M159.025 77.164C159.025 77.4309 158.809 77.6472 158.542 77.6472C158.275 77.6472 158.059 77.4309 158.059 77.164C158.059 76.8972 158.275 76.6809 158.542 76.6809C158.809 76.681 159.025 76.8972 159.025 77.164Z" fill="#4C4C4C"/>
<path d="M174.486 77.164C174.486 77.4309 174.269 77.6472 174.003 77.6472C173.736 77.6472 173.52 77.4309 173.52 77.164C173.52 76.8972 173.736 76.6809 174.003 76.6809C174.269 76.6809 174.486 76.8972 174.486 77.164Z" fill="#4C4C4C"/>
<path d="M189.947 77.164C189.947 77.4309 189.73 77.6472 189.464 77.6472C189.197 77.6472 188.98 77.4309 188.98 77.164C188.98 76.8972 189.197 76.6809 189.464 76.6809C189.73 76.681 189.947 76.8972 189.947 77.164Z" fill="#4C4C4C"/>
<path d="M205.406 77.164C205.406 77.4309 205.189 77.6472 204.923 77.6472C204.656 77.6472 204.439 77.4309 204.439 77.164C204.439 76.8972 204.656 76.6809 204.923 76.6809C205.189 76.681 205.406 76.8972 205.406 77.164Z" fill="#4C4C4C"/>
<path d="M220.863 77.164C220.863 77.4309 220.646 77.6472 220.38 77.6472C220.113 77.6472 219.896 77.4309 219.896 77.164C219.896 76.8972 220.113 76.6809 220.38 76.6809C220.646 76.681 220.863 76.8972 220.863 77.164Z" fill="#4C4C4C"/>
<path d="M236.327 77.164C236.327 77.4309 236.111 77.6472 235.844 77.6472C235.578 77.6472 235.361 77.4309 235.361 77.164C235.361 76.8972 235.578 76.6809 235.844 76.6809C236.111 76.681 236.327 76.8972 236.327 77.164Z" fill="#4C4C4C"/>
<path d="M251.783 77.164C251.783 77.4309 251.566 77.6472 251.3 77.6472C251.033 77.6472 250.816 77.4309 250.816 77.164C250.816 76.8972 251.033 76.6809 251.3 76.6809C251.566 76.681 251.783 76.8972 251.783 77.164Z" fill="#4C4C4C"/>
<path d="M267.246 77.164C267.246 77.4309 267.029 77.6472 266.762 77.6472C266.496 77.6472 266.279 77.4309 266.279 77.164C266.279 76.8972 266.496 76.6809 266.762 76.6809C267.029 76.681 267.246 76.8972 267.246 77.164Z" fill="#4C4C4C"/>
<path d="M282.704 77.164C282.704 77.4309 282.488 77.6472 282.221 77.6472C281.955 77.6472 281.738 77.4309 281.738 77.164C281.738 76.8972 281.955 76.6809 282.221 76.6809C282.488 76.681 282.704 76.8972 282.704 77.164Z" fill="#4C4C4C"/>
<path d="M298.162 77.164C298.162 77.4309 297.945 77.6472 297.678 77.6472C297.412 77.6472 297.195 77.4309 297.195 77.164C297.195 76.8972 297.412 76.6809 297.678 76.6809C297.945 76.681 298.162 76.8972 298.162 77.164Z" fill="#4C4C4C"/>
<path d="M313.62 77.164C313.62 77.4309 313.404 77.6472 313.137 77.6472C312.871 77.6472 312.654 77.4309 312.654 77.164C312.654 76.8972 312.871 76.6809 313.137 76.6809C313.404 76.6809 313.62 76.8972 313.62 77.164Z" fill="#4C4C4C"/>
<path d="M329.085 77.164C329.085 77.4309 328.869 77.6472 328.602 77.6472C328.335 77.6472 328.119 77.4309 328.119 77.164C328.119 76.8972 328.335 76.6809 328.602 76.6809C328.869 76.681 329.085 76.8972 329.085 77.164Z" fill="#4C4C4C"/>
<path d="M4.42134 92.6265C4.42134 92.8933 4.20514 93.1096 3.93821 93.1096C3.67138 93.1096 3.45508 92.8933 3.45508 92.6265C3.45508 92.3596 3.67138 92.1433 3.93821 92.1433C4.20514 92.1433 4.42134 92.3597 4.42134 92.6265Z" fill="#4C4C4C"/>
<path d="M19.8861 92.6265C19.8861 92.8933 19.6698 93.1096 19.403 93.1096C19.1362 93.1096 18.9199 92.8933 18.9199 92.6265C18.9199 92.3596 19.1362 92.1433 19.403 92.1433C19.6698 92.1433 19.8861 92.3597 19.8861 92.6265Z" fill="#4C4C4C"/>
<path d="M35.3432 92.6265C35.3432 92.8933 35.1269 93.1096 34.8601 93.1096C34.5933 93.1096 34.377 92.8933 34.377 92.6265C34.377 92.3596 34.5932 92.1433 34.8601 92.1433C35.1268 92.1433 35.3432 92.3597 35.3432 92.6265Z" fill="#4C4C4C"/>
<path d="M50.8061 92.6265C50.8061 92.8933 50.5899 93.1096 50.323 93.1096C50.0561 93.1096 49.8398 92.8933 49.8398 92.6265C49.8398 92.3596 50.0561 92.1433 50.323 92.1433C50.5899 92.1433 50.8061 92.3597 50.8061 92.6265Z" fill="#4C4C4C"/>
<path d="M66.2669 92.6265C66.2669 92.8933 66.0506 93.1096 65.7838 93.1096C65.5171 93.1096 65.3008 92.8933 65.3008 92.6265C65.3008 92.3596 65.5171 92.1433 65.7838 92.1433C66.0506 92.1433 66.2669 92.3597 66.2669 92.6265Z" fill="#4C4C4C"/>
<path d="M81.726 92.6265C81.726 92.8933 81.5097 93.1096 81.2429 93.1096C80.9761 93.1096 80.7598 92.8933 80.7598 92.6265C80.7598 92.3596 80.9761 92.1433 81.2429 92.1433C81.5097 92.1433 81.726 92.3597 81.726 92.6265Z" fill="#4C4C4C"/>
<path d="M97.185 92.6265C97.185 92.8933 96.9688 93.1096 96.7019 93.1096C96.435 93.1096 96.2188 92.8933 96.2188 92.6265C96.2188 92.3596 96.435 92.1433 96.7019 92.1433C96.9687 92.1433 97.185 92.3597 97.185 92.6265Z" fill="#4C4C4C"/>
<path d="M112.646 92.6265C112.646 92.8933 112.43 93.1096 112.163 93.1096C111.896 93.1096 111.68 92.8933 111.68 92.6265C111.68 92.3596 111.896 92.1433 112.163 92.1433C112.43 92.1433 112.646 92.3597 112.646 92.6265Z" fill="#4C4C4C"/>
<path d="M128.107 92.6265C128.107 92.8933 127.891 93.1096 127.624 93.1096C127.357 93.1096 127.141 92.8933 127.141 92.6265C127.141 92.3596 127.357 92.1433 127.624 92.1433C127.891 92.1433 128.107 92.3597 128.107 92.6265Z" fill="#4C4C4C"/>
<path d="M143.566 92.6265C143.566 92.8933 143.35 93.1096 143.083 93.1096C142.816 93.1096 142.6 92.8933 142.6 92.6265C142.6 92.3596 142.816 92.1433 143.083 92.1433C143.35 92.1433 143.566 92.3597 143.566 92.6265Z" fill="#4C4C4C"/>
<path d="M159.025 92.6265C159.025 92.8933 158.809 93.1096 158.542 93.1096C158.275 93.1096 158.059 92.8933 158.059 92.6265C158.059 92.3596 158.275 92.1433 158.542 92.1433C158.809 92.1433 159.025 92.3597 159.025 92.6265Z" fill="#4C4C4C"/>
<path d="M174.486 92.6265C174.486 92.8933 174.269 93.1096 174.003 93.1096C173.736 93.1096 173.52 92.8933 173.52 92.6265C173.52 92.3596 173.736 92.1433 174.003 92.1433C174.269 92.1433 174.486 92.3597 174.486 92.6265Z" fill="#4C4C4C"/>
<path d="M189.947 92.6265C189.947 92.8933 189.73 93.1096 189.464 93.1096C189.197 93.1096 188.98 92.8933 188.98 92.6265C188.98 92.3596 189.197 92.1433 189.464 92.1433C189.73 92.1433 189.947 92.3597 189.947 92.6265Z" fill="#4C4C4C"/>
<path d="M205.406 92.6265C205.406 92.8933 205.189 93.1096 204.923 93.1096C204.656 93.1096 204.439 92.8933 204.439 92.6265C204.439 92.3596 204.656 92.1433 204.923 92.1433C205.189 92.1433 205.406 92.3597 205.406 92.6265Z" fill="#4C4C4C"/>
<path d="M220.863 92.6265C220.863 92.8933 220.646 93.1096 220.38 93.1096C220.113 93.1096 219.896 92.8933 219.896 92.6265C219.896 92.3596 220.113 92.1433 220.38 92.1433C220.646 92.1433 220.863 92.3597 220.863 92.6265Z" fill="#4C4C4C"/>
<path d="M236.327 92.6265C236.327 92.8933 236.111 93.1096 235.844 93.1096C235.578 93.1096 235.361 92.8933 235.361 92.6265C235.361 92.3596 235.578 92.1433 235.844 92.1433C236.111 92.1433 236.327 92.3597 236.327 92.6265Z" fill="#4C4C4C"/>
<path d="M251.783 92.6265C251.783 92.8933 251.566 93.1096 251.3 93.1096C251.033 93.1096 250.816 92.8933 250.816 92.6265C250.816 92.3596 251.033 92.1433 251.3 92.1433C251.566 92.1433 251.783 92.3597 251.783 92.6265Z" fill="#4C4C4C"/>
<path d="M267.246 92.6265C267.246 92.8933 267.029 93.1096 266.762 93.1096C266.496 93.1096 266.279 92.8933 266.279 92.6265C266.279 92.3596 266.496 92.1433 266.762 92.1433C267.029 92.1433 267.246 92.3597 267.246 92.6265Z" fill="#4C4C4C"/>
<path d="M282.704 92.6265C282.704 92.8933 282.488 93.1096 282.221 93.1096C281.955 93.1096 281.738 92.8933 281.738 92.6265C281.738 92.3596 281.955 92.1433 282.221 92.1433C282.488 92.1433 282.704 92.3597 282.704 92.6265Z" fill="#4C4C4C"/>
<path d="M298.162 92.6265C298.162 92.8933 297.945 93.1096 297.678 93.1096C297.412 93.1096 297.195 92.8933 297.195 92.6265C297.195 92.3596 297.412 92.1433 297.678 92.1433C297.945 92.1433 298.162 92.3597 298.162 92.6265Z" fill="#4C4C4C"/>
<path d="M313.62 92.6265C313.62 92.8933 313.404 93.1096 313.137 93.1096C312.871 93.1096 312.654 92.8933 312.654 92.6265C312.654 92.3596 312.871 92.1433 313.137 92.1433C313.404 92.1433 313.62 92.3597 313.62 92.6265Z" fill="#4C4C4C"/>
<path d="M329.085 92.6265C329.085 92.8933 328.869 93.1096 328.602 93.1096C328.335 93.1096 328.119 92.8933 328.119 92.6265C328.119 92.3596 328.335 92.1433 328.602 92.1433C328.869 92.1433 329.085 92.3597 329.085 92.6265Z" fill="#4C4C4C"/>
<path d="M4.42134 108.084C4.42134 108.351 4.20514 108.567 3.93821 108.567C3.67138 108.567 3.45508 108.351 3.45508 108.084C3.45508 107.817 3.67138 107.601 3.93821 107.601C4.20514 107.601 4.42134 107.817 4.42134 108.084Z" fill="#4C4C4C"/>
<path d="M19.8861 108.084C19.8861 108.351 19.6698 108.567 19.403 108.567C19.1362 108.567 18.9199 108.351 18.9199 108.084C18.9199 107.817 19.1362 107.601 19.403 107.601C19.6698 107.601 19.8861 107.817 19.8861 108.084Z" fill="#4C4C4C"/>
<path d="M35.3432 108.084C35.3432 108.351 35.1269 108.567 34.8601 108.567C34.5933 108.567 34.377 108.351 34.377 108.084C34.377 107.817 34.5932 107.601 34.8601 107.601C35.1268 107.601 35.3432 107.817 35.3432 108.084Z" fill="#4C4C4C"/>
<path d="M50.8061 108.084C50.8061 108.351 50.5899 108.567 50.323 108.567C50.0561 108.567 49.8398 108.351 49.8398 108.084C49.8398 107.817 50.0561 107.601 50.323 107.601C50.5899 107.601 50.8061 107.817 50.8061 108.084Z" fill="#4C4C4C"/>
<path d="M66.2669 108.084C66.2669 108.351 66.0506 108.567 65.7838 108.567C65.5171 108.567 65.3008 108.351 65.3008 108.084C65.3008 107.817 65.5171 107.601 65.7838 107.601C66.0506 107.601 66.2669 107.817 66.2669 108.084Z" fill="#4C4C4C"/>
<path d="M81.726 108.084C81.726 108.351 81.5097 108.567 81.2429 108.567C80.9761 108.567 80.7598 108.351 80.7598 108.084C80.7598 107.817 80.9761 107.601 81.2429 107.601C81.5097 107.601 81.726 107.817 81.726 108.084Z" fill="#4C4C4C"/>
<path d="M97.185 108.084C97.185 108.351 96.9688 108.567 96.7019 108.567C96.435 108.567 96.2188 108.351 96.2188 108.084C96.2188 107.817 96.435 107.601 96.7019 107.601C96.9687 107.601 97.185 107.817 97.185 108.084Z" fill="#4C4C4C"/>
<path d="M112.646 108.084C112.646 108.351 112.43 108.567 112.163 108.567C111.896 108.567 111.68 108.351 111.68 108.084C111.68 107.817 111.896 107.601 112.163 107.601C112.43 107.601 112.646 107.817 112.646 108.084Z" fill="#4C4C4C"/>
<path d="M128.107 108.084C128.107 108.351 127.891 108.567 127.624 108.567C127.357 108.567 127.141 108.351 127.141 108.084C127.141 107.817 127.357 107.601 127.624 107.601C127.891 107.601 128.107 107.817 128.107 108.084Z" fill="#4C4C4C"/>
<path d="M143.566 108.084C143.566 108.351 143.35 108.567 143.083 108.567C142.816 108.567 142.6 108.351 142.6 108.084C142.6 107.817 142.816 107.601 143.083 107.601C143.35 107.601 143.566 107.817 143.566 108.084Z" fill="#4C4C4C"/>
<path d="M159.025 108.084C159.025 108.351 158.809 108.567 158.542 108.567C158.275 108.567 158.059 108.351 158.059 108.084C158.059 107.817 158.275 107.601 158.542 107.601C158.809 107.601 159.025 107.817 159.025 108.084Z" fill="#4C4C4C"/>
<path d="M174.486 108.084C174.486 108.351 174.269 108.567 174.003 108.567C173.736 108.567 173.52 108.351 173.52 108.084C173.52 107.817 173.736 107.601 174.003 107.601C174.269 107.601 174.486 107.817 174.486 108.084Z" fill="#4C4C4C"/>
<path d="M189.947 108.084C189.947 108.351 189.73 108.567 189.464 108.567C189.197 108.567 188.98 108.351 188.98 108.084C188.98 107.817 189.197 107.601 189.464 107.601C189.73 107.601 189.947 107.817 189.947 108.084Z" fill="#4C4C4C"/>
<path d="M205.406 108.084C205.406 108.351 205.189 108.567 204.923 108.567C204.656 108.567 204.439 108.351 204.439 108.084C204.439 107.817 204.656 107.601 204.923 107.601C205.189 107.601 205.406 107.817 205.406 108.084Z" fill="#4C4C4C"/>
<path d="M220.863 108.084C220.863 108.351 220.646 108.567 220.38 108.567C220.113 108.567 219.896 108.351 219.896 108.084C219.896 107.817 220.113 107.601 220.38 107.601C220.646 107.601 220.863 107.817 220.863 108.084Z" fill="#4C4C4C"/>
<path d="M236.327 108.084C236.327 108.351 236.111 108.567 235.844 108.567C235.578 108.567 235.361 108.351 235.361 108.084C235.361 107.817 235.578 107.601 235.844 107.601C236.111 107.601 236.327 107.817 236.327 108.084Z" fill="#4C4C4C"/>
<path d="M251.783 108.084C251.783 108.351 251.566 108.567 251.3 108.567C251.033 108.567 250.816 108.351 250.816 108.084C250.816 107.817 251.033 107.601 251.3 107.601C251.566 107.601 251.783 107.817 251.783 108.084Z" fill="#4C4C4C"/>
<path d="M267.246 108.084C267.246 108.351 267.029 108.567 266.762 108.567C266.496 108.567 266.279 108.351 266.279 108.084C266.279 107.817 266.496 107.601 266.762 107.601C267.029 107.601 267.246 107.817 267.246 108.084Z" fill="#4C4C4C"/>
<path d="M282.704 108.084C282.704 108.351 282.488 108.567 282.221 108.567C281.955 108.567 281.738 108.351 281.738 108.084C281.738 107.817 281.955 107.601 282.221 107.601C282.488 107.601 282.704 107.817 282.704 108.084Z" fill="#4C4C4C"/>
<path d="M298.162 108.084C298.162 108.351 297.945 108.567 297.678 108.567C297.412 108.567 297.195 108.351 297.195 108.084C297.195 107.817 297.412 107.601 297.678 107.601C297.945 107.601 298.162 107.817 298.162 108.084Z" fill="#4C4C4C"/>
<path d="M313.62 108.084C313.62 108.351 313.404 108.567 313.137 108.567C312.871 108.567 312.654 108.351 312.654 108.084C312.654 107.817 312.871 107.601 313.137 107.601C313.404 107.601 313.62 107.817 313.62 108.084Z" fill="#4C4C4C"/>
<path d="M329.085 108.084C329.085 108.351 328.869 108.567 328.602 108.567C328.335 108.567 328.119 108.351 328.119 108.084C328.119 107.817 328.335 107.601 328.602 107.601C328.869 107.601 329.085 107.817 329.085 108.084Z" fill="#4C4C4C"/>
<path d="M4.42134 123.541C4.42134 123.808 4.20514 124.024 3.93821 124.024C3.67138 124.024 3.45508 123.808 3.45508 123.541C3.45508 123.274 3.67138 123.058 3.93821 123.058C4.20514 123.058 4.42134 123.274 4.42134 123.541Z" fill="#4C4C4C"/>
<path d="M19.8861 123.541C19.8861 123.808 19.6698 124.024 19.403 124.024C19.1362 124.024 18.9199 123.808 18.9199 123.541C18.9199 123.274 19.1362 123.058 19.403 123.058C19.6698 123.058 19.8861 123.274 19.8861 123.541Z" fill="#4C4C4C"/>
<path d="M35.3432 123.541C35.3432 123.808 35.1269 124.024 34.8601 124.024C34.5933 124.024 34.377 123.808 34.377 123.541C34.377 123.274 34.5932 123.058 34.8601 123.058C35.1268 123.058 35.3432 123.274 35.3432 123.541Z" fill="#4C4C4C"/>
<path d="M50.8061 123.541C50.8061 123.808 50.5899 124.024 50.323 124.024C50.0561 124.024 49.8398 123.808 49.8398 123.541C49.8398 123.274 50.0561 123.058 50.323 123.058C50.5899 123.058 50.8061 123.274 50.8061 123.541Z" fill="#4C4C4C"/>
<path d="M66.2669 123.541C66.2669 123.808 66.0506 124.024 65.7838 124.024C65.5171 124.024 65.3008 123.808 65.3008 123.541C65.3008 123.274 65.5171 123.058 65.7838 123.058C66.0506 123.058 66.2669 123.274 66.2669 123.541Z" fill="#4C4C4C"/>
<path d="M81.726 123.541C81.726 123.808 81.5097 124.024 81.2429 124.024C80.9761 124.024 80.7598 123.808 80.7598 123.541C80.7598 123.274 80.9761 123.058 81.2429 123.058C81.5097 123.058 81.726 123.274 81.726 123.541Z" fill="#4C4C4C"/>
<path d="M97.185 123.541C97.185 123.808 96.9688 124.024 96.7019 124.024C96.435 124.024 96.2188 123.808 96.2188 123.541C96.2188 123.274 96.435 123.058 96.7019 123.058C96.9687 123.058 97.185 123.274 97.185 123.541Z" fill="#4C4C4C"/>
<path d="M112.646 123.541C112.646 123.808 112.43 124.024 112.163 124.024C111.896 124.024 111.68 123.808 111.68 123.541C111.68 123.274 111.896 123.058 112.163 123.058C112.43 123.058 112.646 123.274 112.646 123.541Z" fill="#4C4C4C"/>
<path d="M128.107 123.541C128.107 123.808 127.891 124.024 127.624 124.024C127.357 124.024 127.141 123.808 127.141 123.541C127.141 123.274 127.357 123.058 127.624 123.058C127.891 123.058 128.107 123.274 128.107 123.541Z" fill="#4C4C4C"/>
<path d="M143.566 123.541C143.566 123.808 143.35 124.024 143.083 124.024C142.816 124.024 142.6 123.808 142.6 123.541C142.6 123.274 142.816 123.058 143.083 123.058C143.35 123.058 143.566 123.274 143.566 123.541Z" fill="#4C4C4C"/>
<path d="M159.025 123.541C159.025 123.808 158.809 124.024 158.542 124.024C158.275 124.024 158.059 123.808 158.059 123.541C158.059 123.274 158.275 123.058 158.542 123.058C158.809 123.058 159.025 123.274 159.025 123.541Z" fill="#4C4C4C"/>
<path d="M174.486 123.541C174.486 123.808 174.269 124.024 174.003 124.024C173.736 124.024 173.52 123.808 173.52 123.541C173.52 123.274 173.736 123.058 174.003 123.058C174.269 123.058 174.486 123.274 174.486 123.541Z" fill="#4C4C4C"/>
<path d="M189.947 123.541C189.947 123.808 189.73 124.024 189.464 124.024C189.197 124.024 188.98 123.808 188.98 123.541C188.98 123.274 189.197 123.058 189.464 123.058C189.73 123.058 189.947 123.274 189.947 123.541Z" fill="#4C4C4C"/>
<path d="M205.406 123.541C205.406 123.808 205.189 124.024 204.923 124.024C204.656 124.024 204.439 123.808 204.439 123.541C204.439 123.274 204.656 123.058 204.923 123.058C205.189 123.058 205.406 123.274 205.406 123.541Z" fill="#4C4C4C"/>
<path d="M220.863 123.541C220.863 123.808 220.646 124.024 220.38 124.024C220.113 124.024 219.896 123.808 219.896 123.541C219.896 123.274 220.113 123.058 220.38 123.058C220.646 123.058 220.863 123.274 220.863 123.541Z" fill="#4C4C4C"/>
<path d="M236.327 123.541C236.327 123.808 236.111 124.024 235.844 124.024C235.578 124.024 235.361 123.808 235.361 123.541C235.361 123.274 235.578 123.058 235.844 123.058C236.111 123.058 236.327 123.274 236.327 123.541Z" fill="#4C4C4C"/>
<path d="M251.783 123.541C251.783 123.808 251.566 124.024 251.3 124.024C251.033 124.024 250.816 123.808 250.816 123.541C250.816 123.274 251.033 123.058 251.3 123.058C251.566 123.058 251.783 123.274 251.783 123.541Z" fill="#4C4C4C"/>
<path d="M267.246 123.541C267.246 123.808 267.029 124.024 266.762 124.024C266.496 124.024 266.279 123.808 266.279 123.541C266.279 123.274 266.496 123.058 266.762 123.058C267.029 123.058 267.246 123.274 267.246 123.541Z" fill="#4C4C4C"/>
<path d="M282.704 123.541C282.704 123.808 282.488 124.024 282.221 124.024C281.955 124.024 281.738 123.808 281.738 123.541C281.738 123.274 281.955 123.058 282.221 123.058C282.488 123.058 282.704 123.274 282.704 123.541Z" fill="#4C4C4C"/>
<path d="M298.162 123.541C298.162 123.808 297.945 124.024 297.678 124.024C297.412 124.024 297.195 123.808 297.195 123.541C297.195 123.274 297.412 123.058 297.678 123.058C297.945 123.058 298.162 123.274 298.162 123.541Z" fill="#4C4C4C"/>
<path d="M313.62 123.541C313.62 123.808 313.404 124.024 313.137 124.024C312.871 124.024 312.654 123.808 312.654 123.541C312.654 123.274 312.871 123.058 313.137 123.058C313.404 123.058 313.62 123.274 313.62 123.541Z" fill="#4C4C4C"/>
<path d="M329.085 123.541C329.085 123.808 328.869 124.024 328.602 124.024C328.335 124.024 328.119 123.808 328.119 123.541C328.119 123.274 328.335 123.058 328.602 123.058C328.869 123.058 329.085 123.274 329.085 123.541Z" fill="#4C4C4C"/>
<path d="M4.42134 139.003C4.42134 139.27 4.20514 139.486 3.93821 139.486C3.67138 139.486 3.45508 139.27 3.45508 139.003C3.45508 138.736 3.67138 138.52 3.93821 138.52C4.20514 138.52 4.42134 138.736 4.42134 139.003Z" fill="#4C4C4C"/>
<path d="M19.8861 139.003C19.8861 139.27 19.6698 139.486 19.403 139.486C19.1362 139.486 18.9199 139.27 18.9199 139.003C18.9199 138.736 19.1362 138.52 19.403 138.52C19.6698 138.52 19.8861 138.736 19.8861 139.003Z" fill="#4C4C4C"/>
<path d="M35.3432 139.003C35.3432 139.27 35.1269 139.486 34.8601 139.486C34.5933 139.486 34.377 139.27 34.377 139.003C34.377 138.736 34.5932 138.52 34.8601 138.52C35.1268 138.52 35.3432 138.736 35.3432 139.003Z" fill="#4C4C4C"/>
<path d="M50.8061 139.003C50.8061 139.27 50.5899 139.486 50.323 139.486C50.0561 139.486 49.8398 139.27 49.8398 139.003C49.8398 138.736 50.0561 138.52 50.323 138.52C50.5899 138.52 50.8061 138.736 50.8061 139.003Z" fill="#4C4C4C"/>
<path d="M66.2669 139.003C66.2669 139.27 66.0506 139.486 65.7838 139.486C65.5171 139.486 65.3008 139.27 65.3008 139.003C65.3008 138.736 65.5171 138.52 65.7838 138.52C66.0506 138.52 66.2669 138.736 66.2669 139.003Z" fill="#4C4C4C"/>
<path d="M81.726 139.003C81.726 139.27 81.5097 139.486 81.2429 139.486C80.9761 139.486 80.7598 139.27 80.7598 139.003C80.7598 138.736 80.9761 138.52 81.2429 138.52C81.5097 138.52 81.726 138.736 81.726 139.003Z" fill="#4C4C4C"/>
<path d="M97.185 139.003C97.185 139.27 96.9688 139.486 96.7019 139.486C96.435 139.486 96.2188 139.27 96.2188 139.003C96.2188 138.736 96.435 138.52 96.7019 138.52C96.9687 138.52 97.185 138.736 97.185 139.003Z" fill="#4C4C4C"/>
<path d="M112.646 139.003C112.646 139.27 112.43 139.486 112.163 139.486C111.896 139.486 111.68 139.27 111.68 139.003C111.68 138.736 111.896 138.52 112.163 138.52C112.43 138.52 112.646 138.736 112.646 139.003Z" fill="#4C4C4C"/>
<path d="M128.107 139.003C128.107 139.27 127.891 139.486 127.624 139.486C127.357 139.486 127.141 139.27 127.141 139.003C127.141 138.736 127.357 138.52 127.624 138.52C127.891 138.52 128.107 138.736 128.107 139.003Z" fill="#4C4C4C"/>
<path d="M143.566 139.003C143.566 139.27 143.35 139.486 143.083 139.486C142.816 139.486 142.6 139.27 142.6 139.003C142.6 138.736 142.816 138.52 143.083 138.52C143.35 138.52 143.566 138.736 143.566 139.003Z" fill="#4C4C4C"/>
<path d="M159.025 139.003C159.025 139.27 158.809 139.486 158.542 139.486C158.275 139.486 158.059 139.27 158.059 139.003C158.059 138.736 158.275 138.52 158.542 138.52C158.809 138.52 159.025 138.736 159.025 139.003Z" fill="#4C4C4C"/>
<path d="M174.486 139.003C174.486 139.27 174.269 139.486 174.003 139.486C173.736 139.486 173.52 139.27 173.52 139.003C173.52 138.736 173.736 138.52 174.003 138.52C174.269 138.52 174.486 138.736 174.486 139.003Z" fill="#4C4C4C"/>
<path d="M189.947 139.003C189.947 139.27 189.73 139.486 189.464 139.486C189.197 139.486 188.98 139.27 188.98 139.003C188.98 138.736 189.197 138.52 189.464 138.52C189.73 138.52 189.947 138.736 189.947 139.003Z" fill="#4C4C4C"/>
<path d="M205.406 139.003C205.406 139.27 205.189 139.486 204.923 139.486C204.656 139.486 204.439 139.27 204.439 139.003C204.439 138.736 204.656 138.52 204.923 138.52C205.189 138.52 205.406 138.736 205.406 139.003Z" fill="#4C4C4C"/>
<path d="M220.863 139.003C220.863 139.27 220.646 139.486 220.38 139.486C220.113 139.486 219.896 139.27 219.896 139.003C219.896 138.736 220.113 138.52 220.38 138.52C220.646 138.52 220.863 138.736 220.863 139.003Z" fill="#4C4C4C"/>
<path d="M236.327 139.003C236.327 139.27 236.111 139.486 235.844 139.486C235.578 139.486 235.361 139.27 235.361 139.003C235.361 138.736 235.578 138.52 235.844 138.52C236.111 138.52 236.327 138.736 236.327 139.003Z" fill="#4C4C4C"/>
<path d="M251.783 139.003C251.783 139.27 251.566 139.486 251.3 139.486C251.033 139.486 250.816 139.27 250.816 139.003C250.816 138.736 251.033 138.52 251.3 138.52C251.566 138.52 251.783 138.736 251.783 139.003Z" fill="#4C4C4C"/>
<path d="M267.246 139.003C267.246 139.27 267.029 139.486 266.762 139.486C266.496 139.486 266.279 139.27 266.279 139.003C266.279 138.736 266.496 138.52 266.762 138.52C267.029 138.52 267.246 138.736 267.246 139.003Z" fill="#4C4C4C"/>
<path d="M282.704 139.003C282.704 139.27 282.488 139.486 282.221 139.486C281.955 139.486 281.738 139.27 281.738 139.003C281.738 138.736 281.955 138.52 282.221 138.52C282.488 138.52 282.704 138.736 282.704 139.003Z" fill="#4C4C4C"/>
<path d="M298.162 139.003C298.162 139.27 297.945 139.486 297.678 139.486C297.412 139.486 297.195 139.27 297.195 139.003C297.195 138.736 297.412 138.52 297.678 138.52C297.945 138.52 298.162 138.736 298.162 139.003Z" fill="#4C4C4C"/>
<path d="M313.62 139.003C313.62 139.27 313.404 139.486 313.137 139.486C312.871 139.486 312.654 139.27 312.654 139.003C312.654 138.736 312.871 138.52 313.137 138.52C313.404 138.52 313.62 138.736 313.62 139.003Z" fill="#4C4C4C"/>
<path d="M329.085 139.003C329.085 139.27 328.869 139.486 328.602 139.486C328.335 139.486 328.119 139.27 328.119 139.003C328.119 138.736 328.335 138.52 328.602 138.52C328.869 138.52 329.085 138.736 329.085 139.003Z" fill="#4C4C4C"/>
<path d="M4.42134 154.458C4.42134 154.725 4.20514 154.941 3.93821 154.941C3.67138 154.941 3.45508 154.725 3.45508 154.458C3.45508 154.192 3.67138 153.975 3.93821 153.975C4.20514 153.975 4.42134 154.192 4.42134 154.458Z" fill="#4C4C4C"/>
<path d="M19.8861 154.458C19.8861 154.725 19.6698 154.941 19.403 154.941C19.1362 154.941 18.9199 154.725 18.9199 154.458C18.9199 154.192 19.1362 153.975 19.403 153.975C19.6698 153.975 19.8861 154.192 19.8861 154.458Z" fill="#4C4C4C"/>
<path d="M35.3432 154.458C35.3432 154.725 35.1269 154.941 34.8601 154.941C34.5933 154.941 34.377 154.725 34.377 154.458C34.377 154.192 34.5932 153.975 34.8601 153.975C35.1268 153.975 35.3432 154.192 35.3432 154.458Z" fill="#4C4C4C"/>
<path d="M50.8061 154.458C50.8061 154.725 50.5899 154.941 50.323 154.941C50.0561 154.941 49.8398 154.725 49.8398 154.458C49.8398 154.192 50.0561 153.975 50.323 153.975C50.5899 153.975 50.8061 154.192 50.8061 154.458Z" fill="#4C4C4C"/>
<path d="M66.2669 154.458C66.2669 154.725 66.0506 154.941 65.7838 154.941C65.5171 154.941 65.3008 154.725 65.3008 154.458C65.3008 154.192 65.5171 153.975 65.7838 153.975C66.0506 153.975 66.2669 154.192 66.2669 154.458Z" fill="#4C4C4C"/>
<path d="M81.726 154.458C81.726 154.725 81.5097 154.941 81.2429 154.941C80.9761 154.941 80.7598 154.725 80.7598 154.458C80.7598 154.192 80.9761 153.975 81.2429 153.975C81.5097 153.975 81.726 154.192 81.726 154.458Z" fill="#4C4C4C"/>
<path d="M97.185 154.458C97.185 154.725 96.9688 154.941 96.7019 154.941C96.435 154.941 96.2188 154.725 96.2188 154.458C96.2188 154.192 96.435 153.975 96.7019 153.975C96.9687 153.975 97.185 154.192 97.185 154.458Z" fill="#4C4C4C"/>
<path d="M112.646 154.458C112.646 154.725 112.43 154.941 112.163 154.941C111.896 154.941 111.68 154.725 111.68 154.458C111.68 154.192 111.896 153.975 112.163 153.975C112.43 153.975 112.646 154.192 112.646 154.458Z" fill="#4C4C4C"/>
<path d="M128.107 154.458C128.107 154.725 127.891 154.941 127.624 154.941C127.357 154.941 127.141 154.725 127.141 154.458C127.141 154.192 127.357 153.975 127.624 153.975C127.891 153.975 128.107 154.192 128.107 154.458Z" fill="#4C4C4C"/>
<path d="M143.566 154.458C143.566 154.725 143.35 154.941 143.083 154.941C142.816 154.941 142.6 154.725 142.6 154.458C142.6 154.192 142.816 153.975 143.083 153.975C143.35 153.975 143.566 154.192 143.566 154.458Z" fill="#4C4C4C"/>
<path d="M159.025 154.458C159.025 154.725 158.809 154.941 158.542 154.941C158.275 154.941 158.059 154.725 158.059 154.458C158.059 154.192 158.275 153.975 158.542 153.975C158.809 153.975 159.025 154.192 159.025 154.458Z" fill="#4C4C4C"/>
<path d="M174.486 154.458C174.486 154.725 174.269 154.941 174.003 154.941C173.736 154.941 173.52 154.725 173.52 154.458C173.52 154.192 173.736 153.975 174.003 153.975C174.269 153.975 174.486 154.192 174.486 154.458Z" fill="#4C4C4C"/>
<path d="M189.947 154.458C189.947 154.725 189.73 154.941 189.464 154.941C189.197 154.941 188.98 154.725 188.98 154.458C188.98 154.192 189.197 153.975 189.464 153.975C189.73 153.975 189.947 154.192 189.947 154.458Z" fill="#4C4C4C"/>
<path d="M205.406 154.458C205.406 154.725 205.189 154.941 204.923 154.941C204.656 154.941 204.439 154.725 204.439 154.458C204.439 154.192 204.656 153.975 204.923 153.975C205.189 153.975 205.406 154.192 205.406 154.458Z" fill="#4C4C4C"/>
<path d="M220.863 154.458C220.863 154.725 220.646 154.941 220.38 154.941C220.113 154.941 219.896 154.725 219.896 154.458C219.896 154.192 220.113 153.975 220.38 153.975C220.646 153.975 220.863 154.192 220.863 154.458Z" fill="#4C4C4C"/>
<path d="M236.327 154.458C236.327 154.725 236.111 154.941 235.844 154.941C235.578 154.941 235.361 154.725 235.361 154.458C235.361 154.192 235.578 153.975 235.844 153.975C236.111 153.975 236.327 154.192 236.327 154.458Z" fill="#4C4C4C"/>
<path d="M251.783 154.458C251.783 154.725 251.566 154.941 251.3 154.941C251.033 154.941 250.816 154.725 250.816 154.458C250.816 154.192 251.033 153.975 251.3 153.975C251.566 153.975 251.783 154.192 251.783 154.458Z" fill="#4C4C4C"/>
<path d="M267.246 154.458C267.246 154.725 267.029 154.941 266.762 154.941C266.496 154.941 266.279 154.725 266.279 154.458C266.279 154.192 266.496 153.975 266.762 153.975C267.029 153.975 267.246 154.192 267.246 154.458Z" fill="#4C4C4C"/>
<path d="M282.704 154.458C282.704 154.725 282.488 154.941 282.221 154.941C281.955 154.941 281.738 154.725 281.738 154.458C281.738 154.192 281.955 153.975 282.221 153.975C282.488 153.975 282.704 154.192 282.704 154.458Z" fill="#4C4C4C"/>
<path d="M298.162 154.458C298.162 154.725 297.945 154.941 297.678 154.941C297.412 154.941 297.195 154.725 297.195 154.458C297.195 154.192 297.412 153.975 297.678 153.975C297.945 153.975 298.162 154.192 298.162 154.458Z" fill="#4C4C4C"/>
<path d="M313.62 154.458C313.62 154.725 313.404 154.941 313.137 154.941C312.871 154.941 312.654 154.725 312.654 154.458C312.654 154.192 312.871 153.975 313.137 153.975C313.404 153.975 313.62 154.192 313.62 154.458Z" fill="#4C4C4C"/>
<path d="M329.085 154.458C329.085 154.725 328.869 154.941 328.602 154.941C328.335 154.941 328.119 154.725 328.119 154.458C328.119 154.192 328.335 153.975 328.602 153.975C328.869 153.975 329.085 154.192 329.085 154.458Z" fill="#4C4C4C"/>
<path d="M4.42134 169.925C4.42134 170.191 4.20514 170.408 3.93821 170.408C3.67138 170.408 3.45508 170.191 3.45508 169.925C3.45508 169.658 3.67138 169.441 3.93821 169.441C4.20514 169.441 4.42134 169.658 4.42134 169.925Z" fill="#4C4C4C"/>
<path d="M19.8861 169.925C19.8861 170.191 19.6698 170.408 19.403 170.408C19.1362 170.408 18.9199 170.191 18.9199 169.925C18.9199 169.658 19.1362 169.441 19.403 169.441C19.6698 169.441 19.8861 169.658 19.8861 169.925Z" fill="#4C4C4C"/>
<path d="M35.3432 169.925C35.3432 170.191 35.1269 170.408 34.8601 170.408C34.5933 170.408 34.377 170.191 34.377 169.925C34.377 169.658 34.5932 169.441 34.8601 169.441C35.1268 169.441 35.3432 169.658 35.3432 169.925Z" fill="#4C4C4C"/>
<path d="M50.8061 169.925C50.8061 170.191 50.5899 170.408 50.323 170.408C50.0561 170.408 49.8398 170.191 49.8398 169.925C49.8398 169.658 50.0561 169.441 50.323 169.441C50.5899 169.441 50.8061 169.658 50.8061 169.925Z" fill="#4C4C4C"/>
<path d="M66.2669 169.925C66.2669 170.191 66.0506 170.408 65.7838 170.408C65.5171 170.408 65.3008 170.191 65.3008 169.925C65.3008 169.658 65.5171 169.441 65.7838 169.441C66.0506 169.441 66.2669 169.658 66.2669 169.925Z" fill="#4C4C4C"/>
<path d="M81.726 169.925C81.726 170.191 81.5097 170.408 81.2429 170.408C80.9761 170.408 80.7598 170.191 80.7598 169.925C80.7598 169.658 80.9761 169.441 81.2429 169.441C81.5097 169.441 81.726 169.658 81.726 169.925Z" fill="#4C4C4C"/>
<path d="M97.185 169.925C97.185 170.191 96.9688 170.408 96.7019 170.408C96.435 170.408 96.2188 170.191 96.2188 169.925C96.2188 169.658 96.435 169.441 96.7019 169.441C96.9687 169.441 97.185 169.658 97.185 169.925Z" fill="#4C4C4C"/>
<path d="M112.646 169.925C112.646 170.191 112.43 170.408 112.163 170.408C111.896 170.408 111.68 170.191 111.68 169.925C111.68 169.658 111.896 169.441 112.163 169.441C112.43 169.441 112.646 169.658 112.646 169.925Z" fill="#4C4C4C"/>
<path d="M128.107 169.925C128.107 170.191 127.891 170.408 127.624 170.408C127.357 170.408 127.141 170.191 127.141 169.925C127.141 169.658 127.357 169.441 127.624 169.441C127.891 169.441 128.107 169.658 128.107 169.925Z" fill="#4C4C4C"/>
<path d="M143.566 169.925C143.566 170.191 143.35 170.408 143.083 170.408C142.816 170.408 142.6 170.191 142.6 169.925C142.6 169.658 142.816 169.441 143.083 169.441C143.35 169.441 143.566 169.658 143.566 169.925Z" fill="#4C4C4C"/>
<path d="M159.025 169.925C159.025 170.191 158.809 170.408 158.542 170.408C158.275 170.408 158.059 170.191 158.059 169.925C158.059 169.658 158.275 169.441 158.542 169.441C158.809 169.441 159.025 169.658 159.025 169.925Z" fill="#4C4C4C"/>
<path d="M174.486 169.925C174.486 170.191 174.269 170.408 174.003 170.408C173.736 170.408 173.52 170.191 173.52 169.925C173.52 169.658 173.736 169.441 174.003 169.441C174.269 169.441 174.486 169.658 174.486 169.925Z" fill="#4C4C4C"/>
<path d="M189.947 169.925C189.947 170.191 189.73 170.408 189.464 170.408C189.197 170.408 188.98 170.191 188.98 169.925C188.98 169.658 189.197 169.441 189.464 169.441C189.73 169.441 189.947 169.658 189.947 169.925Z" fill="#4C4C4C"/>
<path d="M205.406 169.925C205.406 170.191 205.189 170.408 204.923 170.408C204.656 170.408 204.439 170.191 204.439 169.925C204.439 169.658 204.656 169.441 204.923 169.441C205.189 169.441 205.406 169.658 205.406 169.925Z" fill="#4C4C4C"/>
<path d="M220.863 169.925C220.863 170.191 220.646 170.408 220.38 170.408C220.113 170.408 219.896 170.191 219.896 169.925C219.896 169.658 220.113 169.441 220.38 169.441C220.646 169.441 220.863 169.658 220.863 169.925Z" fill="#4C4C4C"/>
<path d="M236.327 169.925C236.327 170.191 236.111 170.408 235.844 170.408C235.578 170.408 235.361 170.191 235.361 169.925C235.361 169.658 235.578 169.441 235.844 169.441C236.111 169.441 236.327 169.658 236.327 169.925Z" fill="#4C4C4C"/>
<path d="M251.783 169.925C251.783 170.191 251.566 170.408 251.3 170.408C251.033 170.408 250.816 170.191 250.816 169.925C250.816 169.658 251.033 169.441 251.3 169.441C251.566 169.441 251.783 169.658 251.783 169.925Z" fill="#4C4C4C"/>
<path d="M267.246 169.925C267.246 170.191 267.029 170.408 266.762 170.408C266.496 170.408 266.279 170.191 266.279 169.925C266.279 169.658 266.496 169.441 266.762 169.441C267.029 169.441 267.246 169.658 267.246 169.925Z" fill="#4C4C4C"/>
<path d="M282.704 169.925C282.704 170.191 282.488 170.408 282.221 170.408C281.955 170.408 281.738 170.191 281.738 169.925C281.738 169.658 281.955 169.441 282.221 169.441C282.488 169.441 282.704 169.658 282.704 169.925Z" fill="#4C4C4C"/>
<path d="M298.162 169.925C298.162 170.191 297.945 170.408 297.678 170.408C297.412 170.408 297.195 170.191 297.195 169.925C297.195 169.658 297.412 169.441 297.678 169.441C297.945 169.441 298.162 169.658 298.162 169.925Z" fill="#4C4C4C"/>
<path d="M313.62 169.925C313.62 170.191 313.404 170.408 313.137 170.408C312.871 170.408 312.654 170.191 312.654 169.925C312.654 169.658 312.871 169.441 313.137 169.441C313.404 169.441 313.62 169.658 313.62 169.925Z" fill="#4C4C4C"/>
<path d="M329.085 169.925C329.085 170.191 328.869 170.408 328.602 170.408C328.335 170.408 328.119 170.191 328.119 169.925C328.119 169.658 328.335 169.441 328.602 169.441C328.869 169.441 329.085 169.658 329.085 169.925Z" fill="#4C4C4C"/>
<path d="M4.42134 185.38C4.42134 185.647 4.20514 185.863 3.93821 185.863C3.67138 185.863 3.45508 185.647 3.45508 185.38C3.45508 185.113 3.67138 184.897 3.93821 184.897C4.20514 184.897 4.42134 185.113 4.42134 185.38Z" fill="#4C4C4C"/>
<path d="M19.8861 185.38C19.8861 185.647 19.6698 185.863 19.403 185.863C19.1362 185.863 18.9199 185.647 18.9199 185.38C18.9199 185.113 19.1362 184.897 19.403 184.897C19.6698 184.897 19.8861 185.113 19.8861 185.38Z" fill="#4C4C4C"/>
<path d="M35.3432 185.38C35.3432 185.647 35.1269 185.863 34.8601 185.863C34.5933 185.863 34.377 185.647 34.377 185.38C34.377 185.113 34.5932 184.897 34.8601 184.897C35.1268 184.897 35.3432 185.113 35.3432 185.38Z" fill="#4C4C4C"/>
<path d="M50.8061 185.38C50.8061 185.647 50.5899 185.863 50.323 185.863C50.0561 185.863 49.8398 185.647 49.8398 185.38C49.8398 185.113 50.0561 184.897 50.323 184.897C50.5899 184.897 50.8061 185.113 50.8061 185.38Z" fill="#4C4C4C"/>
<path d="M66.2669 185.38C66.2669 185.647 66.0506 185.863 65.7838 185.863C65.5171 185.863 65.3008 185.647 65.3008 185.38C65.3008 185.113 65.5171 184.897 65.7838 184.897C66.0506 184.897 66.2669 185.113 66.2669 185.38Z" fill="#4C4C4C"/>
<path d="M81.726 185.38C81.726 185.647 81.5097 185.863 81.2429 185.863C80.9761 185.863 80.7598 185.647 80.7598 185.38C80.7598 185.113 80.9761 184.897 81.2429 184.897C81.5097 184.897 81.726 185.113 81.726 185.38Z" fill="#4C4C4C"/>
<path d="M97.185 185.38C97.185 185.647 96.9688 185.863 96.7019 185.863C96.435 185.863 96.2188 185.647 96.2188 185.38C96.2188 185.113 96.435 184.897 96.7019 184.897C96.9687 184.897 97.185 185.113 97.185 185.38Z" fill="#4C4C4C"/>
<path d="M112.646 185.38C112.646 185.647 112.43 185.863 112.163 185.863C111.896 185.863 111.68 185.647 111.68 185.38C111.68 185.113 111.896 184.897 112.163 184.897C112.43 184.897 112.646 185.113 112.646 185.38Z" fill="#4C4C4C"/>
<path d="M128.107 185.38C128.107 185.647 127.891 185.863 127.624 185.863C127.357 185.863 127.141 185.647 127.141 185.38C127.141 185.113 127.357 184.897 127.624 184.897C127.891 184.897 128.107 185.113 128.107 185.38Z" fill="#4C4C4C"/>
<path d="M143.566 185.38C143.566 185.647 143.35 185.863 143.083 185.863C142.816 185.863 142.6 185.647 142.6 185.38C142.6 185.113 142.816 184.897 143.083 184.897C143.35 184.897 143.566 185.113 143.566 185.38Z" fill="#4C4C4C"/>
<path d="M159.025 185.38C159.025 185.647 158.809 185.863 158.542 185.863C158.275 185.863 158.059 185.647 158.059 185.38C158.059 185.113 158.275 184.897 158.542 184.897C158.809 184.897 159.025 185.113 159.025 185.38Z" fill="#4C4C4C"/>
<path d="M174.486 185.38C174.486 185.647 174.269 185.863 174.003 185.863C173.736 185.863 173.52 185.647 173.52 185.38C173.52 185.113 173.736 184.897 174.003 184.897C174.269 184.897 174.486 185.113 174.486 185.38Z" fill="#4C4C4C"/>
<path d="M189.947 185.38C189.947 185.647 189.73 185.863 189.464 185.863C189.197 185.863 188.98 185.647 188.98 185.38C188.98 185.113 189.197 184.897 189.464 184.897C189.73 184.897 189.947 185.113 189.947 185.38Z" fill="#4C4C4C"/>
<path d="M205.406 185.38C205.406 185.647 205.189 185.863 204.923 185.863C204.656 185.863 204.439 185.647 204.439 185.38C204.439 185.113 204.656 184.897 204.923 184.897C205.189 184.897 205.406 185.113 205.406 185.38Z" fill="#4C4C4C"/>
<path d="M220.863 185.38C220.863 185.647 220.646 185.863 220.38 185.863C220.113 185.863 219.896 185.647 219.896 185.38C219.896 185.113 220.113 184.897 220.38 184.897C220.646 184.897 220.863 185.113 220.863 185.38Z" fill="#4C4C4C"/>
<path d="M236.327 185.38C236.327 185.647 236.111 185.863 235.844 185.863C235.578 185.863 235.361 185.647 235.361 185.38C235.361 185.113 235.578 184.897 235.844 184.897C236.111 184.897 236.327 185.113 236.327 185.38Z" fill="#4C4C4C"/>
<path d="M251.783 185.38C251.783 185.647 251.566 185.863 251.3 185.863C251.033 185.863 250.816 185.647 250.816 185.38C250.816 185.113 251.033 184.897 251.3 184.897C251.566 184.897 251.783 185.113 251.783 185.38Z" fill="#4C4C4C"/>
<path d="M267.246 185.38C267.246 185.647 267.029 185.863 266.762 185.863C266.496 185.863 266.279 185.647 266.279 185.38C266.279 185.113 266.496 184.897 266.762 184.897C267.029 184.897 267.246 185.113 267.246 185.38Z" fill="#4C4C4C"/>
<path d="M282.704 185.38C282.704 185.647 282.488 185.863 282.221 185.863C281.955 185.863 281.738 185.647 281.738 185.38C281.738 185.113 281.955 184.897 282.221 184.897C282.488 184.897 282.704 185.113 282.704 185.38Z" fill="#4C4C4C"/>
<path d="M298.162 185.38C298.162 185.647 297.945 185.863 297.678 185.863C297.412 185.863 297.195 185.647 297.195 185.38C297.195 185.113 297.412 184.897 297.678 184.897C297.945 184.897 298.162 185.113 298.162 185.38Z" fill="#4C4C4C"/>
<path d="M313.62 185.38C313.62 185.647 313.404 185.863 313.137 185.863C312.871 185.863 312.654 185.647 312.654 185.38C312.654 185.113 312.871 184.897 313.137 184.897C313.404 184.897 313.62 185.113 313.62 185.38Z" fill="#4C4C4C"/>
<path d="M329.085 185.38C329.085 185.647 328.869 185.863 328.602 185.863C328.335 185.863 328.119 185.647 328.119 185.38C328.119 185.113 328.335 184.897 328.602 184.897C328.869 184.897 329.085 185.113 329.085 185.38Z" fill="#4C4C4C"/>
</g>
<rect x="211.5" y="55.5" width="109" height="130" fill="white" stroke="#FF5E2D"/>
<rect x="318.5" y="52.5" width="5" height="5" fill="white" stroke="#FF5E2D"/>
<rect x="318.5" y="182.5" width="5" height="5" fill="white" stroke="#FF5E2D"/>
<rect x="209.5" y="182.5" width="5" height="5" fill="white" stroke="#FF5E2D"/>
<rect x="209.5" y="52.5" width="5" height="5" fill="white" stroke="#FF5E2D"/>
<g filter="url(#filter0_d_222_9346)">
<path d="M32.2848 59.6143C32.2879 58.6702 33.0539 57.9065 33.9979 57.9061L89.6627 57.8869C90.1384 57.8867 90.5927 58.0843 90.917 58.4323L105.227 73.7882C105.522 74.1054 105.687 74.5228 105.687 74.9564L105.687 146.391C105.687 147.34 104.916 148.108 103.967 148.105L33.7139 147.878C32.7674 147.875 32.0027 147.105 32.0057 146.159L32.2848 59.6143Z" fill="#FF5E2D"/>
</g>
<g filter="url(#filter1_d_222_9346)">
<path d="M89.8501 75.0655C89.3609 75.0825 88.9569 74.6868 88.9637 74.1974L89.179 58.5776C89.1894 57.8243 90.097 57.4501 90.6352 57.9772L106.032 73.0559C106.57 73.583 106.215 74.4982 105.462 74.5243L89.8501 75.0655Z" fill="#FFC8B7"/>
</g>
<path d="M46.1475 115.129V97.6497H52.1367C56.0953 97.6497 58.5886 99.7575 58.5886 103.176C58.5886 106.698 56.0695 108.754 52.1624 108.754H48.5124V115.129H46.1475ZM52.111 99.5776H48.5124V106.826H52.0339C54.6301 106.826 56.1467 105.438 56.1467 103.202C56.1467 100.991 54.6044 99.5776 52.111 99.5776ZM61.6105 115.129V97.6497H67.9082C71.5839 97.6497 73.9231 99.5519 73.9231 102.585C73.9231 104.59 72.9463 106.004 71.3012 106.749C72.4322 107.263 73.0234 108.214 73.4604 109.937L74.7713 115.129H72.278L71.1727 110.399C70.6586 108.214 69.7846 107.803 67.6768 107.803H63.9753V115.129H61.6105ZM67.8568 99.5776H63.9753V105.875H67.8053C70.1188 105.875 71.4811 104.641 71.4811 102.714C71.4811 100.786 70.1188 99.5776 67.8568 99.5776ZM77.6006 115.129V97.6497H83.3071C88.7308 97.6497 92.1238 100.94 92.1238 106.415C92.1238 111.89 88.7308 115.129 83.3071 115.129H77.6006ZM83.3071 113.201C87.317 113.201 89.7075 110.682 89.7075 106.415C89.7075 102.097 87.317 99.5776 83.3071 99.5776H79.9655V113.201H83.3071Z" fill="white"/>
<path d="M44.1426 107.418H93.5118V108.703H44.1426V107.418Z" fill="white"/>
<rect x="150.5" y="21.5" width="41" height="73" fill="white" stroke="#FF5E2D"/>
<rect x="189.5" y="18.5" width="5" height="5" fill="white" stroke="#FF5E2D"/>
<rect x="189.5" y="91.5" width="5" height="5" fill="white" stroke="#FF5E2D"/>
<rect x="148.5" y="91.5" width="5" height="5" fill="white" stroke="#FF5E2D"/>
<rect x="148.5" y="18.5" width="5" height="5" fill="white" stroke="#FF5E2D"/>
<path d="M104.99 96.873C105.472 97.4303 106.314 97.492 106.871 97.0106C107.428 96.5293 107.49 95.6874 107.008 95.13C106.527 94.5727 105.685 94.5111 105.128 94.9924C104.571 95.4738 104.509 96.3157 104.99 96.873ZM122.5 96.0015L122.5 95.7515V95.7515L122.5 96.0015ZM127.5 91.0015L127.25 91.0015V91.0015L127.5 91.0015ZM127.5 63.001L127.25 63.001L127.25 63.001L127.5 63.001ZM132.5 58.001L132.5 58.251L132.5 58.251L132.5 58.001ZM148.99 58.873C149.472 59.4303 150.314 59.492 150.871 59.0106C151.428 58.5293 151.49 57.6874 151.008 57.13C150.527 56.5727 149.685 56.5111 149.128 56.9924C148.571 57.4738 148.509 58.3157 148.99 58.873ZM105.999 96.0015L105.999 96.2515L107.374 96.2515L107.374 96.0015L107.374 95.7515L105.999 95.7515L105.999 96.0015ZM110.124 96.0015L110.124 96.2515L112.875 96.2515L112.875 96.0015L112.875 95.7515L110.124 95.7515L110.124 96.0015ZM115.625 96.0015L115.625 96.2515L118.375 96.2515L118.375 96.0015L118.375 95.7515L115.625 95.7515L115.625 96.0015ZM121.125 96.0015L121.125 96.2515L122.5 96.2515L122.5 96.0015L122.5 95.7515L121.125 95.7515L121.125 96.0015ZM122.5 96.0015L122.5 96.2515C123.211 96.2515 123.89 96.1099 124.509 95.8531L124.414 95.6221L124.318 95.3912C123.758 95.6233 123.144 95.7515 122.5 95.7515L122.5 96.0015ZM127.12 92.9155L127.351 93.0112C127.608 92.3919 127.75 91.7129 127.75 91.0015L127.5 91.0015L127.25 91.0015C127.25 91.6461 127.121 92.26 126.889 92.8197L127.12 92.9155ZM127.5 91.0015L127.75 91.0015L127.75 89.6015L127.5 89.6015L127.25 89.6015L127.25 91.0015L127.5 91.0015ZM127.5 86.8015L127.75 86.8015L127.75 84.0014L127.5 84.0014L127.25 84.0014L127.25 86.8015L127.5 86.8015ZM127.5 81.2013L127.75 81.2013L127.75 78.4013L127.5 78.4013L127.25 78.4013L127.25 81.2013L127.5 81.2013ZM127.5 75.6012L127.75 75.6012L127.75 72.8012L127.5 72.8012L127.25 72.8012L127.25 75.6012L127.5 75.6012ZM127.5 70.0011L127.75 70.0011L127.75 67.201L127.5 67.201L127.25 67.201L127.25 70.0011L127.5 70.0011ZM127.5 64.401L127.75 64.401L127.75 63.001L127.5 63.001L127.25 63.001L127.25 64.401L127.5 64.401ZM127.5 63.001L127.75 63.001C127.75 62.3564 127.878 61.7425 128.11 61.1827L127.879 61.087L127.648 60.9912C127.391 61.6106 127.25 62.2895 127.25 63.001L127.5 63.001ZM130.586 58.3803L130.682 58.6112C131.241 58.3791 131.855 58.2509 132.5 58.251L132.5 58.001L132.5 57.751C131.788 57.7509 131.11 57.8925 130.49 58.1494L130.586 58.3803ZM132.5 58.001L132.5 58.251L133.958 58.251L133.958 58.001L133.958 57.751L132.5 57.751L132.5 58.001ZM136.875 58.0011L136.875 58.2511L139.791 58.2512L139.791 58.0012L139.791 57.7512L136.875 57.7511L136.875 58.0011ZM142.708 58.0013L142.708 58.2513L145.624 58.2514L145.625 58.0014L145.625 57.7514L142.708 57.7513L142.708 58.0013ZM148.541 58.0015L148.541 58.2515L149.999 58.2515L149.999 58.0015L149.999 57.7515L148.541 57.7515L148.541 58.0015ZM104.99 96.873C105.472 97.4303 106.314 97.492 106.871 97.0106C107.428 96.5293 107.49 95.6874 107.008 95.13C106.527 94.5727 105.685 94.5111 105.128 94.9924C104.571 95.4738 104.509 96.3157 104.99 96.873ZM122.5 96.0015L122.5 95.7515V95.7515L122.5 96.0015ZM127.5 91.0015L127.25 91.0015V91.0015L127.5 91.0015ZM127.5 63.001L127.25 63.001L127.25 63.001L127.5 63.001ZM132.5 58.001L132.5 58.251L132.5 58.251L132.5 58.001ZM148.99 58.873C149.472 59.4303 150.314 59.492 150.871 59.0106C151.428 58.5293 151.49 57.6874 151.008 57.13C150.527 56.5727 149.685 56.5111 149.128 56.9924C148.571 57.4738 148.509 58.3157 148.99 58.873ZM105.999 96.0015L105.999 96.2515L107.374 96.2515L107.374 96.0015L107.374 95.7515L105.999 95.7515L105.999 96.0015ZM110.124 96.0015L110.124 96.2515L112.875 96.2515L112.875 96.0015L112.875 95.7515L110.124 95.7515L110.124 96.0015ZM115.625 96.0015L115.625 96.2515L118.375 96.2515L118.375 96.0015L118.375 95.7515L115.625 95.7515L115.625 96.0015ZM121.125 96.0015L121.125 96.2515L122.5 96.2515L122.5 96.0015L122.5 95.7515L121.125 95.7515L121.125 96.0015ZM122.5 96.0015L122.5 96.2515C123.211 96.2515 123.89 96.1099 124.509 95.8531L124.414 95.6221L124.318 95.3912C123.758 95.6233 123.144 95.7515 122.5 95.7515L122.5 96.0015ZM127.12 92.9155L127.351 93.0112C127.608 92.3919 127.75 91.7129 127.75 91.0015L127.5 91.0015L127.25 91.0015C127.25 91.6461 127.121 92.26 126.889 92.8197L127.12 92.9155ZM127.5 91.0015L127.75 91.0015L127.75 89.6015L127.5 89.6015L127.25 89.6015L127.25 91.0015L127.5 91.0015ZM127.5 86.8015L127.75 86.8015L127.75 84.0014L127.5 84.0014L127.25 84.0014L127.25 86.8015L127.5 86.8015ZM127.5 81.2013L127.75 81.2013L127.75 78.4013L127.5 78.4013L127.25 78.4013L127.25 81.2013L127.5 81.2013ZM127.5 75.6012L127.75 75.6012L127.75 72.8012L127.5 72.8012L127.25 72.8012L127.25 75.6012L127.5 75.6012ZM127.5 70.0011L127.75 70.0011L127.75 67.201L127.5 67.201L127.25 67.201L127.25 70.0011L127.5 70.0011ZM127.5 64.401L127.75 64.401L127.75 63.001L127.5 63.001L127.25 63.001L127.25 64.401L127.5 64.401ZM127.5 63.001L127.75 63.001C127.75 62.3564 127.878 61.7425 128.11 61.1827L127.879 61.087L127.648 60.9912C127.391 61.6106 127.25 62.2895 127.25 63.001L127.5 63.001ZM130.586 58.3803L130.682 58.6112C131.241 58.3791 131.855 58.2509 132.5 58.251L132.5 58.001L132.5 57.751C131.788 57.7509 131.11 57.8925 130.49 58.1494L130.586 58.3803ZM132.5 58.001L132.5 58.251L133.958 58.251L133.958 58.001L133.958 57.751L132.5 57.751L132.5 58.001ZM136.875 58.0011L136.875 58.2511L139.791 58.2512L139.791 58.0012L139.791 57.7512L136.875 57.7511L136.875 58.0011ZM142.708 58.0013L142.708 58.2513L145.624 58.2514L145.625 58.0014L145.625 57.7514L142.708 57.7513L142.708 58.0013ZM148.541 58.0015L148.541 58.2515L149.999 58.2515L149.999 58.0015L149.999 57.7515L148.541 57.7515L148.541 58.0015Z" fill="#4C4C4C"/>
<path d="M104.841 95.3389C104.476 95.9782 104.698 96.7927 105.337 97.158C105.977 97.5234 106.791 97.3013 107.156 96.6619C107.522 96.0225 107.3 95.2081 106.66 94.8427C106.021 94.4774 105.206 94.6995 104.841 95.3389ZM122.999 96.0004L122.999 96.2504V96.2504L122.999 96.0004ZM127.999 101L128.249 101V101L127.999 101ZM127.999 151L127.749 151V151L127.999 151ZM132.999 156L132.999 156.25V156.25L132.999 156ZM209.841 155.339C209.476 155.978 209.698 156.793 210.337 157.158C210.977 157.523 211.791 157.301 212.156 156.662C212.522 156.023 212.3 155.208 211.66 154.843C211.021 154.477 210.206 154.7 209.841 155.339ZM105.999 96.0004L105.999 96.2504L107.415 96.2504L107.415 96.0004L107.415 95.7504L105.999 95.7504L105.999 96.0004ZM110.249 96.0004L110.249 96.2504L113.082 96.2504L113.082 96.0004L113.082 95.7504L110.249 95.7504L110.249 96.0004ZM115.915 96.0004L115.915 96.2504L118.749 96.2504L118.749 96.0004L118.749 95.7504L115.915 95.7504L115.915 96.0004ZM121.582 96.0004L121.582 96.2504L122.999 96.2504L122.999 96.0004L122.999 95.7504L121.582 95.7504L121.582 96.0004ZM122.999 96.0004L122.999 96.2504C123.643 96.2504 124.257 96.3786 124.817 96.6107L124.913 96.3798L125.008 96.1489C124.389 95.892 123.71 95.7504 122.999 95.7504L122.999 96.0004ZM127.619 99.0865L127.388 99.1822C127.621 99.742 127.749 100.356 127.749 101L127.999 101L128.249 101C128.249 100.289 128.107 99.6101 127.85 98.9907L127.619 99.0865ZM127.999 101L127.749 101L127.749 102.563L127.999 102.563L128.249 102.563L128.249 101L127.999 101ZM127.999 105.688L127.749 105.688L127.749 108.813L127.999 108.813L128.249 108.813L128.249 105.688L127.999 105.688ZM127.999 111.938L127.749 111.938L127.749 115.063L127.999 115.063L128.249 115.063L128.249 111.938L127.999 111.938ZM127.999 118.188L127.749 118.188L127.749 121.313L127.999 121.313L128.249 121.313L128.249 118.188L127.999 118.188ZM127.999 124.438L127.749 124.438L127.749 127.563L127.999 127.563L128.249 127.563L128.249 124.438L127.999 124.438ZM127.999 130.688L127.749 130.688L127.749 133.813L127.999 133.813L128.249 133.813L128.249 130.688L127.999 130.688ZM127.999 136.938L127.749 136.938L127.749 140.063L127.999 140.063L128.249 140.063L128.249 136.938L127.999 136.938ZM127.999 143.188L127.749 143.188L127.749 146.313L127.999 146.313L128.249 146.313L128.249 143.188L127.999 143.188ZM127.999 149.438L127.749 149.438L127.749 151L127.999 151L128.249 151L128.249 149.438L127.999 149.438ZM127.999 151L127.749 151C127.749 151.712 127.89 152.391 128.147 153.01L128.378 152.914L128.609 152.819C128.377 152.259 128.249 151.645 128.249 151L127.999 151ZM131.085 155.621L130.989 155.852C131.608 156.109 132.287 156.25 132.999 156.25L132.999 156L132.999 155.75C132.354 155.75 131.74 155.622 131.181 155.39L131.085 155.621ZM132.999 156L132.999 156.25L134.499 156.25L134.499 156L134.499 155.75L132.999 155.75L132.999 156ZM137.499 156L137.499 156.25L140.499 156.25L140.499 156L140.499 155.75L137.499 155.75L137.499 156ZM143.499 156L143.499 156.25L146.499 156.25L146.499 156L146.499 155.75L143.499 155.75L143.499 156ZM149.499 156L149.499 156.25L152.499 156.25L152.499 156L152.499 155.75L149.499 155.75L149.499 156ZM155.499 156L155.499 156.25L158.499 156.25L158.499 156L158.499 155.75L155.499 155.75L155.499 156ZM161.499 156L161.499 156.25L164.499 156.25L164.499 156L164.499 155.75L161.499 155.75L161.499 156ZM167.499 156L167.499 156.25L170.499 156.25L170.499 156L170.499 155.75L167.499 155.75L167.499 156ZM173.499 156L173.499 156.25L176.499 156.25L176.499 156L176.499 155.75L173.499 155.75L173.499 156ZM179.499 156L179.499 156.25L182.499 156.25L182.499 156L182.499 155.75L179.499 155.75L179.499 156ZM185.499 156L185.499 156.25L188.499 156.25L188.499 156L188.499 155.75L185.499 155.75L185.499 156ZM191.499 156L191.499 156.25L194.499 156.25L194.499 156L194.499 155.75L191.499 155.75L191.499 156ZM197.499 156L197.499 156.25L200.499 156.25L200.499 156L200.499 155.75L197.499 155.75L197.499 156ZM203.499 156L203.499 156.25L206.499 156.25L206.499 156L206.499 155.75L203.499 155.75L203.499 156ZM209.499 156L209.499 156.25L210.999 156.25L210.999 156L210.999 155.75L209.499 155.75L209.499 156ZM104.841 95.3389C104.476 95.9782 104.698 96.7927 105.337 97.158C105.977 97.5234 106.791 97.3013 107.156 96.6619C107.522 96.0225 107.3 95.2081 106.66 94.8427C106.021 94.4774 105.206 94.6995 104.841 95.3389ZM122.999 96.0004L122.999 96.2504V96.2504L122.999 96.0004ZM127.999 101L128.249 101V101L127.999 101ZM127.999 151L127.749 151V151L127.999 151ZM132.999 156L132.999 156.25V156.25L132.999 156ZM209.841 155.339C209.476 155.978 209.698 156.793 210.337 157.158C210.977 157.523 211.791 157.301 212.156 156.662C212.522 156.023 212.3 155.208 211.66 154.843C211.021 154.477 210.206 154.7 209.841 155.339ZM105.999 96.0004L105.999 96.2504L107.415 96.2504L107.415 96.0004L107.415 95.7504L105.999 95.7504L105.999 96.0004ZM110.249 96.0004L110.249 96.2504L113.082 96.2504L113.082 96.0004L113.082 95.7504L110.249 95.7504L110.249 96.0004ZM115.915 96.0004L115.915 96.2504L118.749 96.2504L118.749 96.0004L118.749 95.7504L115.915 95.7504L115.915 96.0004ZM121.582 96.0004L121.582 96.2504L122.999 96.2504L122.999 96.0004L122.999 95.7504L121.582 95.7504L121.582 96.0004ZM122.999 96.0004L122.999 96.2504C123.643 96.2504 124.257 96.3786 124.817 96.6107L124.913 96.3798L125.008 96.1489C124.389 95.892 123.71 95.7504 122.999 95.7504L122.999 96.0004ZM127.619 99.0865L127.388 99.1822C127.621 99.742 127.749 100.356 127.749 101L127.999 101L128.249 101C128.249 100.289 128.107 99.6101 127.85 98.9907L127.619 99.0865ZM127.999 101L127.749 101L127.749 102.563L127.999 102.563L128.249 102.563L128.249 101L127.999 101ZM127.999 105.688L127.749 105.688L127.749 108.813L127.999 108.813L128.249 108.813L128.249 105.688L127.999 105.688ZM127.999 111.938L127.749 111.938L127.749 115.063L127.999 115.063L128.249 115.063L128.249 111.938L127.999 111.938ZM127.999 118.188L127.749 118.188L127.749 121.313L127.999 121.313L128.249 121.313L128.249 118.188L127.999 118.188ZM127.999 124.438L127.749 124.438L127.749 127.563L127.999 127.563L128.249 127.563L128.249 124.438L127.999 124.438ZM127.999 130.688L127.749 130.688L127.749 133.813L127.999 133.813L128.249 133.813L128.249 130.688L127.999 130.688ZM127.999 136.938L127.749 136.938L127.749 140.063L127.999 140.063L128.249 140.063L128.249 136.938L127.999 136.938ZM127.999 143.188L127.749 143.188L127.749 146.313L127.999 146.313L128.249 146.313L128.249 143.188L127.999 143.188ZM127.999 149.438L127.749 149.438L127.749 151L127.999 151L128.249 151L128.249 149.438L127.999 149.438ZM127.999 151L127.749 151C127.749 151.712 127.89 152.391 128.147 153.01L128.378 152.914L128.609 152.819C128.377 152.259 128.249 151.645 128.249 151L127.999 151ZM131.085 155.621L130.989 155.852C131.608 156.109 132.287 156.25 132.999 156.25L132.999 156L132.999 155.75C132.354 155.75 131.74 155.622 131.181 155.39L131.085 155.621ZM132.999 156L132.999 156.25L134.499 156.25L134.499 156L134.499 155.75L132.999 155.75L132.999 156ZM137.499 156L137.499 156.25L140.499 156.25L140.499 156L140.499 155.75L137.499 155.75L137.499 156ZM143.499 156L143.499 156.25L146.499 156.25L146.499 156L146.499 155.75L143.499 155.75L143.499 156ZM149.499 156L149.499 156.25L152.499 156.25L152.499 156L152.499 155.75L149.499 155.75L149.499 156ZM155.499 156L155.499 156.25L158.499 156.25L158.499 156L158.499 155.75L155.499 155.75L155.499 156ZM161.499 156L161.499 156.25L164.499 156.25L164.499 156L164.499 155.75L161.499 155.75L161.499 156ZM167.499 156L167.499 156.25L170.499 156.25L170.499 156L170.499 155.75L167.499 155.75L167.499 156ZM173.499 156L173.499 156.25L176.499 156.25L176.499 156L176.499 155.75L173.499 155.75L173.499 156ZM179.499 156L179.499 156.25L182.499 156.25L182.499 156L182.499 155.75L179.499 155.75L179.499 156ZM185.499 156L185.499 156.25L188.499 156.25L188.499 156L188.499 155.75L185.499 155.75L185.499 156ZM191.499 156L191.499 156.25L194.499 156.25L194.499 156L194.499 155.75L191.499 155.75L191.499 156ZM197.499 156L197.499 156.25L200.499 156.25L200.499 156L200.499 155.75L197.499 155.75L197.499 156ZM203.499 156L203.499 156.25L206.499 156.25L206.499 156L206.499 155.75L203.499 155.75L203.499 156ZM209.499 156L209.499 156.25L210.999 156.25L210.999 156L210.999 155.75L209.499 155.75L209.499 156Z" fill="#4C4C4C"/>
<defs>
<filter id="filter0_d_222_9346" x="28.0059" y="57.887" width="81.6816" height="98.2178" filterUnits="userSpaceOnUse" color-interpolation-filters="sRGB">
<feFlood flood-opacity="0" result="BackgroundImageFix"/>
<feColorMatrix in="SourceAlpha" type="matrix" values="0 0 0 0 0 0 0 0 0 0 0 0 0 0 0 0 0 0 127 0" result="hardAlpha"/>
<feOffset dy="4"/>
<feGaussianBlur stdDeviation="2"/>
<feComposite in2="hardAlpha" operator="out"/>
<feColorMatrix type="matrix" values="0 0 0 0 1 0 0 0 0 0.368627 0 0 0 0 0.176471 0 0 0 0.2 0"/>
<feBlend mode="normal" in2="BackgroundImageFix" result="effect1_dropShadow_222_9346"/>
<feBlend mode="normal" in="SourceGraphic" in2="effect1_dropShadow_222_9346" result="shape"/>
</filter>
<filter id="filter1_d_222_9346" x="85.5356" y="54.3037" width="24.1827" height="24.1895" filterUnits="userSpaceOnUse" color-interpolation-filters="sRGB">
<feFlood flood-opacity="0" result="BackgroundImageFix"/>
<feColorMatrix in="SourceAlpha" type="matrix" values="0 0 0 0 0 0 0 0 0 0 0 0 0 0 0 0 0 0 127 0" result="hardAlpha"/>
<feOffset/>
<feGaussianBlur stdDeviation="1.71365"/>
<feComposite in2="hardAlpha" operator="out"/>
<feColorMatrix type="matrix" values="0 0 0 0 0 0 0 0 0 0 0 0 0 0 0 0 0 0 0.25 0"/>
<feBlend mode="normal" in2="BackgroundImageFix" result="effect1_dropShadow_222_9346"/>
<feBlend mode="normal" in="SourceGraphic" in2="effect1_dropShadow_222_9346" result="shape"/>
</filter>
</defs>
</svg>
