<svg width="1440" height="839" viewBox="0 0 1440 839" fill="none" xmlns="http://www.w3.org/2000/svg">
<g opacity="0.48">
<rect width="1450.23" height="1460.36" transform="translate(-7.24609 -324.414)" fill="white"/>
<path d="M57.0318 16.3368C57.0318 17.297 56.2534 18.0758 55.2932 18.0758C54.3331 18.0758 53.5547 17.2974 53.5547 16.3368C53.5547 15.377 54.3327 14.5986 55.2932 14.5986C56.2531 14.5986 57.0318 15.377 57.0318 16.3368Z" fill="#BDBDBD"/>
<path d="M112.664 16.3368C112.664 17.297 111.886 18.0758 110.925 18.0758C109.965 18.0758 109.187 17.2974 109.187 16.3368C109.187 15.377 109.965 14.5986 110.925 14.5986C111.886 14.5986 112.664 15.377 112.664 16.3368Z" fill="#BDBDBD"/>
<path d="M168.297 16.3368C168.297 17.297 167.519 18.0758 166.559 18.0758C165.599 18.0758 164.82 17.2974 164.82 16.3368C164.82 15.377 165.599 14.5986 166.559 14.5986C167.519 14.5986 168.297 15.377 168.297 16.3368Z" fill="#BDBDBD"/>
<path d="M223.93 16.3368C223.93 17.297 223.152 18.0758 222.192 18.0758C221.232 18.0758 220.453 17.2974 220.453 16.3368C220.453 15.377 221.231 14.5986 222.192 14.5986C223.152 14.5986 223.93 15.377 223.93 16.3368Z" fill="#BDBDBD"/>
<path d="M279.562 16.3368C279.562 17.297 278.784 18.0758 277.824 18.0758C276.863 18.0758 276.085 17.2974 276.085 16.3368C276.085 15.377 276.863 14.5986 277.824 14.5986C278.784 14.5986 279.562 15.377 279.562 16.3368Z" fill="#BDBDBD"/>
<path d="M335.195 16.3368C335.195 17.297 334.417 18.0758 333.457 18.0758C332.497 18.0758 331.719 17.2974 331.719 16.3368C331.719 15.377 332.497 14.5986 333.457 14.5986C334.417 14.5986 335.195 15.377 335.195 16.3368Z" fill="#BDBDBD"/>
<path d="M390.829 16.3368C390.829 17.297 390.05 18.0758 389.09 18.0758C388.13 18.0758 387.352 17.2974 387.352 16.3368C387.352 15.377 388.13 14.5986 389.09 14.5986C390.05 14.5986 390.829 15.377 390.829 16.3368Z" fill="#BDBDBD"/>
<path d="M446.462 16.3368C446.462 17.297 445.683 18.0758 444.723 18.0758C443.763 18.0758 442.984 17.2974 442.984 16.3368C442.984 15.377 443.763 14.5986 444.723 14.5986C445.683 14.5986 446.462 15.377 446.462 16.3368Z" fill="#BDBDBD"/>
<path d="M502.094 16.3368C502.094 17.297 501.316 18.0758 500.355 18.0758C499.396 18.0758 498.617 17.2974 498.617 16.3368C498.617 15.377 499.396 14.5986 500.355 14.5986C501.316 14.5986 502.094 15.377 502.094 16.3368Z" fill="#BDBDBD"/>
<path d="M557.728 16.3368C557.728 17.297 556.95 18.0758 555.99 18.0758C555.029 18.0758 554.251 17.2974 554.251 16.3368C554.251 15.377 555.029 14.5986 555.99 14.5986C556.95 14.5986 557.728 15.377 557.728 16.3368Z" fill="#BDBDBD"/>
<path d="M613.361 16.3368C613.361 17.297 612.583 18.0758 611.622 18.0758C610.662 18.0758 609.884 17.2974 609.884 16.3368C609.884 15.377 610.662 14.5986 611.622 14.5986C612.583 14.5986 613.361 15.377 613.361 16.3368Z" fill="#BDBDBD"/>
<path d="M668.994 16.3368C668.994 17.297 668.215 18.0758 667.255 18.0758C666.295 18.0758 665.517 17.2974 665.517 16.3368C665.517 15.377 666.295 14.5986 667.255 14.5986C668.215 14.5986 668.994 15.377 668.994 16.3368Z" fill="#BDBDBD"/>
<path d="M724.626 16.3368C724.626 17.297 723.847 18.0758 722.887 18.0758C721.927 18.0758 721.148 17.2974 721.148 16.3368C721.148 15.377 721.927 14.5986 722.887 14.5986C723.847 14.5986 724.626 15.377 724.626 16.3368Z" fill="#BDBDBD"/>
<path d="M780.259 16.3368C780.259 17.297 779.481 18.0758 778.521 18.0758C777.561 18.0758 776.782 17.2974 776.782 16.3368C776.782 15.377 777.561 14.5986 778.521 14.5986C779.481 14.5986 780.259 15.377 780.259 16.3368Z" fill="#BDBDBD"/>
<path d="M835.891 16.3368C835.891 17.297 835.113 18.0758 834.153 18.0758C833.192 18.0758 832.414 17.2974 832.414 16.3368C832.414 15.377 833.192 14.5986 834.153 14.5986C835.113 14.5986 835.891 15.377 835.891 16.3368Z" fill="#BDBDBD"/>
<path d="M891.525 16.3368C891.525 17.297 890.747 18.0758 889.786 18.0758C888.826 18.0758 888.048 17.2974 888.048 16.3368C888.048 15.377 888.826 14.5986 889.786 14.5986C890.747 14.5986 891.525 15.377 891.525 16.3368Z" fill="#BDBDBD"/>
<path d="M947.157 16.3368C947.157 17.297 946.379 18.0758 945.419 18.0758C944.459 18.0758 943.681 17.2974 943.681 16.3368C943.681 15.377 944.459 14.5986 945.419 14.5986C946.379 14.5986 947.157 15.377 947.157 16.3368Z" fill="#BDBDBD"/>
<path d="M1002.79 16.3368C1002.79 17.297 1002.01 18.0758 1001.05 18.0758C1000.09 18.0758 999.312 17.2974 999.312 16.3368C999.312 15.377 1000.09 14.5986 1001.05 14.5986C1002.01 14.5986 1002.79 15.377 1002.79 16.3368Z" fill="#BDBDBD"/>
<path d="M1058.42 16.3368C1058.42 17.297 1057.65 18.0758 1056.68 18.0758C1055.72 18.0758 1054.95 17.2974 1054.95 16.3368C1054.95 15.377 1055.73 14.5986 1056.68 14.5986C1057.65 14.5986 1058.42 15.377 1058.42 16.3368Z" fill="#BDBDBD"/>
<path d="M1114.06 16.3368C1114.06 17.297 1113.28 18.0758 1112.32 18.0758C1111.36 18.0758 1110.58 17.2974 1110.58 16.3368C1110.58 15.377 1111.36 14.5986 1112.32 14.5986C1113.28 14.5986 1114.06 15.377 1114.06 16.3368Z" fill="#BDBDBD"/>
<path d="M1169.69 16.3368C1169.69 17.297 1168.91 18.0758 1167.95 18.0758C1166.99 18.0758 1166.21 17.2974 1166.21 16.3368C1166.21 15.377 1166.99 14.5986 1167.95 14.5986C1168.91 14.5986 1169.69 15.377 1169.69 16.3368Z" fill="#BDBDBD"/>
<path d="M1225.32 16.3368C1225.32 17.297 1224.54 18.0758 1223.58 18.0758C1222.62 18.0758 1221.84 17.2974 1221.84 16.3368C1221.84 15.377 1222.62 14.5986 1223.58 14.5986C1224.54 14.5986 1225.32 15.377 1225.32 16.3368Z" fill="#BDBDBD"/>
<path d="M1280.96 16.3368C1280.96 17.297 1280.18 18.0758 1279.22 18.0758C1278.26 18.0758 1277.48 17.2974 1277.48 16.3368C1277.48 15.377 1278.26 14.5986 1279.22 14.5986C1280.18 14.5986 1280.96 15.377 1280.96 16.3368Z" fill="#BDBDBD"/>
<path d="M1336.59 16.3368C1336.59 17.297 1335.81 18.0758 1334.85 18.0758C1333.89 18.0758 1333.11 17.2974 1333.11 16.3368C1333.11 15.377 1333.89 14.5986 1334.85 14.5986C1335.81 14.5986 1336.59 15.377 1336.59 16.3368Z" fill="#BDBDBD"/>
<path d="M1392.22 16.3368C1392.22 17.297 1391.44 18.0758 1390.48 18.0758C1389.52 18.0758 1388.74 17.2974 1388.74 16.3368C1388.74 15.377 1389.52 14.5986 1390.48 14.5986C1391.44 14.5986 1392.22 15.377 1392.22 16.3368Z" fill="#BDBDBD"/>
<path d="M57.0318 71.97C57.0318 72.9302 56.2534 73.7085 55.2932 73.7085C54.3331 73.7085 53.5547 72.9302 53.5547 71.97C53.5547 71.0098 54.3327 70.2314 55.2932 70.2314C56.2531 70.2314 57.0318 71.0098 57.0318 71.97Z" fill="#BDBDBD"/>
<path d="M112.664 71.97C112.664 72.9302 111.886 73.7085 110.925 73.7085C109.965 73.7085 109.187 72.9302 109.187 71.97C109.187 71.0098 109.965 70.2314 110.925 70.2314C111.886 70.2314 112.664 71.0098 112.664 71.97Z" fill="#BDBDBD"/>
<path d="M168.297 71.97C168.297 72.9302 167.519 73.7085 166.559 73.7085C165.599 73.7085 164.82 72.9302 164.82 71.97C164.82 71.0098 165.599 70.2314 166.559 70.2314C167.519 70.2314 168.297 71.0098 168.297 71.97Z" fill="#BDBDBD"/>
<path d="M223.93 71.97C223.93 72.9302 223.152 73.7085 222.192 73.7085C221.232 73.7085 220.453 72.9302 220.453 71.97C220.453 71.0098 221.231 70.2314 222.192 70.2314C223.152 70.2314 223.93 71.0098 223.93 71.97Z" fill="#BDBDBD"/>
<path d="M279.562 71.97C279.562 72.9302 278.784 73.7085 277.824 73.7085C276.863 73.7085 276.085 72.9302 276.085 71.97C276.085 71.0098 276.863 70.2314 277.824 70.2314C278.784 70.2314 279.562 71.0098 279.562 71.97Z" fill="#BDBDBD"/>
<path d="M335.195 71.97C335.195 72.9302 334.417 73.7085 333.457 73.7085C332.497 73.7085 331.719 72.9302 331.719 71.97C331.719 71.0098 332.497 70.2314 333.457 70.2314C334.417 70.2314 335.195 71.0098 335.195 71.97Z" fill="#BDBDBD"/>
<path d="M390.828 71.97C390.828 72.9302 390.05 73.7085 389.09 73.7085C388.13 73.7085 387.351 72.9302 387.351 71.97C387.351 71.0098 388.13 70.2314 389.09 70.2314C390.05 70.2314 390.828 71.0098 390.828 71.97Z" fill="#BDBDBD"/>
<path d="M446.462 71.97C446.462 72.9302 445.683 73.7085 444.723 73.7085C443.763 73.7085 442.984 72.9302 442.984 71.97C442.984 71.0098 443.763 70.2314 444.723 70.2314C445.683 70.2314 446.462 71.0098 446.462 71.97Z" fill="#BDBDBD"/>
<path d="M502.095 71.97C502.095 72.9302 501.316 73.7085 500.356 73.7085C499.396 73.7085 498.617 72.9302 498.617 71.97C498.617 71.0098 499.396 70.2314 500.356 70.2314C501.316 70.2314 502.095 71.0098 502.095 71.97Z" fill="#BDBDBD"/>
<path d="M557.728 71.97C557.728 72.9302 556.95 73.7085 555.989 73.7085C555.029 73.7085 554.251 72.9302 554.251 71.97C554.251 71.0098 555.029 70.2314 555.989 70.2314C556.95 70.2314 557.728 71.0098 557.728 71.97Z" fill="#BDBDBD"/>
<path d="M613.361 71.97C613.361 72.9302 612.583 73.7085 611.622 73.7085C610.662 73.7085 609.884 72.9302 609.884 71.97C609.884 71.0098 610.662 70.2314 611.622 70.2314C612.583 70.2314 613.361 71.0098 613.361 71.97Z" fill="#BDBDBD"/>
<path d="M668.994 71.97C668.994 72.9302 668.216 73.7085 667.255 73.7085C666.295 73.7085 665.517 72.9302 665.517 71.97C665.517 71.0098 666.295 70.2314 667.255 70.2314C668.216 70.2314 668.994 71.0098 668.994 71.97Z" fill="#BDBDBD"/>
<path d="M724.626 71.97C724.626 72.9302 723.847 73.7085 722.887 73.7085C721.927 73.7085 721.148 72.9302 721.148 71.97C721.148 71.0098 721.927 70.2314 722.887 70.2314C723.847 70.2314 724.626 71.0098 724.626 71.97Z" fill="#BDBDBD"/>
<path d="M780.259 71.97C780.259 72.9302 779.481 73.7085 778.521 73.7085C777.561 73.7085 776.782 72.9302 776.782 71.97C776.782 71.0098 777.561 70.2314 778.521 70.2314C779.481 70.2314 780.259 71.0098 780.259 71.97Z" fill="#BDBDBD"/>
<path d="M835.891 71.97C835.891 72.9302 835.113 73.7085 834.153 73.7085C833.192 73.7085 832.414 72.9302 832.414 71.97C832.414 71.0098 833.192 70.2314 834.153 70.2314C835.113 70.2314 835.891 71.0098 835.891 71.97Z" fill="#BDBDBD"/>
<path d="M891.525 71.97C891.525 72.9302 890.747 73.7085 889.786 73.7085C888.826 73.7085 888.048 72.9302 888.048 71.97C888.048 71.0098 888.826 70.2314 889.786 70.2314C890.747 70.2314 891.525 71.0098 891.525 71.97Z" fill="#BDBDBD"/>
<path d="M947.157 71.97C947.157 72.9302 946.379 73.7085 945.419 73.7085C944.459 73.7085 943.681 72.9302 943.681 71.97C943.681 71.0098 944.459 70.2314 945.419 70.2314C946.379 70.2314 947.157 71.0098 947.157 71.97Z" fill="#BDBDBD"/>
<path d="M1002.79 71.97C1002.79 72.9302 1002.01 73.7085 1001.05 73.7085C1000.09 73.7085 999.312 72.9302 999.312 71.97C999.312 71.0098 1000.09 70.2314 1001.05 70.2314C1002.01 70.2314 1002.79 71.0098 1002.79 71.97Z" fill="#BDBDBD"/>
<path d="M1058.42 71.97C1058.42 72.9302 1057.65 73.7085 1056.68 73.7085C1055.72 73.7085 1054.95 72.9302 1054.95 71.97C1054.95 71.0098 1055.73 70.2314 1056.68 70.2314C1057.65 70.2314 1058.42 71.0098 1058.42 71.97Z" fill="#BDBDBD"/>
<path d="M1114.06 71.97C1114.06 72.9302 1113.28 73.7085 1112.32 73.7085C1111.36 73.7085 1110.58 72.9302 1110.58 71.97C1110.58 71.0098 1111.36 70.2314 1112.32 70.2314C1113.28 70.2314 1114.06 71.0098 1114.06 71.97Z" fill="#BDBDBD"/>
<path d="M1169.69 71.97C1169.69 72.9302 1168.91 73.7085 1167.95 73.7085C1166.99 73.7085 1166.21 72.9302 1166.21 71.97C1166.21 71.0098 1166.99 70.2314 1167.95 70.2314C1168.91 70.2314 1169.69 71.0098 1169.69 71.97Z" fill="#BDBDBD"/>
<path d="M1225.32 71.97C1225.32 72.9302 1224.54 73.7085 1223.58 73.7085C1222.62 73.7085 1221.84 72.9302 1221.84 71.97C1221.84 71.0098 1222.62 70.2314 1223.58 70.2314C1224.54 70.2314 1225.32 71.0098 1225.32 71.97Z" fill="#BDBDBD"/>
<path d="M1280.96 71.97C1280.96 72.9302 1280.18 73.7085 1279.22 73.7085C1278.26 73.7085 1277.48 72.9302 1277.48 71.97C1277.48 71.0098 1278.26 70.2314 1279.22 70.2314C1280.18 70.2314 1280.96 71.0098 1280.96 71.97Z" fill="#BDBDBD"/>
<path d="M1336.59 71.97C1336.59 72.9302 1335.81 73.7085 1334.85 73.7085C1333.89 73.7085 1333.11 72.9302 1333.11 71.97C1333.11 71.0098 1333.89 70.2314 1334.85 70.2314C1335.81 70.2314 1336.59 71.0098 1336.59 71.97Z" fill="#BDBDBD"/>
<path d="M1392.22 71.97C1392.22 72.9302 1391.44 73.7085 1390.48 73.7085C1389.52 73.7085 1388.74 72.9302 1388.74 71.97C1388.74 71.0098 1389.52 70.2314 1390.48 70.2314C1391.44 70.2314 1392.22 71.0098 1392.22 71.97Z" fill="#BDBDBD"/>
<path d="M57.0318 127.603C57.0318 128.563 56.2534 129.341 55.2932 129.341C54.3331 129.341 53.5547 128.563 53.5547 127.603C53.5547 126.643 54.3327 125.864 55.2932 125.864C56.2531 125.864 57.0318 126.643 57.0318 127.603Z" fill="#BDBDBD"/>
<path d="M112.664 127.603C112.664 128.563 111.886 129.341 110.925 129.341C109.965 129.341 109.187 128.563 109.187 127.603C109.187 126.643 109.965 125.864 110.925 125.864C111.886 125.864 112.664 126.643 112.664 127.603Z" fill="#BDBDBD"/>
<path d="M168.297 127.603C168.297 128.563 167.519 129.341 166.559 129.341C165.599 129.341 164.82 128.563 164.82 127.603C164.82 126.643 165.599 125.864 166.559 125.864C167.519 125.864 168.297 126.643 168.297 127.603Z" fill="#BDBDBD"/>
<path d="M223.93 127.603C223.93 128.563 223.152 129.341 222.192 129.341C221.232 129.341 220.453 128.563 220.453 127.603C220.453 126.643 221.231 125.864 222.192 125.864C223.152 125.864 223.93 126.643 223.93 127.603Z" fill="#BDBDBD"/>
<path d="M279.562 127.603C279.562 128.563 278.784 129.341 277.824 129.341C276.863 129.341 276.085 128.563 276.085 127.603C276.085 126.643 276.863 125.864 277.824 125.864C278.784 125.864 279.562 126.643 279.562 127.603Z" fill="#BDBDBD"/>
<path d="M335.195 127.603C335.195 128.563 334.417 129.341 333.457 129.341C332.497 129.341 331.719 128.563 331.719 127.603C331.719 126.643 332.497 125.864 333.457 125.864C334.417 125.864 335.195 126.643 335.195 127.603Z" fill="#BDBDBD"/>
<path d="M390.829 127.603C390.829 128.563 390.05 129.341 389.09 129.341C388.13 129.341 387.352 128.563 387.352 127.603C387.352 126.643 388.13 125.864 389.09 125.864C390.05 125.864 390.829 126.643 390.829 127.603Z" fill="#BDBDBD"/>
<path d="M446.462 127.603C446.462 128.563 445.683 129.341 444.723 129.341C443.763 129.341 442.984 128.563 442.984 127.603C442.984 126.643 443.763 125.864 444.723 125.864C445.683 125.864 446.462 126.643 446.462 127.603Z" fill="#BDBDBD"/>
<path d="M502.094 127.603C502.094 128.563 501.316 129.341 500.355 129.341C499.396 129.341 498.617 128.563 498.617 127.603C498.617 126.643 499.396 125.864 500.355 125.864C501.316 125.864 502.094 126.643 502.094 127.603Z" fill="#BDBDBD"/>
<path d="M557.728 127.603C557.728 128.563 556.95 129.341 555.99 129.341C555.029 129.341 554.251 128.563 554.251 127.603C554.251 126.643 555.029 125.864 555.99 125.864C556.95 125.864 557.728 126.643 557.728 127.603Z" fill="#BDBDBD"/>
<path d="M613.361 127.603C613.361 128.563 612.583 129.341 611.622 129.341C610.662 129.341 609.884 128.563 609.884 127.603C609.884 126.643 610.662 125.864 611.622 125.864C612.583 125.864 613.361 126.643 613.361 127.603Z" fill="#BDBDBD"/>
<path d="M668.994 127.603C668.994 128.563 668.215 129.341 667.255 129.341C666.295 129.341 665.517 128.563 665.517 127.603C665.517 126.643 666.295 125.864 667.255 125.864C668.215 125.864 668.994 126.643 668.994 127.603Z" fill="#BDBDBD"/>
<path d="M724.626 127.603C724.626 128.563 723.847 129.341 722.887 129.341C721.927 129.341 721.148 128.563 721.148 127.603C721.148 126.643 721.927 125.864 722.887 125.864C723.847 125.864 724.626 126.643 724.626 127.603Z" fill="#BDBDBD"/>
<path d="M780.259 127.603C780.259 128.563 779.481 129.341 778.521 129.341C777.561 129.341 776.782 128.563 776.782 127.603C776.782 126.643 777.561 125.864 778.521 125.864C779.481 125.864 780.259 126.643 780.259 127.603Z" fill="#BDBDBD"/>
<path d="M835.891 127.603C835.891 128.563 835.113 129.341 834.153 129.341C833.192 129.341 832.414 128.563 832.414 127.603C832.414 126.643 833.192 125.864 834.153 125.864C835.113 125.864 835.891 126.643 835.891 127.603Z" fill="#BDBDBD"/>
<path d="M891.525 127.603C891.525 128.563 890.747 129.341 889.786 129.341C888.826 129.341 888.048 128.563 888.048 127.603C888.048 126.643 888.826 125.864 889.786 125.864C890.747 125.864 891.525 126.643 891.525 127.603Z" fill="#BDBDBD"/>
<path d="M947.157 127.603C947.157 128.563 946.379 129.341 945.419 129.341C944.459 129.341 943.681 128.563 943.681 127.603C943.681 126.643 944.459 125.864 945.419 125.864C946.379 125.864 947.157 126.643 947.157 127.603Z" fill="#BDBDBD"/>
<path d="M1002.79 127.603C1002.79 128.563 1002.01 129.341 1001.05 129.341C1000.09 129.341 999.312 128.563 999.312 127.603C999.312 126.643 1000.09 125.864 1001.05 125.864C1002.01 125.864 1002.79 126.643 1002.79 127.603Z" fill="#BDBDBD"/>
<path d="M1058.42 127.603C1058.42 128.563 1057.65 129.341 1056.68 129.341C1055.72 129.341 1054.95 128.563 1054.95 127.603C1054.95 126.643 1055.73 125.864 1056.68 125.864C1057.65 125.864 1058.42 126.643 1058.42 127.603Z" fill="#BDBDBD"/>
<path d="M1114.06 127.603C1114.06 128.563 1113.28 129.341 1112.32 129.341C1111.36 129.341 1110.58 128.563 1110.58 127.603C1110.58 126.643 1111.36 125.864 1112.32 125.864C1113.28 125.864 1114.06 126.643 1114.06 127.603Z" fill="#BDBDBD"/>
<path d="M1169.69 127.603C1169.69 128.563 1168.91 129.341 1167.95 129.341C1166.99 129.341 1166.21 128.563 1166.21 127.603C1166.21 126.643 1166.99 125.864 1167.95 125.864C1168.91 125.864 1169.69 126.643 1169.69 127.603Z" fill="#BDBDBD"/>
<path d="M1225.32 127.603C1225.32 128.563 1224.54 129.341 1223.58 129.341C1222.62 129.341 1221.84 128.563 1221.84 127.603C1221.84 126.643 1222.62 125.864 1223.58 125.864C1224.54 125.864 1225.32 126.643 1225.32 127.603Z" fill="#BDBDBD"/>
<path d="M1280.96 127.603C1280.96 128.563 1280.18 129.341 1279.22 129.341C1278.26 129.341 1277.48 128.563 1277.48 127.603C1277.48 126.643 1278.26 125.864 1279.22 125.864C1280.18 125.864 1280.96 126.643 1280.96 127.603Z" fill="#BDBDBD"/>
<path d="M1336.59 127.603C1336.59 128.563 1335.81 129.341 1334.85 129.341C1333.89 129.341 1333.11 128.563 1333.11 127.603C1333.11 126.643 1333.89 125.864 1334.85 125.864C1335.81 125.864 1336.59 126.643 1336.59 127.603Z" fill="#BDBDBD"/>
<path d="M1392.22 127.603C1392.22 128.563 1391.44 129.341 1390.48 129.341C1389.52 129.341 1388.74 128.563 1388.74 127.603C1388.74 126.643 1389.52 125.864 1390.48 125.864C1391.44 125.864 1392.22 126.643 1392.22 127.603Z" fill="#BDBDBD"/>
<path d="M57.0318 183.235C57.0318 184.195 56.2534 184.973 55.2932 184.973C54.3331 184.973 53.5547 184.195 53.5547 183.235C53.5547 182.274 54.3327 181.496 55.2932 181.496C56.2531 181.496 57.0318 182.274 57.0318 183.235Z" fill="#BDBDBD"/>
<path d="M112.664 183.235C112.664 184.195 111.886 184.973 110.925 184.973C109.965 184.973 109.187 184.195 109.187 183.235C109.187 182.274 109.965 181.496 110.925 181.496C111.886 181.496 112.664 182.274 112.664 183.235Z" fill="#BDBDBD"/>
<path d="M168.297 183.235C168.297 184.195 167.519 184.973 166.559 184.973C165.599 184.973 164.82 184.195 164.82 183.235C164.82 182.274 165.599 181.496 166.559 181.496C167.519 181.496 168.297 182.274 168.297 183.235Z" fill="#BDBDBD"/>
<path d="M223.93 183.235C223.93 184.195 223.152 184.973 222.192 184.973C221.232 184.973 220.453 184.195 220.453 183.235C220.453 182.274 221.231 181.496 222.192 181.496C223.152 181.496 223.93 182.274 223.93 183.235Z" fill="#BDBDBD"/>
<path d="M279.562 183.235C279.562 184.195 278.784 184.973 277.824 184.973C276.863 184.973 276.085 184.195 276.085 183.235C276.085 182.274 276.863 181.496 277.824 181.496C278.784 181.496 279.562 182.274 279.562 183.235Z" fill="#BDBDBD"/>
<path d="M335.195 183.235C335.195 184.195 334.417 184.973 333.457 184.973C332.497 184.973 331.719 184.195 331.719 183.235C331.719 182.274 332.497 181.496 333.457 181.496C334.417 181.496 335.195 182.274 335.195 183.235Z" fill="#BDBDBD"/>
<path d="M390.829 183.235C390.829 184.195 390.05 184.973 389.09 184.973C388.13 184.973 387.352 184.195 387.352 183.235C387.352 182.274 388.13 181.496 389.09 181.496C390.05 181.496 390.829 182.274 390.829 183.235Z" fill="#BDBDBD"/>
<path d="M446.462 183.235C446.462 184.195 445.683 184.973 444.723 184.973C443.763 184.973 442.984 184.195 442.984 183.235C442.984 182.274 443.763 181.496 444.723 181.496C445.683 181.496 446.462 182.274 446.462 183.235Z" fill="#BDBDBD"/>
<path d="M502.094 183.235C502.094 184.195 501.316 184.973 500.355 184.973C499.396 184.973 498.617 184.195 498.617 183.235C498.617 182.274 499.396 181.496 500.355 181.496C501.316 181.496 502.094 182.274 502.094 183.235Z" fill="#BDBDBD"/>
<path d="M557.728 183.235C557.728 184.195 556.95 184.973 555.99 184.973C555.029 184.973 554.251 184.195 554.251 183.235C554.251 182.274 555.029 181.496 555.99 181.496C556.95 181.496 557.728 182.274 557.728 183.235Z" fill="#BDBDBD"/>
<path d="M613.361 183.235C613.361 184.195 612.583 184.973 611.622 184.973C610.662 184.973 609.884 184.195 609.884 183.235C609.884 182.274 610.662 181.496 611.622 181.496C612.583 181.496 613.361 182.274 613.361 183.235Z" fill="#BDBDBD"/>
<path d="M668.994 183.235C668.994 184.195 668.215 184.973 667.255 184.973C666.295 184.973 665.517 184.195 665.517 183.235C665.517 182.274 666.295 181.496 667.255 181.496C668.215 181.496 668.994 182.274 668.994 183.235Z" fill="#BDBDBD"/>
<path d="M724.626 183.235C724.626 184.195 723.847 184.973 722.887 184.973C721.927 184.973 721.148 184.195 721.148 183.235C721.148 182.274 721.927 181.496 722.887 181.496C723.847 181.496 724.626 182.274 724.626 183.235Z" fill="#BDBDBD"/>
<path d="M780.259 183.235C780.259 184.195 779.481 184.973 778.521 184.973C777.561 184.973 776.782 184.195 776.782 183.235C776.782 182.274 777.561 181.496 778.521 181.496C779.481 181.496 780.259 182.274 780.259 183.235Z" fill="#BDBDBD"/>
<path d="M835.891 183.235C835.891 184.195 835.113 184.973 834.153 184.973C833.192 184.973 832.414 184.195 832.414 183.235C832.414 182.274 833.192 181.496 834.153 181.496C835.113 181.496 835.891 182.274 835.891 183.235Z" fill="#BDBDBD"/>
<path d="M891.525 183.235C891.525 184.195 890.747 184.973 889.786 184.973C888.826 184.973 888.048 184.195 888.048 183.235C888.048 182.274 888.826 181.496 889.786 181.496C890.747 181.496 891.525 182.274 891.525 183.235Z" fill="#BDBDBD"/>
<path d="M947.157 183.235C947.157 184.195 946.379 184.973 945.419 184.973C944.459 184.973 943.681 184.195 943.681 183.235C943.681 182.274 944.459 181.496 945.419 181.496C946.379 181.496 947.157 182.274 947.157 183.235Z" fill="#BDBDBD"/>
<path d="M1002.79 183.235C1002.79 184.195 1002.01 184.973 1001.05 184.973C1000.09 184.973 999.312 184.195 999.312 183.235C999.312 182.274 1000.09 181.496 1001.05 181.496C1002.01 181.496 1002.79 182.274 1002.79 183.235Z" fill="#BDBDBD"/>
<path d="M1058.42 183.235C1058.42 184.195 1057.65 184.973 1056.68 184.973C1055.72 184.973 1054.95 184.195 1054.95 183.235C1054.95 182.274 1055.73 181.496 1056.68 181.496C1057.65 181.496 1058.42 182.274 1058.42 183.235Z" fill="#BDBDBD"/>
<path d="M1114.06 183.235C1114.06 184.195 1113.28 184.973 1112.32 184.973C1111.36 184.973 1110.58 184.195 1110.58 183.235C1110.58 182.274 1111.36 181.496 1112.32 181.496C1113.28 181.496 1114.06 182.274 1114.06 183.235Z" fill="#BDBDBD"/>
<path d="M1169.69 183.235C1169.69 184.195 1168.91 184.973 1167.95 184.973C1166.99 184.973 1166.21 184.195 1166.21 183.235C1166.21 182.274 1166.99 181.496 1167.95 181.496C1168.91 181.496 1169.69 182.274 1169.69 183.235Z" fill="#BDBDBD"/>
<path d="M1225.32 183.235C1225.32 184.195 1224.54 184.973 1223.58 184.973C1222.62 184.973 1221.84 184.195 1221.84 183.235C1221.84 182.274 1222.62 181.496 1223.58 181.496C1224.54 181.496 1225.32 182.274 1225.32 183.235Z" fill="#BDBDBD"/>
<path d="M1280.96 183.235C1280.96 184.195 1280.18 184.973 1279.22 184.973C1278.26 184.973 1277.48 184.195 1277.48 183.235C1277.48 182.274 1278.26 181.496 1279.22 181.496C1280.18 181.496 1280.96 182.274 1280.96 183.235Z" fill="#BDBDBD"/>
<path d="M1336.59 183.235C1336.59 184.195 1335.81 184.973 1334.85 184.973C1333.89 184.973 1333.11 184.195 1333.11 183.235C1333.11 182.274 1333.89 181.496 1334.85 181.496C1335.81 181.496 1336.59 182.274 1336.59 183.235Z" fill="#BDBDBD"/>
<path d="M1392.22 183.235C1392.22 184.195 1391.44 184.973 1390.48 184.973C1389.52 184.973 1388.74 184.195 1388.74 183.235C1388.74 182.274 1389.52 181.496 1390.48 181.496C1391.44 181.496 1392.22 182.274 1392.22 183.235Z" fill="#BDBDBD"/>
<path d="M57.0318 238.868C57.0318 239.829 56.2534 240.607 55.2932 240.607C54.3331 240.607 53.5547 239.829 53.5547 238.868C53.5547 237.908 54.3327 237.13 55.2932 237.13C56.2531 237.13 57.0318 237.909 57.0318 238.868Z" fill="#BDBDBD"/>
<path d="M112.664 238.868C112.664 239.829 111.886 240.607 110.925 240.607C109.965 240.607 109.187 239.829 109.187 238.868C109.187 237.908 109.965 237.13 110.925 237.13C111.886 237.13 112.664 237.909 112.664 238.868Z" fill="#BDBDBD"/>
<path d="M168.297 238.868C168.297 239.829 167.519 240.607 166.559 240.607C165.599 240.607 164.82 239.829 164.82 238.868C164.82 237.908 165.599 237.13 166.559 237.13C167.519 237.13 168.297 237.909 168.297 238.868Z" fill="#BDBDBD"/>
<path d="M223.93 238.868C223.93 239.829 223.152 240.607 222.192 240.607C221.232 240.607 220.453 239.829 220.453 238.868C220.453 237.908 221.231 237.13 222.192 237.13C223.152 237.13 223.93 237.909 223.93 238.868Z" fill="#BDBDBD"/>
<path d="M279.562 238.868C279.562 239.829 278.784 240.607 277.824 240.607C276.863 240.607 276.085 239.829 276.085 238.868C276.085 237.908 276.863 237.13 277.824 237.13C278.784 237.13 279.562 237.909 279.562 238.868Z" fill="#BDBDBD"/>
<path d="M335.195 238.868C335.195 239.829 334.417 240.607 333.457 240.607C332.497 240.607 331.719 239.829 331.719 238.868C331.719 237.908 332.497 237.13 333.457 237.13C334.417 237.13 335.195 237.909 335.195 238.868Z" fill="#BDBDBD"/>
<path d="M390.828 238.868C390.828 239.829 390.05 240.607 389.09 240.607C388.13 240.607 387.351 239.829 387.351 238.868C387.351 237.908 388.13 237.13 389.09 237.13C390.05 237.13 390.828 237.909 390.828 238.868Z" fill="#BDBDBD"/>
<path d="M446.462 238.868C446.462 239.829 445.683 240.607 444.723 240.607C443.763 240.607 442.984 239.829 442.984 238.868C442.984 237.908 443.763 237.13 444.723 237.13C445.683 237.13 446.462 237.909 446.462 238.868Z" fill="#BDBDBD"/>
<path d="M502.095 238.868C502.095 239.829 501.316 240.607 500.356 240.607C499.396 240.607 498.617 239.829 498.617 238.868C498.617 237.908 499.396 237.13 500.356 237.13C501.316 237.13 502.095 237.909 502.095 238.868Z" fill="#BDBDBD"/>
<path d="M557.728 238.868C557.728 239.829 556.95 240.607 555.989 240.607C555.029 240.607 554.251 239.829 554.251 238.868C554.251 237.908 555.029 237.13 555.989 237.13C556.95 237.13 557.728 237.909 557.728 238.868Z" fill="#BDBDBD"/>
<path d="M613.361 238.868C613.361 239.829 612.583 240.607 611.622 240.607C610.662 240.607 609.884 239.829 609.884 238.868C609.884 237.908 610.662 237.13 611.622 237.13C612.583 237.13 613.361 237.909 613.361 238.868Z" fill="#BDBDBD"/>
<path d="M668.994 238.868C668.994 239.829 668.216 240.607 667.255 240.607C666.295 240.607 665.517 239.829 665.517 238.868C665.517 237.908 666.295 237.13 667.255 237.13C668.216 237.13 668.994 237.909 668.994 238.868Z" fill="#BDBDBD"/>
<path d="M724.626 238.868C724.626 239.829 723.847 240.607 722.887 240.607C721.927 240.607 721.148 239.829 721.148 238.868C721.148 237.908 721.927 237.13 722.887 237.13C723.847 237.13 724.626 237.909 724.626 238.868Z" fill="#BDBDBD"/>
<path d="M780.259 238.868C780.259 239.829 779.481 240.607 778.521 240.607C777.561 240.607 776.782 239.829 776.782 238.868C776.782 237.908 777.561 237.13 778.521 237.13C779.481 237.13 780.259 237.909 780.259 238.868Z" fill="#BDBDBD"/>
<path d="M835.891 238.868C835.891 239.829 835.113 240.607 834.153 240.607C833.192 240.607 832.414 239.829 832.414 238.868C832.414 237.908 833.192 237.13 834.153 237.13C835.113 237.13 835.891 237.909 835.891 238.868Z" fill="#BDBDBD"/>
<path d="M891.525 238.868C891.525 239.829 890.747 240.607 889.786 240.607C888.826 240.607 888.048 239.829 888.048 238.868C888.048 237.908 888.826 237.13 889.786 237.13C890.747 237.13 891.525 237.909 891.525 238.868Z" fill="#BDBDBD"/>
<path d="M947.157 238.868C947.157 239.829 946.379 240.607 945.419 240.607C944.459 240.607 943.681 239.829 943.681 238.868C943.681 237.908 944.459 237.13 945.419 237.13C946.379 237.13 947.157 237.909 947.157 238.868Z" fill="#BDBDBD"/>
<path d="M1002.79 238.868C1002.79 239.829 1002.01 240.607 1001.05 240.607C1000.09 240.607 999.312 239.829 999.312 238.868C999.312 237.908 1000.09 237.13 1001.05 237.13C1002.01 237.13 1002.79 237.909 1002.79 238.868Z" fill="#BDBDBD"/>
<path d="M1058.42 238.868C1058.42 239.829 1057.65 240.607 1056.68 240.607C1055.72 240.607 1054.95 239.829 1054.95 238.868C1054.95 237.908 1055.73 237.13 1056.68 237.13C1057.65 237.13 1058.42 237.909 1058.42 238.868Z" fill="#BDBDBD"/>
<path d="M1114.06 238.868C1114.06 239.829 1113.28 240.607 1112.32 240.607C1111.36 240.607 1110.58 239.829 1110.58 238.868C1110.58 237.908 1111.36 237.13 1112.32 237.13C1113.28 237.13 1114.06 237.909 1114.06 238.868Z" fill="#BDBDBD"/>
<path d="M1169.69 238.868C1169.69 239.829 1168.91 240.607 1167.95 240.607C1166.99 240.607 1166.21 239.829 1166.21 238.868C1166.21 237.908 1166.99 237.13 1167.95 237.13C1168.91 237.13 1169.69 237.909 1169.69 238.868Z" fill="#BDBDBD"/>
<path d="M1225.32 238.868C1225.32 239.829 1224.54 240.607 1223.58 240.607C1222.62 240.607 1221.84 239.829 1221.84 238.868C1221.84 237.908 1222.62 237.13 1223.58 237.13C1224.54 237.13 1225.32 237.909 1225.32 238.868Z" fill="#BDBDBD"/>
<path d="M1280.96 238.868C1280.96 239.829 1280.18 240.607 1279.22 240.607C1278.26 240.607 1277.48 239.829 1277.48 238.868C1277.48 237.908 1278.26 237.13 1279.22 237.13C1280.18 237.13 1280.96 237.909 1280.96 238.868Z" fill="#BDBDBD"/>
<path d="M1336.59 238.868C1336.59 239.829 1335.81 240.607 1334.85 240.607C1333.89 240.607 1333.11 239.829 1333.11 238.868C1333.11 237.908 1333.89 237.13 1334.85 237.13C1335.81 237.13 1336.59 237.909 1336.59 238.868Z" fill="#BDBDBD"/>
<path d="M1392.22 238.868C1392.22 239.829 1391.44 240.607 1390.48 240.607C1389.52 240.607 1388.74 239.829 1388.74 238.868C1388.74 237.908 1389.52 237.13 1390.48 237.13C1391.44 237.13 1392.22 237.909 1392.22 238.868Z" fill="#BDBDBD"/>
<path d="M57.0318 294.502C57.0318 295.461 56.2534 296.24 55.2932 296.24C54.3331 296.24 53.5547 295.461 53.5547 294.502C53.5547 293.541 54.3327 292.763 55.2932 292.763C56.2531 292.763 57.0318 293.541 57.0318 294.502Z" fill="#BDBDBD"/>
<path d="M112.664 294.502C112.664 295.461 111.886 296.24 110.925 296.24C109.965 296.24 109.187 295.461 109.187 294.502C109.187 293.541 109.965 292.763 110.925 292.763C111.886 292.763 112.664 293.541 112.664 294.502Z" fill="#BDBDBD"/>
<path d="M168.297 294.501C168.297 295.461 167.519 296.24 166.559 296.24C165.599 296.24 164.82 295.461 164.82 294.501C164.82 293.541 165.599 292.762 166.559 292.762C167.519 292.762 168.297 293.541 168.297 294.501Z" fill="#BDBDBD"/>
<path d="M223.93 294.502C223.93 295.461 223.152 296.24 222.192 296.24C221.232 296.24 220.453 295.461 220.453 294.502C220.453 293.541 221.231 292.763 222.192 292.763C223.152 292.763 223.93 293.541 223.93 294.502Z" fill="#BDBDBD"/>
<path d="M279.562 294.502C279.562 295.461 278.784 296.24 277.824 296.24C276.863 296.24 276.085 295.461 276.085 294.502C276.085 293.541 276.863 292.763 277.824 292.763C278.784 292.763 279.562 293.541 279.562 294.502Z" fill="#BDBDBD"/>
<path d="M335.195 294.501C335.195 295.461 334.417 296.24 333.457 296.24C332.497 296.24 331.719 295.461 331.719 294.501C331.719 293.541 332.497 292.762 333.457 292.762C334.417 292.762 335.195 293.541 335.195 294.501Z" fill="#BDBDBD"/>
<path d="M390.828 294.501C390.828 295.461 390.05 296.24 389.09 296.24C388.13 296.24 387.351 295.461 387.351 294.501C387.351 293.541 388.13 292.762 389.09 292.762C390.05 292.762 390.828 293.541 390.828 294.501Z" fill="#BDBDBD"/>
<path d="M446.462 294.502C446.462 295.461 445.683 296.24 444.723 296.24C443.763 296.24 442.984 295.461 442.984 294.502C442.984 293.541 443.763 292.763 444.723 292.763C445.683 292.763 446.462 293.541 446.462 294.502Z" fill="#BDBDBD"/>
<path d="M502.095 294.501C502.095 295.461 501.316 296.24 500.356 296.24C499.396 296.24 498.617 295.461 498.617 294.501C498.617 293.541 499.396 292.762 500.356 292.762C501.316 292.762 502.095 293.541 502.095 294.501Z" fill="#BDBDBD"/>
<path d="M557.728 294.501C557.728 295.461 556.95 296.24 555.989 296.24C555.029 296.24 554.251 295.461 554.251 294.501C554.251 293.541 555.029 292.762 555.989 292.762C556.95 292.762 557.728 293.541 557.728 294.501Z" fill="#BDBDBD"/>
<path d="M613.361 294.502C613.361 295.461 612.583 296.24 611.622 296.24C610.662 296.24 609.884 295.461 609.884 294.502C609.884 293.541 610.662 292.763 611.622 292.763C612.583 292.763 613.361 293.541 613.361 294.502Z" fill="#BDBDBD"/>
<path d="M668.994 294.501C668.994 295.461 668.216 296.24 667.255 296.24C666.295 296.24 665.517 295.461 665.517 294.501C665.517 293.541 666.295 292.762 667.255 292.762C668.216 292.762 668.994 293.541 668.994 294.501Z" fill="#BDBDBD"/>
<path d="M724.626 294.501C724.626 295.461 723.847 296.24 722.887 296.24C721.927 296.24 721.148 295.461 721.148 294.501C721.148 293.541 721.927 292.762 722.887 292.762C723.847 292.762 724.626 293.541 724.626 294.501Z" fill="#BDBDBD"/>
<path d="M780.259 294.502C780.259 295.461 779.481 296.24 778.521 296.24C777.561 296.24 776.782 295.461 776.782 294.502C776.782 293.541 777.561 292.763 778.521 292.763C779.481 292.763 780.259 293.541 780.259 294.502Z" fill="#BDBDBD"/>
<path d="M835.891 294.502C835.891 295.461 835.113 296.24 834.153 296.24C833.192 296.24 832.414 295.461 832.414 294.502C832.414 293.541 833.192 292.763 834.153 292.763C835.113 292.763 835.891 293.541 835.891 294.502Z" fill="#BDBDBD"/>
<path d="M891.525 294.501C891.525 295.461 890.747 296.24 889.786 296.24C888.826 296.24 888.048 295.461 888.048 294.501C888.048 293.541 888.826 292.762 889.786 292.762C890.747 292.762 891.525 293.541 891.525 294.501Z" fill="#BDBDBD"/>
<path d="M947.157 294.502C947.157 295.461 946.379 296.24 945.419 296.24C944.459 296.24 943.681 295.461 943.681 294.502C943.681 293.541 944.459 292.763 945.419 292.763C946.379 292.763 947.157 293.541 947.157 294.502Z" fill="#BDBDBD"/>
<path d="M1002.79 294.502C1002.79 295.461 1002.01 296.24 1001.05 296.24C1000.09 296.24 999.312 295.461 999.312 294.502C999.312 293.541 1000.09 292.763 1001.05 292.763C1002.01 292.763 1002.79 293.541 1002.79 294.502Z" fill="#BDBDBD"/>
<path d="M1058.42 294.501C1058.42 295.461 1057.65 296.24 1056.68 296.24C1055.72 296.24 1054.95 295.461 1054.95 294.501C1054.95 293.541 1055.73 292.762 1056.68 292.762C1057.65 292.762 1058.42 293.541 1058.42 294.501Z" fill="#BDBDBD"/>
<path d="M1114.06 294.501C1114.06 295.461 1113.28 296.24 1112.32 296.24C1111.36 296.24 1110.58 295.461 1110.58 294.501C1110.58 293.541 1111.36 292.762 1112.32 292.762C1113.28 292.762 1114.06 293.541 1114.06 294.501Z" fill="#BDBDBD"/>
<path d="M1169.69 294.501C1169.69 295.461 1168.91 296.24 1167.95 296.24C1166.99 296.24 1166.21 295.461 1166.21 294.501C1166.21 293.541 1166.99 292.762 1167.95 292.762C1168.91 292.762 1169.69 293.541 1169.69 294.501Z" fill="#BDBDBD"/>
<path d="M1225.32 294.501C1225.32 295.461 1224.54 296.24 1223.58 296.24C1222.62 296.24 1221.84 295.461 1221.84 294.501C1221.84 293.541 1222.62 292.762 1223.58 292.762C1224.54 292.762 1225.32 293.541 1225.32 294.501Z" fill="#BDBDBD"/>
<path d="M1280.96 294.501C1280.96 295.461 1280.18 296.24 1279.22 296.24C1278.26 296.24 1277.48 295.461 1277.48 294.501C1277.48 293.541 1278.26 292.762 1279.22 292.762C1280.18 292.762 1280.96 293.541 1280.96 294.501Z" fill="#BDBDBD"/>
<path d="M1336.59 294.501C1336.59 295.461 1335.81 296.24 1334.85 296.24C1333.89 296.24 1333.11 295.461 1333.11 294.501C1333.11 293.541 1333.89 292.762 1334.85 292.762C1335.81 292.762 1336.59 293.541 1336.59 294.501Z" fill="#BDBDBD"/>
<path d="M1392.22 294.501C1392.22 295.461 1391.44 296.24 1390.48 296.24C1389.52 296.24 1388.74 295.461 1388.74 294.501C1388.74 293.541 1389.52 292.762 1390.48 292.762C1391.44 292.762 1392.22 293.541 1392.22 294.501Z" fill="#BDBDBD"/>
<path d="M57.0318 350.134C57.0318 351.094 56.2534 351.873 55.2932 351.873C54.3331 351.873 53.5547 351.094 53.5547 350.134C53.5547 349.174 54.3327 348.396 55.2932 348.396C56.2531 348.396 57.0318 349.174 57.0318 350.134Z" fill="#BDBDBD"/>
<path d="M112.664 350.134C112.664 351.094 111.886 351.873 110.925 351.873C109.965 351.873 109.187 351.094 109.187 350.134C109.187 349.174 109.965 348.396 110.925 348.396C111.886 348.396 112.664 349.174 112.664 350.134Z" fill="#BDBDBD"/>
<path d="M168.297 350.134C168.297 351.094 167.519 351.873 166.559 351.873C165.599 351.873 164.82 351.094 164.82 350.134C164.82 349.174 165.599 348.396 166.559 348.396C167.519 348.396 168.297 349.174 168.297 350.134Z" fill="#BDBDBD"/>
<path d="M223.93 350.134C223.93 351.094 223.152 351.873 222.192 351.873C221.232 351.873 220.453 351.094 220.453 350.134C220.453 349.174 221.231 348.396 222.192 348.396C223.152 348.396 223.93 349.174 223.93 350.134Z" fill="#BDBDBD"/>
<path d="M279.562 350.134C279.562 351.094 278.784 351.873 277.824 351.873C276.863 351.873 276.085 351.094 276.085 350.134C276.085 349.174 276.863 348.396 277.824 348.396C278.784 348.396 279.562 349.174 279.562 350.134Z" fill="#BDBDBD"/>
<path d="M335.195 350.134C335.195 351.094 334.417 351.873 333.457 351.873C332.497 351.873 331.719 351.094 331.719 350.134C331.719 349.174 332.497 348.396 333.457 348.396C334.417 348.396 335.195 349.174 335.195 350.134Z" fill="#BDBDBD"/>
<path d="M390.829 350.134C390.829 351.094 390.05 351.873 389.09 351.873C388.13 351.873 387.352 351.094 387.352 350.134C387.352 349.174 388.13 348.396 389.09 348.396C390.05 348.396 390.829 349.174 390.829 350.134Z" fill="#BDBDBD"/>
<path d="M446.462 350.134C446.462 351.094 445.683 351.873 444.723 351.873C443.763 351.873 442.984 351.094 442.984 350.134C442.984 349.174 443.763 348.396 444.723 348.396C445.683 348.396 446.462 349.174 446.462 350.134Z" fill="#BDBDBD"/>
<path d="M502.094 350.134C502.094 351.094 501.316 351.873 500.355 351.873C499.396 351.873 498.617 351.094 498.617 350.134C498.617 349.174 499.396 348.396 500.355 348.396C501.316 348.396 502.094 349.174 502.094 350.134Z" fill="#BDBDBD"/>
<path d="M557.728 350.134C557.728 351.094 556.95 351.873 555.99 351.873C555.029 351.873 554.251 351.094 554.251 350.134C554.251 349.174 555.029 348.396 555.99 348.396C556.95 348.396 557.728 349.174 557.728 350.134Z" fill="#BDBDBD"/>
<path d="M613.361 350.134C613.361 351.094 612.583 351.873 611.622 351.873C610.662 351.873 609.884 351.094 609.884 350.134C609.884 349.174 610.662 348.396 611.622 348.396C612.583 348.396 613.361 349.174 613.361 350.134Z" fill="#BDBDBD"/>
<path d="M668.994 350.134C668.994 351.094 668.215 351.873 667.255 351.873C666.295 351.873 665.517 351.094 665.517 350.134C665.517 349.174 666.295 348.396 667.255 348.396C668.215 348.396 668.994 349.174 668.994 350.134Z" fill="#BDBDBD"/>
<path d="M724.626 350.134C724.626 351.094 723.847 351.873 722.887 351.873C721.927 351.873 721.148 351.094 721.148 350.134C721.148 349.174 721.927 348.396 722.887 348.396C723.847 348.396 724.626 349.174 724.626 350.134Z" fill="#BDBDBD"/>
<path d="M780.259 350.134C780.259 351.094 779.481 351.873 778.521 351.873C777.561 351.873 776.782 351.094 776.782 350.134C776.782 349.174 777.561 348.396 778.521 348.396C779.481 348.396 780.259 349.174 780.259 350.134Z" fill="#BDBDBD"/>
<path d="M835.891 350.134C835.891 351.094 835.113 351.873 834.153 351.873C833.192 351.873 832.414 351.094 832.414 350.134C832.414 349.174 833.192 348.396 834.153 348.396C835.113 348.396 835.891 349.174 835.891 350.134Z" fill="#BDBDBD"/>
<path d="M891.525 350.134C891.525 351.094 890.747 351.873 889.786 351.873C888.826 351.873 888.048 351.094 888.048 350.134C888.048 349.174 888.826 348.396 889.786 348.396C890.747 348.396 891.525 349.174 891.525 350.134Z" fill="#BDBDBD"/>
<path d="M947.157 350.134C947.157 351.094 946.379 351.873 945.419 351.873C944.459 351.873 943.681 351.094 943.681 350.134C943.681 349.174 944.459 348.396 945.419 348.396C946.379 348.396 947.157 349.174 947.157 350.134Z" fill="#BDBDBD"/>
<path d="M1002.79 350.134C1002.79 351.094 1002.01 351.873 1001.05 351.873C1000.09 351.873 999.312 351.094 999.312 350.134C999.312 349.174 1000.09 348.396 1001.05 348.396C1002.01 348.396 1002.79 349.174 1002.79 350.134Z" fill="#BDBDBD"/>
<path d="M1058.42 350.134C1058.42 351.094 1057.65 351.873 1056.68 351.873C1055.72 351.873 1054.95 351.094 1054.95 350.134C1054.95 349.174 1055.73 348.396 1056.68 348.396C1057.65 348.396 1058.42 349.174 1058.42 350.134Z" fill="#BDBDBD"/>
<path d="M1114.06 350.134C1114.06 351.094 1113.28 351.873 1112.32 351.873C1111.36 351.873 1110.58 351.094 1110.58 350.134C1110.58 349.174 1111.36 348.396 1112.32 348.396C1113.28 348.396 1114.06 349.174 1114.06 350.134Z" fill="#BDBDBD"/>
<path d="M1169.69 350.134C1169.69 351.094 1168.91 351.873 1167.95 351.873C1166.99 351.873 1166.21 351.094 1166.21 350.134C1166.21 349.174 1166.99 348.396 1167.95 348.396C1168.91 348.396 1169.69 349.174 1169.69 350.134Z" fill="#BDBDBD"/>
<path d="M1225.32 350.134C1225.32 351.094 1224.54 351.873 1223.58 351.873C1222.62 351.873 1221.84 351.094 1221.84 350.134C1221.84 349.174 1222.62 348.396 1223.58 348.396C1224.54 348.396 1225.32 349.174 1225.32 350.134Z" fill="#BDBDBD"/>
<path d="M1280.96 350.134C1280.96 351.094 1280.18 351.873 1279.22 351.873C1278.26 351.873 1277.48 351.094 1277.48 350.134C1277.48 349.174 1278.26 348.396 1279.22 348.396C1280.18 348.396 1280.96 349.174 1280.96 350.134Z" fill="#BDBDBD"/>
<path d="M1336.59 350.134C1336.59 351.094 1335.81 351.873 1334.85 351.873C1333.89 351.873 1333.11 351.094 1333.11 350.134C1333.11 349.174 1333.89 348.396 1334.85 348.396C1335.81 348.396 1336.59 349.174 1336.59 350.134Z" fill="#BDBDBD"/>
<path d="M1392.22 350.134C1392.22 351.094 1391.44 351.873 1390.48 351.873C1389.52 351.873 1388.74 351.094 1388.74 350.134C1388.74 349.174 1389.52 348.396 1390.48 348.396C1391.44 348.396 1392.22 349.174 1392.22 350.134Z" fill="#BDBDBD"/>
<path d="M57.0318 405.767C57.0318 406.727 56.2534 407.505 55.2932 407.505C54.3331 407.505 53.5547 406.727 53.5547 405.767C53.5547 404.807 54.3327 404.028 55.2932 404.028C56.2531 404.028 57.0318 404.807 57.0318 405.767Z" fill="#BDBDBD"/>
<path d="M112.664 405.767C112.664 406.727 111.886 407.505 110.925 407.505C109.965 407.505 109.187 406.727 109.187 405.767C109.187 404.807 109.965 404.028 110.925 404.028C111.886 404.028 112.664 404.807 112.664 405.767Z" fill="#BDBDBD"/>
<path d="M168.297 405.767C168.297 406.727 167.519 407.506 166.559 407.506C165.599 407.506 164.82 406.727 164.82 405.767C164.82 404.807 165.599 404.029 166.559 404.029C167.519 404.029 168.297 404.807 168.297 405.767Z" fill="#BDBDBD"/>
<path d="M223.93 405.767C223.93 406.727 223.152 407.505 222.192 407.505C221.232 407.505 220.453 406.727 220.453 405.767C220.453 404.807 221.231 404.028 222.192 404.028C223.152 404.028 223.93 404.807 223.93 405.767Z" fill="#BDBDBD"/>
<path d="M279.562 405.767C279.562 406.727 278.784 407.505 277.824 407.505C276.863 407.505 276.085 406.727 276.085 405.767C276.085 404.807 276.863 404.028 277.824 404.028C278.784 404.028 279.562 404.807 279.562 405.767Z" fill="#BDBDBD"/>
<path d="M335.195 405.767C335.195 406.727 334.417 407.506 333.457 407.506C332.497 407.506 331.719 406.727 331.719 405.767C331.719 404.807 332.497 404.029 333.457 404.029C334.417 404.029 335.195 404.807 335.195 405.767Z" fill="#BDBDBD"/>
<path d="M390.828 405.767C390.828 406.727 390.05 407.506 389.09 407.506C388.13 407.506 387.351 406.727 387.351 405.767C387.351 404.807 388.13 404.029 389.09 404.029C390.05 404.029 390.828 404.807 390.828 405.767Z" fill="#BDBDBD"/>
<path d="M446.462 405.767C446.462 406.727 445.683 407.505 444.723 407.505C443.763 407.505 442.984 406.727 442.984 405.767C442.984 404.807 443.763 404.028 444.723 404.028C445.683 404.028 446.462 404.807 446.462 405.767Z" fill="#BDBDBD"/>
<path d="M502.095 405.767C502.095 406.727 501.316 407.506 500.356 407.506C499.396 407.506 498.617 406.727 498.617 405.767C498.617 404.807 499.396 404.029 500.356 404.029C501.316 404.029 502.095 404.807 502.095 405.767Z" fill="#BDBDBD"/>
<path d="M557.728 405.767C557.728 406.727 556.95 407.506 555.989 407.506C555.029 407.506 554.251 406.727 554.251 405.767C554.251 404.807 555.029 404.029 555.989 404.029C556.95 404.029 557.728 404.807 557.728 405.767Z" fill="#BDBDBD"/>
<path d="M613.361 405.767C613.361 406.727 612.583 407.505 611.622 407.505C610.662 407.505 609.884 406.727 609.884 405.767C609.884 404.807 610.662 404.028 611.622 404.028C612.583 404.028 613.361 404.807 613.361 405.767Z" fill="#BDBDBD"/>
<path d="M668.994 405.767C668.994 406.727 668.216 407.506 667.255 407.506C666.295 407.506 665.517 406.727 665.517 405.767C665.517 404.807 666.295 404.029 667.255 404.029C668.216 404.029 668.994 404.807 668.994 405.767Z" fill="#BDBDBD"/>
<path d="M724.626 405.767C724.626 406.727 723.847 407.506 722.887 407.506C721.927 407.506 721.148 406.727 721.148 405.767C721.148 404.807 721.927 404.029 722.887 404.029C723.847 404.029 724.626 404.807 724.626 405.767Z" fill="#BDBDBD"/>
<path d="M780.259 405.767C780.259 406.727 779.481 407.505 778.521 407.505C777.561 407.505 776.782 406.727 776.782 405.767C776.782 404.807 777.561 404.028 778.521 404.028C779.481 404.028 780.259 404.807 780.259 405.767Z" fill="#BDBDBD"/>
<path d="M835.891 405.767C835.891 406.727 835.113 407.505 834.153 407.505C833.192 407.505 832.414 406.727 832.414 405.767C832.414 404.807 833.192 404.028 834.153 404.028C835.113 404.028 835.891 404.807 835.891 405.767Z" fill="#BDBDBD"/>
<path d="M891.525 405.767C891.525 406.727 890.747 407.506 889.786 407.506C888.826 407.506 888.048 406.727 888.048 405.767C888.048 404.807 888.826 404.029 889.786 404.029C890.747 404.029 891.525 404.807 891.525 405.767Z" fill="#BDBDBD"/>
<path d="M947.157 405.767C947.157 406.727 946.379 407.505 945.419 407.505C944.459 407.505 943.681 406.727 943.681 405.767C943.681 404.807 944.459 404.028 945.419 404.028C946.379 404.028 947.157 404.807 947.157 405.767Z" fill="#BDBDBD"/>
<path d="M1002.79 405.767C1002.79 406.727 1002.01 407.505 1001.05 407.505C1000.09 407.505 999.312 406.727 999.312 405.767C999.312 404.807 1000.09 404.028 1001.05 404.028C1002.01 404.028 1002.79 404.807 1002.79 405.767Z" fill="#BDBDBD"/>
<path d="M1058.42 405.767C1058.42 406.727 1057.65 407.506 1056.68 407.506C1055.72 407.506 1054.95 406.727 1054.95 405.767C1054.95 404.807 1055.73 404.029 1056.68 404.029C1057.65 404.029 1058.42 404.807 1058.42 405.767Z" fill="#BDBDBD"/>
<path d="M1114.06 405.767C1114.06 406.727 1113.28 407.506 1112.32 407.506C1111.36 407.506 1110.58 406.727 1110.58 405.767C1110.58 404.807 1111.36 404.029 1112.32 404.029C1113.28 404.029 1114.06 404.807 1114.06 405.767Z" fill="#BDBDBD"/>
<path d="M1169.69 405.767C1169.69 406.727 1168.91 407.506 1167.95 407.506C1166.99 407.506 1166.21 406.727 1166.21 405.767C1166.21 404.807 1166.99 404.029 1167.95 404.029C1168.91 404.029 1169.69 404.807 1169.69 405.767Z" fill="#BDBDBD"/>
<path d="M1225.32 405.767C1225.32 406.727 1224.54 407.506 1223.58 407.506C1222.62 407.506 1221.84 406.727 1221.84 405.767C1221.84 404.807 1222.62 404.029 1223.58 404.029C1224.54 404.029 1225.32 404.807 1225.32 405.767Z" fill="#BDBDBD"/>
<path d="M1280.96 405.767C1280.96 406.727 1280.18 407.506 1279.22 407.506C1278.26 407.506 1277.48 406.727 1277.48 405.767C1277.48 404.807 1278.26 404.029 1279.22 404.029C1280.18 404.029 1280.96 404.807 1280.96 405.767Z" fill="#BDBDBD"/>
<path d="M1336.59 405.767C1336.59 406.727 1335.81 407.506 1334.85 407.506C1333.89 407.506 1333.11 406.727 1333.11 405.767C1333.11 404.807 1333.89 404.029 1334.85 404.029C1335.81 404.029 1336.59 404.807 1336.59 405.767Z" fill="#BDBDBD"/>
<path d="M1392.22 405.767C1392.22 406.727 1391.44 407.506 1390.48 407.506C1389.52 407.506 1388.74 406.727 1388.74 405.767C1388.74 404.807 1389.52 404.029 1390.48 404.029C1391.44 404.029 1392.22 404.807 1392.22 405.767Z" fill="#BDBDBD"/>
<path d="M57.0318 461.401C57.0318 462.36 56.2534 463.139 55.2932 463.139C54.3331 463.139 53.5547 462.36 53.5547 461.401C53.5547 460.44 54.3327 459.662 55.2932 459.662C56.2531 459.662 57.0318 460.44 57.0318 461.401Z" fill="#BDBDBD"/>
<path d="M112.664 461.401C112.664 462.36 111.886 463.139 110.925 463.139C109.965 463.139 109.187 462.36 109.187 461.401C109.187 460.44 109.965 459.662 110.925 459.662C111.886 459.662 112.664 460.44 112.664 461.401Z" fill="#BDBDBD"/>
<path d="M168.297 461.4C168.297 462.36 167.519 463.139 166.559 463.139C165.599 463.139 164.82 462.36 164.82 461.4C164.82 460.44 165.599 459.662 166.559 459.662C167.519 459.662 168.297 460.44 168.297 461.4Z" fill="#BDBDBD"/>
<path d="M223.93 461.401C223.93 462.36 223.152 463.139 222.192 463.139C221.232 463.139 220.453 462.36 220.453 461.401C220.453 460.44 221.231 459.662 222.192 459.662C223.152 459.662 223.93 460.44 223.93 461.401Z" fill="#BDBDBD"/>
<path d="M279.562 461.401C279.562 462.36 278.784 463.139 277.824 463.139C276.863 463.139 276.085 462.36 276.085 461.401C276.085 460.44 276.863 459.662 277.824 459.662C278.784 459.662 279.562 460.44 279.562 461.401Z" fill="#BDBDBD"/>
<path d="M335.195 461.4C335.195 462.36 334.417 463.139 333.457 463.139C332.497 463.139 331.719 462.36 331.719 461.4C331.719 460.44 332.497 459.662 333.457 459.662C334.417 459.662 335.195 460.44 335.195 461.4Z" fill="#BDBDBD"/>
<path d="M390.828 461.4C390.828 462.36 390.05 463.139 389.09 463.139C388.13 463.139 387.351 462.36 387.351 461.4C387.351 460.44 388.13 459.662 389.09 459.662C390.05 459.662 390.828 460.44 390.828 461.4Z" fill="#BDBDBD"/>
<path d="M446.462 461.401C446.462 462.36 445.683 463.139 444.723 463.139C443.763 463.139 442.984 462.36 442.984 461.401C442.984 460.44 443.763 459.662 444.723 459.662C445.683 459.662 446.462 460.44 446.462 461.401Z" fill="#BDBDBD"/>
<path d="M502.095 461.4C502.095 462.36 501.316 463.139 500.356 463.139C499.396 463.139 498.617 462.36 498.617 461.4C498.617 460.44 499.396 459.662 500.356 459.662C501.316 459.662 502.095 460.44 502.095 461.4Z" fill="#BDBDBD"/>
<path d="M557.728 461.4C557.728 462.36 556.95 463.139 555.989 463.139C555.029 463.139 554.251 462.36 554.251 461.4C554.251 460.44 555.029 459.662 555.989 459.662C556.95 459.662 557.728 460.44 557.728 461.4Z" fill="#BDBDBD"/>
<path d="M613.361 461.401C613.361 462.36 612.583 463.139 611.622 463.139C610.662 463.139 609.884 462.36 609.884 461.401C609.884 460.44 610.662 459.662 611.622 459.662C612.583 459.662 613.361 460.44 613.361 461.401Z" fill="#BDBDBD"/>
<path d="M668.994 461.4C668.994 462.36 668.216 463.139 667.255 463.139C666.295 463.139 665.517 462.36 665.517 461.4C665.517 460.44 666.295 459.662 667.255 459.662C668.216 459.662 668.994 460.44 668.994 461.4Z" fill="#BDBDBD"/>
<path d="M724.626 461.4C724.626 462.36 723.847 463.139 722.887 463.139C721.927 463.139 721.148 462.36 721.148 461.4C721.148 460.44 721.927 459.662 722.887 459.662C723.847 459.662 724.626 460.44 724.626 461.4Z" fill="#BDBDBD"/>
<path d="M780.259 461.401C780.259 462.36 779.481 463.139 778.521 463.139C777.561 463.139 776.782 462.36 776.782 461.401C776.782 460.44 777.561 459.662 778.521 459.662C779.481 459.662 780.259 460.44 780.259 461.401Z" fill="#BDBDBD"/>
<path d="M835.891 461.401C835.891 462.36 835.113 463.139 834.153 463.139C833.192 463.139 832.414 462.36 832.414 461.401C832.414 460.44 833.192 459.662 834.153 459.662C835.113 459.662 835.891 460.44 835.891 461.401Z" fill="#BDBDBD"/>
<path d="M891.525 461.4C891.525 462.36 890.747 463.139 889.786 463.139C888.826 463.139 888.048 462.36 888.048 461.4C888.048 460.44 888.826 459.662 889.786 459.662C890.747 459.662 891.525 460.44 891.525 461.4Z" fill="#BDBDBD"/>
<path d="M947.157 461.401C947.157 462.36 946.379 463.139 945.419 463.139C944.459 463.139 943.681 462.36 943.681 461.401C943.681 460.44 944.459 459.662 945.419 459.662C946.379 459.662 947.157 460.44 947.157 461.401Z" fill="#BDBDBD"/>
<path d="M1002.79 461.401C1002.79 462.36 1002.01 463.139 1001.05 463.139C1000.09 463.139 999.312 462.36 999.312 461.401C999.312 460.44 1000.09 459.662 1001.05 459.662C1002.01 459.662 1002.79 460.44 1002.79 461.401Z" fill="#BDBDBD"/>
<path d="M1058.42 461.4C1058.42 462.36 1057.65 463.139 1056.68 463.139C1055.72 463.139 1054.95 462.36 1054.95 461.4C1054.95 460.44 1055.73 459.662 1056.68 459.662C1057.65 459.662 1058.42 460.44 1058.42 461.4Z" fill="#BDBDBD"/>
<path d="M1114.06 461.4C1114.06 462.36 1113.28 463.139 1112.32 463.139C1111.36 463.139 1110.58 462.36 1110.58 461.4C1110.58 460.44 1111.36 459.662 1112.32 459.662C1113.28 459.662 1114.06 460.44 1114.06 461.4Z" fill="#BDBDBD"/>
<path d="M1169.69 461.4C1169.69 462.36 1168.91 463.139 1167.95 463.139C1166.99 463.139 1166.21 462.36 1166.21 461.4C1166.21 460.44 1166.99 459.662 1167.95 459.662C1168.91 459.662 1169.69 460.44 1169.69 461.4Z" fill="#BDBDBD"/>
<path d="M1225.32 461.4C1225.32 462.36 1224.54 463.139 1223.58 463.139C1222.62 463.139 1221.84 462.36 1221.84 461.4C1221.84 460.44 1222.62 459.662 1223.58 459.662C1224.54 459.662 1225.32 460.44 1225.32 461.4Z" fill="#BDBDBD"/>
<path d="M1280.96 461.4C1280.96 462.36 1280.18 463.139 1279.22 463.139C1278.26 463.139 1277.48 462.36 1277.48 461.4C1277.48 460.44 1278.26 459.662 1279.22 459.662C1280.18 459.662 1280.96 460.44 1280.96 461.4Z" fill="#BDBDBD"/>
<path d="M1336.59 461.4C1336.59 462.36 1335.81 463.139 1334.85 463.139C1333.89 463.139 1333.11 462.36 1333.11 461.4C1333.11 460.44 1333.89 459.662 1334.85 459.662C1335.81 459.662 1336.59 460.44 1336.59 461.4Z" fill="#BDBDBD"/>
<path d="M1392.22 461.4C1392.22 462.36 1391.44 463.139 1390.48 463.139C1389.52 463.139 1388.74 462.36 1388.74 461.4C1388.74 460.44 1389.52 459.662 1390.48 459.662C1391.44 459.662 1392.22 460.44 1392.22 461.4Z" fill="#BDBDBD"/>
<path d="M57.0318 517.032C57.0318 517.993 56.2534 518.771 55.2932 518.771C54.3331 518.771 53.5547 517.992 53.5547 517.032C53.5547 516.072 54.3327 515.294 55.2932 515.294C56.2531 515.294 57.0318 516.072 57.0318 517.032Z" fill="#BDBDBD"/>
<path d="M112.664 517.032C112.664 517.993 111.886 518.771 110.925 518.771C109.965 518.771 109.187 517.992 109.187 517.032C109.187 516.072 109.965 515.294 110.925 515.294C111.886 515.294 112.664 516.072 112.664 517.032Z" fill="#BDBDBD"/>
<path d="M168.297 517.032C168.297 517.993 167.519 518.771 166.559 518.771C165.599 518.771 164.82 517.992 164.82 517.032C164.82 516.072 165.599 515.294 166.559 515.294C167.519 515.294 168.297 516.072 168.297 517.032Z" fill="#BDBDBD"/>
<path d="M223.93 517.032C223.93 517.993 223.152 518.771 222.192 518.771C221.232 518.771 220.453 517.992 220.453 517.032C220.453 516.072 221.231 515.294 222.192 515.294C223.152 515.294 223.93 516.072 223.93 517.032Z" fill="#BDBDBD"/>
<path d="M279.562 517.032C279.562 517.993 278.784 518.771 277.824 518.771C276.863 518.771 276.085 517.992 276.085 517.032C276.085 516.072 276.863 515.294 277.824 515.294C278.784 515.294 279.562 516.072 279.562 517.032Z" fill="#BDBDBD"/>
<path d="M335.195 517.032C335.195 517.993 334.417 518.771 333.457 518.771C332.497 518.771 331.719 517.992 331.719 517.032C331.719 516.072 332.497 515.294 333.457 515.294C334.417 515.294 335.195 516.072 335.195 517.032Z" fill="#BDBDBD"/>
<path d="M390.829 517.032C390.829 517.993 390.05 518.771 389.09 518.771C388.13 518.771 387.352 517.992 387.352 517.032C387.352 516.072 388.13 515.294 389.09 515.294C390.05 515.294 390.829 516.072 390.829 517.032Z" fill="#BDBDBD"/>
<path d="M446.462 517.032C446.462 517.993 445.683 518.771 444.723 518.771C443.763 518.771 442.984 517.992 442.984 517.032C442.984 516.072 443.763 515.294 444.723 515.294C445.683 515.294 446.462 516.072 446.462 517.032Z" fill="#BDBDBD"/>
<path d="M502.094 517.032C502.094 517.993 501.316 518.771 500.355 518.771C499.396 518.771 498.617 517.992 498.617 517.032C498.617 516.072 499.396 515.294 500.355 515.294C501.316 515.294 502.094 516.072 502.094 517.032Z" fill="#BDBDBD"/>
<path d="M557.728 517.032C557.728 517.993 556.95 518.771 555.99 518.771C555.029 518.771 554.251 517.992 554.251 517.032C554.251 516.072 555.029 515.294 555.99 515.294C556.95 515.294 557.728 516.072 557.728 517.032Z" fill="#BDBDBD"/>
<path d="M613.361 517.032C613.361 517.993 612.583 518.771 611.622 518.771C610.662 518.771 609.884 517.992 609.884 517.032C609.884 516.072 610.662 515.294 611.622 515.294C612.583 515.294 613.361 516.072 613.361 517.032Z" fill="#BDBDBD"/>
<path d="M668.994 517.032C668.994 517.993 668.215 518.771 667.255 518.771C666.295 518.771 665.517 517.992 665.517 517.032C665.517 516.072 666.295 515.294 667.255 515.294C668.215 515.294 668.994 516.072 668.994 517.032Z" fill="#BDBDBD"/>
<path d="M724.626 517.032C724.626 517.993 723.847 518.771 722.887 518.771C721.927 518.771 721.148 517.992 721.148 517.032C721.148 516.072 721.927 515.294 722.887 515.294C723.847 515.294 724.626 516.072 724.626 517.032Z" fill="#BDBDBD"/>
<path d="M780.259 517.032C780.259 517.993 779.481 518.771 778.521 518.771C777.561 518.771 776.782 517.992 776.782 517.032C776.782 516.072 777.561 515.294 778.521 515.294C779.481 515.294 780.259 516.072 780.259 517.032Z" fill="#BDBDBD"/>
<path d="M835.891 517.032C835.891 517.993 835.113 518.771 834.153 518.771C833.192 518.771 832.414 517.992 832.414 517.032C832.414 516.072 833.192 515.294 834.153 515.294C835.113 515.294 835.891 516.072 835.891 517.032Z" fill="#BDBDBD"/>
<path d="M891.525 517.032C891.525 517.993 890.747 518.771 889.786 518.771C888.826 518.771 888.048 517.992 888.048 517.032C888.048 516.072 888.826 515.294 889.786 515.294C890.747 515.294 891.525 516.072 891.525 517.032Z" fill="#BDBDBD"/>
<path d="M947.157 517.032C947.157 517.993 946.379 518.771 945.419 518.771C944.459 518.771 943.681 517.992 943.681 517.032C943.681 516.072 944.459 515.294 945.419 515.294C946.379 515.294 947.157 516.072 947.157 517.032Z" fill="#BDBDBD"/>
<path d="M1002.79 517.032C1002.79 517.993 1002.01 518.771 1001.05 518.771C1000.09 518.771 999.312 517.992 999.312 517.032C999.312 516.072 1000.09 515.294 1001.05 515.294C1002.01 515.294 1002.79 516.072 1002.79 517.032Z" fill="#BDBDBD"/>
<path d="M1058.42 517.032C1058.42 517.993 1057.65 518.771 1056.68 518.771C1055.72 518.771 1054.95 517.992 1054.95 517.032C1054.95 516.072 1055.73 515.294 1056.68 515.294C1057.65 515.294 1058.42 516.072 1058.42 517.032Z" fill="#BDBDBD"/>
<path d="M1114.06 517.032C1114.06 517.993 1113.28 518.771 1112.32 518.771C1111.36 518.771 1110.58 517.992 1110.58 517.032C1110.58 516.072 1111.36 515.294 1112.32 515.294C1113.28 515.294 1114.06 516.072 1114.06 517.032Z" fill="#BDBDBD"/>
<path d="M1169.69 517.032C1169.69 517.993 1168.91 518.771 1167.95 518.771C1166.99 518.771 1166.21 517.992 1166.21 517.032C1166.21 516.072 1166.99 515.294 1167.95 515.294C1168.91 515.294 1169.69 516.072 1169.69 517.032Z" fill="#BDBDBD"/>
<path d="M1225.32 517.032C1225.32 517.993 1224.54 518.771 1223.58 518.771C1222.62 518.771 1221.84 517.992 1221.84 517.032C1221.84 516.072 1222.62 515.294 1223.58 515.294C1224.54 515.294 1225.32 516.072 1225.32 517.032Z" fill="#BDBDBD"/>
<path d="M1280.96 517.032C1280.96 517.993 1280.18 518.771 1279.22 518.771C1278.26 518.771 1277.48 517.992 1277.48 517.032C1277.48 516.072 1278.26 515.294 1279.22 515.294C1280.18 515.294 1280.96 516.072 1280.96 517.032Z" fill="#BDBDBD"/>
<path d="M1336.59 517.032C1336.59 517.993 1335.81 518.771 1334.85 518.771C1333.89 518.771 1333.11 517.992 1333.11 517.032C1333.11 516.072 1333.89 515.294 1334.85 515.294C1335.81 515.294 1336.59 516.072 1336.59 517.032Z" fill="#BDBDBD"/>
<path d="M1392.22 517.032C1392.22 517.993 1391.44 518.771 1390.48 518.771C1389.52 518.771 1388.74 517.992 1388.74 517.032C1388.74 516.072 1389.52 515.294 1390.48 515.294C1391.44 515.294 1392.22 516.072 1392.22 517.032Z" fill="#BDBDBD"/>
<path d="M57.0318 572.666C57.0318 573.626 56.2534 574.405 55.2932 574.405C54.3331 574.405 53.5547 573.627 53.5547 572.666C53.5547 571.706 54.3327 570.928 55.2932 570.928C56.2531 570.928 57.0318 571.706 57.0318 572.666Z" fill="#BDBDBD"/>
<path d="M112.664 572.666C112.664 573.626 111.886 574.405 110.925 574.405C109.965 574.405 109.187 573.627 109.187 572.666C109.187 571.706 109.965 570.928 110.925 570.928C111.886 570.928 112.664 571.706 112.664 572.666Z" fill="#BDBDBD"/>
<path d="M168.297 572.667C168.297 573.627 167.519 574.405 166.559 574.405C165.599 574.405 164.82 573.627 164.82 572.667C164.82 571.706 165.599 570.928 166.559 570.928C167.519 570.928 168.297 571.706 168.297 572.667Z" fill="#BDBDBD"/>
<path d="M223.93 572.666C223.93 573.626 223.152 574.405 222.192 574.405C221.232 574.405 220.453 573.627 220.453 572.666C220.453 571.706 221.231 570.928 222.192 570.928C223.152 570.928 223.93 571.706 223.93 572.666Z" fill="#BDBDBD"/>
<path d="M279.562 572.666C279.562 573.626 278.784 574.405 277.824 574.405C276.863 574.405 276.085 573.627 276.085 572.666C276.085 571.706 276.863 570.928 277.824 570.928C278.784 570.928 279.562 571.706 279.562 572.666Z" fill="#BDBDBD"/>
<path d="M335.195 572.667C335.195 573.627 334.417 574.405 333.457 574.405C332.497 574.405 331.719 573.627 331.719 572.667C331.719 571.706 332.497 570.928 333.457 570.928C334.417 570.928 335.195 571.706 335.195 572.667Z" fill="#BDBDBD"/>
<path d="M390.828 572.667C390.828 573.627 390.05 574.405 389.09 574.405C388.13 574.405 387.351 573.627 387.351 572.667C387.351 571.706 388.13 570.928 389.09 570.928C390.05 570.928 390.828 571.706 390.828 572.667Z" fill="#BDBDBD"/>
<path d="M446.462 572.666C446.462 573.626 445.683 574.405 444.723 574.405C443.763 574.405 442.984 573.627 442.984 572.666C442.984 571.706 443.763 570.928 444.723 570.928C445.683 570.928 446.462 571.706 446.462 572.666Z" fill="#BDBDBD"/>
<path d="M502.095 572.667C502.095 573.627 501.316 574.405 500.356 574.405C499.396 574.405 498.617 573.627 498.617 572.667C498.617 571.706 499.396 570.928 500.356 570.928C501.316 570.928 502.095 571.706 502.095 572.667Z" fill="#BDBDBD"/>
<path d="M557.728 572.667C557.728 573.627 556.95 574.405 555.989 574.405C555.029 574.405 554.251 573.627 554.251 572.667C554.251 571.706 555.029 570.928 555.989 570.928C556.95 570.928 557.728 571.706 557.728 572.667Z" fill="#BDBDBD"/>
<path d="M613.361 572.666C613.361 573.626 612.583 574.405 611.622 574.405C610.662 574.405 609.884 573.627 609.884 572.666C609.884 571.706 610.662 570.928 611.622 570.928C612.583 570.928 613.361 571.706 613.361 572.666Z" fill="#BDBDBD"/>
<path d="M668.994 572.667C668.994 573.627 668.216 574.405 667.255 574.405C666.295 574.405 665.517 573.627 665.517 572.667C665.517 571.706 666.295 570.928 667.255 570.928C668.216 570.928 668.994 571.706 668.994 572.667Z" fill="#BDBDBD"/>
<path d="M724.626 572.667C724.626 573.627 723.847 574.405 722.887 574.405C721.927 574.405 721.148 573.627 721.148 572.667C721.148 571.706 721.927 570.928 722.887 570.928C723.847 570.928 724.626 571.706 724.626 572.667Z" fill="#BDBDBD"/>
<path d="M780.259 572.666C780.259 573.626 779.481 574.405 778.521 574.405C777.561 574.405 776.782 573.627 776.782 572.666C776.782 571.706 777.561 570.928 778.521 570.928C779.481 570.928 780.259 571.706 780.259 572.666Z" fill="#BDBDBD"/>
<path d="M835.891 572.666C835.891 573.626 835.113 574.405 834.153 574.405C833.192 574.405 832.414 573.627 832.414 572.666C832.414 571.706 833.192 570.928 834.153 570.928C835.113 570.928 835.891 571.706 835.891 572.666Z" fill="#BDBDBD"/>
<path d="M891.525 572.667C891.525 573.627 890.747 574.405 889.786 574.405C888.826 574.405 888.048 573.627 888.048 572.667C888.048 571.706 888.826 570.928 889.786 570.928C890.747 570.928 891.525 571.706 891.525 572.667Z" fill="#BDBDBD"/>
<path d="M947.157 572.666C947.157 573.626 946.379 574.405 945.419 574.405C944.459 574.405 943.681 573.627 943.681 572.666C943.681 571.706 944.459 570.928 945.419 570.928C946.379 570.928 947.157 571.706 947.157 572.666Z" fill="#BDBDBD"/>
<path d="M1002.79 572.666C1002.79 573.626 1002.01 574.405 1001.05 574.405C1000.09 574.405 999.312 573.627 999.312 572.666C999.312 571.706 1000.09 570.928 1001.05 570.928C1002.01 570.928 1002.79 571.706 1002.79 572.666Z" fill="#BDBDBD"/>
<path d="M1058.42 572.667C1058.42 573.627 1057.65 574.405 1056.68 574.405C1055.72 574.405 1054.95 573.627 1054.95 572.667C1054.95 571.706 1055.73 570.928 1056.68 570.928C1057.65 570.928 1058.42 571.706 1058.42 572.667Z" fill="#BDBDBD"/>
<path d="M1114.06 572.667C1114.06 573.627 1113.28 574.405 1112.32 574.405C1111.36 574.405 1110.58 573.627 1110.58 572.667C1110.58 571.706 1111.36 570.928 1112.32 570.928C1113.28 570.928 1114.06 571.706 1114.06 572.667Z" fill="#BDBDBD"/>
<path d="M1169.69 572.667C1169.69 573.627 1168.91 574.405 1167.95 574.405C1166.99 574.405 1166.21 573.627 1166.21 572.667C1166.21 571.706 1166.99 570.928 1167.95 570.928C1168.91 570.928 1169.69 571.706 1169.69 572.667Z" fill="#BDBDBD"/>
<path d="M1225.32 572.667C1225.32 573.627 1224.54 574.405 1223.58 574.405C1222.62 574.405 1221.84 573.627 1221.84 572.667C1221.84 571.706 1222.62 570.928 1223.58 570.928C1224.54 570.928 1225.32 571.706 1225.32 572.667Z" fill="#BDBDBD"/>
<path d="M1280.96 572.667C1280.96 573.627 1280.18 574.405 1279.22 574.405C1278.26 574.405 1277.48 573.627 1277.48 572.667C1277.48 571.706 1278.26 570.928 1279.22 570.928C1280.18 570.928 1280.96 571.706 1280.96 572.667Z" fill="#BDBDBD"/>
<path d="M1336.59 572.667C1336.59 573.627 1335.81 574.405 1334.85 574.405C1333.89 574.405 1333.11 573.627 1333.11 572.667C1333.11 571.706 1333.89 570.928 1334.85 570.928C1335.81 570.928 1336.59 571.706 1336.59 572.667Z" fill="#BDBDBD"/>
<path d="M1392.22 572.667C1392.22 573.627 1391.44 574.405 1390.48 574.405C1389.52 574.405 1388.74 573.627 1388.74 572.667C1388.74 571.706 1389.52 570.928 1390.48 570.928C1391.44 570.928 1392.22 571.706 1392.22 572.667Z" fill="#BDBDBD"/>
<path d="M57.0318 628.299C57.0318 629.259 56.2534 630.037 55.2932 630.037C54.3331 630.037 53.5547 629.259 53.5547 628.299C53.5547 627.339 54.3327 626.561 55.2932 626.561C56.2531 626.561 57.0318 627.339 57.0318 628.299Z" fill="#BDBDBD"/>
<path d="M112.664 628.299C112.664 629.259 111.886 630.037 110.925 630.037C109.965 630.037 109.187 629.259 109.187 628.299C109.187 627.339 109.965 626.561 110.925 626.561C111.886 626.561 112.664 627.339 112.664 628.299Z" fill="#BDBDBD"/>
<path d="M168.297 628.299C168.297 629.259 167.519 630.037 166.559 630.037C165.599 630.037 164.82 629.259 164.82 628.299C164.82 627.339 165.599 626.561 166.559 626.561C167.519 626.561 168.297 627.339 168.297 628.299Z" fill="#BDBDBD"/>
<path d="M223.93 628.299C223.93 629.259 223.152 630.037 222.192 630.037C221.232 630.037 220.453 629.259 220.453 628.299C220.453 627.339 221.231 626.561 222.192 626.561C223.152 626.561 223.93 627.339 223.93 628.299Z" fill="#BDBDBD"/>
<path d="M279.562 628.299C279.562 629.259 278.784 630.037 277.824 630.037C276.863 630.037 276.085 629.259 276.085 628.299C276.085 627.339 276.863 626.561 277.824 626.561C278.784 626.561 279.562 627.339 279.562 628.299Z" fill="#BDBDBD"/>
<path d="M335.195 628.299C335.195 629.259 334.417 630.037 333.457 630.037C332.497 630.037 331.719 629.259 331.719 628.299C331.719 627.339 332.497 626.561 333.457 626.561C334.417 626.561 335.195 627.339 335.195 628.299Z" fill="#BDBDBD"/>
<path d="M390.828 628.299C390.828 629.259 390.05 630.037 389.09 630.037C388.13 630.037 387.351 629.259 387.351 628.299C387.351 627.339 388.13 626.561 389.09 626.561C390.05 626.561 390.828 627.339 390.828 628.299Z" fill="#BDBDBD"/>
<path d="M446.462 628.299C446.462 629.259 445.683 630.037 444.723 630.037C443.763 630.037 442.984 629.259 442.984 628.299C442.984 627.339 443.763 626.561 444.723 626.561C445.683 626.561 446.462 627.339 446.462 628.299Z" fill="#BDBDBD"/>
<path d="M502.095 628.299C502.095 629.259 501.316 630.037 500.356 630.037C499.396 630.037 498.617 629.259 498.617 628.299C498.617 627.339 499.396 626.561 500.356 626.561C501.316 626.561 502.095 627.339 502.095 628.299Z" fill="#BDBDBD"/>
<path d="M557.728 628.299C557.728 629.259 556.95 630.037 555.989 630.037C555.029 630.037 554.251 629.259 554.251 628.299C554.251 627.339 555.029 626.561 555.989 626.561C556.95 626.561 557.728 627.339 557.728 628.299Z" fill="#BDBDBD"/>
<path d="M613.361 628.299C613.361 629.259 612.583 630.037 611.622 630.037C610.662 630.037 609.884 629.259 609.884 628.299C609.884 627.339 610.662 626.561 611.622 626.561C612.583 626.561 613.361 627.339 613.361 628.299Z" fill="#BDBDBD"/>
<path d="M668.994 628.299C668.994 629.259 668.216 630.037 667.255 630.037C666.295 630.037 665.517 629.259 665.517 628.299C665.517 627.339 666.295 626.561 667.255 626.561C668.216 626.561 668.994 627.339 668.994 628.299Z" fill="#BDBDBD"/>
<path d="M724.626 628.299C724.626 629.259 723.847 630.037 722.887 630.037C721.927 630.037 721.148 629.259 721.148 628.299C721.148 627.339 721.927 626.561 722.887 626.561C723.847 626.561 724.626 627.339 724.626 628.299Z" fill="#BDBDBD"/>
<path d="M780.259 628.299C780.259 629.259 779.481 630.037 778.521 630.037C777.561 630.037 776.782 629.259 776.782 628.299C776.782 627.339 777.561 626.561 778.521 626.561C779.481 626.561 780.259 627.339 780.259 628.299Z" fill="#BDBDBD"/>
<path d="M835.891 628.299C835.891 629.259 835.113 630.037 834.153 630.037C833.192 630.037 832.414 629.259 832.414 628.299C832.414 627.339 833.192 626.561 834.153 626.561C835.113 626.561 835.891 627.339 835.891 628.299Z" fill="#BDBDBD"/>
<path d="M891.525 628.299C891.525 629.259 890.747 630.037 889.786 630.037C888.826 630.037 888.048 629.259 888.048 628.299C888.048 627.339 888.826 626.561 889.786 626.561C890.747 626.561 891.525 627.339 891.525 628.299Z" fill="#BDBDBD"/>
<path d="M947.157 628.299C947.157 629.259 946.379 630.037 945.419 630.037C944.459 630.037 943.681 629.259 943.681 628.299C943.681 627.339 944.459 626.561 945.419 626.561C946.379 626.561 947.157 627.339 947.157 628.299Z" fill="#BDBDBD"/>
<path d="M1002.79 628.299C1002.79 629.259 1002.01 630.037 1001.05 630.037C1000.09 630.037 999.312 629.259 999.312 628.299C999.312 627.339 1000.09 626.561 1001.05 626.561C1002.01 626.561 1002.79 627.339 1002.79 628.299Z" fill="#BDBDBD"/>
<path d="M1058.42 628.299C1058.42 629.259 1057.65 630.037 1056.68 630.037C1055.72 630.037 1054.95 629.259 1054.95 628.299C1054.95 627.339 1055.73 626.561 1056.68 626.561C1057.65 626.561 1058.42 627.339 1058.42 628.299Z" fill="#BDBDBD"/>
<path d="M1114.06 628.299C1114.06 629.259 1113.28 630.037 1112.32 630.037C1111.36 630.037 1110.58 629.259 1110.58 628.299C1110.58 627.339 1111.36 626.561 1112.32 626.561C1113.28 626.561 1114.06 627.339 1114.06 628.299Z" fill="#BDBDBD"/>
<path d="M1169.69 628.299C1169.69 629.259 1168.91 630.037 1167.95 630.037C1166.99 630.037 1166.21 629.259 1166.21 628.299C1166.21 627.339 1166.99 626.561 1167.95 626.561C1168.91 626.561 1169.69 627.339 1169.69 628.299Z" fill="#BDBDBD"/>
<path d="M1225.32 628.299C1225.32 629.259 1224.54 630.037 1223.58 630.037C1222.62 630.037 1221.84 629.259 1221.84 628.299C1221.84 627.339 1222.62 626.561 1223.58 626.561C1224.54 626.561 1225.32 627.339 1225.32 628.299Z" fill="#BDBDBD"/>
<path d="M1280.96 628.299C1280.96 629.259 1280.18 630.037 1279.22 630.037C1278.26 630.037 1277.48 629.259 1277.48 628.299C1277.48 627.339 1278.26 626.561 1279.22 626.561C1280.18 626.561 1280.96 627.339 1280.96 628.299Z" fill="#BDBDBD"/>
<path d="M1336.59 628.299C1336.59 629.259 1335.81 630.037 1334.85 630.037C1333.89 630.037 1333.11 629.259 1333.11 628.299C1333.11 627.339 1333.89 626.561 1334.85 626.561C1335.81 626.561 1336.59 627.339 1336.59 628.299Z" fill="#BDBDBD"/>
<path d="M1392.22 628.299C1392.22 629.259 1391.44 630.037 1390.48 630.037C1389.52 630.037 1388.74 629.259 1388.74 628.299C1388.74 627.339 1389.52 626.561 1390.48 626.561C1391.44 626.561 1392.22 627.339 1392.22 628.299Z" fill="#BDBDBD"/>
<path d="M57.0318 683.932C57.0318 684.892 56.2534 685.67 55.2932 685.67C54.3331 685.67 53.5547 684.892 53.5547 683.932C53.5547 682.972 54.3327 682.193 55.2932 682.193C56.2531 682.193 57.0318 682.972 57.0318 683.932Z" fill="#BDBDBD"/>
<path d="M112.664 683.932C112.664 684.892 111.886 685.67 110.925 685.67C109.965 685.67 109.187 684.892 109.187 683.932C109.187 682.972 109.965 682.193 110.925 682.193C111.886 682.193 112.664 682.972 112.664 683.932Z" fill="#BDBDBD"/>
<path d="M168.297 683.932C168.297 684.892 167.519 685.67 166.559 685.67C165.599 685.67 164.82 684.892 164.82 683.932C164.82 682.972 165.599 682.193 166.559 682.193C167.519 682.193 168.297 682.972 168.297 683.932Z" fill="#BDBDBD"/>
<path d="M223.93 683.932C223.93 684.892 223.152 685.67 222.192 685.67C221.232 685.67 220.453 684.892 220.453 683.932C220.453 682.972 221.231 682.193 222.192 682.193C223.152 682.193 223.93 682.972 223.93 683.932Z" fill="#BDBDBD"/>
<path d="M279.562 683.932C279.562 684.892 278.784 685.67 277.824 685.67C276.863 685.67 276.085 684.892 276.085 683.932C276.085 682.972 276.863 682.193 277.824 682.193C278.784 682.193 279.562 682.972 279.562 683.932Z" fill="#BDBDBD"/>
<path d="M335.195 683.932C335.195 684.892 334.417 685.67 333.457 685.67C332.497 685.67 331.719 684.892 331.719 683.932C331.719 682.972 332.497 682.193 333.457 682.193C334.417 682.193 335.195 682.972 335.195 683.932Z" fill="#BDBDBD"/>
<path d="M390.829 683.932C390.829 684.892 390.05 685.67 389.09 685.67C388.13 685.67 387.352 684.892 387.352 683.932C387.352 682.972 388.13 682.193 389.09 682.193C390.05 682.193 390.829 682.972 390.829 683.932Z" fill="#BDBDBD"/>
<path d="M446.462 683.932C446.462 684.892 445.683 685.67 444.723 685.67C443.763 685.67 442.984 684.892 442.984 683.932C442.984 682.972 443.763 682.193 444.723 682.193C445.683 682.193 446.462 682.972 446.462 683.932Z" fill="#BDBDBD"/>
<path d="M502.094 683.932C502.094 684.892 501.316 685.67 500.355 685.67C499.396 685.67 498.617 684.892 498.617 683.932C498.617 682.972 499.396 682.193 500.355 682.193C501.316 682.193 502.094 682.972 502.094 683.932Z" fill="#BDBDBD"/>
<path d="M557.728 683.932C557.728 684.892 556.95 685.67 555.99 685.67C555.029 685.67 554.251 684.892 554.251 683.932C554.251 682.972 555.029 682.193 555.99 682.193C556.95 682.193 557.728 682.972 557.728 683.932Z" fill="#BDBDBD"/>
<path d="M613.361 683.932C613.361 684.892 612.583 685.67 611.622 685.67C610.662 685.67 609.884 684.892 609.884 683.932C609.884 682.972 610.662 682.193 611.622 682.193C612.583 682.193 613.361 682.972 613.361 683.932Z" fill="#BDBDBD"/>
<path d="M668.994 683.932C668.994 684.892 668.215 685.67 667.255 685.67C666.295 685.67 665.517 684.892 665.517 683.932C665.517 682.972 666.295 682.193 667.255 682.193C668.215 682.193 668.994 682.972 668.994 683.932Z" fill="#BDBDBD"/>
<path d="M724.626 683.932C724.626 684.892 723.847 685.67 722.887 685.67C721.927 685.67 721.148 684.892 721.148 683.932C721.148 682.972 721.927 682.193 722.887 682.193C723.847 682.193 724.626 682.972 724.626 683.932Z" fill="#BDBDBD"/>
<path d="M780.259 683.932C780.259 684.892 779.481 685.67 778.521 685.67C777.561 685.67 776.782 684.892 776.782 683.932C776.782 682.972 777.561 682.193 778.521 682.193C779.481 682.193 780.259 682.972 780.259 683.932Z" fill="#BDBDBD"/>
<path d="M835.891 683.932C835.891 684.892 835.113 685.67 834.153 685.67C833.192 685.67 832.414 684.892 832.414 683.932C832.414 682.972 833.192 682.193 834.153 682.193C835.113 682.193 835.891 682.972 835.891 683.932Z" fill="#BDBDBD"/>
<path d="M891.525 683.932C891.525 684.892 890.747 685.67 889.786 685.67C888.826 685.67 888.048 684.892 888.048 683.932C888.048 682.972 888.826 682.193 889.786 682.193C890.747 682.193 891.525 682.972 891.525 683.932Z" fill="#BDBDBD"/>
<path d="M947.157 683.932C947.157 684.892 946.379 685.67 945.419 685.67C944.459 685.67 943.681 684.892 943.681 683.932C943.681 682.972 944.459 682.193 945.419 682.193C946.379 682.193 947.157 682.972 947.157 683.932Z" fill="#BDBDBD"/>
<path d="M1002.79 683.932C1002.79 684.892 1002.01 685.67 1001.05 685.67C1000.09 685.67 999.312 684.892 999.312 683.932C999.312 682.972 1000.09 682.193 1001.05 682.193C1002.01 682.193 1002.79 682.972 1002.79 683.932Z" fill="#BDBDBD"/>
<path d="M1058.42 683.932C1058.42 684.892 1057.65 685.67 1056.68 685.67C1055.72 685.67 1054.95 684.892 1054.95 683.932C1054.95 682.972 1055.73 682.193 1056.68 682.193C1057.65 682.193 1058.42 682.972 1058.42 683.932Z" fill="#BDBDBD"/>
<path d="M1114.06 683.932C1114.06 684.892 1113.28 685.67 1112.32 685.67C1111.36 685.67 1110.58 684.892 1110.58 683.932C1110.58 682.972 1111.36 682.193 1112.32 682.193C1113.28 682.193 1114.06 682.972 1114.06 683.932Z" fill="#BDBDBD"/>
<path d="M1169.69 683.932C1169.69 684.892 1168.91 685.67 1167.95 685.67C1166.99 685.67 1166.21 684.892 1166.21 683.932C1166.21 682.972 1166.99 682.193 1167.95 682.193C1168.91 682.193 1169.69 682.972 1169.69 683.932Z" fill="#BDBDBD"/>
<path d="M1225.32 683.932C1225.32 684.892 1224.54 685.67 1223.58 685.67C1222.62 685.67 1221.84 684.892 1221.84 683.932C1221.84 682.972 1222.62 682.193 1223.58 682.193C1224.54 682.193 1225.32 682.972 1225.32 683.932Z" fill="#BDBDBD"/>
<path d="M1280.96 683.932C1280.96 684.892 1280.18 685.67 1279.22 685.67C1278.26 685.67 1277.48 684.892 1277.48 683.932C1277.48 682.972 1278.26 682.193 1279.22 682.193C1280.18 682.193 1280.96 682.972 1280.96 683.932Z" fill="#BDBDBD"/>
<path d="M1336.59 683.932C1336.59 684.892 1335.81 685.67 1334.85 685.67C1333.89 685.67 1333.11 684.892 1333.11 683.932C1333.11 682.972 1333.89 682.193 1334.85 682.193C1335.81 682.193 1336.59 682.972 1336.59 683.932Z" fill="#BDBDBD"/>
<path d="M1392.22 683.932C1392.22 684.892 1391.44 685.67 1390.48 685.67C1389.52 685.67 1388.74 684.892 1388.74 683.932C1388.74 682.972 1389.52 682.193 1390.48 682.193C1391.44 682.193 1392.22 682.972 1392.22 683.932Z" fill="#BDBDBD"/>
<path d="M57.0318 739.565C57.0318 740.525 56.2534 741.303 55.2932 741.303C54.3331 741.303 53.5547 740.525 53.5547 739.565C53.5547 738.605 54.3327 737.826 55.2932 737.826C56.2531 737.826 57.0318 738.605 57.0318 739.565Z" fill="#BDBDBD"/>
<path d="M112.664 739.565C112.664 740.525 111.886 741.303 110.925 741.303C109.965 741.303 109.187 740.525 109.187 739.565C109.187 738.605 109.965 737.826 110.925 737.826C111.886 737.826 112.664 738.605 112.664 739.565Z" fill="#BDBDBD"/>
<path d="M168.297 739.565C168.297 740.525 167.519 741.303 166.559 741.303C165.599 741.303 164.82 740.525 164.82 739.565C164.82 738.605 165.599 737.826 166.559 737.826C167.519 737.826 168.297 738.605 168.297 739.565Z" fill="#BDBDBD"/>
<path d="M223.93 739.565C223.93 740.525 223.152 741.303 222.192 741.303C221.232 741.303 220.453 740.525 220.453 739.565C220.453 738.605 221.231 737.826 222.192 737.826C223.152 737.826 223.93 738.605 223.93 739.565Z" fill="#BDBDBD"/>
<path d="M279.562 739.565C279.562 740.525 278.784 741.303 277.824 741.303C276.863 741.303 276.085 740.525 276.085 739.565C276.085 738.605 276.863 737.826 277.824 737.826C278.784 737.826 279.562 738.605 279.562 739.565Z" fill="#BDBDBD"/>
<path d="M335.195 739.565C335.195 740.525 334.417 741.303 333.457 741.303C332.497 741.303 331.719 740.525 331.719 739.565C331.719 738.605 332.497 737.826 333.457 737.826C334.417 737.826 335.195 738.605 335.195 739.565Z" fill="#BDBDBD"/>
<path d="M390.829 739.565C390.829 740.525 390.05 741.303 389.09 741.303C388.13 741.303 387.352 740.525 387.352 739.565C387.352 738.605 388.13 737.826 389.09 737.826C390.05 737.826 390.829 738.605 390.829 739.565Z" fill="#BDBDBD"/>
<path d="M446.462 739.565C446.462 740.525 445.683 741.303 444.723 741.303C443.763 741.303 442.984 740.525 442.984 739.565C442.984 738.605 443.763 737.826 444.723 737.826C445.683 737.826 446.462 738.605 446.462 739.565Z" fill="#BDBDBD"/>
<path d="M502.094 739.565C502.094 740.525 501.316 741.303 500.355 741.303C499.396 741.303 498.617 740.525 498.617 739.565C498.617 738.605 499.396 737.826 500.355 737.826C501.316 737.826 502.094 738.605 502.094 739.565Z" fill="#BDBDBD"/>
<path d="M557.728 739.565C557.728 740.525 556.95 741.303 555.99 741.303C555.029 741.303 554.251 740.525 554.251 739.565C554.251 738.605 555.029 737.826 555.99 737.826C556.95 737.826 557.728 738.605 557.728 739.565Z" fill="#BDBDBD"/>
<path d="M613.361 739.565C613.361 740.525 612.583 741.303 611.622 741.303C610.662 741.303 609.884 740.525 609.884 739.565C609.884 738.605 610.662 737.826 611.622 737.826C612.583 737.826 613.361 738.605 613.361 739.565Z" fill="#BDBDBD"/>
<path d="M668.994 739.565C668.994 740.525 668.215 741.303 667.255 741.303C666.295 741.303 665.517 740.525 665.517 739.565C665.517 738.605 666.295 737.826 667.255 737.826C668.215 737.826 668.994 738.605 668.994 739.565Z" fill="#BDBDBD"/>
<path d="M724.626 739.565C724.626 740.525 723.847 741.303 722.887 741.303C721.927 741.303 721.148 740.525 721.148 739.565C721.148 738.605 721.927 737.826 722.887 737.826C723.847 737.826 724.626 738.605 724.626 739.565Z" fill="#BDBDBD"/>
<path d="M780.259 739.565C780.259 740.525 779.481 741.303 778.521 741.303C777.561 741.303 776.782 740.525 776.782 739.565C776.782 738.605 777.561 737.826 778.521 737.826C779.481 737.826 780.259 738.605 780.259 739.565Z" fill="#BDBDBD"/>
<path d="M835.891 739.565C835.891 740.525 835.113 741.303 834.153 741.303C833.192 741.303 832.414 740.525 832.414 739.565C832.414 738.605 833.192 737.826 834.153 737.826C835.113 737.826 835.891 738.605 835.891 739.565Z" fill="#BDBDBD"/>
<path d="M891.525 739.565C891.525 740.525 890.747 741.303 889.786 741.303C888.826 741.303 888.048 740.525 888.048 739.565C888.048 738.605 888.826 737.826 889.786 737.826C890.747 737.826 891.525 738.605 891.525 739.565Z" fill="#BDBDBD"/>
<path d="M947.157 739.565C947.157 740.525 946.379 741.303 945.419 741.303C944.459 741.303 943.681 740.525 943.681 739.565C943.681 738.605 944.459 737.826 945.419 737.826C946.379 737.826 947.157 738.605 947.157 739.565Z" fill="#BDBDBD"/>
<path d="M1002.79 739.565C1002.79 740.525 1002.01 741.303 1001.05 741.303C1000.09 741.303 999.312 740.525 999.312 739.565C999.312 738.605 1000.09 737.826 1001.05 737.826C1002.01 737.826 1002.79 738.605 1002.79 739.565Z" fill="#BDBDBD"/>
<path d="M1058.42 739.565C1058.42 740.525 1057.65 741.303 1056.68 741.303C1055.72 741.303 1054.95 740.525 1054.95 739.565C1054.95 738.605 1055.73 737.826 1056.68 737.826C1057.65 737.826 1058.42 738.605 1058.42 739.565Z" fill="#BDBDBD"/>
<path d="M1114.06 739.565C1114.06 740.525 1113.28 741.303 1112.32 741.303C1111.36 741.303 1110.58 740.525 1110.58 739.565C1110.58 738.605 1111.36 737.826 1112.32 737.826C1113.28 737.826 1114.06 738.605 1114.06 739.565Z" fill="#BDBDBD"/>
<path d="M1169.69 739.565C1169.69 740.525 1168.91 741.303 1167.95 741.303C1166.99 741.303 1166.21 740.525 1166.21 739.565C1166.21 738.605 1166.99 737.826 1167.95 737.826C1168.91 737.826 1169.69 738.605 1169.69 739.565Z" fill="#BDBDBD"/>
<path d="M1225.32 739.565C1225.32 740.525 1224.54 741.303 1223.58 741.303C1222.62 741.303 1221.84 740.525 1221.84 739.565C1221.84 738.605 1222.62 737.826 1223.58 737.826C1224.54 737.826 1225.32 738.605 1225.32 739.565Z" fill="#BDBDBD"/>
<path d="M1280.96 739.565C1280.96 740.525 1280.18 741.303 1279.22 741.303C1278.26 741.303 1277.48 740.525 1277.48 739.565C1277.48 738.605 1278.26 737.826 1279.22 737.826C1280.18 737.826 1280.96 738.605 1280.96 739.565Z" fill="#BDBDBD"/>
<path d="M1336.59 739.565C1336.59 740.525 1335.81 741.303 1334.85 741.303C1333.89 741.303 1333.11 740.525 1333.11 739.565C1333.11 738.605 1333.89 737.826 1334.85 737.826C1335.81 737.826 1336.59 738.605 1336.59 739.565Z" fill="#BDBDBD"/>
<path d="M1392.22 739.565C1392.22 740.525 1391.44 741.303 1390.48 741.303C1389.52 741.303 1388.74 740.525 1388.74 739.565C1388.74 738.605 1389.52 737.826 1390.48 737.826C1391.44 737.826 1392.22 738.605 1392.22 739.565Z" fill="#BDBDBD"/>
<path d="M57.0318 795.198C57.0318 796.158 56.2534 796.937 55.2932 796.937C54.3331 796.937 53.5547 796.158 53.5547 795.198C53.5547 794.238 54.3327 793.46 55.2932 793.46C56.2531 793.46 57.0318 794.238 57.0318 795.198Z" fill="#BDBDBD"/>
<path d="M112.664 795.198C112.664 796.158 111.886 796.937 110.925 796.937C109.965 796.937 109.187 796.158 109.187 795.198C109.187 794.238 109.965 793.46 110.925 793.46C111.886 793.46 112.664 794.238 112.664 795.198Z" fill="#BDBDBD"/>
<path d="M168.297 795.198C168.297 796.158 167.519 796.936 166.559 796.936C165.599 796.936 164.82 796.158 164.82 795.198C164.82 794.238 165.599 793.459 166.559 793.459C167.519 793.459 168.297 794.237 168.297 795.198Z" fill="#BDBDBD"/>
<path d="M223.93 795.198C223.93 796.158 223.152 796.937 222.192 796.937C221.232 796.937 220.453 796.158 220.453 795.198C220.453 794.238 221.231 793.46 222.192 793.46C223.152 793.46 223.93 794.238 223.93 795.198Z" fill="#BDBDBD"/>
<path d="M279.562 795.198C279.562 796.158 278.784 796.937 277.824 796.937C276.863 796.937 276.085 796.158 276.085 795.198C276.085 794.238 276.863 793.46 277.824 793.46C278.784 793.46 279.562 794.238 279.562 795.198Z" fill="#BDBDBD"/>
<path d="M335.195 795.198C335.195 796.158 334.417 796.936 333.457 796.936C332.497 796.936 331.719 796.158 331.719 795.198C331.719 794.238 332.497 793.459 333.457 793.459C334.417 793.459 335.195 794.237 335.195 795.198Z" fill="#BDBDBD"/>
<path d="M390.828 795.198C390.828 796.158 390.05 796.936 389.09 796.936C388.13 796.936 387.351 796.158 387.351 795.198C387.351 794.238 388.13 793.459 389.09 793.459C390.05 793.459 390.828 794.237 390.828 795.198Z" fill="#BDBDBD"/>
<path d="M446.462 795.198C446.462 796.158 445.683 796.937 444.723 796.937C443.763 796.937 442.984 796.158 442.984 795.198C442.984 794.238 443.763 793.46 444.723 793.46C445.683 793.46 446.462 794.238 446.462 795.198Z" fill="#BDBDBD"/>
<path d="M502.095 795.198C502.095 796.158 501.316 796.936 500.356 796.936C499.396 796.936 498.617 796.158 498.617 795.198C498.617 794.238 499.396 793.459 500.356 793.459C501.316 793.459 502.095 794.237 502.095 795.198Z" fill="#BDBDBD"/>
<path d="M557.728 795.198C557.728 796.158 556.95 796.936 555.989 796.936C555.029 796.936 554.251 796.158 554.251 795.198C554.251 794.238 555.029 793.459 555.989 793.459C556.95 793.459 557.728 794.237 557.728 795.198Z" fill="#BDBDBD"/>
<path d="M613.361 795.198C613.361 796.158 612.583 796.937 611.622 796.937C610.662 796.937 609.884 796.158 609.884 795.198C609.884 794.238 610.662 793.46 611.622 793.46C612.583 793.46 613.361 794.238 613.361 795.198Z" fill="#BDBDBD"/>
<path d="M668.994 795.198C668.994 796.158 668.216 796.936 667.255 796.936C666.295 796.936 665.517 796.158 665.517 795.198C665.517 794.238 666.295 793.459 667.255 793.459C668.216 793.459 668.994 794.237 668.994 795.198Z" fill="#BDBDBD"/>
<path d="M724.626 795.198C724.626 796.158 723.847 796.936 722.887 796.936C721.927 796.936 721.148 796.158 721.148 795.198C721.148 794.238 721.927 793.459 722.887 793.459C723.847 793.459 724.626 794.237 724.626 795.198Z" fill="#BDBDBD"/>
<path d="M780.259 795.198C780.259 796.158 779.481 796.937 778.521 796.937C777.561 796.937 776.782 796.158 776.782 795.198C776.782 794.238 777.561 793.46 778.521 793.46C779.481 793.46 780.259 794.238 780.259 795.198Z" fill="#BDBDBD"/>
<path d="M835.891 795.198C835.891 796.158 835.113 796.937 834.153 796.937C833.192 796.937 832.414 796.158 832.414 795.198C832.414 794.238 833.192 793.46 834.153 793.46C835.113 793.46 835.891 794.238 835.891 795.198Z" fill="#BDBDBD"/>
<path d="M891.525 795.198C891.525 796.158 890.747 796.936 889.786 796.936C888.826 796.936 888.048 796.158 888.048 795.198C888.048 794.238 888.826 793.459 889.786 793.459C890.747 793.459 891.525 794.237 891.525 795.198Z" fill="#BDBDBD"/>
<path d="M947.157 795.198C947.157 796.158 946.379 796.937 945.419 796.937C944.459 796.937 943.681 796.158 943.681 795.198C943.681 794.238 944.459 793.46 945.419 793.46C946.379 793.46 947.157 794.238 947.157 795.198Z" fill="#BDBDBD"/>
<path d="M1002.79 795.198C1002.79 796.158 1002.01 796.937 1001.05 796.937C1000.09 796.937 999.312 796.158 999.312 795.198C999.312 794.238 1000.09 793.46 1001.05 793.46C1002.01 793.46 1002.79 794.238 1002.79 795.198Z" fill="#BDBDBD"/>
<path d="M1058.42 795.198C1058.42 796.158 1057.65 796.936 1056.68 796.936C1055.72 796.936 1054.95 796.158 1054.95 795.198C1054.95 794.238 1055.73 793.459 1056.68 793.459C1057.65 793.459 1058.42 794.237 1058.42 795.198Z" fill="#BDBDBD"/>
<path d="M1114.06 795.198C1114.06 796.158 1113.28 796.936 1112.32 796.936C1111.36 796.936 1110.58 796.158 1110.58 795.198C1110.58 794.238 1111.36 793.459 1112.32 793.459C1113.28 793.459 1114.06 794.237 1114.06 795.198Z" fill="#BDBDBD"/>
<path d="M1169.69 795.198C1169.69 796.158 1168.91 796.936 1167.95 796.936C1166.99 796.936 1166.21 796.158 1166.21 795.198C1166.21 794.238 1166.99 793.459 1167.95 793.459C1168.91 793.459 1169.69 794.237 1169.69 795.198Z" fill="#BDBDBD"/>
<path d="M1225.32 795.198C1225.32 796.158 1224.54 796.936 1223.58 796.936C1222.62 796.936 1221.84 796.158 1221.84 795.198C1221.84 794.238 1222.62 793.459 1223.58 793.459C1224.54 793.459 1225.32 794.237 1225.32 795.198Z" fill="#BDBDBD"/>
<path d="M1280.96 795.198C1280.96 796.158 1280.18 796.936 1279.22 796.936C1278.26 796.936 1277.48 796.158 1277.48 795.198C1277.48 794.238 1278.26 793.459 1279.22 793.459C1280.18 793.459 1280.96 794.237 1280.96 795.198Z" fill="#BDBDBD"/>
<path d="M1336.59 795.198C1336.59 796.158 1335.81 796.936 1334.85 796.936C1333.89 796.936 1333.11 796.158 1333.11 795.198C1333.11 794.238 1333.89 793.459 1334.85 793.459C1335.81 793.459 1336.59 794.237 1336.59 795.198Z" fill="#BDBDBD"/>
<path d="M1392.22 795.198C1392.22 796.158 1391.44 796.936 1390.48 796.936C1389.52 796.936 1388.74 796.158 1388.74 795.198C1388.74 794.238 1389.52 793.459 1390.48 793.459C1391.44 793.459 1392.22 794.237 1392.22 795.198Z" fill="#BDBDBD"/>
</g>
</svg>
