<svg width="35" height="35" viewBox="0 0 35 35" fill="none" xmlns="http://www.w3.org/2000/svg">
<rect x="0.214062" y="0.214062" width="33.8219" height="33.8219" rx="1.78594" stroke="#BDBDBD" stroke-opacity="0.5" stroke-width="0.428125"/>
<g clip-path="url(#clip0_268_47454)">
<path d="M24.5759 9H10.5491C9.69356 9 9 9.69356 9 10.5491V24.5759C9 25.4314 9.69356 26.125 10.5491 26.125H24.5759C25.4314 26.125 26.125 25.4314 26.125 24.5759V10.5491C26.125 9.69356 25.4314 9 24.5759 9ZM14.2992 23.7869C14.2992 24.0358 14.0974 24.2377 13.8484 24.2377H11.9294C11.6804 24.2377 11.4786 24.0358 11.4786 23.7869V15.7425C11.4786 15.4936 11.6804 15.2917 11.9294 15.2917H13.8484C14.0974 15.2917 14.2992 15.4936 14.2992 15.7425V23.7869ZM12.8889 14.5334C11.8821 14.5334 11.0658 13.7172 11.0658 12.7104C11.0658 11.7036 11.8821 10.8873 12.8889 10.8873C13.8957 10.8873 14.7119 11.7036 14.7119 12.7104C14.7119 13.7172 13.8958 14.5334 12.8889 14.5334ZM24.3278 23.8232C24.3278 24.0521 24.1422 24.2377 23.9133 24.2377H21.8541C21.6252 24.2377 21.4396 24.0521 21.4396 23.8232V20.0499C21.4396 19.487 21.6047 17.5833 19.9686 17.5833C18.6995 17.5833 18.4421 18.8864 18.3904 19.4711V23.8232C18.3904 24.0521 18.2048 24.2377 17.9759 24.2377H15.9843C15.7554 24.2377 15.5698 24.0521 15.5698 23.8232V15.7062C15.5698 15.4773 15.7554 15.2917 15.9843 15.2917H17.9759C18.2048 15.2917 18.3904 15.4773 18.3904 15.7062V16.408C18.861 15.7018 19.5603 15.1568 21.0493 15.1568C24.3466 15.1568 24.3278 18.2373 24.3278 19.9299V23.8232Z" fill="#BDBDBD"/>
</g>
<defs>
<clipPath id="clip0_268_47454">
<rect width="17.125" height="17.125" fill="white" transform="translate(9 9)"/>
</clipPath>
</defs>
</svg>
