<svg width="142" height="43" viewBox="0 0 142 43" fill="none" xmlns="http://www.w3.org/2000/svg">
<g clip-path="url(#clip0_103_8626)">
<path d="M35.3879 24.5762C35.3879 29.335 33.9339 33.2273 31.238 35.9129C28.5988 38.5842 24.2755 40.0505 18.8273 40.106C18.7194 40.106 18.6097 40.106 18.5 40.106C18.3355 40.106 18.171 40.106 18.0083 40.106C15.6733 40.0917 13.6779 39.9753 11.9603 39.7855C11.8383 39.773 11.748 39.6674 11.748 39.5438V27.362C11.748 26.7945 11.932 26.2412 12.2734 25.7901C12.4326 25.5788 12.6077 25.3783 12.797 25.1903C13.586 24.4025 14.5872 23.8618 15.6804 23.6308L17.8685 23.1725C18.1232 23.1188 18.1232 22.7518 17.8685 22.6981L15.6804 22.2397C14.5889 22.0105 13.586 21.4698 12.797 20.6803C12.6077 20.4923 12.4326 20.2918 12.2734 20.0805C11.932 19.6293 11.7498 19.0779 11.7498 18.5103V11.2897C11.7498 11.1697 11.8365 11.0677 11.9532 11.0498C14.175 10.7186 16.7983 10.4769 19.6569 10.4769C24.999 10.4769 28.8022 11.7301 31.3265 14.1114C33.8914 16.489 35.3879 19.8621 35.3879 24.578V24.5762Z" fill="#FF5E2D"/>
<path d="M39.8343 8.76924H9.38413V18.4284C9.38413 18.9601 9.22492 19.4811 8.92067 19.9144C8.72963 20.1865 8.51382 20.4426 8.27678 20.6789C7.48784 21.4667 6.48663 22.0074 5.39344 22.2383L3.20529 22.6967C2.95056 22.7504 2.95056 23.1174 3.20529 23.1711L5.39344 23.6295C6.48487 23.8586 7.48608 24.3993 8.27678 25.1889C8.51382 25.4252 8.72786 25.6812 8.9189 25.9516C9.22316 26.3849 9.38236 26.9059 9.38236 27.4376V40.0169L0 30.5207V0.275635V0.270264H30.4909L39.8326 8.76924H39.8343Z" fill="#FF5E2D"/>
</g>
<path d="M80.9227 38.7218C79.9807 38.7218 79.1133 38.5853 78.3272 38.3122C77.5389 38.0392 76.8838 37.7012 76.3643 37.2983L77.584 35.3892C78.072 35.7272 78.6005 36.0047 79.1698 36.2218C79.739 36.4389 80.3241 36.5486 80.9249 36.5486C81.5258 36.5486 81.9776 36.4277 82.3277 36.186C82.6778 35.9443 82.8517 35.6309 82.8517 35.2437C82.8517 34.8565 82.7094 34.5723 82.4248 34.3865C82.1402 34.2007 81.7697 34.044 81.3157 33.9142C80.8594 33.7867 80.376 33.6568 79.8655 33.527C79.3527 33.3972 78.8693 33.2137 78.4153 32.972C77.959 32.7302 77.5863 32.3923 77.2949 31.9581C77.0035 31.5239 76.8567 30.9352 76.8567 30.1944C76.8567 29.0999 77.2701 28.2091 78.0991 27.5243C78.9281 26.8394 80.0417 26.4969 81.4399 26.4969C82.2193 26.4969 82.9602 26.6021 83.6582 26.8103C84.3562 27.0207 84.9819 27.3094 85.5353 27.6809L84.2929 29.5409C83.8705 29.2499 83.4142 29.0261 82.9285 28.8649C82.4406 28.7038 81.9369 28.6232 81.4174 28.6232C80.8481 28.6232 80.3941 28.7485 80.053 28.997C79.7119 29.2477 79.5402 29.5655 79.5402 29.9504C79.5402 30.3041 79.6893 30.5838 79.992 30.783C80.2924 30.9845 80.6742 31.1456 81.1373 31.2665C81.6003 31.3873 82.0928 31.5194 82.6123 31.6649C83.1318 31.8104 83.6243 32.0073 84.0873 32.2558C84.5504 32.5064 84.9322 32.8466 85.2326 33.2831C85.533 33.7173 85.6844 34.3059 85.6844 35.0467C85.6844 35.7876 85.4766 36.4076 85.0632 36.9559C84.6498 37.5043 84.0873 37.934 83.3803 38.2473C82.6733 38.5607 81.8556 38.7173 80.9294 38.7173L80.9227 38.7218Z" fill="#FF5E2D"/>
<path d="M106.726 38.6408V26.877H109.432V30.1134H108.675C108.854 29.4039 109.107 28.8242 109.432 28.3743C109.757 27.9244 110.128 27.573 110.541 27.3224C110.955 27.0717 111.382 26.8949 111.822 26.7919C112.26 26.6867 112.66 26.6353 113.017 26.6353C114.35 26.6353 115.418 27.0672 116.222 27.9267C117.027 28.7884 117.429 30.0238 117.429 31.6353V38.6408H114.625V32.0941C114.625 31.0646 114.406 30.3193 113.968 29.8605C113.53 29.4016 112.952 29.1711 112.238 29.1711C111.734 29.1711 111.275 29.283 110.86 29.5091C110.446 29.7351 110.121 30.0686 109.884 30.5118C109.649 30.9549 109.532 31.4988 109.532 32.1434V38.6408H106.728H106.726Z" fill="#FF5E2D"/>
<path d="M132 38.6398V26.876H134.707V30.2825L134.366 30.2579C134.415 29.3716 134.6 28.6755 134.926 28.1675C135.251 27.6594 135.673 27.3013 136.193 27.0931C136.713 26.885 137.282 26.7798 137.901 26.7798H138.877V29.5327H137.682C136.755 29.5327 136.044 29.7431 135.549 30.1617C135.052 30.5802 134.806 31.1935 134.806 31.997V38.6398H132.003H132Z" fill="#FF5E2D"/>
<path d="M130.198 34.3232C130.198 37.2798 128.327 38.8018 125.054 38.8018C121.447 38.8018 119.242 36.1316 119.242 32.5125C119.242 28.2331 122.204 26.4001 124.921 26.2031C128.149 25.9815 129.976 27.593 129.976 29.7998C129.976 31.1025 129.619 32.1387 127.839 32.9109L122.807 35.0282C123.319 35.8004 124.076 36.2189 124.944 36.2189C126.258 36.2189 127.282 35.6661 127.282 34.3209H130.198V34.3232ZM122.181 33.0228L126.324 31.2569C126.791 31.0577 127.171 30.8384 127.171 30.2631C127.171 29.3142 126.236 28.6964 125.167 28.6964C123.764 28.6964 122.161 29.7551 122.161 32.5125C122.161 32.6893 122.161 32.8438 122.183 33.0206L122.181 33.0228Z" fill="#FF5E2D"/>
<path d="M74.4892 34.2603C74.4892 37.2169 72.6189 38.7389 69.3458 38.7389C65.7384 38.7389 63.5337 36.0688 63.5337 32.4496C63.5337 28.1703 66.4951 26.3372 69.2125 26.1402C72.4404 25.9187 74.2679 27.5301 74.2679 29.737C74.2679 31.0396 73.911 32.0759 72.131 32.848L67.0982 34.9653C67.611 35.7375 68.3677 36.156 69.2351 36.156C70.5498 36.156 71.573 35.6032 71.573 34.2581H74.4892V34.2603ZM66.4725 32.9577L70.6153 31.1918C71.0829 30.9926 71.4623 30.7733 71.4623 30.198C71.4623 29.2491 70.5272 28.6313 69.4587 28.6313C68.056 28.6313 66.4522 29.69 66.4522 32.4474C66.4522 32.6242 66.4522 32.7787 66.4747 32.9555L66.4725 32.9577Z" fill="#FF5E2D"/>
<path d="M103.993 27.0285C102.778 27.1202 101.581 27.9909 101.527 29.2666C101.472 29.2756 101.398 29.2756 101.325 29.2666C101.301 28.6064 100.971 28.0423 100.431 27.6484C99.3061 26.827 97.8152 26.6905 96.4599 26.8964C95.8071 26.9949 95.2039 27.1963 94.6324 27.5164C92.5272 28.6914 91.9263 31.1198 92.2019 33.358C92.5272 36.0125 94.4359 37.5613 97.1149 37.5143C97.7339 37.5031 98.3212 37.4046 98.8836 37.1606C99.7375 36.7913 100.431 36.1132 100.363 35.1172L100.571 35.0948V38.1812C100.569 38.5528 100.494 38.9042 100.365 39.2421C99.9227 40.3993 98.6645 40.5783 97.5599 40.5291C97.1217 40.5089 96.7061 40.4396 96.3108 40.2695C95.5111 39.9248 95.292 39.2377 95.2717 38.4364H92.7689C92.7621 38.9579 92.8186 39.3988 92.9451 39.8599C93.3901 41.3617 94.5692 42.2144 96.0939 42.5031C97.0675 42.6867 98.0501 42.7023 99.0327 42.5703C100.711 42.3442 102.114 41.487 102.717 39.8733C102.938 39.2824 103.058 38.6781 103.058 38.0335L103.067 31.6122C103.067 31.2093 103.096 30.8356 103.178 30.4596C103.365 29.5979 104.129 29.4479 104.892 29.4412V27.0173C104.59 27.015 104.298 27.0038 103.991 27.0285H103.993ZM98.5222 35.0814C97.8355 35.2358 97.1488 35.2201 96.4892 35.0366C95.6806 34.8106 95.0774 34.2242 94.8357 33.4251C94.5014 32.324 94.5873 30.8781 95.4434 30.0052C95.9787 29.4613 96.7016 29.1681 97.4673 29.1413C98.5448 29.101 99.5274 29.43 100.11 30.37C100.675 31.281 100.716 32.6597 100.291 33.6131C99.9589 34.3585 99.3422 34.8979 98.5222 35.0836V35.0814Z" fill="#FF5E2D"/>
<path d="M90.31 26.8803H87.4819V38.6441H90.31V26.8803Z" fill="#FF5E2D"/>
<path d="M90.3149 22.9085H87.4868V25.7532H90.3149V22.9085Z" fill="#FF5E2D"/>
<path d="M46.4731 38.6684V21.0226H52.8838C54.1398 21.0226 55.3008 21.2286 56.3693 21.6404C57.4377 22.0522 58.3706 22.6453 59.168 23.4175C59.9654 24.1897 60.5843 25.1028 61.0248 26.1525C61.4653 27.2022 61.6867 28.3661 61.6867 29.6441V29.9216C61.6867 31.1996 61.4653 32.3746 61.0248 33.4512C60.5843 34.5277 59.9609 35.4521 59.1545 36.2243C58.3481 36.9964 57.4106 37.5985 56.3422 38.026C55.2737 38.4535 54.1194 38.6684 52.8816 38.6684H46.4731ZM49.5791 37.0815L48.2825 35.7699H52.6331C53.7693 35.7699 54.7835 35.526 55.6735 35.0381C56.5635 34.5501 57.2593 33.863 57.7607 32.97C58.26 32.0792 58.5107 31.0631 58.5107 29.9194V29.6418C58.5107 28.4825 58.26 27.4775 57.7607 26.6293C57.2593 25.781 56.5681 25.1163 55.6871 24.6373C54.8039 24.1583 53.7874 23.9188 52.6331 23.9188H48.2802L49.5768 22.6073V37.077L49.5791 37.0815Z" fill="#FF5E2D"/>
<path d="M64.4339 17.8762C63.2796 17.8762 62.2406 17.6189 61.3144 17.1041C60.3883 16.5893 59.6564 15.8753 59.1211 14.9666C58.5857 14.0579 58.3169 13.0149 58.3169 11.8377V11.6206C58.3169 10.4455 58.5857 9.40702 59.1211 8.50503C59.6564 7.60305 60.3883 6.89803 61.3144 6.3922C62.2406 5.88414 63.2819 5.63123 64.4339 5.63123C65.586 5.63123 66.6431 5.88414 67.5534 6.3922C68.4638 6.90027 69.1866 7.60081 69.7242 8.49384C70.2596 9.38687 70.5284 10.4231 70.5284 11.5982V11.8399C70.5284 13.0149 70.2596 14.0579 69.7242 14.9689C69.1889 15.8798 68.4638 16.5915 67.5534 17.1063C66.6431 17.6211 65.604 17.8785 64.4339 17.8785V17.8762ZM64.4339 15.412C65.0845 15.412 65.656 15.2643 66.1529 14.9644C66.6476 14.6667 67.0339 14.2437 67.3117 13.6953C67.5873 13.147 67.7251 12.527 67.7251 11.8354V11.5937C67.7251 10.9021 67.5873 10.2933 67.3117 9.7696C67.0362 9.24587 66.6499 8.83628 66.1529 8.53861C65.656 8.24093 65.0845 8.09097 64.4339 8.09097C63.7834 8.09097 63.2345 8.24093 62.7398 8.53861C62.2428 8.83628 61.8543 9.25034 61.5697 9.78303C61.2851 10.3157 61.1427 10.9267 61.1427 11.6183V11.8354C61.1427 12.527 61.2851 13.1492 61.5697 13.6953C61.8543 14.2437 62.2428 14.6667 62.7398 14.9644C63.2345 15.2621 63.7992 15.412 64.4339 15.412Z" fill="#FF5E2D"/>
<path d="M76.9207 17.9887C76.0601 17.9887 75.283 17.8164 74.5918 17.4695C73.9006 17.1226 73.3562 16.5966 72.9586 15.8871C72.5611 15.1776 72.3623 14.2935 72.3623 13.2304V5.98322H75.1656V12.6977C75.1656 13.3736 75.2672 13.913 75.4705 14.3159C75.6738 14.7188 75.9584 15.0075 76.3244 15.1866C76.6903 15.3634 77.1014 15.4529 77.5555 15.4529C78.0592 15.4529 78.5064 15.3477 78.8972 15.1396C79.288 14.9314 79.5952 14.6114 79.8234 14.1861C80.0515 13.7586 80.1645 13.2237 80.1645 12.5791V5.98545H82.9677V17.7493H80.5304V14.5129H81.3346C81.1719 15.2224 80.9212 15.8043 80.5778 16.2654C80.2367 16.7242 79.855 17.0778 79.4326 17.3285C79.0102 17.5792 78.5787 17.7515 78.1405 17.8477C77.7023 17.944 77.2957 17.9932 76.9207 17.9932V17.9887Z" fill="#FF5E2D"/>
<path d="M84.7778 17.6368V5.87295H87.484V9.10934H86.7272C86.9057 8.39984 87.1587 7.82015 87.484 7.37028C87.8092 6.92041 88.1797 6.56902 88.5931 6.31834C89.0064 6.06767 89.4334 5.89085 89.8739 5.7879C90.3121 5.6827 90.7119 5.63123 91.0688 5.63123C92.4015 5.63123 93.47 6.06319 94.2741 6.92265C95.0783 7.78434 95.4804 9.01981 95.4804 10.6313V17.6368H92.6771V11.0901C92.6771 10.0606 92.458 9.31525 92.0198 8.85643C91.5816 8.3976 91.0033 8.16707 90.2895 8.16707C89.7858 8.16707 89.3272 8.27898 88.9116 8.50503C88.4982 8.73109 88.1729 9.06458 87.9357 9.50773C87.7008 9.95089 87.5834 10.4948 87.5834 11.1394V17.6368H84.7801H84.7778Z" fill="#FF5E2D"/>
<path d="M102.898 17.8762C101.825 17.8762 100.865 17.6278 100.021 17.1265C99.1757 16.6274 98.5093 15.9268 98.0214 15.0248C97.5335 14.1228 97.2896 13.0687 97.2896 11.8601V11.6183C97.2896 10.4276 97.538 9.38016 98.0327 8.47818C98.5274 7.5762 99.2028 6.87565 100.057 6.37654C100.911 5.87743 101.864 5.62675 102.921 5.62675C103.831 5.62675 104.644 5.83267 105.358 6.24225C106.074 6.65184 106.65 7.21362 107.089 7.92088L106.528 8.57218V0H109.332V17.6345H106.797V14.6622L107.333 15.2173C106.876 16.0544 106.269 16.7079 105.505 17.1735C104.742 17.6412 103.872 17.874 102.896 17.874L102.898 17.8762ZM103.337 15.4366C103.987 15.4366 104.563 15.2867 105.067 14.989C105.571 14.6913 105.968 14.2683 106.262 13.72C106.555 13.1716 106.7 12.5203 106.7 11.7638C106.7 11.0073 106.553 10.3314 106.262 9.78303C105.97 9.23468 105.571 8.81614 105.067 8.52742C104.563 8.2387 103.985 8.09322 103.337 8.09322C102.736 8.09322 102.191 8.23422 101.703 8.51623C101.215 8.79824 100.825 9.20111 100.533 9.72484C100.242 10.2486 100.095 10.8797 100.095 11.6206V11.8623C100.095 12.5875 100.242 13.2186 100.533 13.758C100.827 14.2974 101.215 14.7115 101.703 15.0024C102.191 15.2934 102.736 15.4366 103.337 15.4366Z" fill="#FF5E2D"/>
<path d="M114.284 5.86694H111.456V17.6308H114.284V5.86694Z" fill="#FF5E2D"/>
<path d="M114.288 1.89819H111.46V4.7429H114.288V1.89819Z" fill="#FF5E2D"/>
<path d="M116.398 17.4671V5.70327H119.105V8.93966H118.348C118.526 8.23016 118.779 7.65048 119.105 7.2006C119.43 6.75073 119.8 6.39934 120.214 6.14867C120.627 5.89799 121.054 5.72118 121.494 5.61822C121.933 5.51303 122.333 5.46155 122.689 5.46155C124.022 5.46155 125.091 5.89351 125.895 6.75297C126.699 7.61467 127.101 8.85013 127.101 10.4616V17.4671H124.298V10.9204C124.298 9.89088 124.079 9.14557 123.64 8.68675C123.202 8.22792 122.624 7.99739 121.91 7.99739C121.406 7.99739 120.948 8.1093 120.532 8.33536C120.119 8.56141 119.794 8.8949 119.556 9.33806C119.321 9.78121 119.204 10.3251 119.204 10.9697V17.4671H116.401H116.398Z" fill="#FF5E2D"/>
<path d="M140.871 6.11244C139.656 6.2042 138.459 7.07485 138.404 8.35061C138.35 8.35956 138.276 8.35956 138.203 8.35061C138.179 7.69035 137.849 7.12633 137.309 6.73241C136.184 5.911 134.693 5.77447 133.338 5.98039C132.685 6.07887 132.082 6.2803 131.51 6.60036C129.405 7.7754 128.804 10.2038 129.08 12.442C129.405 15.0964 131.314 16.6453 133.993 16.5983C134.612 16.5871 135.199 16.4886 135.762 16.2446C136.615 15.8753 137.309 15.1972 137.241 14.2012L137.449 14.1788V17.2652C137.447 17.6368 137.372 17.9882 137.243 18.3261C136.801 19.4833 135.542 19.6623 134.438 19.6131C134 19.5929 133.584 19.5235 133.189 19.3534C132.389 19.0088 132.17 18.3216 132.15 17.5204H129.647C129.64 18.0419 129.696 18.4828 129.823 18.9439C130.268 20.4457 131.447 21.2984 132.972 21.5871C133.945 21.7707 134.928 21.7863 135.911 21.6543C137.589 21.4282 138.992 20.571 139.595 18.9573C139.816 18.3664 139.936 17.7621 139.936 17.1175L139.945 10.6962C139.945 10.2933 139.974 9.91956 140.056 9.54355C140.243 8.68186 141.007 8.5319 141.77 8.52518V6.10125C141.467 6.09901 141.176 6.08782 140.869 6.11244H140.871ZM135.398 14.1631C134.711 14.3176 134.025 14.3019 133.365 14.1184C132.556 13.8923 131.953 13.3059 131.711 12.5069C131.377 11.4057 131.463 9.95985 132.319 9.08696C132.854 8.54309 133.577 8.24989 134.343 8.22303C135.42 8.18274 136.403 8.51175 136.986 9.45179C137.551 10.3627 137.591 11.7414 137.167 12.6949C136.835 13.4402 136.218 13.9796 135.398 14.1654V14.1631Z" fill="#FF5E2D"/>
<path d="M50.0601 2.91682V7.48344H56.4428V10.4025H50.0601V14.264L46.6587 17.633V0H57.3823V2.91682H50.0601Z" fill="#FF5E2D"/>
<defs>
<clipPath id="clip0_103_8626">
<rect width="40.4075" height="39.8343" fill="white" transform="translate(0 0.270264)"/>
</clipPath>
</defs>
</svg>
