<svg width="331" height="123" viewBox="0 0 331 123" fill="none" xmlns="http://www.w3.org/2000/svg">
<g clip-path="url(#clip0_222_10648)">
<path d="M318.174 0H12.8257C5.74228 0 0 5.79089 0 12.9343V109.066C0 116.209 5.74228 122 12.8257 122H318.174C325.258 122 331 116.209 331 109.066V12.9343C331 5.79089 325.258 0 318.174 0Z" fill="white"/>
<path d="M305.367 19.5699C305.367 22.524 304.284 24.1544 302.38 24.1544C300.701 24.1544 299.565 22.5641 299.539 19.6901C299.539 16.7761 300.78 15.1719 302.524 15.1719C304.268 15.1719 305.365 16.8023 305.365 19.5699H305.367ZM300.703 19.704C300.703 21.9631 301.39 23.2467 302.447 23.2467C303.636 23.2467 304.204 21.8429 304.204 19.6238C304.204 17.4048 303.664 16.0811 302.46 16.0811C301.443 16.0811 300.703 17.337 300.703 19.704Z" fill="#4C4C4C" fill-opacity="0.5"/>
<path d="M310.03 24.0085V21.6431H306.041V20.8679L309.873 15.3203H311.128V20.72H312.33V21.6431H311.128V24.0085H310.032H310.03ZM310.03 20.72V17.8198C310.03 17.3652 310.044 16.9106 310.07 16.456H310.03C309.767 16.9646 309.555 17.3375 309.317 17.7397L307.217 20.6938V20.72H310.032H310.03Z" fill="#4C4C4C" fill-opacity="0.5"/>
<path d="M313.425 22.8042C313.769 23.0307 314.377 23.2726 314.958 23.2726C315.803 23.2726 316.199 22.8442 316.199 22.3095C316.199 21.7486 315.868 21.4404 315.009 21.1199C313.859 20.7053 313.319 20.0643 313.319 19.2891C313.319 18.2459 314.15 17.3906 315.526 17.3906C316.173 17.3906 316.741 17.5771 317.098 17.7913L316.807 18.6465C316.555 18.4863 316.094 18.2721 315.498 18.2721C314.811 18.2721 314.427 18.6727 314.427 19.1551C314.427 19.6898 314.811 19.9302 315.643 20.2507C316.753 20.6791 317.321 21.2401 317.321 22.2032C317.321 23.3389 316.449 24.1418 314.93 24.1418C314.229 24.1418 313.582 23.9676 313.133 23.701L313.424 22.8057L313.425 22.8042Z" fill="#4C4C4C" fill-opacity="0.5"/>
<path d="M227.892 19.5699C227.892 22.524 226.809 24.1544 224.905 24.1544C223.227 24.1544 222.09 22.5641 222.064 19.6901C222.064 16.7761 223.306 15.1719 225.05 15.1719C226.794 15.1719 227.89 16.8023 227.89 19.5699H227.892ZM223.228 19.704C223.228 21.9631 223.915 23.2467 224.972 23.2467C226.162 23.2467 226.73 21.8429 226.73 19.6238C226.73 17.4048 226.189 16.0811 224.986 16.0811C223.968 16.0811 223.228 17.337 223.228 19.704Z" fill="#4C4C4C" fill-opacity="0.5"/>
<path d="M229.237 22.6581C229.568 22.8723 230.334 23.2067 231.14 23.2067C232.632 23.2067 233.095 22.2436 233.082 21.5224C233.068 20.3065 231.985 19.7841 230.862 19.7841H230.215V18.9011H230.862C231.708 18.9011 232.778 18.4604 232.778 17.431C232.778 16.736 232.343 16.1211 231.272 16.1211C230.585 16.1211 229.924 16.4293 229.554 16.6959L229.251 15.8407C229.7 15.5063 230.571 15.1719 231.498 15.1719C233.188 15.1719 233.956 16.1874 233.956 17.2445C233.956 18.1399 233.427 18.9026 232.37 19.2894V19.3156C233.427 19.5298 234.286 20.3312 234.286 21.5486C234.286 22.9385 233.216 24.1559 231.155 24.1559C230.191 24.1559 229.345 23.8477 228.922 23.5673L229.239 22.6581H229.237Z" fill="#4C4C4C" fill-opacity="0.5"/>
<path d="M235.949 22.8042C236.293 23.0307 236.901 23.2726 237.481 23.2726C238.326 23.2726 238.722 22.8442 238.722 22.3095C238.722 21.7486 238.392 21.4404 237.533 21.1199C236.383 20.7053 235.842 20.0643 235.842 19.2891C235.842 18.2459 236.674 17.3906 238.049 17.3906C238.696 17.3906 239.265 17.5771 239.621 17.7913L239.33 18.6465C239.079 18.4863 238.617 18.2721 238.022 18.2721C237.335 18.2721 236.951 18.6727 236.951 19.1551C236.951 19.6898 237.335 19.9302 238.166 20.2507C239.277 20.6791 239.845 21.2401 239.845 22.2032C239.845 23.3389 238.972 24.1418 237.454 24.1418C236.753 24.1418 236.106 23.9676 235.656 23.701L235.947 22.8057L235.949 22.8042Z" fill="#4C4C4C" fill-opacity="0.5"/>
<path d="M150.64 19.5699C150.64 22.524 149.557 24.1544 147.653 24.1544C145.975 24.1544 144.838 22.5641 144.812 19.6901C144.812 16.7761 146.054 15.1719 147.798 15.1719C149.542 15.1719 150.638 16.8023 150.638 19.5699H150.64ZM145.976 19.704C145.976 21.9631 146.663 23.2467 147.72 23.2467C148.91 23.2467 149.478 21.8429 149.478 19.6238C149.478 17.4048 148.937 16.0811 147.734 16.0811C146.716 16.0811 145.976 17.337 145.976 19.704Z" fill="#4C4C4C" fill-opacity="0.5"/>
<path d="M151.711 24.008V23.2868L152.623 22.3915C154.817 20.2788 155.808 19.1569 155.82 17.8471C155.82 16.9641 155.397 16.1489 154.116 16.1489C153.336 16.1489 152.689 16.5495 152.293 16.8839L151.923 16.0549C152.517 15.5463 153.364 15.1719 154.354 15.1719C156.204 15.1719 156.983 16.4555 156.983 17.6976C156.983 19.3018 155.833 20.5978 154.023 22.3622L153.336 23.0033V23.0295H157.194V24.0049H151.711V24.008Z" fill="#4C4C4C" fill-opacity="0.5"/>
<path d="M158.699 22.8042C159.043 23.0307 159.651 23.2726 160.231 23.2726C161.076 23.2726 161.472 22.8442 161.472 22.3095C161.472 21.7486 161.142 21.4404 160.283 21.1199C159.133 20.7053 158.592 20.0643 158.592 19.2891C158.592 18.2459 159.424 17.3906 160.799 17.3906C161.446 17.3906 162.015 17.5771 162.371 17.7913L162.08 18.6465C161.829 18.4863 161.367 18.2721 160.772 18.2721C160.085 18.2721 159.701 18.6727 159.701 19.1551C159.701 19.6898 160.085 19.9302 160.916 20.2507C162.027 20.6791 162.595 21.2401 162.595 22.2032C162.595 23.3389 161.722 24.1418 160.204 24.1418C159.503 24.1418 158.856 23.9676 158.406 23.701L158.697 22.8057L158.699 22.8042Z" fill="#4C4C4C" fill-opacity="0.5"/>
<path d="M74.0604 19.5699C74.0604 22.524 72.9774 24.1544 71.075 24.1544C69.3965 24.1544 68.2603 22.5641 68.2344 19.6901C68.2344 16.7761 69.4757 15.1719 71.2197 15.1719C72.9637 15.1719 74.0604 16.8023 74.0604 19.5699ZM69.3965 19.704C69.3965 21.9631 70.0835 23.2467 71.1405 23.2467C72.3301 23.2467 72.8982 21.8429 72.8982 19.6238C72.8982 17.4048 72.356 16.0811 71.1542 16.0811C70.1368 16.0811 69.3965 17.337 69.3965 19.704Z" fill="#4C4C4C" fill-opacity="0.5"/>
<path d="M77.6526 16.416H77.6267L76.1341 17.2312L75.9102 16.3358L77.7867 15.3203H78.7782V24.0085H77.6557V16.416H77.6526Z" fill="#4C4C4C" fill-opacity="0.5"/>
<path d="M82.1206 22.8042C82.4648 23.0307 83.0725 23.2726 83.6528 23.2726C84.4982 23.2726 84.8942 22.8442 84.8942 22.3095C84.8942 21.7486 84.5637 21.4404 83.7046 21.1199C82.5547 20.7053 82.014 20.0643 82.014 19.2891C82.014 18.2459 82.8471 17.3906 84.221 17.3906C84.8683 17.3906 85.4364 17.5771 85.7928 17.7913L85.5019 18.6465C85.2506 18.4863 84.7891 18.2721 84.1936 18.2721C83.5066 18.2721 83.1228 18.6727 83.1228 19.1551C83.1228 19.6898 83.5066 19.9302 84.3382 20.2507C85.4486 20.6791 86.0167 21.2401 86.0167 22.2032C86.0167 23.3389 85.144 24.1418 83.6254 24.1418C82.9248 24.1418 82.2774 23.9676 81.8281 23.701L82.119 22.8057L82.1206 22.8042Z" fill="#4C4C4C" fill-opacity="0.5"/>
<path d="M21.5096 19.5699C21.5096 22.524 20.4266 24.1544 18.5242 24.1544C16.8457 24.1544 15.7095 22.5641 15.6836 19.6901C15.6836 16.7761 16.9249 15.1719 18.6705 15.1719C20.416 15.1719 21.5111 16.8023 21.5111 19.5699H21.5096ZM16.8457 19.704C16.8457 21.9631 17.5327 23.2467 18.5897 23.2467C19.7793 23.2467 20.3474 21.8429 20.3474 19.6238C20.3474 17.4048 19.8052 16.0811 18.6034 16.0811C17.586 16.0811 16.8457 17.337 16.8457 19.704Z" fill="#4C4C4C" fill-opacity="0.5"/>
<path d="M22.7905 22.8042C23.1347 23.0307 23.7424 23.2726 24.3228 23.2726C25.1681 23.2726 25.5641 22.8442 25.5641 22.3095C25.5641 21.7486 25.2336 21.4404 24.3745 21.1199C23.2246 20.7053 22.6839 20.0643 22.6839 19.2891C22.6839 18.2459 23.517 17.3906 24.8909 17.3906C25.5382 17.3906 26.1064 17.5771 26.4628 17.7913L26.1718 18.6465C25.9205 18.4863 25.459 18.2721 24.8635 18.2721C24.1765 18.2721 23.7927 18.6727 23.7927 19.1551C23.7927 19.6898 24.1765 19.9302 25.0082 20.2507C26.1185 20.6791 26.6867 21.2401 26.6867 22.2032C26.6867 23.3389 25.8139 24.1418 24.2953 24.1418C23.5947 24.1418 22.9474 23.9676 22.498 23.701L22.789 22.8057L22.7905 22.8042Z" fill="#4C4C4C" fill-opacity="0.5"/>
<path d="M20.4305 44.3594C19.9477 44.3594 19.5547 44.7554 19.5547 45.2455V54.3959C19.5547 54.8844 19.9461 55.282 20.4305 55.282C20.9148 55.282 21.3063 54.886 21.3063 54.3959V45.2455C21.3063 44.757 20.9148 44.3594 20.4305 44.3594Z" fill="#4C4C4C" fill-opacity="0.5"/>
<path d="M40.2879 44.3594C39.8051 44.3594 39.4121 44.7554 39.4121 45.2455V54.3959C39.4121 54.8844 39.8036 55.282 40.2879 55.282C40.7723 55.282 41.1637 54.886 41.1637 54.3959V45.2455C41.1637 44.757 40.7723 44.3594 40.2879 44.3594Z" fill="#4C4C4C" fill-opacity="0.5"/>
<path d="M59.9422 39.2422C59.4594 39.2422 59.0664 39.6382 59.0664 40.1283V54.3934C59.0664 54.8819 59.4579 55.2794 59.9422 55.2794C60.4266 55.2794 60.818 54.8834 60.818 54.3934V40.1283C60.818 39.6398 60.4266 39.2422 59.9422 39.2422Z" fill="#4C4C4C" fill-opacity="0.5"/>
<path d="M76.6649 44.3594C76.182 44.3594 75.7891 44.7554 75.7891 45.2455V54.3959C75.7891 54.8844 76.1805 55.282 76.6649 55.282C77.1492 55.282 77.5407 54.886 77.5407 54.3959V45.2455C77.5407 44.757 77.1492 44.3594 76.6649 44.3594Z" fill="#4C4C4C" fill-opacity="0.5"/>
<path d="M95.9988 44.3594C95.516 44.3594 95.123 44.7554 95.123 45.2455V54.3959C95.123 54.8844 95.5145 55.282 95.9988 55.282C96.4832 55.282 96.8747 54.886 96.8747 54.3959V45.2455C96.8747 44.757 96.4832 44.3594 95.9988 44.3594Z" fill="#4C4C4C" fill-opacity="0.5"/>
<path d="M115.856 44.3594C115.373 44.3594 114.98 44.7554 114.98 45.2455V54.3959C114.98 54.8844 115.372 55.282 115.856 55.282C116.341 55.282 116.732 54.886 116.732 54.3959V45.2455C116.732 44.757 116.341 44.3594 115.856 44.3594Z" fill="#4C4C4C" fill-opacity="0.5"/>
<path d="M135.509 39.2422C135.026 39.2422 134.633 39.6382 134.633 40.1283V54.3934C134.633 54.8819 135.024 55.2794 135.509 55.2794C135.993 55.2794 136.384 54.8834 136.384 54.3934V40.1283C136.384 39.6398 135.993 39.2422 135.509 39.2422Z" fill="#4C4C4C" fill-opacity="0.5"/>
<path d="M152.235 44.3594C151.752 44.3594 151.359 44.7554 151.359 45.2455V54.3959C151.359 54.8844 151.751 55.282 152.235 55.282C152.72 55.282 153.111 54.886 153.111 54.3959V45.2455C153.111 44.757 152.72 44.3594 152.235 44.3594Z" fill="#4C4C4C" fill-opacity="0.5"/>
<path d="M171.567 44.3594C171.084 44.3594 170.691 44.7554 170.691 45.2455V54.3959C170.691 54.8844 171.083 55.282 171.567 55.282C172.052 55.282 172.443 54.886 172.443 54.3959V45.2455C172.443 44.757 172.052 44.3594 171.567 44.3594Z" fill="#4C4C4C" fill-opacity="0.5"/>
<path d="M191.423 44.3594C190.94 44.3594 190.547 44.7554 190.547 45.2455V54.3959C190.547 54.8844 190.938 55.282 191.423 55.282C191.907 55.282 192.298 54.886 192.298 54.3959V45.2455C192.298 44.757 191.907 44.3594 191.423 44.3594Z" fill="#4C4C4C" fill-opacity="0.5"/>
<path d="M211.077 39.2422C210.594 39.2422 210.201 39.6382 210.201 40.1283V54.3934C210.201 54.8819 210.593 55.2794 211.077 55.2794C211.561 55.2794 211.953 54.8834 211.953 54.3934V40.1283C211.953 39.6398 211.561 39.2422 211.077 39.2422Z" fill="#4C4C4C" fill-opacity="0.5"/>
<path d="M227.802 44.3594C227.319 44.3594 226.926 44.7554 226.926 45.2455V54.3959C226.926 54.8844 227.317 55.282 227.802 55.282C228.286 55.282 228.677 54.886 228.677 54.3959V45.2455C228.677 44.757 228.286 44.3594 227.802 44.3594Z" fill="#4C4C4C" fill-opacity="0.5"/>
<path d="M247.134 44.3594C246.651 44.3594 246.258 44.7554 246.258 45.2455V54.3959C246.258 54.8844 246.649 55.282 247.134 55.282C247.618 55.282 248.009 54.886 248.009 54.3959V45.2455C248.009 44.757 247.618 44.3594 247.134 44.3594Z" fill="#4C4C4C" fill-opacity="0.5"/>
<path d="M266.989 44.3594C266.506 44.3594 266.113 44.7554 266.113 45.2455V54.3959C266.113 54.8844 266.505 55.282 266.989 55.282C267.473 55.282 267.865 54.886 267.865 54.3959V45.2455C267.865 44.757 267.473 44.3594 266.989 44.3594Z" fill="#4C4C4C" fill-opacity="0.5"/>
<path d="M286.645 39.2422C286.162 39.2422 285.77 39.6382 285.77 40.1283V54.3934C285.77 54.8819 286.161 55.2794 286.645 55.2794C287.13 55.2794 287.521 54.8834 287.521 54.3934V40.1283C287.521 39.6398 287.13 39.2422 286.645 39.2422Z" fill="#4C4C4C" fill-opacity="0.5"/>
<path d="M304.29 44.3594C303.807 44.3594 303.414 44.7554 303.414 45.2455V54.3959C303.414 54.8844 303.806 55.282 304.29 55.282C304.774 55.282 305.166 54.886 305.166 54.3959V45.2455C305.166 44.757 304.774 44.3594 304.29 44.3594Z" fill="#4C4C4C" fill-opacity="0.5"/>
<path d="M323.622 44.3594C323.139 44.3594 322.746 44.7554 322.746 45.2455V54.3959C322.746 54.8844 323.138 55.282 323.622 55.282C324.106 55.282 324.498 54.886 324.498 54.3959V45.2455C324.498 44.757 324.106 44.3594 323.622 44.3594Z" fill="#4C4C4C" fill-opacity="0.5"/>
<path d="M0.222656 53.9805H330.732C330.75 53.9805 330.764 53.9943 330.764 54.0128V55.3196H0.222656V53.9805Z" fill="#FF5E2D"/>
<path d="M229.669 60.082H21.3744C20.46 60.082 19.7188 60.832 19.7188 61.7571V79.9995C19.7188 80.9246 20.46 81.6746 21.3744 81.6746H229.669C230.584 81.6746 231.325 80.9246 231.325 79.9995V61.7571C231.325 60.832 230.584 60.082 229.669 60.082Z" fill="#FFC8B7"/>
<path d="M323.65 86.125H21.3744C20.46 86.125 19.7188 86.875 19.7188 87.8001V106.042C19.7188 106.968 20.46 107.718 21.3744 107.718H323.65C324.564 107.718 325.305 106.968 325.305 106.042V87.8001C325.305 86.875 324.564 86.125 323.65 86.125Z" fill="#FFC8B7"/>
<path d="M21.3744 86.125H22.1299V107.718H21.3744C20.4605 107.718 19.7188 106.967 19.7188 106.042V87.8001C19.7188 86.8755 20.4605 86.125 21.3744 86.125Z" fill="#FF5E2D"/>
<path d="M323.624 107.719H322.868V86.1262H323.624C324.538 86.1262 325.279 86.8767 325.279 87.8013V106.044C325.279 106.968 324.538 107.719 323.624 107.719Z" fill="#FF5E2D"/>
<path d="M35.3748 0.876541H29.558C28.1095 0.876541 26.9336 2.06466 26.9336 3.53169V8.45058C26.9336 9.31663 27.3509 10.1287 28.0531 10.6249C28.0531 10.6249 28.606 11.0133 29.2579 11.4694C30.5602 12.3817 31.3385 13.8811 31.3385 15.4853V122.275H33.5927V15.4837C33.5927 13.8811 34.3711 12.3801 35.6733 11.4679C36.3252 11.0117 36.8781 10.6234 36.8781 10.6234C37.5803 10.1272 37.9976 9.31509 37.9976 8.44904V3.53015C37.9976 2.06466 36.8233 0.875 35.3733 0.875L35.3748 0.876541Z" fill="#4C4C4C"/>
<path d="M1.09846 38.9492C0.615625 38.9492 0.222656 39.4516 0.222656 40.0695V60.5603C0.222656 61.1782 0.614102 61.6806 1.09846 61.6806C1.58282 61.6806 1.97426 61.1782 1.97426 60.5603V40.0695C1.97426 39.4516 1.58282 38.9492 1.09846 38.9492Z" fill="#4C4C4C" fill-opacity="0.5"/>
<path d="M36.0135 93.4696L33.8099 95.699C33.5881 95.9235 33.5881 96.2874 33.8099 96.5119L36.0135 98.7413C36.2354 98.9658 36.5951 98.9658 36.817 98.7413L39.0205 96.5119C39.2424 96.2874 39.2424 95.9235 39.0205 95.699L36.817 93.4696C36.5951 93.2451 36.2354 93.2451 36.0135 93.4696Z" fill="#FF5E2D"/>
<path d="M266.312 93.4696L264.109 95.699C263.887 95.9235 263.887 96.2874 264.109 96.5119L266.312 98.7413C266.534 98.9658 266.894 98.9658 267.116 98.7413L269.319 96.5119C269.541 96.2874 269.541 95.9235 269.319 95.699L267.116 93.4696C266.894 93.2451 266.534 93.2451 266.312 93.4696Z" fill="#FF5E2D"/>
<path d="M36.0664 96.0859H266.715" stroke="#FF5E2D" stroke-width="1.8533" stroke-linecap="round" stroke-linejoin="round"/>
</g>
<defs>
<clipPath id="clip0_222_10648">
<rect width="331" height="122.689" fill="white"/>
</clipPath>
</defs>
</svg>
