<svg width="32" height="32" viewBox="0 0 32 32" fill="none" xmlns="http://www.w3.org/2000/svg">
<path d="M22.9948 13.0096C25.2011 13.0096 26.9896 11.2164 26.9896 9.00445C26.9896 6.79245 25.2011 4.99927 22.9948 4.99927C20.7885 4.99927 19 6.79245 19 9.00445C19 11.2164 20.7885 13.0096 22.9948 13.0096Z" stroke="white" stroke-width="2.57461" stroke-linecap="round" stroke-linejoin="round"/>
<path d="M9.32343 26.7008C11.5297 26.7008 13.3183 24.9076 13.3183 22.6956C13.3183 20.4836 11.5297 18.6904 9.32343 18.6904C7.11716 18.6904 5.32861 20.4836 5.32861 22.6956C5.32861 24.9076 7.11716 26.7008 9.32343 26.7008Z" stroke="white" stroke-width="2.57461" stroke-linecap="round" stroke-linejoin="round"/>
<path d="M18.6442 18.6917H26.6338V25.367C26.6338 25.721 26.4935 26.0606 26.2438 26.311C25.9941 26.5614 25.6554 26.702 25.3022 26.702H19.9758C19.6226 26.702 19.2839 26.5614 19.0342 26.311C18.7845 26.0606 18.6442 25.721 18.6442 25.367V18.6917ZM5.32812 5.34106H13.3178V12.0164C13.3178 12.3704 13.1775 12.71 12.9277 12.9604C12.678 13.2108 12.3393 13.3514 11.9862 13.3514H6.65973C6.30657 13.3514 5.96787 13.2108 5.71814 12.9604C5.46842 12.71 5.32812 12.3704 5.32812 12.0164V5.34106Z" stroke="white" stroke-width="2.57461" stroke-linecap="round" stroke-linejoin="round"/>
</svg>
