<svg width="188" height="123" viewBox="0 0 188 123" fill="none" xmlns="http://www.w3.org/2000/svg">
<mask id="mask0_222_9999" style="mask-type:alpha" maskUnits="userSpaceOnUse" x="0" y="0" width="188" height="123">
<rect width="188" height="123" rx="5" fill="#FAFAFA"/>
</mask>
<g mask="url(#mask0_222_9999)">
<path d="M7.91687 0.33852C7.91687 0.481254 7.80212 0.596962 7.66056 0.596962C7.51905 0.596962 7.4043 0.481308 7.4043 0.33852C7.4043 0.195786 7.51905 0.0800781 7.66056 0.0800781C7.80212 0.0800239 7.91687 0.195786 7.91687 0.33852Z" fill="#4C4C4C"/>
<path d="M16.1161 0.33852C16.1161 0.481254 16.0014 0.596962 15.8598 0.596962C15.7183 0.596962 15.6035 0.481308 15.6035 0.33852C15.6035 0.195786 15.7182 0.0800781 15.8598 0.0800781C16.0013 0.0800239 16.1161 0.195786 16.1161 0.33852Z" fill="#4C4C4C"/>
<path d="M24.3212 0.33852C24.3212 0.481254 24.2065 0.596962 24.0649 0.596962C23.9234 0.596962 23.8086 0.481308 23.8086 0.33852C23.8086 0.195786 23.9234 0.0800781 24.0649 0.0800781C24.2065 0.0800239 24.3212 0.195786 24.3212 0.33852Z" fill="#4C4C4C"/>
<path d="M32.5223 0.33852C32.5223 0.481254 32.4076 0.596962 32.266 0.596962C32.1245 0.596962 32.0098 0.481308 32.0098 0.33852C32.0098 0.195786 32.1245 0.0800781 32.266 0.0800781C32.4076 0.0800239 32.5223 0.195786 32.5223 0.33852Z" fill="#4C4C4C"/>
<path d="M40.7255 0.33852C40.7255 0.481254 40.6108 0.596962 40.4692 0.596962C40.3276 0.596962 40.2129 0.481308 40.2129 0.33852C40.2129 0.195786 40.3276 0.0800781 40.4692 0.0800781C40.6108 0.0800239 40.7255 0.195786 40.7255 0.33852Z" fill="#4C4C4C"/>
<path d="M48.9267 0.33852C48.9267 0.481254 48.812 0.596962 48.6704 0.596962C48.5288 0.596962 48.4141 0.481308 48.4141 0.33852C48.4141 0.195786 48.5288 0.0800781 48.6704 0.0800781C48.8119 0.0800239 48.9267 0.195786 48.9267 0.33852Z" fill="#4C4C4C"/>
<path d="M57.1259 0.33852C57.1259 0.481254 57.0112 0.596962 56.8695 0.596962C56.728 0.596962 56.6133 0.481308 56.6133 0.33852C56.6133 0.195786 56.728 0.0800781 56.8695 0.0800781C57.0112 0.0800239 57.1259 0.195786 57.1259 0.33852Z" fill="#4C4C4C"/>
<path d="M65.331 0.33852C65.331 0.481254 65.2162 0.596962 65.0747 0.596962C64.9331 0.596962 64.8184 0.481308 64.8184 0.33852C64.8184 0.195786 64.9331 0.0800781 65.0747 0.0800781C65.2162 0.0800239 65.331 0.195786 65.331 0.33852Z" fill="#4C4C4C"/>
<path d="M73.5322 0.33852C73.5322 0.481254 73.4175 0.596962 73.2759 0.596962C73.1343 0.596962 73.0195 0.481308 73.0195 0.33852C73.0195 0.195786 73.1343 0.0800781 73.2759 0.0800781C73.4174 0.0800239 73.5322 0.195786 73.5322 0.33852Z" fill="#4C4C4C"/>
<path d="M81.7333 0.33852C81.7333 0.481254 81.6186 0.596962 81.477 0.596962C81.3355 0.596962 81.2207 0.481308 81.2207 0.33852C81.2207 0.195786 81.3355 0.0800781 81.477 0.0800781C81.6186 0.0800239 81.7333 0.195786 81.7333 0.33852Z" fill="#4C4C4C"/>
<path d="M89.9365 0.33852C89.9365 0.481254 89.8217 0.596962 89.6801 0.596962C89.5386 0.596962 89.4238 0.481308 89.4238 0.33852C89.4238 0.195786 89.5386 0.0800781 89.6801 0.0800781C89.8217 0.0800781 89.9365 0.195786 89.9365 0.33852Z" fill="#4C4C4C"/>
<path d="M98.1376 0.33852C98.1376 0.481254 98.0228 0.596962 97.8813 0.596962C97.7398 0.596962 97.625 0.481308 97.625 0.33852C97.625 0.195786 97.7398 0.0800781 97.8813 0.0800781C98.0228 0.0800239 98.1376 0.195786 98.1376 0.33852Z" fill="#4C4C4C"/>
<path d="M106.341 0.33852C106.341 0.481254 106.226 0.596962 106.084 0.596962C105.943 0.596962 105.828 0.481308 105.828 0.33852C105.828 0.195786 105.943 0.0800781 106.084 0.0800781C106.226 0.0800239 106.341 0.195786 106.341 0.33852Z" fill="#4C4C4C"/>
<path d="M114.54 0.33852C114.54 0.481254 114.425 0.596962 114.284 0.596962C114.142 0.596962 114.027 0.481308 114.027 0.33852C114.027 0.195786 114.142 0.0800781 114.284 0.0800781C114.425 0.0800239 114.54 0.195786 114.54 0.33852Z" fill="#4C4C4C"/>
<path d="M122.745 0.33852C122.745 0.481254 122.63 0.596962 122.489 0.596962C122.347 0.596962 122.232 0.481308 122.232 0.33852C122.232 0.195786 122.347 0.0800781 122.489 0.0800781C122.63 0.0800239 122.745 0.195786 122.745 0.33852Z" fill="#4C4C4C"/>
<path d="M130.944 0.33852C130.944 0.481254 130.829 0.596962 130.688 0.596962C130.546 0.596962 130.432 0.481308 130.432 0.33852C130.432 0.195786 130.546 0.0800781 130.688 0.0800781C130.829 0.0800239 130.944 0.195786 130.944 0.33852Z" fill="#4C4C4C"/>
<path d="M139.147 0.33852C139.147 0.481254 139.033 0.596962 138.891 0.596962C138.75 0.596962 138.635 0.481308 138.635 0.33852C138.635 0.195786 138.75 0.0800781 138.891 0.0800781C139.033 0.0800239 139.147 0.195786 139.147 0.33852Z" fill="#4C4C4C"/>
<path d="M147.349 0.33852C147.349 0.481254 147.234 0.596962 147.092 0.596962C146.951 0.596962 146.836 0.481308 146.836 0.33852C146.836 0.195786 146.951 0.0800781 147.092 0.0800781C147.234 0.0800239 147.349 0.195786 147.349 0.33852Z" fill="#4C4C4C"/>
<path d="M155.55 0.33852C155.55 0.481254 155.435 0.596962 155.293 0.596962C155.152 0.596962 155.037 0.481308 155.037 0.33852C155.037 0.195786 155.152 0.0800781 155.293 0.0800781C155.435 0.0800239 155.55 0.195786 155.55 0.33852Z" fill="#4C4C4C"/>
<path d="M163.753 0.33852C163.753 0.481254 163.638 0.596962 163.497 0.596962C163.355 0.596962 163.24 0.481308 163.24 0.33852C163.24 0.195786 163.355 0.0800781 163.497 0.0800781C163.638 0.0800781 163.753 0.195786 163.753 0.33852Z" fill="#4C4C4C"/>
<path d="M171.956 0.33852C171.956 0.481254 171.841 0.596962 171.7 0.596962C171.558 0.596962 171.443 0.481308 171.443 0.33852C171.443 0.195786 171.558 0.0800781 171.7 0.0800781C171.841 0.0800239 171.956 0.195786 171.956 0.33852Z" fill="#4C4C4C"/>
<path d="M180.155 0.33852C180.155 0.481254 180.04 0.596962 179.899 0.596962C179.757 0.596962 179.643 0.481308 179.643 0.33852C179.643 0.195786 179.757 0.0800781 179.899 0.0800781C180.04 0.0800239 180.155 0.195786 180.155 0.33852Z" fill="#4C4C4C"/>
<path d="M188.358 0.33852C188.358 0.481254 188.244 0.596962 188.102 0.596962C187.96 0.596962 187.846 0.481308 187.846 0.33852C187.846 0.195786 187.961 0.0800781 188.102 0.0800781C188.244 0.0800239 188.358 0.195786 188.358 0.33852Z" fill="#4C4C4C"/>
<path d="M7.91687 8.60604C7.91687 8.74878 7.80212 8.86454 7.66056 8.86454C7.51905 8.86454 7.4043 8.74883 7.4043 8.60604C7.4043 8.46336 7.51905 8.34766 7.66056 8.34766C7.80212 8.34766 7.91687 8.46336 7.91687 8.60604Z" fill="#4C4C4C"/>
<path d="M16.1161 8.60604C16.1161 8.74878 16.0014 8.86454 15.8598 8.86454C15.7183 8.86454 15.6035 8.74883 15.6035 8.60604C15.6035 8.46336 15.7182 8.34766 15.8598 8.34766C16.0013 8.34766 16.1161 8.46336 16.1161 8.60604Z" fill="#4C4C4C"/>
<path d="M24.3212 8.60604C24.3212 8.74878 24.2065 8.86454 24.0649 8.86454C23.9234 8.86454 23.8086 8.74883 23.8086 8.60604C23.8086 8.46336 23.9234 8.34766 24.0649 8.34766C24.2065 8.34766 24.3212 8.46336 24.3212 8.60604Z" fill="#4C4C4C"/>
<path d="M32.5223 8.60604C32.5223 8.74878 32.4076 8.86454 32.266 8.86454C32.1245 8.86454 32.0098 8.74883 32.0098 8.60604C32.0098 8.46336 32.1245 8.34766 32.266 8.34766C32.4076 8.34766 32.5223 8.46336 32.5223 8.60604Z" fill="#4C4C4C"/>
<path d="M40.7255 8.60604C40.7255 8.74878 40.6108 8.86454 40.4692 8.86454C40.3276 8.86454 40.2129 8.74883 40.2129 8.60604C40.2129 8.46336 40.3276 8.34766 40.4692 8.34766C40.6108 8.34766 40.7255 8.46336 40.7255 8.60604Z" fill="#4C4C4C"/>
<path d="M48.9267 8.60604C48.9267 8.74878 48.812 8.86454 48.6704 8.86454C48.5288 8.86454 48.4141 8.74883 48.4141 8.60604C48.4141 8.46336 48.5288 8.34766 48.6704 8.34766C48.8119 8.34766 48.9267 8.46336 48.9267 8.60604Z" fill="#4C4C4C"/>
<path d="M57.1259 8.60604C57.1259 8.74878 57.0112 8.86454 56.8695 8.86454C56.728 8.86454 56.6133 8.74883 56.6133 8.60604C56.6133 8.46336 56.728 8.34766 56.8695 8.34766C57.0112 8.34766 57.1259 8.46336 57.1259 8.60604Z" fill="#4C4C4C"/>
<path d="M65.331 8.60604C65.331 8.74878 65.2162 8.86454 65.0747 8.86454C64.9331 8.86454 64.8184 8.74883 64.8184 8.60604C64.8184 8.46336 64.9331 8.34766 65.0747 8.34766C65.2162 8.34766 65.331 8.46336 65.331 8.60604Z" fill="#4C4C4C"/>
<path d="M73.5322 8.60604C73.5322 8.74878 73.4175 8.86454 73.2759 8.86454C73.1343 8.86454 73.0195 8.74883 73.0195 8.60604C73.0195 8.46336 73.1343 8.34766 73.2759 8.34766C73.4174 8.34766 73.5322 8.46336 73.5322 8.60604Z" fill="#4C4C4C"/>
<path d="M81.7333 8.60604C81.7333 8.74878 81.6186 8.86454 81.477 8.86454C81.3355 8.86454 81.2207 8.74883 81.2207 8.60604C81.2207 8.46336 81.3355 8.34766 81.477 8.34766C81.6186 8.34766 81.7333 8.46336 81.7333 8.60604Z" fill="#4C4C4C"/>
<path d="M89.9365 8.60604C89.9365 8.74878 89.8217 8.86454 89.6801 8.86454C89.5386 8.86454 89.4238 8.74883 89.4238 8.60604C89.4238 8.46336 89.5386 8.34766 89.6801 8.34766C89.8217 8.34766 89.9365 8.46336 89.9365 8.60604Z" fill="#4C4C4C"/>
<path d="M98.1376 8.60604C98.1376 8.74878 98.0228 8.86454 97.8813 8.86454C97.7398 8.86454 97.625 8.74883 97.625 8.60604C97.625 8.46336 97.7398 8.34766 97.8813 8.34766C98.0228 8.34766 98.1376 8.46336 98.1376 8.60604Z" fill="#4C4C4C"/>
<path d="M106.341 8.60604C106.341 8.74878 106.226 8.86454 106.084 8.86454C105.943 8.86454 105.828 8.74883 105.828 8.60604C105.828 8.46336 105.943 8.34766 106.084 8.34766C106.226 8.34766 106.341 8.46336 106.341 8.60604Z" fill="#4C4C4C"/>
<path d="M114.54 8.60604C114.54 8.74878 114.425 8.86454 114.284 8.86454C114.142 8.86454 114.027 8.74883 114.027 8.60604C114.027 8.46336 114.142 8.34766 114.284 8.34766C114.425 8.34766 114.54 8.46336 114.54 8.60604Z" fill="#4C4C4C"/>
<path d="M122.745 8.60604C122.745 8.74878 122.63 8.86454 122.489 8.86454C122.347 8.86454 122.232 8.74883 122.232 8.60604C122.232 8.46336 122.347 8.34766 122.489 8.34766C122.63 8.34766 122.745 8.46336 122.745 8.60604Z" fill="#4C4C4C"/>
<path d="M130.944 8.60604C130.944 8.74878 130.829 8.86454 130.688 8.86454C130.546 8.86454 130.432 8.74883 130.432 8.60604C130.432 8.46336 130.546 8.34766 130.688 8.34766C130.829 8.34766 130.944 8.46336 130.944 8.60604Z" fill="#4C4C4C"/>
<path d="M139.147 8.60604C139.147 8.74878 139.033 8.86454 138.891 8.86454C138.75 8.86454 138.635 8.74883 138.635 8.60604C138.635 8.46336 138.75 8.34766 138.891 8.34766C139.033 8.34766 139.147 8.46336 139.147 8.60604Z" fill="#4C4C4C"/>
<path d="M147.349 8.60604C147.349 8.74878 147.234 8.86454 147.092 8.86454C146.951 8.86454 146.836 8.74883 146.836 8.60604C146.836 8.46336 146.951 8.34766 147.092 8.34766C147.234 8.34766 147.349 8.46336 147.349 8.60604Z" fill="#4C4C4C"/>
<path d="M155.55 8.60604C155.55 8.74878 155.435 8.86454 155.293 8.86454C155.152 8.86454 155.037 8.74883 155.037 8.60604C155.037 8.46336 155.152 8.34766 155.293 8.34766C155.435 8.34766 155.55 8.46336 155.55 8.60604Z" fill="#4C4C4C"/>
<path d="M163.753 8.60604C163.753 8.74878 163.638 8.86454 163.497 8.86454C163.355 8.86454 163.24 8.74883 163.24 8.60604C163.24 8.46336 163.355 8.34766 163.497 8.34766C163.638 8.34766 163.753 8.46336 163.753 8.60604Z" fill="#4C4C4C"/>
<path d="M171.956 8.60604C171.956 8.74878 171.841 8.86454 171.7 8.86454C171.558 8.86454 171.443 8.74883 171.443 8.60604C171.443 8.46336 171.558 8.34766 171.7 8.34766C171.841 8.34766 171.956 8.46336 171.956 8.60604Z" fill="#4C4C4C"/>
<path d="M180.155 8.60604C180.155 8.74878 180.04 8.86454 179.899 8.86454C179.757 8.86454 179.643 8.74883 179.643 8.60604C179.643 8.46336 179.757 8.34766 179.899 8.34766C180.04 8.34766 180.155 8.46336 180.155 8.60604Z" fill="#4C4C4C"/>
<path d="M188.358 8.60604C188.358 8.74878 188.244 8.86454 188.102 8.86454C187.96 8.86454 187.846 8.74883 187.846 8.60604C187.846 8.46336 187.961 8.34766 188.102 8.34766C188.244 8.34766 188.358 8.46336 188.358 8.60604Z" fill="#4C4C4C"/>
<path d="M7.91687 16.8756C7.91687 17.0184 7.80212 17.1341 7.66056 17.1341C7.51905 17.1341 7.4043 17.0184 7.4043 16.8756C7.4043 16.7329 7.51905 16.6172 7.66056 16.6172C7.80212 16.6172 7.91687 16.7329 7.91687 16.8756Z" fill="#4C4C4C"/>
<path d="M16.1161 16.8756C16.1161 17.0184 16.0014 17.1341 15.8598 17.1341C15.7183 17.1341 15.6035 17.0184 15.6035 16.8756C15.6035 16.7329 15.7182 16.6172 15.8598 16.6172C16.0013 16.6172 16.1161 16.7329 16.1161 16.8756Z" fill="#4C4C4C"/>
<path d="M24.3212 16.8756C24.3212 17.0184 24.2065 17.1341 24.0649 17.1341C23.9234 17.1341 23.8086 17.0184 23.8086 16.8756C23.8086 16.7329 23.9234 16.6172 24.0649 16.6172C24.2065 16.6172 24.3212 16.7329 24.3212 16.8756Z" fill="#4C4C4C"/>
<path d="M32.5223 16.8756C32.5223 17.0184 32.4076 17.1341 32.266 17.1341C32.1245 17.1341 32.0098 17.0184 32.0098 16.8756C32.0098 16.7329 32.1245 16.6172 32.266 16.6172C32.4076 16.6172 32.5223 16.7329 32.5223 16.8756Z" fill="#4C4C4C"/>
<path d="M40.7236 16.8756C40.7236 17.0184 40.6088 17.1341 40.4673 17.1341C40.3257 17.1341 40.2109 17.0184 40.2109 16.8756C40.2109 16.7329 40.3257 16.6172 40.4673 16.6172C40.6088 16.6172 40.7236 16.7329 40.7236 16.8756Z" fill="#4C4C4C"/>
<path d="M48.9267 16.8756C48.9267 17.0184 48.812 17.1341 48.6704 17.1341C48.5288 17.1341 48.4141 17.0184 48.4141 16.8756C48.4141 16.7329 48.5288 16.6172 48.6704 16.6172C48.8119 16.6172 48.9267 16.7329 48.9267 16.8756Z" fill="#4C4C4C"/>
<path d="M57.1279 16.8756C57.1279 17.0184 57.0131 17.1341 56.8715 17.1341C56.73 17.1341 56.6152 17.0184 56.6152 16.8756C56.6152 16.7329 56.73 16.6172 56.8715 16.6172C57.0131 16.6172 57.1279 16.7329 57.1279 16.8756Z" fill="#4C4C4C"/>
<path d="M65.331 16.8756C65.331 17.0184 65.2162 17.1341 65.0747 17.1341C64.9331 17.1341 64.8184 17.0184 64.8184 16.8756C64.8184 16.7329 64.9331 16.6172 65.0747 16.6172C65.2162 16.6172 65.331 16.7329 65.331 16.8756Z" fill="#4C4C4C"/>
<path d="M73.5322 16.8756C73.5322 17.0184 73.4175 17.1341 73.2759 17.1341C73.1343 17.1341 73.0195 17.0184 73.0195 16.8756C73.0195 16.7329 73.1343 16.6172 73.2759 16.6172C73.4174 16.6172 73.5322 16.7329 73.5322 16.8756Z" fill="#4C4C4C"/>
<path d="M81.7353 16.8756C81.7353 17.0184 81.6205 17.1341 81.479 17.1341C81.3374 17.1341 81.2227 17.0184 81.2227 16.8756C81.2227 16.7329 81.3374 16.6172 81.479 16.6172C81.6205 16.6172 81.7353 16.7329 81.7353 16.8756Z" fill="#4C4C4C"/>
<path d="M89.9365 16.8756C89.9365 17.0184 89.8217 17.1341 89.6801 17.1341C89.5386 17.1341 89.4238 17.0184 89.4238 16.8756C89.4238 16.7329 89.5386 16.6172 89.6801 16.6172C89.8217 16.6172 89.9365 16.7329 89.9365 16.8756Z" fill="#4C4C4C"/>
<path d="M98.1376 16.8756C98.1376 17.0184 98.0228 17.1341 97.8813 17.1341C97.7398 17.1341 97.625 17.0184 97.625 16.8756C97.625 16.7329 97.7398 16.6172 97.8813 16.6172C98.0228 16.6172 98.1376 16.7329 98.1376 16.8756Z" fill="#4C4C4C"/>
<path d="M106.341 16.8756C106.341 17.0184 106.226 17.1341 106.084 17.1341C105.943 17.1341 105.828 17.0184 105.828 16.8756C105.828 16.7329 105.943 16.6172 106.084 16.6172C106.226 16.6172 106.341 16.7329 106.341 16.8756Z" fill="#4C4C4C"/>
<path d="M114.54 16.8756C114.54 17.0184 114.425 17.1341 114.284 17.1341C114.142 17.1341 114.027 17.0184 114.027 16.8756C114.027 16.7329 114.142 16.6172 114.284 16.6172C114.425 16.6172 114.54 16.7329 114.54 16.8756Z" fill="#4C4C4C"/>
<path d="M122.745 16.8756C122.745 17.0184 122.63 17.1341 122.489 17.1341C122.347 17.1341 122.232 17.0184 122.232 16.8756C122.232 16.7329 122.347 16.6172 122.489 16.6172C122.63 16.6172 122.745 16.7329 122.745 16.8756Z" fill="#4C4C4C"/>
<path d="M130.944 16.8756C130.944 17.0184 130.829 17.1341 130.688 17.1341C130.546 17.1341 130.432 17.0184 130.432 16.8756C130.432 16.7329 130.546 16.6172 130.688 16.6172C130.829 16.6172 130.944 16.7329 130.944 16.8756Z" fill="#4C4C4C"/>
<path d="M139.147 16.8756C139.147 17.0184 139.033 17.1341 138.891 17.1341C138.75 17.1341 138.635 17.0184 138.635 16.8756C138.635 16.7329 138.75 16.6172 138.891 16.6172C139.033 16.6172 139.147 16.7329 139.147 16.8756Z" fill="#4C4C4C"/>
<path d="M147.349 16.8756C147.349 17.0184 147.234 17.1341 147.092 17.1341C146.951 17.1341 146.836 17.0184 146.836 16.8756C146.836 16.7329 146.951 16.6172 147.092 16.6172C147.234 16.6172 147.349 16.7329 147.349 16.8756Z" fill="#4C4C4C"/>
<path d="M155.55 16.8756C155.55 17.0184 155.435 17.1341 155.293 17.1341C155.152 17.1341 155.037 17.0184 155.037 16.8756C155.037 16.7329 155.152 16.6172 155.293 16.6172C155.435 16.6172 155.55 16.7329 155.55 16.8756Z" fill="#4C4C4C"/>
<path d="M163.753 16.8756C163.753 17.0184 163.638 17.1341 163.497 17.1341C163.355 17.1341 163.24 17.0184 163.24 16.8756C163.24 16.7329 163.355 16.6172 163.497 16.6172C163.638 16.6172 163.753 16.7329 163.753 16.8756Z" fill="#4C4C4C"/>
<path d="M171.956 16.8756C171.956 17.0184 171.841 17.1341 171.7 17.1341C171.558 17.1341 171.443 17.0184 171.443 16.8756C171.443 16.7329 171.558 16.6172 171.7 16.6172C171.841 16.6172 171.956 16.7329 171.956 16.8756Z" fill="#4C4C4C"/>
<path d="M180.155 16.8756C180.155 17.0184 180.04 17.1341 179.899 17.1341C179.757 17.1341 179.643 17.0184 179.643 16.8756C179.643 16.7329 179.757 16.6172 179.899 16.6172C180.04 16.6172 180.155 16.7329 180.155 16.8756Z" fill="#4C4C4C"/>
<path d="M188.358 16.8756C188.358 17.0184 188.244 17.1341 188.102 17.1341C187.96 17.1341 187.846 17.0184 187.846 16.8756C187.846 16.7329 187.961 16.6172 188.102 16.6172C188.244 16.6172 188.358 16.7329 188.358 16.8756Z" fill="#4C4C4C"/>
<path d="M7.91687 25.1491C7.91687 25.2918 7.80212 25.4075 7.66056 25.4075C7.51905 25.4075 7.4043 25.2918 7.4043 25.1491C7.4043 25.0063 7.51905 24.8906 7.66056 24.8906C7.80212 24.8906 7.91687 25.0064 7.91687 25.1491Z" fill="#4C4C4C"/>
<path d="M16.1161 25.1491C16.1161 25.2918 16.0014 25.4075 15.8598 25.4075C15.7183 25.4075 15.6035 25.2918 15.6035 25.1491C15.6035 25.0063 15.7182 24.8906 15.8598 24.8906C16.0013 24.8906 16.1161 25.0064 16.1161 25.1491Z" fill="#4C4C4C"/>
<path d="M24.3212 25.1491C24.3212 25.2918 24.2065 25.4075 24.0649 25.4075C23.9234 25.4075 23.8086 25.2918 23.8086 25.1491C23.8086 25.0063 23.9234 24.8906 24.0649 24.8906C24.2065 24.8906 24.3212 25.0064 24.3212 25.1491Z" fill="#4C4C4C"/>
<path d="M32.5223 25.1491C32.5223 25.2918 32.4076 25.4075 32.266 25.4075C32.1245 25.4075 32.0098 25.2918 32.0098 25.1491C32.0098 25.0063 32.1245 24.8906 32.266 24.8906C32.4076 24.8906 32.5223 25.0064 32.5223 25.1491Z" fill="#4C4C4C"/>
<path d="M40.7236 25.1491C40.7236 25.2918 40.6088 25.4075 40.4673 25.4075C40.3257 25.4075 40.2109 25.2918 40.2109 25.1491C40.2109 25.0063 40.3257 24.8906 40.4673 24.8906C40.6088 24.8906 40.7236 25.0064 40.7236 25.1491Z" fill="#4C4C4C"/>
<path d="M48.9267 25.1491C48.9267 25.2918 48.812 25.4075 48.6704 25.4075C48.5288 25.4075 48.4141 25.2918 48.4141 25.1491C48.4141 25.0063 48.5288 24.8906 48.6704 24.8906C48.8119 24.8906 48.9267 25.0064 48.9267 25.1491Z" fill="#4C4C4C"/>
<path d="M57.1279 25.1491C57.1279 25.2918 57.0131 25.4075 56.8715 25.4075C56.73 25.4075 56.6152 25.2918 56.6152 25.1491C56.6152 25.0063 56.73 24.8906 56.8715 24.8906C57.0131 24.8906 57.1279 25.0064 57.1279 25.1491Z" fill="#4C4C4C"/>
<path d="M65.331 25.1491C65.331 25.2918 65.2162 25.4075 65.0747 25.4075C64.9331 25.4075 64.8184 25.2918 64.8184 25.1491C64.8184 25.0063 64.9331 24.8906 65.0747 24.8906C65.2162 24.8906 65.331 25.0064 65.331 25.1491Z" fill="#4C4C4C"/>
<path d="M73.5322 25.1491C73.5322 25.2918 73.4175 25.4075 73.2759 25.4075C73.1343 25.4075 73.0195 25.2918 73.0195 25.1491C73.0195 25.0063 73.1343 24.8906 73.2759 24.8906C73.4174 24.8906 73.5322 25.0064 73.5322 25.1491Z" fill="#4C4C4C"/>
<path d="M81.7353 25.1491C81.7353 25.2918 81.6205 25.4075 81.479 25.4075C81.3374 25.4075 81.2227 25.2918 81.2227 25.1491C81.2227 25.0063 81.3374 24.8906 81.479 24.8906C81.6205 24.8906 81.7353 25.0064 81.7353 25.1491Z" fill="#4C4C4C"/>
<path d="M89.9365 25.1491C89.9365 25.2918 89.8217 25.4075 89.6801 25.4075C89.5386 25.4075 89.4238 25.2918 89.4238 25.1491C89.4238 25.0063 89.5386 24.8906 89.6801 24.8906C89.8217 24.8906 89.9365 25.0064 89.9365 25.1491Z" fill="#4C4C4C"/>
<path d="M98.1376 25.1491C98.1376 25.2918 98.0228 25.4075 97.8813 25.4075C97.7398 25.4075 97.625 25.2918 97.625 25.1491C97.625 25.0063 97.7398 24.8906 97.8813 24.8906C98.0228 24.8906 98.1376 25.0064 98.1376 25.1491Z" fill="#4C4C4C"/>
<path d="M106.341 25.1491C106.341 25.2918 106.226 25.4075 106.084 25.4075C105.943 25.4075 105.828 25.2918 105.828 25.1491C105.828 25.0063 105.943 24.8906 106.084 24.8906C106.226 24.8906 106.341 25.0064 106.341 25.1491Z" fill="#4C4C4C"/>
<path d="M114.54 25.1491C114.54 25.2918 114.425 25.4075 114.284 25.4075C114.142 25.4075 114.027 25.2918 114.027 25.1491C114.027 25.0063 114.142 24.8906 114.284 24.8906C114.425 24.8906 114.54 25.0064 114.54 25.1491Z" fill="#4C4C4C"/>
<path d="M122.745 25.1491C122.745 25.2918 122.63 25.4075 122.489 25.4075C122.347 25.4075 122.232 25.2918 122.232 25.1491C122.232 25.0063 122.347 24.8906 122.489 24.8906C122.63 24.8906 122.745 25.0064 122.745 25.1491Z" fill="#4C4C4C"/>
<path d="M130.944 25.1491C130.944 25.2918 130.829 25.4075 130.688 25.4075C130.546 25.4075 130.432 25.2918 130.432 25.1491C130.432 25.0063 130.546 24.8906 130.688 24.8906C130.829 24.8906 130.944 25.0064 130.944 25.1491Z" fill="#4C4C4C"/>
<path d="M139.147 25.1491C139.147 25.2918 139.033 25.4075 138.891 25.4075C138.75 25.4075 138.635 25.2918 138.635 25.1491C138.635 25.0063 138.75 24.8906 138.891 24.8906C139.033 24.8906 139.147 25.0064 139.147 25.1491Z" fill="#4C4C4C"/>
<path d="M147.349 25.1491C147.349 25.2918 147.234 25.4075 147.092 25.4075C146.951 25.4075 146.836 25.2918 146.836 25.1491C146.836 25.0063 146.951 24.8906 147.092 24.8906C147.234 24.8906 147.349 25.0064 147.349 25.1491Z" fill="#4C4C4C"/>
<path d="M155.55 25.1491C155.55 25.2918 155.435 25.4075 155.293 25.4075C155.152 25.4075 155.037 25.2918 155.037 25.1491C155.037 25.0063 155.152 24.8906 155.293 24.8906C155.435 24.8906 155.55 25.0064 155.55 25.1491Z" fill="#4C4C4C"/>
<path d="M163.753 25.1491C163.753 25.2918 163.638 25.4075 163.497 25.4075C163.355 25.4075 163.24 25.2918 163.24 25.1491C163.24 25.0063 163.355 24.8906 163.497 24.8906C163.638 24.8906 163.753 25.0064 163.753 25.1491Z" fill="#4C4C4C"/>
<path d="M171.956 25.1491C171.956 25.2918 171.841 25.4075 171.7 25.4075C171.558 25.4075 171.443 25.2918 171.443 25.1491C171.443 25.0063 171.558 24.8906 171.7 24.8906C171.841 24.8906 171.956 25.0064 171.956 25.1491Z" fill="#4C4C4C"/>
<path d="M180.155 25.1491C180.155 25.2918 180.04 25.4075 179.899 25.4075C179.757 25.4075 179.643 25.2918 179.643 25.1491C179.643 25.0063 179.757 24.8906 179.899 24.8906C180.04 24.8906 180.155 25.0064 180.155 25.1491Z" fill="#4C4C4C"/>
<path d="M188.358 25.1491C188.358 25.2918 188.244 25.4075 188.102 25.4075C187.96 25.4075 187.846 25.2918 187.846 25.1491C187.846 25.0063 187.961 24.8906 188.102 24.8906C188.244 24.8906 188.358 25.0064 188.358 25.1491Z" fill="#4C4C4C"/>
<path d="M7.91687 33.4186C7.91687 33.5613 7.80212 33.677 7.66056 33.677C7.51905 33.677 7.4043 33.5613 7.4043 33.4186C7.4043 33.2759 7.51905 33.1602 7.66056 33.1602C7.80212 33.1602 7.91687 33.2759 7.91687 33.4186Z" fill="#4C4C4C"/>
<path d="M16.1161 33.4186C16.1161 33.5613 16.0014 33.677 15.8598 33.677C15.7183 33.677 15.6035 33.5613 15.6035 33.4186C15.6035 33.2759 15.7182 33.1602 15.8598 33.1602C16.0013 33.1602 16.1161 33.2759 16.1161 33.4186Z" fill="#4C4C4C"/>
<path d="M24.3212 33.4186C24.3212 33.5613 24.2065 33.677 24.0649 33.677C23.9234 33.677 23.8086 33.5613 23.8086 33.4186C23.8086 33.2759 23.9234 33.1602 24.0649 33.1602C24.2065 33.1602 24.3212 33.2759 24.3212 33.4186Z" fill="#4C4C4C"/>
<path d="M32.5223 33.4186C32.5223 33.5613 32.4076 33.677 32.266 33.677C32.1245 33.677 32.0098 33.5613 32.0098 33.4186C32.0098 33.2759 32.1245 33.1602 32.266 33.1602C32.4076 33.1602 32.5223 33.2759 32.5223 33.4186Z" fill="#4C4C4C"/>
<path d="M40.7236 33.4186C40.7236 33.5613 40.6088 33.677 40.4673 33.677C40.3257 33.677 40.2109 33.5613 40.2109 33.4186C40.2109 33.2759 40.3257 33.1602 40.4673 33.1602C40.6088 33.1602 40.7236 33.2759 40.7236 33.4186Z" fill="#4C4C4C"/>
<path d="M48.9267 33.4186C48.9267 33.5613 48.812 33.677 48.6704 33.677C48.5288 33.677 48.4141 33.5613 48.4141 33.4186C48.4141 33.2759 48.5288 33.1602 48.6704 33.1602C48.8119 33.1602 48.9267 33.2759 48.9267 33.4186Z" fill="#4C4C4C"/>
<path d="M57.1279 33.4186C57.1279 33.5613 57.0131 33.677 56.8715 33.677C56.73 33.677 56.6152 33.5613 56.6152 33.4186C56.6152 33.2759 56.73 33.1602 56.8715 33.1602C57.0131 33.1602 57.1279 33.2759 57.1279 33.4186Z" fill="#4C4C4C"/>
<path d="M65.331 33.4186C65.331 33.5613 65.2162 33.677 65.0747 33.677C64.9331 33.677 64.8184 33.5613 64.8184 33.4186C64.8184 33.2759 64.9331 33.1602 65.0747 33.1602C65.2162 33.1602 65.331 33.2759 65.331 33.4186Z" fill="#4C4C4C"/>
<path d="M73.5322 33.4186C73.5322 33.5613 73.4175 33.677 73.2759 33.677C73.1343 33.677 73.0195 33.5613 73.0195 33.4186C73.0195 33.2759 73.1343 33.1602 73.2759 33.1602C73.4174 33.1602 73.5322 33.2759 73.5322 33.4186Z" fill="#4C4C4C"/>
<path d="M81.7353 33.4186C81.7353 33.5613 81.6205 33.677 81.479 33.677C81.3374 33.677 81.2227 33.5613 81.2227 33.4186C81.2227 33.2759 81.3374 33.1602 81.479 33.1602C81.6205 33.1602 81.7353 33.2759 81.7353 33.4186Z" fill="#4C4C4C"/>
<path d="M89.9365 33.4186C89.9365 33.5613 89.8217 33.677 89.6801 33.677C89.5386 33.677 89.4238 33.5613 89.4238 33.4186C89.4238 33.2759 89.5386 33.1602 89.6801 33.1602C89.8217 33.1602 89.9365 33.2759 89.9365 33.4186Z" fill="#4C4C4C"/>
<path d="M98.1376 33.4186C98.1376 33.5613 98.0228 33.677 97.8813 33.677C97.7398 33.677 97.625 33.5613 97.625 33.4186C97.625 33.2759 97.7398 33.1602 97.8813 33.1602C98.0228 33.1602 98.1376 33.2759 98.1376 33.4186Z" fill="#4C4C4C"/>
<path d="M106.341 33.4186C106.341 33.5613 106.226 33.677 106.084 33.677C105.943 33.677 105.828 33.5613 105.828 33.4186C105.828 33.2759 105.943 33.1602 106.084 33.1602C106.226 33.1602 106.341 33.2759 106.341 33.4186Z" fill="#4C4C4C"/>
<path d="M114.54 33.4186C114.54 33.5613 114.425 33.677 114.284 33.677C114.142 33.677 114.027 33.5613 114.027 33.4186C114.027 33.2759 114.142 33.1602 114.284 33.1602C114.425 33.1602 114.54 33.2759 114.54 33.4186Z" fill="#4C4C4C"/>
<path d="M122.745 33.4186C122.745 33.5613 122.63 33.677 122.489 33.677C122.347 33.677 122.232 33.5613 122.232 33.4186C122.232 33.2759 122.347 33.1602 122.489 33.1602C122.63 33.1602 122.745 33.2759 122.745 33.4186Z" fill="#4C4C4C"/>
<path d="M130.944 33.4186C130.944 33.5613 130.829 33.677 130.688 33.677C130.546 33.677 130.432 33.5613 130.432 33.4186C130.432 33.2759 130.546 33.1602 130.688 33.1602C130.829 33.1602 130.944 33.2759 130.944 33.4186Z" fill="#4C4C4C"/>
<path d="M139.147 33.4186C139.147 33.5613 139.033 33.677 138.891 33.677C138.75 33.677 138.635 33.5613 138.635 33.4186C138.635 33.2759 138.75 33.1602 138.891 33.1602C139.033 33.1602 139.147 33.2759 139.147 33.4186Z" fill="#4C4C4C"/>
<path d="M147.349 33.4186C147.349 33.5613 147.234 33.677 147.092 33.677C146.951 33.677 146.836 33.5613 146.836 33.4186C146.836 33.2759 146.951 33.1602 147.092 33.1602C147.234 33.1602 147.349 33.2759 147.349 33.4186Z" fill="#4C4C4C"/>
<path d="M155.55 33.4186C155.55 33.5613 155.435 33.677 155.293 33.677C155.152 33.677 155.037 33.5613 155.037 33.4186C155.037 33.2759 155.152 33.1602 155.293 33.1602C155.435 33.1602 155.55 33.2759 155.55 33.4186Z" fill="#4C4C4C"/>
<path d="M163.753 33.4186C163.753 33.5613 163.638 33.677 163.497 33.677C163.355 33.677 163.24 33.5613 163.24 33.4186C163.24 33.2759 163.355 33.1602 163.497 33.1602C163.638 33.1602 163.753 33.2759 163.753 33.4186Z" fill="#4C4C4C"/>
<path d="M171.956 33.4186C171.956 33.5613 171.841 33.677 171.7 33.677C171.558 33.677 171.443 33.5613 171.443 33.4186C171.443 33.2759 171.558 33.1602 171.7 33.1602C171.841 33.1602 171.956 33.2759 171.956 33.4186Z" fill="#4C4C4C"/>
<path d="M180.155 33.4186C180.155 33.5613 180.04 33.677 179.899 33.677C179.757 33.677 179.643 33.5613 179.643 33.4186C179.643 33.2759 179.757 33.1602 179.899 33.1602C180.04 33.1602 180.155 33.2759 180.155 33.4186Z" fill="#4C4C4C"/>
<path d="M188.358 33.4186C188.358 33.5613 188.244 33.677 188.102 33.677C187.96 33.677 187.846 33.5613 187.846 33.4186C187.846 33.2759 187.961 33.1602 188.102 33.1602C188.244 33.1602 188.358 33.2759 188.358 33.4186Z" fill="#4C4C4C"/>
<path d="M7.91687 41.6901C7.91687 41.8328 7.80212 41.9485 7.66056 41.9485C7.51905 41.9485 7.4043 41.8328 7.4043 41.6901C7.4043 41.5474 7.51905 41.4316 7.66056 41.4316C7.80212 41.4316 7.91687 41.5474 7.91687 41.6901Z" fill="#4C4C4C"/>
<path d="M16.1161 41.6901C16.1161 41.8328 16.0014 41.9485 15.8598 41.9485C15.7183 41.9485 15.6035 41.8328 15.6035 41.6901C15.6035 41.5474 15.7182 41.4316 15.8598 41.4316C16.0013 41.4316 16.1161 41.5474 16.1161 41.6901Z" fill="#4C4C4C"/>
<path d="M24.3212 41.6901C24.3212 41.8328 24.2065 41.9485 24.0649 41.9485C23.9234 41.9485 23.8086 41.8328 23.8086 41.6901C23.8086 41.5474 23.9234 41.4316 24.0649 41.4316C24.2065 41.4316 24.3212 41.5474 24.3212 41.6901Z" fill="#4C4C4C"/>
<path d="M32.5223 41.6901C32.5223 41.8328 32.4076 41.9485 32.266 41.9485C32.1245 41.9485 32.0098 41.8328 32.0098 41.6901C32.0098 41.5474 32.1245 41.4316 32.266 41.4316C32.4076 41.4316 32.5223 41.5474 32.5223 41.6901Z" fill="#4C4C4C"/>
<path d="M40.7236 41.6901C40.7236 41.8328 40.6088 41.9485 40.4673 41.9485C40.3257 41.9485 40.2109 41.8328 40.2109 41.6901C40.2109 41.5474 40.3257 41.4316 40.4673 41.4316C40.6088 41.4316 40.7236 41.5474 40.7236 41.6901Z" fill="#4C4C4C"/>
<path d="M48.9267 41.6901C48.9267 41.8328 48.812 41.9485 48.6704 41.9485C48.5288 41.9485 48.4141 41.8328 48.4141 41.6901C48.4141 41.5474 48.5288 41.4316 48.6704 41.4316C48.8119 41.4316 48.9267 41.5474 48.9267 41.6901Z" fill="#4C4C4C"/>
<path d="M57.1279 41.6901C57.1279 41.8328 57.0131 41.9485 56.8715 41.9485C56.73 41.9485 56.6152 41.8328 56.6152 41.6901C56.6152 41.5474 56.73 41.4316 56.8715 41.4316C57.0131 41.4316 57.1279 41.5474 57.1279 41.6901Z" fill="#4C4C4C"/>
<path d="M65.331 41.6901C65.331 41.8328 65.2162 41.9485 65.0747 41.9485C64.9331 41.9485 64.8184 41.8328 64.8184 41.6901C64.8184 41.5474 64.9331 41.4316 65.0747 41.4316C65.2162 41.4316 65.331 41.5474 65.331 41.6901Z" fill="#4C4C4C"/>
<path d="M73.5322 41.6901C73.5322 41.8328 73.4175 41.9485 73.2759 41.9485C73.1343 41.9485 73.0195 41.8328 73.0195 41.6901C73.0195 41.5474 73.1343 41.4316 73.2759 41.4316C73.4174 41.4316 73.5322 41.5474 73.5322 41.6901Z" fill="#4C4C4C"/>
<path d="M81.7353 41.6901C81.7353 41.8328 81.6205 41.9485 81.479 41.9485C81.3374 41.9485 81.2227 41.8328 81.2227 41.6901C81.2227 41.5474 81.3374 41.4316 81.479 41.4316C81.6205 41.4316 81.7353 41.5474 81.7353 41.6901Z" fill="#4C4C4C"/>
<path d="M89.9365 41.6901C89.9365 41.8328 89.8217 41.9485 89.6801 41.9485C89.5386 41.9485 89.4238 41.8328 89.4238 41.6901C89.4238 41.5474 89.5386 41.4316 89.6801 41.4316C89.8217 41.4316 89.9365 41.5474 89.9365 41.6901Z" fill="#4C4C4C"/>
<path d="M98.1376 41.6901C98.1376 41.8328 98.0228 41.9485 97.8813 41.9485C97.7398 41.9485 97.625 41.8328 97.625 41.6901C97.625 41.5474 97.7398 41.4316 97.8813 41.4316C98.0228 41.4316 98.1376 41.5474 98.1376 41.6901Z" fill="#4C4C4C"/>
<path d="M106.341 41.6901C106.341 41.8328 106.226 41.9485 106.084 41.9485C105.943 41.9485 105.828 41.8328 105.828 41.6901C105.828 41.5474 105.943 41.4316 106.084 41.4316C106.226 41.4316 106.341 41.5474 106.341 41.6901Z" fill="#4C4C4C"/>
<path d="M114.54 41.6901C114.54 41.8328 114.425 41.9485 114.284 41.9485C114.142 41.9485 114.027 41.8328 114.027 41.6901C114.027 41.5474 114.142 41.4316 114.284 41.4316C114.425 41.4316 114.54 41.5474 114.54 41.6901Z" fill="#4C4C4C"/>
<path d="M122.745 41.6901C122.745 41.8328 122.63 41.9485 122.489 41.9485C122.347 41.9485 122.232 41.8328 122.232 41.6901C122.232 41.5474 122.347 41.4316 122.489 41.4316C122.63 41.4316 122.745 41.5474 122.745 41.6901Z" fill="#4C4C4C"/>
<path d="M130.944 41.6901C130.944 41.8328 130.829 41.9485 130.688 41.9485C130.546 41.9485 130.432 41.8328 130.432 41.6901C130.432 41.5474 130.546 41.4316 130.688 41.4316C130.829 41.4316 130.944 41.5474 130.944 41.6901Z" fill="#4C4C4C"/>
<path d="M139.147 41.6901C139.147 41.8328 139.033 41.9485 138.891 41.9485C138.75 41.9485 138.635 41.8328 138.635 41.6901C138.635 41.5474 138.75 41.4316 138.891 41.4316C139.033 41.4316 139.147 41.5474 139.147 41.6901Z" fill="#4C4C4C"/>
<path d="M147.349 41.6901C147.349 41.8328 147.234 41.9485 147.092 41.9485C146.951 41.9485 146.836 41.8328 146.836 41.6901C146.836 41.5474 146.951 41.4316 147.092 41.4316C147.234 41.4316 147.349 41.5474 147.349 41.6901Z" fill="#4C4C4C"/>
<path d="M155.55 41.6901C155.55 41.8328 155.435 41.9485 155.293 41.9485C155.152 41.9485 155.037 41.8328 155.037 41.6901C155.037 41.5474 155.152 41.4316 155.293 41.4316C155.435 41.4316 155.55 41.5474 155.55 41.6901Z" fill="#4C4C4C"/>
<path d="M163.753 41.6901C163.753 41.8328 163.638 41.9485 163.497 41.9485C163.355 41.9485 163.24 41.8328 163.24 41.6901C163.24 41.5474 163.355 41.4316 163.497 41.4316C163.638 41.4316 163.753 41.5474 163.753 41.6901Z" fill="#4C4C4C"/>
<path d="M171.956 41.6901C171.956 41.8328 171.841 41.9485 171.7 41.9485C171.558 41.9485 171.443 41.8328 171.443 41.6901C171.443 41.5474 171.558 41.4316 171.7 41.4316C171.841 41.4316 171.956 41.5474 171.956 41.6901Z" fill="#4C4C4C"/>
<path d="M180.155 41.6901C180.155 41.8328 180.04 41.9485 179.899 41.9485C179.757 41.9485 179.643 41.8328 179.643 41.6901C179.643 41.5474 179.757 41.4316 179.899 41.4316C180.04 41.4316 180.155 41.5474 180.155 41.6901Z" fill="#4C4C4C"/>
<path d="M188.358 41.6901C188.358 41.8328 188.244 41.9485 188.102 41.9485C187.96 41.9485 187.846 41.8328 187.846 41.6901C187.846 41.5474 187.961 41.4316 188.102 41.4316C188.244 41.4316 188.358 41.5474 188.358 41.6901Z" fill="#4C4C4C"/>
<path d="M7.91687 49.9577C7.91687 50.1004 7.80212 50.2161 7.66056 50.2161C7.51905 50.2161 7.4043 50.1004 7.4043 49.9577C7.4043 49.815 7.51905 49.6992 7.66056 49.6992C7.80212 49.6992 7.91687 49.815 7.91687 49.9577Z" fill="#4C4C4C"/>
<path d="M16.1161 49.9577C16.1161 50.1004 16.0014 50.2161 15.8598 50.2161C15.7183 50.2161 15.6035 50.1004 15.6035 49.9577C15.6035 49.815 15.7182 49.6992 15.8598 49.6992C16.0013 49.6992 16.1161 49.815 16.1161 49.9577Z" fill="#4C4C4C"/>
<path d="M24.3212 49.9577C24.3212 50.1004 24.2065 50.2161 24.0649 50.2161C23.9234 50.2161 23.8086 50.1004 23.8086 49.9577C23.8086 49.815 23.9234 49.6992 24.0649 49.6992C24.2065 49.6992 24.3212 49.815 24.3212 49.9577Z" fill="#4C4C4C"/>
<path d="M32.5223 49.9577C32.5223 50.1004 32.4076 50.2161 32.266 50.2161C32.1245 50.2161 32.0098 50.1004 32.0098 49.9577C32.0098 49.815 32.1245 49.6992 32.266 49.6992C32.4076 49.6992 32.5223 49.815 32.5223 49.9577Z" fill="#4C4C4C"/>
<path d="M40.7236 49.9577C40.7236 50.1004 40.6088 50.2161 40.4673 50.2161C40.3257 50.2161 40.2109 50.1004 40.2109 49.9577C40.2109 49.815 40.3257 49.6992 40.4673 49.6992C40.6088 49.6992 40.7236 49.815 40.7236 49.9577Z" fill="#4C4C4C"/>
<path d="M48.9267 49.9577C48.9267 50.1004 48.812 50.2161 48.6704 50.2161C48.5288 50.2161 48.4141 50.1004 48.4141 49.9577C48.4141 49.815 48.5288 49.6992 48.6704 49.6992C48.8119 49.6992 48.9267 49.815 48.9267 49.9577Z" fill="#4C4C4C"/>
<path d="M57.1279 49.9577C57.1279 50.1004 57.0131 50.2161 56.8715 50.2161C56.73 50.2161 56.6152 50.1004 56.6152 49.9577C56.6152 49.815 56.73 49.6992 56.8715 49.6992C57.0131 49.6992 57.1279 49.815 57.1279 49.9577Z" fill="#4C4C4C"/>
<path d="M65.331 49.9577C65.331 50.1004 65.2162 50.2161 65.0747 50.2161C64.9331 50.2161 64.8184 50.1004 64.8184 49.9577C64.8184 49.815 64.9331 49.6992 65.0747 49.6992C65.2162 49.6992 65.331 49.815 65.331 49.9577Z" fill="#4C4C4C"/>
<path d="M73.5322 49.9577C73.5322 50.1004 73.4175 50.2161 73.2759 50.2161C73.1343 50.2161 73.0195 50.1004 73.0195 49.9577C73.0195 49.815 73.1343 49.6992 73.2759 49.6992C73.4174 49.6992 73.5322 49.815 73.5322 49.9577Z" fill="#4C4C4C"/>
<path d="M81.7353 49.9577C81.7353 50.1004 81.6205 50.2161 81.479 50.2161C81.3374 50.2161 81.2227 50.1004 81.2227 49.9577C81.2227 49.815 81.3374 49.6992 81.479 49.6992C81.6205 49.6992 81.7353 49.815 81.7353 49.9577Z" fill="#4C4C4C"/>
<path d="M89.9365 49.9577C89.9365 50.1004 89.8217 50.2161 89.6801 50.2161C89.5386 50.2161 89.4238 50.1004 89.4238 49.9577C89.4238 49.815 89.5386 49.6992 89.6801 49.6992C89.8217 49.6992 89.9365 49.815 89.9365 49.9577Z" fill="#4C4C4C"/>
<path d="M98.1376 49.9577C98.1376 50.1004 98.0228 50.2161 97.8813 50.2161C97.7398 50.2161 97.625 50.1004 97.625 49.9577C97.625 49.815 97.7398 49.6992 97.8813 49.6992C98.0228 49.6992 98.1376 49.815 98.1376 49.9577Z" fill="#4C4C4C"/>
<path d="M106.341 49.9577C106.341 50.1004 106.226 50.2161 106.084 50.2161C105.943 50.2161 105.828 50.1004 105.828 49.9577C105.828 49.815 105.943 49.6992 106.084 49.6992C106.226 49.6992 106.341 49.815 106.341 49.9577Z" fill="#4C4C4C"/>
<path d="M114.54 49.9577C114.54 50.1004 114.425 50.2161 114.284 50.2161C114.142 50.2161 114.027 50.1004 114.027 49.9577C114.027 49.815 114.142 49.6992 114.284 49.6992C114.425 49.6992 114.54 49.815 114.54 49.9577Z" fill="#4C4C4C"/>
<path d="M122.745 49.9577C122.745 50.1004 122.63 50.2161 122.489 50.2161C122.347 50.2161 122.232 50.1004 122.232 49.9577C122.232 49.815 122.347 49.6992 122.489 49.6992C122.63 49.6992 122.745 49.815 122.745 49.9577Z" fill="#4C4C4C"/>
<path d="M130.944 49.9577C130.944 50.1004 130.829 50.2161 130.688 50.2161C130.546 50.2161 130.432 50.1004 130.432 49.9577C130.432 49.815 130.546 49.6992 130.688 49.6992C130.829 49.6992 130.944 49.815 130.944 49.9577Z" fill="#4C4C4C"/>
<path d="M139.147 49.9577C139.147 50.1004 139.033 50.2161 138.891 50.2161C138.75 50.2161 138.635 50.1004 138.635 49.9577C138.635 49.815 138.75 49.6992 138.891 49.6992C139.033 49.6992 139.147 49.815 139.147 49.9577Z" fill="#4C4C4C"/>
<path d="M147.349 49.9577C147.349 50.1004 147.234 50.2161 147.092 50.2161C146.951 50.2161 146.836 50.1004 146.836 49.9577C146.836 49.815 146.951 49.6992 147.092 49.6992C147.234 49.6992 147.349 49.815 147.349 49.9577Z" fill="#4C4C4C"/>
<path d="M155.55 49.9577C155.55 50.1004 155.435 50.2161 155.293 50.2161C155.152 50.2161 155.037 50.1004 155.037 49.9577C155.037 49.815 155.152 49.6992 155.293 49.6992C155.435 49.6992 155.55 49.815 155.55 49.9577Z" fill="#4C4C4C"/>
<path d="M163.753 49.9577C163.753 50.1004 163.638 50.2161 163.497 50.2161C163.355 50.2161 163.24 50.1004 163.24 49.9577C163.24 49.815 163.355 49.6992 163.497 49.6992C163.638 49.6992 163.753 49.815 163.753 49.9577Z" fill="#4C4C4C"/>
<path d="M171.956 49.9577C171.956 50.1004 171.841 50.2161 171.7 50.2161C171.558 50.2161 171.443 50.1004 171.443 49.9577C171.443 49.815 171.558 49.6992 171.7 49.6992C171.841 49.6992 171.956 49.815 171.956 49.9577Z" fill="#4C4C4C"/>
<path d="M180.155 49.9577C180.155 50.1004 180.04 50.2161 179.899 50.2161C179.757 50.2161 179.643 50.1004 179.643 49.9577C179.643 49.815 179.757 49.6992 179.899 49.6992C180.04 49.6992 180.155 49.815 180.155 49.9577Z" fill="#4C4C4C"/>
<path d="M188.358 49.9577C188.358 50.1004 188.244 50.2161 188.102 50.2161C187.96 50.2161 187.846 50.1004 187.846 49.9577C187.846 49.815 187.961 49.6992 188.102 49.6992C188.244 49.6992 188.358 49.815 188.358 49.9577Z" fill="#4C4C4C"/>
<path d="M7.91687 58.2272C7.91687 58.3699 7.80212 58.4856 7.66056 58.4856C7.51905 58.4856 7.4043 58.3699 7.4043 58.2272C7.4043 58.0845 7.51905 57.9688 7.66056 57.9688C7.80212 57.9688 7.91687 58.0845 7.91687 58.2272Z" fill="#4C4C4C"/>
<path d="M16.1161 58.2291C16.1161 58.3719 16.0014 58.4876 15.8598 58.4876C15.7183 58.4876 15.6035 58.3719 15.6035 58.2291C15.6035 58.0864 15.7182 57.9707 15.8598 57.9707C16.0013 57.9708 16.1161 58.0864 16.1161 58.2291Z" fill="#4C4C4C"/>
<path d="M24.3212 58.2272C24.3212 58.3699 24.2065 58.4856 24.0649 58.4856C23.9234 58.4856 23.8086 58.3699 23.8086 58.2272C23.8086 58.0845 23.9234 57.9688 24.0649 57.9688C24.2065 57.9688 24.3212 58.0845 24.3212 58.2272Z" fill="#4C4C4C"/>
<path d="M32.5223 58.2291C32.5223 58.3719 32.4076 58.4876 32.266 58.4876C32.1245 58.4876 32.0098 58.3719 32.0098 58.2291C32.0098 58.0864 32.1245 57.9707 32.266 57.9707C32.4076 57.9708 32.5223 58.0864 32.5223 58.2291Z" fill="#4C4C4C"/>
<path d="M40.7255 58.2272C40.7255 58.3699 40.6108 58.4856 40.4692 58.4856C40.3276 58.4856 40.2129 58.3699 40.2129 58.2272C40.2129 58.0845 40.3276 57.9688 40.4692 57.9688C40.6108 57.9688 40.7255 58.0845 40.7255 58.2272Z" fill="#4C4C4C"/>
<path d="M48.9267 58.2291C48.9267 58.3719 48.812 58.4876 48.6704 58.4876C48.5288 58.4876 48.4141 58.3719 48.4141 58.2291C48.4141 58.0864 48.5288 57.9707 48.6704 57.9707C48.8119 57.9708 48.9267 58.0864 48.9267 58.2291Z" fill="#4C4C4C"/>
<path d="M57.1259 58.2291C57.1259 58.3719 57.0112 58.4876 56.8695 58.4876C56.728 58.4876 56.6133 58.3719 56.6133 58.2291C56.6133 58.0864 56.728 57.9707 56.8695 57.9707C57.0112 57.9708 57.1259 58.0864 57.1259 58.2291Z" fill="#4C4C4C"/>
<path d="M65.331 58.2291C65.331 58.3719 65.2162 58.4876 65.0747 58.4876C64.9331 58.4876 64.8184 58.3719 64.8184 58.2291C64.8184 58.0864 64.9331 57.9707 65.0747 57.9707C65.2162 57.9708 65.331 58.0864 65.331 58.2291Z" fill="#4C4C4C"/>
<path d="M73.5322 58.2291C73.5322 58.3719 73.4175 58.4876 73.2759 58.4876C73.1343 58.4876 73.0195 58.3719 73.0195 58.2291C73.0195 58.0864 73.1343 57.9707 73.2759 57.9707C73.4174 57.9708 73.5322 58.0864 73.5322 58.2291Z" fill="#4C4C4C"/>
<path d="M81.7333 58.2272C81.7333 58.3699 81.6186 58.4856 81.477 58.4856C81.3355 58.4856 81.2207 58.3699 81.2207 58.2272C81.2207 58.0845 81.3355 57.9688 81.477 57.9688C81.6186 57.9688 81.7333 58.0845 81.7333 58.2272Z" fill="#4C4C4C"/>
<path d="M89.9365 58.2291C89.9365 58.3719 89.8217 58.4876 89.6801 58.4876C89.5386 58.4876 89.4238 58.3719 89.4238 58.2291C89.4238 58.0864 89.5386 57.9707 89.6801 57.9707C89.8217 57.9707 89.9365 58.0864 89.9365 58.2291Z" fill="#4C4C4C"/>
<path d="M98.1376 58.2272C98.1376 58.3699 98.0228 58.4856 97.8813 58.4856C97.7398 58.4856 97.625 58.3699 97.625 58.2272C97.625 58.0845 97.7398 57.9688 97.8813 57.9688C98.0228 57.9688 98.1376 58.0845 98.1376 58.2272Z" fill="#4C4C4C"/>
<path d="M106.341 58.2291C106.341 58.3719 106.226 58.4876 106.084 58.4876C105.943 58.4876 105.828 58.3719 105.828 58.2291C105.828 58.0864 105.943 57.9707 106.084 57.9707C106.226 57.9708 106.341 58.0864 106.341 58.2291Z" fill="#4C4C4C"/>
<path d="M114.54 58.2291C114.54 58.3719 114.425 58.4876 114.284 58.4876C114.142 58.4876 114.027 58.3719 114.027 58.2291C114.027 58.0864 114.142 57.9707 114.284 57.9707C114.425 57.9708 114.54 58.0864 114.54 58.2291Z" fill="#4C4C4C"/>
<path d="M122.745 58.2291C122.745 58.3719 122.63 58.4876 122.489 58.4876C122.347 58.4876 122.232 58.3719 122.232 58.2291C122.232 58.0864 122.347 57.9707 122.489 57.9707C122.63 57.9708 122.745 58.0864 122.745 58.2291Z" fill="#4C4C4C"/>
<path d="M130.944 58.2291C130.944 58.3719 130.829 58.4876 130.688 58.4876C130.546 58.4876 130.432 58.3719 130.432 58.2291C130.432 58.0864 130.546 57.9707 130.688 57.9707C130.829 57.9708 130.944 58.0864 130.944 58.2291Z" fill="#4C4C4C"/>
<path d="M139.147 58.2291C139.147 58.3719 139.033 58.4876 138.891 58.4876C138.75 58.4876 138.635 58.3719 138.635 58.2291C138.635 58.0864 138.75 57.9707 138.891 57.9707C139.033 57.9708 139.147 58.0864 139.147 58.2291Z" fill="#4C4C4C"/>
<path d="M147.349 58.2291C147.349 58.3719 147.234 58.4876 147.092 58.4876C146.951 58.4876 146.836 58.3719 146.836 58.2291C146.836 58.0864 146.951 57.9707 147.092 57.9707C147.234 57.9708 147.349 58.0864 147.349 58.2291Z" fill="#4C4C4C"/>
<path d="M155.55 58.2272C155.55 58.3699 155.435 58.4856 155.293 58.4856C155.152 58.4856 155.037 58.3699 155.037 58.2272C155.037 58.0845 155.152 57.9688 155.293 57.9688C155.435 57.9688 155.55 58.0845 155.55 58.2272Z" fill="#4C4C4C"/>
<path d="M163.753 58.2291C163.753 58.3719 163.638 58.4876 163.497 58.4876C163.355 58.4876 163.24 58.3719 163.24 58.2291C163.24 58.0864 163.355 57.9707 163.497 57.9707C163.638 57.9707 163.753 58.0864 163.753 58.2291Z" fill="#4C4C4C"/>
<path d="M171.956 58.2291C171.956 58.3719 171.841 58.4876 171.7 58.4876C171.558 58.4876 171.443 58.3719 171.443 58.2291C171.443 58.0864 171.558 57.9707 171.7 57.9707C171.841 57.9708 171.956 58.0864 171.956 58.2291Z" fill="#4C4C4C"/>
<path d="M180.155 58.2291C180.155 58.3719 180.04 58.4876 179.899 58.4876C179.757 58.4876 179.643 58.3719 179.643 58.2291C179.643 58.0864 179.757 57.9707 179.899 57.9707C180.04 57.9708 180.155 58.0864 180.155 58.2291Z" fill="#4C4C4C"/>
<path d="M188.358 58.2272C188.358 58.3699 188.244 58.4856 188.102 58.4856C187.96 58.4856 187.846 58.3699 187.846 58.2272C187.846 58.0845 187.961 57.9688 188.102 57.9688C188.244 57.9688 188.358 58.0845 188.358 58.2272Z" fill="#4C4C4C"/>
<path d="M7.91687 66.4987C7.91687 66.6414 7.80212 66.7571 7.66056 66.7571C7.51905 66.7571 7.4043 66.6414 7.4043 66.4987C7.4043 66.3559 7.51905 66.2402 7.66056 66.2402C7.80212 66.2402 7.91687 66.3559 7.91687 66.4987Z" fill="#4C4C4C"/>
<path d="M16.1161 66.4987C16.1161 66.6414 16.0014 66.7571 15.8598 66.7571C15.7183 66.7571 15.6035 66.6414 15.6035 66.4987C15.6035 66.3559 15.7182 66.2402 15.8598 66.2402C16.0013 66.2402 16.1161 66.3559 16.1161 66.4987Z" fill="#4C4C4C"/>
<path d="M24.3212 66.4987C24.3212 66.6414 24.2065 66.7571 24.0649 66.7571C23.9234 66.7571 23.8086 66.6414 23.8086 66.4987C23.8086 66.3559 23.9234 66.2402 24.0649 66.2402C24.2065 66.2402 24.3212 66.3559 24.3212 66.4987Z" fill="#4C4C4C"/>
<path d="M32.5223 66.4987C32.5223 66.6414 32.4076 66.7571 32.266 66.7571C32.1245 66.7571 32.0098 66.6414 32.0098 66.4987C32.0098 66.3559 32.1245 66.2402 32.266 66.2402C32.4076 66.2402 32.5223 66.3559 32.5223 66.4987Z" fill="#4C4C4C"/>
<path d="M40.7236 66.4987C40.7236 66.6414 40.6088 66.7571 40.4673 66.7571C40.3257 66.7571 40.2109 66.6414 40.2109 66.4987C40.2109 66.3559 40.3257 66.2402 40.4673 66.2402C40.6088 66.2402 40.7236 66.3559 40.7236 66.4987Z" fill="#4C4C4C"/>
<path d="M48.9267 66.4987C48.9267 66.6414 48.812 66.7571 48.6704 66.7571C48.5288 66.7571 48.4141 66.6414 48.4141 66.4987C48.4141 66.3559 48.5288 66.2402 48.6704 66.2402C48.8119 66.2402 48.9267 66.3559 48.9267 66.4987Z" fill="#4C4C4C"/>
<path d="M57.1279 66.4987C57.1279 66.6414 57.0131 66.7571 56.8715 66.7571C56.73 66.7571 56.6152 66.6414 56.6152 66.4987C56.6152 66.3559 56.73 66.2402 56.8715 66.2402C57.0131 66.2402 57.1279 66.3559 57.1279 66.4987Z" fill="#4C4C4C"/>
<path d="M65.331 66.4987C65.331 66.6414 65.2162 66.7571 65.0747 66.7571C64.9331 66.7571 64.8184 66.6414 64.8184 66.4987C64.8184 66.3559 64.9331 66.2402 65.0747 66.2402C65.2162 66.2402 65.331 66.3559 65.331 66.4987Z" fill="#4C4C4C"/>
<path d="M73.5322 66.4987C73.5322 66.6414 73.4175 66.7571 73.2759 66.7571C73.1343 66.7571 73.0195 66.6414 73.0195 66.4987C73.0195 66.3559 73.1343 66.2402 73.2759 66.2402C73.4174 66.2402 73.5322 66.3559 73.5322 66.4987Z" fill="#4C4C4C"/>
<path d="M81.7353 66.4987C81.7353 66.6414 81.6205 66.7571 81.479 66.7571C81.3374 66.7571 81.2227 66.6414 81.2227 66.4987C81.2227 66.3559 81.3374 66.2402 81.479 66.2402C81.6205 66.2402 81.7353 66.3559 81.7353 66.4987Z" fill="#4C4C4C"/>
<path d="M89.9365 66.4987C89.9365 66.6414 89.8217 66.7571 89.6801 66.7571C89.5386 66.7571 89.4238 66.6414 89.4238 66.4987C89.4238 66.3559 89.5386 66.2402 89.6801 66.2402C89.8217 66.2402 89.9365 66.3559 89.9365 66.4987Z" fill="#4C4C4C"/>
<path d="M98.1376 66.4987C98.1376 66.6414 98.0228 66.7571 97.8813 66.7571C97.7398 66.7571 97.625 66.6414 97.625 66.4987C97.625 66.3559 97.7398 66.2402 97.8813 66.2402C98.0228 66.2402 98.1376 66.3559 98.1376 66.4987Z" fill="#4C4C4C"/>
<path d="M106.341 66.4987C106.341 66.6414 106.226 66.7571 106.084 66.7571C105.943 66.7571 105.828 66.6414 105.828 66.4987C105.828 66.3559 105.943 66.2402 106.084 66.2402C106.226 66.2402 106.341 66.3559 106.341 66.4987Z" fill="#4C4C4C"/>
<path d="M114.54 66.4987C114.54 66.6414 114.425 66.7571 114.284 66.7571C114.142 66.7571 114.027 66.6414 114.027 66.4987C114.027 66.3559 114.142 66.2402 114.284 66.2402C114.425 66.2402 114.54 66.3559 114.54 66.4987Z" fill="#4C4C4C"/>
<path d="M122.745 66.4987C122.745 66.6414 122.63 66.7571 122.489 66.7571C122.347 66.7571 122.232 66.6414 122.232 66.4987C122.232 66.3559 122.347 66.2402 122.489 66.2402C122.63 66.2402 122.745 66.3559 122.745 66.4987Z" fill="#4C4C4C"/>
<path d="M130.944 66.4987C130.944 66.6414 130.829 66.7571 130.688 66.7571C130.546 66.7571 130.432 66.6414 130.432 66.4987C130.432 66.3559 130.546 66.2402 130.688 66.2402C130.829 66.2402 130.944 66.3559 130.944 66.4987Z" fill="#4C4C4C"/>
<path d="M139.147 66.4987C139.147 66.6414 139.033 66.7571 138.891 66.7571C138.75 66.7571 138.635 66.6414 138.635 66.4987C138.635 66.3559 138.75 66.2402 138.891 66.2402C139.033 66.2402 139.147 66.3559 139.147 66.4987Z" fill="#4C4C4C"/>
<path d="M147.349 66.4987C147.349 66.6414 147.234 66.7571 147.092 66.7571C146.951 66.7571 146.836 66.6414 146.836 66.4987C146.836 66.3559 146.951 66.2402 147.092 66.2402C147.234 66.2402 147.349 66.3559 147.349 66.4987Z" fill="#4C4C4C"/>
<path d="M155.55 66.4987C155.55 66.6414 155.435 66.7571 155.293 66.7571C155.152 66.7571 155.037 66.6414 155.037 66.4987C155.037 66.3559 155.152 66.2402 155.293 66.2402C155.435 66.2402 155.55 66.3559 155.55 66.4987Z" fill="#4C4C4C"/>
<path d="M163.753 66.4987C163.753 66.6414 163.638 66.7571 163.497 66.7571C163.355 66.7571 163.24 66.6414 163.24 66.4987C163.24 66.3559 163.355 66.2402 163.497 66.2402C163.638 66.2402 163.753 66.3559 163.753 66.4987Z" fill="#4C4C4C"/>
<path d="M171.956 66.4987C171.956 66.6414 171.841 66.7571 171.7 66.7571C171.558 66.7571 171.443 66.6414 171.443 66.4987C171.443 66.3559 171.558 66.2402 171.7 66.2402C171.841 66.2402 171.956 66.3559 171.956 66.4987Z" fill="#4C4C4C"/>
<path d="M180.155 66.4987C180.155 66.6414 180.04 66.7571 179.899 66.7571C179.757 66.7571 179.643 66.6414 179.643 66.4987C179.643 66.3559 179.757 66.2402 179.899 66.2402C180.04 66.2402 180.155 66.3559 180.155 66.4987Z" fill="#4C4C4C"/>
<path d="M188.358 66.4987C188.358 66.6414 188.244 66.7571 188.102 66.7571C187.96 66.7571 187.846 66.6414 187.846 66.4987C187.846 66.3559 187.961 66.2402 188.102 66.2402C188.244 66.2402 188.358 66.3559 188.358 66.4987Z" fill="#4C4C4C"/>
<path d="M7.91687 74.7663C7.91687 74.9089 7.80212 75.0246 7.66056 75.0246C7.51905 75.0246 7.4043 74.9089 7.4043 74.7663C7.4043 74.6235 7.51905 74.5078 7.66056 74.5078C7.80212 74.5078 7.91687 74.6235 7.91687 74.7663Z" fill="#4C4C4C"/>
<path d="M16.1161 74.7663C16.1161 74.9089 16.0014 75.0246 15.8598 75.0246C15.7183 75.0246 15.6035 74.9089 15.6035 74.7663C15.6035 74.6235 15.7182 74.5078 15.8598 74.5078C16.0013 74.5078 16.1161 74.6235 16.1161 74.7663Z" fill="#4C4C4C"/>
<path d="M24.3212 74.7663C24.3212 74.9089 24.2065 75.0246 24.0649 75.0246C23.9234 75.0246 23.8086 74.9089 23.8086 74.7663C23.8086 74.6235 23.9234 74.5078 24.0649 74.5078C24.2065 74.5078 24.3212 74.6235 24.3212 74.7663Z" fill="#4C4C4C"/>
<path d="M32.5223 74.7663C32.5223 74.9089 32.4076 75.0246 32.266 75.0246C32.1245 75.0246 32.0098 74.9089 32.0098 74.7663C32.0098 74.6235 32.1245 74.5078 32.266 74.5078C32.4076 74.5078 32.5223 74.6235 32.5223 74.7663Z" fill="#4C4C4C"/>
<path d="M40.7236 74.7663C40.7236 74.9089 40.6088 75.0246 40.4673 75.0246C40.3257 75.0246 40.2109 74.9089 40.2109 74.7663C40.2109 74.6235 40.3257 74.5078 40.4673 74.5078C40.6088 74.5078 40.7236 74.6235 40.7236 74.7663Z" fill="#4C4C4C"/>
<path d="M48.9267 74.7663C48.9267 74.9089 48.812 75.0246 48.6704 75.0246C48.5288 75.0246 48.4141 74.9089 48.4141 74.7663C48.4141 74.6235 48.5288 74.5078 48.6704 74.5078C48.8119 74.5078 48.9267 74.6235 48.9267 74.7663Z" fill="#4C4C4C"/>
<path d="M57.1279 74.7663C57.1279 74.9089 57.0131 75.0246 56.8715 75.0246C56.73 75.0246 56.6152 74.9089 56.6152 74.7663C56.6152 74.6235 56.73 74.5078 56.8715 74.5078C57.0131 74.5078 57.1279 74.6235 57.1279 74.7663Z" fill="#4C4C4C"/>
<path d="M65.331 74.7663C65.331 74.9089 65.2162 75.0246 65.0747 75.0246C64.9331 75.0246 64.8184 74.9089 64.8184 74.7663C64.8184 74.6235 64.9331 74.5078 65.0747 74.5078C65.2162 74.5078 65.331 74.6235 65.331 74.7663Z" fill="#4C4C4C"/>
<path d="M73.5322 74.7663C73.5322 74.9089 73.4175 75.0246 73.2759 75.0246C73.1343 75.0246 73.0195 74.9089 73.0195 74.7663C73.0195 74.6235 73.1343 74.5078 73.2759 74.5078C73.4174 74.5078 73.5322 74.6235 73.5322 74.7663Z" fill="#4C4C4C"/>
<path d="M81.7353 74.7663C81.7353 74.9089 81.6205 75.0246 81.479 75.0246C81.3374 75.0246 81.2227 74.9089 81.2227 74.7663C81.2227 74.6235 81.3374 74.5078 81.479 74.5078C81.6205 74.5078 81.7353 74.6235 81.7353 74.7663Z" fill="#4C4C4C"/>
<path d="M89.9365 74.7663C89.9365 74.9089 89.8217 75.0246 89.6801 75.0246C89.5386 75.0246 89.4238 74.9089 89.4238 74.7663C89.4238 74.6235 89.5386 74.5078 89.6801 74.5078C89.8217 74.5078 89.9365 74.6235 89.9365 74.7663Z" fill="#4C4C4C"/>
<path d="M98.1376 74.7663C98.1376 74.9089 98.0228 75.0246 97.8813 75.0246C97.7398 75.0246 97.625 74.9089 97.625 74.7663C97.625 74.6235 97.7398 74.5078 97.8813 74.5078C98.0228 74.5078 98.1376 74.6235 98.1376 74.7663Z" fill="#4C4C4C"/>
<path d="M106.341 74.7663C106.341 74.9089 106.226 75.0246 106.084 75.0246C105.943 75.0246 105.828 74.9089 105.828 74.7663C105.828 74.6235 105.943 74.5078 106.084 74.5078C106.226 74.5078 106.341 74.6235 106.341 74.7663Z" fill="#4C4C4C"/>
<path d="M114.54 74.7663C114.54 74.9089 114.425 75.0246 114.284 75.0246C114.142 75.0246 114.027 74.9089 114.027 74.7663C114.027 74.6235 114.142 74.5078 114.284 74.5078C114.425 74.5078 114.54 74.6235 114.54 74.7663Z" fill="#4C4C4C"/>
<path d="M122.745 74.7663C122.745 74.9089 122.63 75.0246 122.489 75.0246C122.347 75.0246 122.232 74.9089 122.232 74.7663C122.232 74.6235 122.347 74.5078 122.489 74.5078C122.63 74.5078 122.745 74.6235 122.745 74.7663Z" fill="#4C4C4C"/>
<path d="M130.944 74.7663C130.944 74.9089 130.829 75.0246 130.688 75.0246C130.546 75.0246 130.432 74.9089 130.432 74.7663C130.432 74.6235 130.546 74.5078 130.688 74.5078C130.829 74.5078 130.944 74.6235 130.944 74.7663Z" fill="#4C4C4C"/>
<path d="M139.147 74.7663C139.147 74.9089 139.033 75.0246 138.891 75.0246C138.75 75.0246 138.635 74.9089 138.635 74.7663C138.635 74.6235 138.75 74.5078 138.891 74.5078C139.033 74.5078 139.147 74.6235 139.147 74.7663Z" fill="#4C4C4C"/>
<path d="M147.349 74.7663C147.349 74.9089 147.234 75.0246 147.092 75.0246C146.951 75.0246 146.836 74.9089 146.836 74.7663C146.836 74.6235 146.951 74.5078 147.092 74.5078C147.234 74.5078 147.349 74.6235 147.349 74.7663Z" fill="#4C4C4C"/>
<path d="M155.55 74.7663C155.55 74.9089 155.435 75.0246 155.293 75.0246C155.152 75.0246 155.037 74.9089 155.037 74.7663C155.037 74.6235 155.152 74.5078 155.293 74.5078C155.435 74.5078 155.55 74.6235 155.55 74.7663Z" fill="#4C4C4C"/>
<path d="M163.753 74.7663C163.753 74.9089 163.638 75.0246 163.497 75.0246C163.355 75.0246 163.24 74.9089 163.24 74.7663C163.24 74.6235 163.355 74.5078 163.497 74.5078C163.638 74.5078 163.753 74.6235 163.753 74.7663Z" fill="#4C4C4C"/>
<path d="M171.956 74.7663C171.956 74.9089 171.841 75.0246 171.7 75.0246C171.558 75.0246 171.443 74.9089 171.443 74.7663C171.443 74.6235 171.558 74.5078 171.7 74.5078C171.841 74.5078 171.956 74.6235 171.956 74.7663Z" fill="#4C4C4C"/>
<path d="M180.155 74.7663C180.155 74.9089 180.04 75.0246 179.899 75.0246C179.757 75.0246 179.643 74.9089 179.643 74.7663C179.643 74.6235 179.757 74.5078 179.899 74.5078C180.04 74.5078 180.155 74.6235 180.155 74.7663Z" fill="#4C4C4C"/>
<path d="M188.358 74.7663C188.358 74.9089 188.244 75.0246 188.102 75.0246C187.96 75.0246 187.846 74.9089 187.846 74.7663C187.846 74.6235 187.961 74.5078 188.102 74.5078C188.244 74.5078 188.358 74.6235 188.358 74.7663Z" fill="#4C4C4C"/>
<path d="M7.91687 83.0377C7.91687 83.1805 7.80212 83.2962 7.66056 83.2962C7.51905 83.2962 7.4043 83.1804 7.4043 83.0377C7.4043 82.895 7.51905 82.7793 7.66056 82.7793C7.80212 82.7793 7.91687 82.895 7.91687 83.0377Z" fill="#4C4C4C"/>
<path d="M16.1161 83.0377C16.1161 83.1805 16.0014 83.2962 15.8598 83.2962C15.7183 83.2962 15.6035 83.1804 15.6035 83.0377C15.6035 82.895 15.7182 82.7793 15.8598 82.7793C16.0013 82.7793 16.1161 82.895 16.1161 83.0377Z" fill="#4C4C4C"/>
<path d="M24.3212 83.0377C24.3212 83.1805 24.2065 83.2962 24.0649 83.2962C23.9234 83.2962 23.8086 83.1804 23.8086 83.0377C23.8086 82.895 23.9234 82.7793 24.0649 82.7793C24.2065 82.7793 24.3212 82.895 24.3212 83.0377Z" fill="#4C4C4C"/>
<path d="M32.5223 83.0377C32.5223 83.1805 32.4076 83.2962 32.266 83.2962C32.1245 83.2962 32.0098 83.1804 32.0098 83.0377C32.0098 82.895 32.1245 82.7793 32.266 82.7793C32.4076 82.7793 32.5223 82.895 32.5223 83.0377Z" fill="#4C4C4C"/>
<path d="M40.7236 83.0377C40.7236 83.1805 40.6088 83.2962 40.4673 83.2962C40.3257 83.2962 40.2109 83.1804 40.2109 83.0377C40.2109 82.895 40.3257 82.7793 40.4673 82.7793C40.6088 82.7793 40.7236 82.895 40.7236 83.0377Z" fill="#4C4C4C"/>
<path d="M48.9267 83.0377C48.9267 83.1805 48.812 83.2962 48.6704 83.2962C48.5288 83.2962 48.4141 83.1804 48.4141 83.0377C48.4141 82.895 48.5288 82.7793 48.6704 82.7793C48.8119 82.7793 48.9267 82.895 48.9267 83.0377Z" fill="#4C4C4C"/>
<path d="M57.1279 83.0377C57.1279 83.1805 57.0131 83.2962 56.8715 83.2962C56.73 83.2962 56.6152 83.1804 56.6152 83.0377C56.6152 82.895 56.73 82.7793 56.8715 82.7793C57.0131 82.7793 57.1279 82.895 57.1279 83.0377Z" fill="#4C4C4C"/>
<path d="M65.331 83.0377C65.331 83.1805 65.2162 83.2962 65.0747 83.2962C64.9331 83.2962 64.8184 83.1804 64.8184 83.0377C64.8184 82.895 64.9331 82.7793 65.0747 82.7793C65.2162 82.7793 65.331 82.895 65.331 83.0377Z" fill="#4C4C4C"/>
<path d="M73.5322 83.0377C73.5322 83.1805 73.4175 83.2962 73.2759 83.2962C73.1343 83.2962 73.0195 83.1804 73.0195 83.0377C73.0195 82.895 73.1343 82.7793 73.2759 82.7793C73.4174 82.7793 73.5322 82.895 73.5322 83.0377Z" fill="#4C4C4C"/>
<path d="M81.7353 83.0377C81.7353 83.1805 81.6205 83.2962 81.479 83.2962C81.3374 83.2962 81.2227 83.1804 81.2227 83.0377C81.2227 82.895 81.3374 82.7793 81.479 82.7793C81.6205 82.7793 81.7353 82.895 81.7353 83.0377Z" fill="#4C4C4C"/>
<path d="M89.9365 83.0377C89.9365 83.1805 89.8217 83.2962 89.6801 83.2962C89.5386 83.2962 89.4238 83.1804 89.4238 83.0377C89.4238 82.895 89.5386 82.7793 89.6801 82.7793C89.8217 82.7793 89.9365 82.895 89.9365 83.0377Z" fill="#4C4C4C"/>
<path d="M98.1376 83.0377C98.1376 83.1805 98.0228 83.2962 97.8813 83.2962C97.7398 83.2962 97.625 83.1804 97.625 83.0377C97.625 82.895 97.7398 82.7793 97.8813 82.7793C98.0228 82.7793 98.1376 82.895 98.1376 83.0377Z" fill="#4C4C4C"/>
<path d="M106.341 83.0377C106.341 83.1805 106.226 83.2962 106.084 83.2962C105.943 83.2962 105.828 83.1804 105.828 83.0377C105.828 82.895 105.943 82.7793 106.084 82.7793C106.226 82.7793 106.341 82.895 106.341 83.0377Z" fill="#4C4C4C"/>
<path d="M114.54 83.0377C114.54 83.1805 114.425 83.2962 114.284 83.2962C114.142 83.2962 114.027 83.1804 114.027 83.0377C114.027 82.895 114.142 82.7793 114.284 82.7793C114.425 82.7793 114.54 82.895 114.54 83.0377Z" fill="#4C4C4C"/>
<path d="M122.745 83.0377C122.745 83.1805 122.63 83.2962 122.489 83.2962C122.347 83.2962 122.232 83.1804 122.232 83.0377C122.232 82.895 122.347 82.7793 122.489 82.7793C122.63 82.7793 122.745 82.895 122.745 83.0377Z" fill="#4C4C4C"/>
<path d="M130.944 83.0377C130.944 83.1805 130.829 83.2962 130.688 83.2962C130.546 83.2962 130.432 83.1804 130.432 83.0377C130.432 82.895 130.546 82.7793 130.688 82.7793C130.829 82.7793 130.944 82.895 130.944 83.0377Z" fill="#4C4C4C"/>
<path d="M139.147 83.0377C139.147 83.1805 139.033 83.2962 138.891 83.2962C138.75 83.2962 138.635 83.1804 138.635 83.0377C138.635 82.895 138.75 82.7793 138.891 82.7793C139.033 82.7793 139.147 82.895 139.147 83.0377Z" fill="#4C4C4C"/>
<path d="M147.349 83.0377C147.349 83.1805 147.234 83.2962 147.092 83.2962C146.951 83.2962 146.836 83.1804 146.836 83.0377C146.836 82.895 146.951 82.7793 147.092 82.7793C147.234 82.7793 147.349 82.895 147.349 83.0377Z" fill="#4C4C4C"/>
<path d="M155.55 83.0377C155.55 83.1805 155.435 83.2962 155.293 83.2962C155.152 83.2962 155.037 83.1804 155.037 83.0377C155.037 82.895 155.152 82.7793 155.293 82.7793C155.435 82.7793 155.55 82.895 155.55 83.0377Z" fill="#4C4C4C"/>
<path d="M163.753 83.0377C163.753 83.1805 163.638 83.2962 163.497 83.2962C163.355 83.2962 163.24 83.1804 163.24 83.0377C163.24 82.895 163.355 82.7793 163.497 82.7793C163.638 82.7793 163.753 82.895 163.753 83.0377Z" fill="#4C4C4C"/>
<path d="M171.956 83.0377C171.956 83.1805 171.841 83.2962 171.7 83.2962C171.558 83.2962 171.443 83.1804 171.443 83.0377C171.443 82.895 171.558 82.7793 171.7 82.7793C171.841 82.7793 171.956 82.895 171.956 83.0377Z" fill="#4C4C4C"/>
<path d="M180.155 83.0377C180.155 83.1805 180.04 83.2962 179.899 83.2962C179.757 83.2962 179.643 83.1804 179.643 83.0377C179.643 82.895 179.757 82.7793 179.899 82.7793C180.04 82.7793 180.155 82.895 180.155 83.0377Z" fill="#4C4C4C"/>
<path d="M188.358 83.0377C188.358 83.1805 188.244 83.2962 188.102 83.2962C187.96 83.2962 187.846 83.1804 187.846 83.0377C187.846 82.895 187.961 82.7793 188.102 82.7793C188.244 82.7793 188.358 82.895 188.358 83.0377Z" fill="#4C4C4C"/>
<path d="M7.91687 91.3073C7.91687 91.45 7.80212 91.5657 7.66056 91.5657C7.51905 91.5657 7.4043 91.4501 7.4043 91.3073C7.4043 91.1645 7.51905 91.0488 7.66056 91.0488C7.80212 91.0488 7.91687 91.1645 7.91687 91.3073Z" fill="#4C4C4C"/>
<path d="M16.1161 91.3092C16.1161 91.452 16.0014 91.5677 15.8598 91.5677C15.7183 91.5677 15.6035 91.452 15.6035 91.3092C15.6035 91.1665 15.7182 91.0508 15.8598 91.0508C16.0013 91.0508 16.1161 91.1665 16.1161 91.3092Z" fill="#4C4C4C"/>
<path d="M24.3212 91.3073C24.3212 91.45 24.2065 91.5657 24.0649 91.5657C23.9234 91.5657 23.8086 91.4501 23.8086 91.3073C23.8086 91.1645 23.9234 91.0488 24.0649 91.0488C24.2065 91.0488 24.3212 91.1645 24.3212 91.3073Z" fill="#4C4C4C"/>
<path d="M32.5223 91.3092C32.5223 91.452 32.4076 91.5677 32.266 91.5677C32.1245 91.5677 32.0098 91.452 32.0098 91.3092C32.0098 91.1665 32.1245 91.0508 32.266 91.0508C32.4076 91.0508 32.5223 91.1665 32.5223 91.3092Z" fill="#4C4C4C"/>
<path d="M40.7255 91.3073C40.7255 91.45 40.6108 91.5657 40.4692 91.5657C40.3276 91.5657 40.2129 91.4501 40.2129 91.3073C40.2129 91.1645 40.3276 91.0488 40.4692 91.0488C40.6108 91.0488 40.7255 91.1645 40.7255 91.3073Z" fill="#4C4C4C"/>
<path d="M48.9267 91.3092C48.9267 91.452 48.812 91.5677 48.6704 91.5677C48.5288 91.5677 48.4141 91.452 48.4141 91.3092C48.4141 91.1665 48.5288 91.0508 48.6704 91.0508C48.8119 91.0508 48.9267 91.1665 48.9267 91.3092Z" fill="#4C4C4C"/>
<path d="M57.1259 91.3092C57.1259 91.452 57.0112 91.5677 56.8695 91.5677C56.728 91.5677 56.6133 91.452 56.6133 91.3092C56.6133 91.1665 56.728 91.0508 56.8695 91.0508C57.0112 91.0508 57.1259 91.1665 57.1259 91.3092Z" fill="#4C4C4C"/>
<path d="M65.331 91.3092C65.331 91.452 65.2162 91.5677 65.0747 91.5677C64.9331 91.5677 64.8184 91.452 64.8184 91.3092C64.8184 91.1665 64.9331 91.0508 65.0747 91.0508C65.2162 91.0508 65.331 91.1665 65.331 91.3092Z" fill="#4C4C4C"/>
<path d="M73.5322 91.3092C73.5322 91.452 73.4175 91.5677 73.2759 91.5677C73.1343 91.5677 73.0195 91.452 73.0195 91.3092C73.0195 91.1665 73.1343 91.0508 73.2759 91.0508C73.4174 91.0508 73.5322 91.1665 73.5322 91.3092Z" fill="#4C4C4C"/>
<path d="M81.7333 91.3073C81.7333 91.45 81.6186 91.5657 81.477 91.5657C81.3355 91.5657 81.2207 91.4501 81.2207 91.3073C81.2207 91.1645 81.3355 91.0488 81.477 91.0488C81.6186 91.0488 81.7333 91.1645 81.7333 91.3073Z" fill="#4C4C4C"/>
<path d="M89.9365 91.3092C89.9365 91.452 89.8217 91.5677 89.6801 91.5677C89.5386 91.5677 89.4238 91.452 89.4238 91.3092C89.4238 91.1665 89.5386 91.0508 89.6801 91.0508C89.8217 91.0508 89.9365 91.1665 89.9365 91.3092Z" fill="#4C4C4C"/>
<path d="M98.1376 91.3073C98.1376 91.45 98.0228 91.5657 97.8813 91.5657C97.7398 91.5657 97.625 91.4501 97.625 91.3073C97.625 91.1645 97.7398 91.0488 97.8813 91.0488C98.0228 91.0488 98.1376 91.1645 98.1376 91.3073Z" fill="#4C4C4C"/>
<path d="M106.341 91.3092C106.341 91.452 106.226 91.5677 106.084 91.5677C105.943 91.5677 105.828 91.452 105.828 91.3092C105.828 91.1665 105.943 91.0508 106.084 91.0508C106.226 91.0508 106.341 91.1665 106.341 91.3092Z" fill="#4C4C4C"/>
<path d="M114.54 91.3092C114.54 91.452 114.425 91.5677 114.284 91.5677C114.142 91.5677 114.027 91.452 114.027 91.3092C114.027 91.1665 114.142 91.0508 114.284 91.0508C114.425 91.0508 114.54 91.1665 114.54 91.3092Z" fill="#4C4C4C"/>
<path d="M122.745 91.3092C122.745 91.452 122.63 91.5677 122.489 91.5677C122.347 91.5677 122.232 91.452 122.232 91.3092C122.232 91.1665 122.347 91.0508 122.489 91.0508C122.63 91.0508 122.745 91.1665 122.745 91.3092Z" fill="#4C4C4C"/>
<path d="M130.944 91.3092C130.944 91.452 130.829 91.5677 130.688 91.5677C130.546 91.5677 130.432 91.452 130.432 91.3092C130.432 91.1665 130.546 91.0508 130.688 91.0508C130.829 91.0508 130.944 91.1665 130.944 91.3092Z" fill="#4C4C4C"/>
<path d="M139.147 91.3092C139.147 91.452 139.033 91.5677 138.891 91.5677C138.75 91.5677 138.635 91.452 138.635 91.3092C138.635 91.1665 138.75 91.0508 138.891 91.0508C139.033 91.0508 139.147 91.1665 139.147 91.3092Z" fill="#4C4C4C"/>
<path d="M147.349 91.3092C147.349 91.452 147.234 91.5677 147.092 91.5677C146.951 91.5677 146.836 91.452 146.836 91.3092C146.836 91.1665 146.951 91.0508 147.092 91.0508C147.234 91.0508 147.349 91.1665 147.349 91.3092Z" fill="#4C4C4C"/>
<path d="M155.55 91.3073C155.55 91.45 155.435 91.5657 155.293 91.5657C155.152 91.5657 155.037 91.4501 155.037 91.3073C155.037 91.1645 155.152 91.0488 155.293 91.0488C155.435 91.0488 155.55 91.1645 155.55 91.3073Z" fill="#4C4C4C"/>
<path d="M163.753 91.3092C163.753 91.452 163.638 91.5677 163.497 91.5677C163.355 91.5677 163.24 91.452 163.24 91.3092C163.24 91.1665 163.355 91.0508 163.497 91.0508C163.638 91.0508 163.753 91.1665 163.753 91.3092Z" fill="#4C4C4C"/>
<path d="M171.956 91.3092C171.956 91.452 171.841 91.5677 171.7 91.5677C171.558 91.5677 171.443 91.452 171.443 91.3092C171.443 91.1665 171.558 91.0508 171.7 91.0508C171.841 91.0508 171.956 91.1665 171.956 91.3092Z" fill="#4C4C4C"/>
<path d="M180.155 91.3092C180.155 91.452 180.04 91.5677 179.899 91.5677C179.757 91.5677 179.643 91.452 179.643 91.3092C179.643 91.1665 179.757 91.0508 179.899 91.0508C180.04 91.0508 180.155 91.1665 180.155 91.3092Z" fill="#4C4C4C"/>
<path d="M188.358 91.3073C188.358 91.45 188.244 91.5657 188.102 91.5657C187.96 91.5657 187.846 91.4501 187.846 91.3073C187.846 91.1645 187.961 91.0488 188.102 91.0488C188.244 91.0488 188.358 91.1645 188.358 91.3073Z" fill="#4C4C4C"/>
<path d="M7.91687 99.5768C7.91687 99.7195 7.80212 99.8352 7.66056 99.8352C7.51905 99.8352 7.4043 99.7195 7.4043 99.5768C7.4043 99.4341 7.51905 99.3184 7.66056 99.3184C7.80212 99.3184 7.91687 99.4341 7.91687 99.5768Z" fill="#4C4C4C"/>
<path d="M16.1161 99.5768C16.1161 99.7195 16.0014 99.8352 15.8598 99.8352C15.7183 99.8352 15.6035 99.7195 15.6035 99.5768C15.6035 99.4341 15.7182 99.3184 15.8598 99.3184C16.0013 99.3184 16.1161 99.4341 16.1161 99.5768Z" fill="#4C4C4C"/>
<path d="M24.3212 99.5768C24.3212 99.7195 24.2065 99.8352 24.0649 99.8352C23.9234 99.8352 23.8086 99.7195 23.8086 99.5768C23.8086 99.4341 23.9234 99.3184 24.0649 99.3184C24.2065 99.3184 24.3212 99.4341 24.3212 99.5768Z" fill="#4C4C4C"/>
<path d="M32.5223 99.5768C32.5223 99.7195 32.4076 99.8352 32.266 99.8352C32.1245 99.8352 32.0098 99.7195 32.0098 99.5768C32.0098 99.4341 32.1245 99.3184 32.266 99.3184C32.4076 99.3184 32.5223 99.4341 32.5223 99.5768Z" fill="#4C4C4C"/>
<path d="M40.7255 99.5768C40.7255 99.7195 40.6108 99.8352 40.4692 99.8352C40.3276 99.8352 40.2129 99.7195 40.2129 99.5768C40.2129 99.4341 40.3276 99.3184 40.4692 99.3184C40.6108 99.3184 40.7255 99.4341 40.7255 99.5768Z" fill="#4C4C4C"/>
<path d="M48.9267 99.5768C48.9267 99.7195 48.812 99.8352 48.6704 99.8352C48.5288 99.8352 48.4141 99.7195 48.4141 99.5768C48.4141 99.4341 48.5288 99.3184 48.6704 99.3184C48.8119 99.3184 48.9267 99.4341 48.9267 99.5768Z" fill="#4C4C4C"/>
<path d="M57.1259 99.5768C57.1259 99.7195 57.0112 99.8352 56.8695 99.8352C56.728 99.8352 56.6133 99.7195 56.6133 99.5768C56.6133 99.4341 56.728 99.3184 56.8695 99.3184C57.0112 99.3184 57.1259 99.4341 57.1259 99.5768Z" fill="#4C4C4C"/>
<path d="M65.331 99.5768C65.331 99.7195 65.2162 99.8352 65.0747 99.8352C64.9331 99.8352 64.8184 99.7195 64.8184 99.5768C64.8184 99.4341 64.9331 99.3184 65.0747 99.3184C65.2162 99.3184 65.331 99.4341 65.331 99.5768Z" fill="#4C4C4C"/>
<path d="M73.5322 99.5768C73.5322 99.7195 73.4175 99.8352 73.2759 99.8352C73.1343 99.8352 73.0195 99.7195 73.0195 99.5768C73.0195 99.4341 73.1343 99.3184 73.2759 99.3184C73.4174 99.3184 73.5322 99.4341 73.5322 99.5768Z" fill="#4C4C4C"/>
<path d="M81.7333 99.5768C81.7333 99.7195 81.6186 99.8352 81.477 99.8352C81.3355 99.8352 81.2207 99.7195 81.2207 99.5768C81.2207 99.4341 81.3355 99.3184 81.477 99.3184C81.6186 99.3184 81.7333 99.4341 81.7333 99.5768Z" fill="#4C4C4C"/>
<path d="M89.9365 99.5768C89.9365 99.7195 89.8217 99.8352 89.6801 99.8352C89.5386 99.8352 89.4238 99.7195 89.4238 99.5768C89.4238 99.4341 89.5386 99.3184 89.6801 99.3184C89.8217 99.3184 89.9365 99.4341 89.9365 99.5768Z" fill="#4C4C4C"/>
<path d="M98.1376 99.5768C98.1376 99.7195 98.0228 99.8352 97.8813 99.8352C97.7398 99.8352 97.625 99.7195 97.625 99.5768C97.625 99.4341 97.7398 99.3184 97.8813 99.3184C98.0228 99.3184 98.1376 99.4341 98.1376 99.5768Z" fill="#4C4C4C"/>
<path d="M106.341 99.5768C106.341 99.7195 106.226 99.8352 106.084 99.8352C105.943 99.8352 105.828 99.7195 105.828 99.5768C105.828 99.4341 105.943 99.3184 106.084 99.3184C106.226 99.3184 106.341 99.4341 106.341 99.5768Z" fill="#4C4C4C"/>
<path d="M114.54 99.5768C114.54 99.7195 114.425 99.8352 114.284 99.8352C114.142 99.8352 114.027 99.7195 114.027 99.5768C114.027 99.4341 114.142 99.3184 114.284 99.3184C114.425 99.3184 114.54 99.4341 114.54 99.5768Z" fill="#4C4C4C"/>
<path d="M122.745 99.5768C122.745 99.7195 122.63 99.8352 122.489 99.8352C122.347 99.8352 122.232 99.7195 122.232 99.5768C122.232 99.4341 122.347 99.3184 122.489 99.3184C122.63 99.3184 122.745 99.4341 122.745 99.5768Z" fill="#4C4C4C"/>
<path d="M130.944 99.5768C130.944 99.7195 130.829 99.8352 130.688 99.8352C130.546 99.8352 130.432 99.7195 130.432 99.5768C130.432 99.4341 130.546 99.3184 130.688 99.3184C130.829 99.3184 130.944 99.4341 130.944 99.5768Z" fill="#4C4C4C"/>
<path d="M139.147 99.5768C139.147 99.7195 139.033 99.8352 138.891 99.8352C138.75 99.8352 138.635 99.7195 138.635 99.5768C138.635 99.4341 138.75 99.3184 138.891 99.3184C139.033 99.3184 139.147 99.4341 139.147 99.5768Z" fill="#4C4C4C"/>
<path d="M147.349 99.5768C147.349 99.7195 147.234 99.8352 147.092 99.8352C146.951 99.8352 146.836 99.7195 146.836 99.5768C146.836 99.4341 146.951 99.3184 147.092 99.3184C147.234 99.3184 147.349 99.4341 147.349 99.5768Z" fill="#4C4C4C"/>
<path d="M155.55 99.5768C155.55 99.7195 155.435 99.8352 155.293 99.8352C155.152 99.8352 155.037 99.7195 155.037 99.5768C155.037 99.4341 155.152 99.3184 155.293 99.3184C155.435 99.3184 155.55 99.4341 155.55 99.5768Z" fill="#4C4C4C"/>
<path d="M163.753 99.5768C163.753 99.7195 163.638 99.8352 163.497 99.8352C163.355 99.8352 163.24 99.7195 163.24 99.5768C163.24 99.4341 163.355 99.3184 163.497 99.3184C163.638 99.3184 163.753 99.4341 163.753 99.5768Z" fill="#4C4C4C"/>
<path d="M171.956 99.5768C171.956 99.7195 171.841 99.8352 171.7 99.8352C171.558 99.8352 171.443 99.7195 171.443 99.5768C171.443 99.4341 171.558 99.3184 171.7 99.3184C171.841 99.3184 171.956 99.4341 171.956 99.5768Z" fill="#4C4C4C"/>
<path d="M180.155 99.5768C180.155 99.7195 180.04 99.8352 179.899 99.8352C179.757 99.8352 179.643 99.7195 179.643 99.5768C179.643 99.4341 179.757 99.3184 179.899 99.3184C180.04 99.3184 180.155 99.4341 180.155 99.5768Z" fill="#4C4C4C"/>
<path d="M188.358 99.5768C188.358 99.7195 188.244 99.8352 188.102 99.8352C187.96 99.8352 187.846 99.7195 187.846 99.5768C187.846 99.4341 187.961 99.3184 188.102 99.3184C188.244 99.3184 188.358 99.4341 188.358 99.5768Z" fill="#4C4C4C"/>
<path d="M7.91687 107.846C7.91687 107.989 7.80212 108.105 7.66056 108.105C7.51905 108.105 7.4043 107.989 7.4043 107.846C7.4043 107.704 7.51905 107.588 7.66056 107.588C7.80212 107.588 7.91687 107.704 7.91687 107.846Z" fill="#4C4C4C"/>
<path d="M16.1161 107.846C16.1161 107.989 16.0014 108.105 15.8598 108.105C15.7183 108.105 15.6035 107.989 15.6035 107.846C15.6035 107.704 15.7182 107.588 15.8598 107.588C16.0013 107.588 16.1161 107.704 16.1161 107.846Z" fill="#4C4C4C"/>
<path d="M24.3212 107.846C24.3212 107.989 24.2065 108.105 24.0649 108.105C23.9234 108.105 23.8086 107.989 23.8086 107.846C23.8086 107.704 23.9234 107.588 24.0649 107.588C24.2065 107.588 24.3212 107.704 24.3212 107.846Z" fill="#4C4C4C"/>
<path d="M32.5223 107.846C32.5223 107.989 32.4076 108.105 32.266 108.105C32.1245 108.105 32.0098 107.989 32.0098 107.846C32.0098 107.704 32.1245 107.588 32.266 107.588C32.4076 107.588 32.5223 107.704 32.5223 107.846Z" fill="#4C4C4C"/>
<path d="M40.7236 107.846C40.7236 107.989 40.6088 108.105 40.4673 108.105C40.3257 108.105 40.2109 107.989 40.2109 107.846C40.2109 107.704 40.3257 107.588 40.4673 107.588C40.6088 107.588 40.7236 107.704 40.7236 107.846Z" fill="#4C4C4C"/>
<path d="M48.9267 107.846C48.9267 107.989 48.812 108.105 48.6704 108.105C48.5288 108.105 48.4141 107.989 48.4141 107.846C48.4141 107.704 48.5288 107.588 48.6704 107.588C48.8119 107.588 48.9267 107.704 48.9267 107.846Z" fill="#4C4C4C"/>
<path d="M57.1279 107.846C57.1279 107.989 57.0131 108.105 56.8715 108.105C56.73 108.105 56.6152 107.989 56.6152 107.846C56.6152 107.704 56.73 107.588 56.8715 107.588C57.0131 107.588 57.1279 107.704 57.1279 107.846Z" fill="#4C4C4C"/>
<path d="M65.331 107.846C65.331 107.989 65.2162 108.105 65.0747 108.105C64.9331 108.105 64.8184 107.989 64.8184 107.846C64.8184 107.704 64.9331 107.588 65.0747 107.588C65.2162 107.588 65.331 107.704 65.331 107.846Z" fill="#4C4C4C"/>
<path d="M73.5322 107.846C73.5322 107.989 73.4175 108.105 73.2759 108.105C73.1343 108.105 73.0195 107.989 73.0195 107.846C73.0195 107.704 73.1343 107.588 73.2759 107.588C73.4174 107.588 73.5322 107.704 73.5322 107.846Z" fill="#4C4C4C"/>
<path d="M81.7353 107.846C81.7353 107.989 81.6205 108.105 81.479 108.105C81.3374 108.105 81.2227 107.989 81.2227 107.846C81.2227 107.704 81.3374 107.588 81.479 107.588C81.6205 107.588 81.7353 107.704 81.7353 107.846Z" fill="#4C4C4C"/>
<path d="M89.9365 107.846C89.9365 107.989 89.8217 108.105 89.6801 108.105C89.5386 108.105 89.4238 107.989 89.4238 107.846C89.4238 107.704 89.5386 107.588 89.6801 107.588C89.8217 107.588 89.9365 107.704 89.9365 107.846Z" fill="#4C4C4C"/>
<path d="M98.1376 107.846C98.1376 107.989 98.0228 108.105 97.8813 108.105C97.7398 108.105 97.625 107.989 97.625 107.846C97.625 107.704 97.7398 107.588 97.8813 107.588C98.0228 107.588 98.1376 107.704 98.1376 107.846Z" fill="#4C4C4C"/>
<path d="M106.341 107.846C106.341 107.989 106.226 108.105 106.084 108.105C105.943 108.105 105.828 107.989 105.828 107.846C105.828 107.704 105.943 107.588 106.084 107.588C106.226 107.588 106.341 107.704 106.341 107.846Z" fill="#4C4C4C"/>
<path d="M114.54 107.846C114.54 107.989 114.425 108.105 114.284 108.105C114.142 108.105 114.027 107.989 114.027 107.846C114.027 107.704 114.142 107.588 114.284 107.588C114.425 107.588 114.54 107.704 114.54 107.846Z" fill="#4C4C4C"/>
<path d="M122.745 107.846C122.745 107.989 122.63 108.105 122.489 108.105C122.347 108.105 122.232 107.989 122.232 107.846C122.232 107.704 122.347 107.588 122.489 107.588C122.63 107.588 122.745 107.704 122.745 107.846Z" fill="#4C4C4C"/>
<path d="M130.944 107.846C130.944 107.989 130.829 108.105 130.688 108.105C130.546 108.105 130.432 107.989 130.432 107.846C130.432 107.704 130.546 107.588 130.688 107.588C130.829 107.588 130.944 107.704 130.944 107.846Z" fill="#4C4C4C"/>
<path d="M139.147 107.846C139.147 107.989 139.033 108.105 138.891 108.105C138.75 108.105 138.635 107.989 138.635 107.846C138.635 107.704 138.75 107.588 138.891 107.588C139.033 107.588 139.147 107.704 139.147 107.846Z" fill="#4C4C4C"/>
<path d="M147.349 107.846C147.349 107.989 147.234 108.105 147.092 108.105C146.951 108.105 146.836 107.989 146.836 107.846C146.836 107.704 146.951 107.588 147.092 107.588C147.234 107.588 147.349 107.704 147.349 107.846Z" fill="#4C4C4C"/>
<path d="M155.55 107.846C155.55 107.989 155.435 108.105 155.293 108.105C155.152 108.105 155.037 107.989 155.037 107.846C155.037 107.704 155.152 107.588 155.293 107.588C155.435 107.588 155.55 107.704 155.55 107.846Z" fill="#4C4C4C"/>
<path d="M163.753 107.846C163.753 107.989 163.638 108.105 163.497 108.105C163.355 108.105 163.24 107.989 163.24 107.846C163.24 107.704 163.355 107.588 163.497 107.588C163.638 107.588 163.753 107.704 163.753 107.846Z" fill="#4C4C4C"/>
<path d="M171.956 107.846C171.956 107.989 171.841 108.105 171.7 108.105C171.558 108.105 171.443 107.989 171.443 107.846C171.443 107.704 171.558 107.588 171.7 107.588C171.841 107.588 171.956 107.704 171.956 107.846Z" fill="#4C4C4C"/>
<path d="M180.155 107.846C180.155 107.989 180.04 108.105 179.899 108.105C179.757 108.105 179.643 107.989 179.643 107.846C179.643 107.704 179.757 107.588 179.899 107.588C180.04 107.588 180.155 107.704 180.155 107.846Z" fill="#4C4C4C"/>
<path d="M188.358 107.846C188.358 107.989 188.244 108.105 188.102 108.105C187.96 108.105 187.846 107.989 187.846 107.846C187.846 107.704 187.961 107.588 188.102 107.588C188.244 107.588 188.358 107.704 188.358 107.846Z" fill="#4C4C4C"/>
<path d="M7.91687 116.118C7.91687 116.261 7.80212 116.376 7.66056 116.376C7.51905 116.376 7.4043 116.261 7.4043 116.118C7.4043 115.975 7.51905 115.859 7.66056 115.859C7.80212 115.859 7.91687 115.975 7.91687 116.118Z" fill="#4C4C4C"/>
<path d="M16.1161 116.118C16.1161 116.261 16.0014 116.376 15.8598 116.376C15.7183 116.376 15.6035 116.261 15.6035 116.118C15.6035 115.975 15.7182 115.859 15.8598 115.859C16.0013 115.859 16.1161 115.975 16.1161 116.118Z" fill="#4C4C4C"/>
<path d="M24.3212 116.118C24.3212 116.261 24.2065 116.376 24.0649 116.376C23.9234 116.376 23.8086 116.261 23.8086 116.118C23.8086 115.975 23.9234 115.859 24.0649 115.859C24.2065 115.859 24.3212 115.975 24.3212 116.118Z" fill="#4C4C4C"/>
<path d="M32.5223 116.118C32.5223 116.261 32.4076 116.376 32.266 116.376C32.1245 116.376 32.0098 116.261 32.0098 116.118C32.0098 115.975 32.1245 115.859 32.266 115.859C32.4076 115.859 32.5223 115.975 32.5223 116.118Z" fill="#4C4C4C"/>
<path d="M40.7236 116.118C40.7236 116.261 40.6088 116.376 40.4673 116.376C40.3257 116.376 40.2109 116.261 40.2109 116.118C40.2109 115.975 40.3257 115.859 40.4673 115.859C40.6088 115.859 40.7236 115.975 40.7236 116.118Z" fill="#4C4C4C"/>
<path d="M48.9267 116.118C48.9267 116.261 48.812 116.376 48.6704 116.376C48.5288 116.376 48.4141 116.261 48.4141 116.118C48.4141 115.975 48.5288 115.859 48.6704 115.859C48.8119 115.859 48.9267 115.975 48.9267 116.118Z" fill="#4C4C4C"/>
<path d="M57.1279 116.118C57.1279 116.261 57.0131 116.376 56.8715 116.376C56.73 116.376 56.6152 116.261 56.6152 116.118C56.6152 115.975 56.73 115.859 56.8715 115.859C57.0131 115.859 57.1279 115.975 57.1279 116.118Z" fill="#4C4C4C"/>
<path d="M65.331 116.118C65.331 116.261 65.2162 116.376 65.0747 116.376C64.9331 116.376 64.8184 116.261 64.8184 116.118C64.8184 115.975 64.9331 115.859 65.0747 115.859C65.2162 115.859 65.331 115.975 65.331 116.118Z" fill="#4C4C4C"/>
<path d="M73.5322 116.118C73.5322 116.261 73.4175 116.376 73.2759 116.376C73.1343 116.376 73.0195 116.261 73.0195 116.118C73.0195 115.975 73.1343 115.859 73.2759 115.859C73.4174 115.859 73.5322 115.975 73.5322 116.118Z" fill="#4C4C4C"/>
<path d="M81.7353 116.118C81.7353 116.261 81.6205 116.376 81.479 116.376C81.3374 116.376 81.2227 116.261 81.2227 116.118C81.2227 115.975 81.3374 115.859 81.479 115.859C81.6205 115.859 81.7353 115.975 81.7353 116.118Z" fill="#4C4C4C"/>
<path d="M89.9365 116.118C89.9365 116.261 89.8217 116.376 89.6801 116.376C89.5386 116.376 89.4238 116.261 89.4238 116.118C89.4238 115.975 89.5386 115.859 89.6801 115.859C89.8217 115.859 89.9365 115.975 89.9365 116.118Z" fill="#4C4C4C"/>
<path d="M98.1376 116.118C98.1376 116.261 98.0228 116.376 97.8813 116.376C97.7398 116.376 97.625 116.261 97.625 116.118C97.625 115.975 97.7398 115.859 97.8813 115.859C98.0228 115.859 98.1376 115.975 98.1376 116.118Z" fill="#4C4C4C"/>
<path d="M106.341 116.118C106.341 116.261 106.226 116.376 106.084 116.376C105.943 116.376 105.828 116.261 105.828 116.118C105.828 115.975 105.943 115.859 106.084 115.859C106.226 115.859 106.341 115.975 106.341 116.118Z" fill="#4C4C4C"/>
<path d="M114.54 116.118C114.54 116.261 114.425 116.376 114.284 116.376C114.142 116.376 114.027 116.261 114.027 116.118C114.027 115.975 114.142 115.859 114.284 115.859C114.425 115.859 114.54 115.975 114.54 116.118Z" fill="#4C4C4C"/>
<path d="M122.745 116.118C122.745 116.261 122.63 116.376 122.489 116.376C122.347 116.376 122.232 116.261 122.232 116.118C122.232 115.975 122.347 115.859 122.489 115.859C122.63 115.859 122.745 115.975 122.745 116.118Z" fill="#4C4C4C"/>
<path d="M130.944 116.118C130.944 116.261 130.829 116.376 130.688 116.376C130.546 116.376 130.432 116.261 130.432 116.118C130.432 115.975 130.546 115.859 130.688 115.859C130.829 115.859 130.944 115.975 130.944 116.118Z" fill="#4C4C4C"/>
<path d="M139.147 116.118C139.147 116.261 139.033 116.376 138.891 116.376C138.75 116.376 138.635 116.261 138.635 116.118C138.635 115.975 138.75 115.859 138.891 115.859C139.033 115.859 139.147 115.975 139.147 116.118Z" fill="#4C4C4C"/>
<path d="M147.349 116.118C147.349 116.261 147.234 116.376 147.092 116.376C146.951 116.376 146.836 116.261 146.836 116.118C146.836 115.975 146.951 115.859 147.092 115.859C147.234 115.859 147.349 115.975 147.349 116.118Z" fill="#4C4C4C"/>
<path d="M155.55 116.118C155.55 116.261 155.435 116.376 155.293 116.376C155.152 116.376 155.037 116.261 155.037 116.118C155.037 115.975 155.152 115.859 155.293 115.859C155.435 115.859 155.55 115.975 155.55 116.118Z" fill="#4C4C4C"/>
<path d="M163.753 116.118C163.753 116.261 163.638 116.376 163.497 116.376C163.355 116.376 163.24 116.261 163.24 116.118C163.24 115.975 163.355 115.859 163.497 115.859C163.638 115.859 163.753 115.975 163.753 116.118Z" fill="#4C4C4C"/>
<path d="M171.956 116.118C171.956 116.261 171.841 116.376 171.7 116.376C171.558 116.376 171.443 116.261 171.443 116.118C171.443 115.975 171.558 115.859 171.7 115.859C171.841 115.859 171.956 115.975 171.956 116.118Z" fill="#4C4C4C"/>
<path d="M180.155 116.118C180.155 116.261 180.04 116.376 179.899 116.376C179.757 116.376 179.643 116.261 179.643 116.118C179.643 115.975 179.757 115.859 179.899 115.859C180.04 115.859 180.155 115.975 180.155 116.118Z" fill="#4C4C4C"/>
<path d="M188.358 116.118C188.358 116.261 188.244 116.376 188.102 116.376C187.96 116.376 187.846 116.261 187.846 116.118C187.846 115.975 187.961 115.859 188.102 115.859C188.244 115.859 188.358 115.975 188.358 116.118Z" fill="#4C4C4C"/>
</g>
<g filter="url(#filter0_d_222_9999)">
<path d="M82.6734 90.084C82.4062 90.084 82.139 90.084 82.139 89.813C81.6046 89.5419 81.3374 88.9999 81.6046 88.4578L89.6208 64.6073H78.3981C77.8637 64.6073 77.5965 64.6073 77.3293 64.0653C77.0621 63.7943 77.0621 63.2522 77.3293 62.9812L91.4913 32.626C91.7585 32.355 92.0257 32.084 92.5601 32.084H107.524C108.058 32.084 108.325 32.355 108.592 32.626C108.86 32.8971 108.86 33.4391 108.592 33.7102L97.637 52.6821H108.86C109.127 52.6821 109.661 52.9531 109.929 53.2242C110.196 53.7662 110.196 54.3083 109.929 54.5793L83.7423 89.5419C83.4751 89.813 83.2079 90.084 82.6734 90.084Z" fill="#FF5E2D"/>
</g>
<path d="M82 58C81.5201 59.1188 80.9875 60.3008 80.469 61.415C70.669 81.6286 58.525 101.254 41.2647 116.07C40.2999 116.868 39.2989 117.657 38.2958 118.403C38.1621 118.503 38.0284 118.602 37.8947 118.702C37.6962 118.431 37.4976 118.161 37.2991 117.89C37.4341 117.792 37.5692 117.695 37.7042 117.597C38.7024 116.875 39.7003 116.11 40.6638 115.334C57.934 100.915 70.3708 81.4614 80.4238 61.3936C80.9572 60.2869 81.5049 59.1121 82 58Z" fill="#FF5E2D"/>
<path d="M102 58C102.48 59.1188 103.012 60.3008 103.531 61.415C113.331 81.6286 125.475 101.254 142.735 116.07C143.7 116.868 144.701 117.657 145.704 118.403C145.838 118.503 145.972 118.602 146.105 118.702C146.304 118.431 146.502 118.161 146.701 117.89C146.566 117.792 146.431 117.695 146.296 117.597C145.298 116.875 144.3 116.11 143.336 115.334C126.066 100.915 113.629 81.4614 103.576 61.3936C103.043 60.2869 102.495 59.1121 102 58Z" fill="#FF5E2D"/>
<path d="M106 0C106.196 2.18553 106.473 4.45279 106.802 6.66962C113.007 45.5073 133.625 88.4577 174.298 99.9552C176.512 100.575 178.646 101.07 180.91 101.492C181.074 101.522 181.238 101.553 181.402 101.583C181.462 101.254 181.522 100.925 181.582 100.596C181.418 100.567 181.254 100.537 181.09 100.508C178.852 100.108 176.741 99.6352 174.552 99.0396C134.341 88.0489 113.322 45.4621 106.852 6.6621C106.506 4.44862 106.213 2.18397 106 0Z" fill="url(#paint0_linear_222_9999)"/>
<path d="M82 0C81.8074 2.17475 81.5361 4.42963 81.2136 6.63754C75.0963 45.2552 55.09 88.2345 14.665 99.9409C12.4667 100.566 10.3418 101.067 8.09076 101.492C7.92697 101.523 7.76319 101.553 7.5994 101.584C7.53867 101.255 7.47794 100.926 7.41721 100.597C7.58121 100.568 7.74522 100.538 7.90923 100.508C10.1334 100.105 12.2339 99.6274 14.4079 99.0264C54.3646 87.8345 74.7833 45.2102 81.1641 6.63013C81.503 4.42551 81.7908 2.17321 82 0Z" fill="url(#paint1_linear_222_9999)"/>
<path d="M126 0C126.224 1.4304 126.492 2.90298 126.789 4.3646C132.559 29.5199 143.942 58.4445 170.534 67.4702C171.981 67.8981 173.423 68.2352 174.918 68.4932C175.082 68.5215 175.246 68.5499 175.411 68.5782C175.466 68.2475 175.521 67.9169 175.576 67.5862C175.411 67.5598 175.247 67.5333 175.082 67.5068C173.624 67.2717 172.214 66.9593 170.798 66.5579C144.741 58.1158 132.844 29.4424 126.838 4.35436C126.525 2.89682 126.241 1.42772 126 0Z" fill="url(#paint2_linear_222_9999)"/>
<path d="M63 0C62.7759 1.4304 62.5077 2.90298 62.2106 4.3646C56.4407 29.5199 45.0582 58.4445 18.4661 67.4702C17.0195 67.8981 15.5768 68.2352 14.0822 68.4932C13.918 68.5215 13.7537 68.5499 13.5895 68.5782C13.5344 68.2475 13.4792 67.9169 13.4241 67.5862C13.5887 67.5598 13.7532 67.5333 13.9178 67.5068C15.3764 67.2717 16.7859 66.9593 18.2015 66.5579C44.2588 58.1158 56.1564 29.4424 62.1616 4.35436C62.475 2.89682 62.7595 1.42772 63 0Z" fill="url(#paint3_linear_222_9999)"/>
<defs>
<filter id="filter0_d_222_9999" x="73.1289" y="32.084" width="41" height="66" filterUnits="userSpaceOnUse" color-interpolation-filters="sRGB">
<feFlood flood-opacity="0" result="BackgroundImageFix"/>
<feColorMatrix in="SourceAlpha" type="matrix" values="0 0 0 0 0 0 0 0 0 0 0 0 0 0 0 0 0 0 127 0" result="hardAlpha"/>
<feOffset dy="4"/>
<feGaussianBlur stdDeviation="2"/>
<feComposite in2="hardAlpha" operator="out"/>
<feColorMatrix type="matrix" values="0 0 0 0 0.869231 0 0 0 0 0.222044 0 0 0 0 0.025074 0 0 0 0.25 0"/>
<feBlend mode="normal" in2="BackgroundImageFix" result="effect1_dropShadow_222_9999"/>
<feBlend mode="normal" in="SourceGraphic" in2="effect1_dropShadow_222_9999" result="shape"/>
</filter>
<linearGradient id="paint0_linear_222_9999" x1="143.5" y1="0" x2="143.5" y2="101" gradientUnits="userSpaceOnUse">
<stop stop-color="white"/>
<stop offset="1" stop-color="#AFAFAF"/>
</linearGradient>
<linearGradient id="paint1_linear_222_9999" x1="45" y1="0" x2="45" y2="101" gradientUnits="userSpaceOnUse">
<stop stop-color="white"/>
<stop offset="1" stop-color="#AFAFAF"/>
</linearGradient>
<linearGradient id="paint2_linear_222_9999" x1="150.5" y1="0" x2="150.5" y2="68" gradientUnits="userSpaceOnUse">
<stop stop-color="white"/>
<stop offset="1" stop-color="#AFAFAF"/>
</linearGradient>
<linearGradient id="paint3_linear_222_9999" x1="38.5" y1="0" x2="38.5" y2="68" gradientUnits="userSpaceOnUse">
<stop stop-color="white"/>
<stop offset="1" stop-color="#AFAFAF"/>
</linearGradient>
</defs>
</svg>
