<svg width="172" height="185" viewBox="0 0 172 185" fill="none" xmlns="http://www.w3.org/2000/svg">
<circle cx="96.9961" cy="88.6236" r="64.5212" stroke="white" stroke-width="2.15"/>
<path d="M43.2656 99.4702C66.5668 99.4702 85.4561 118.359 85.4561 141.661C85.456 164.962 66.5668 183.851 43.2656 183.851C19.9644 183.851 1.07522 164.962 1.0752 141.661C1.0752 118.359 19.9644 99.4702 43.2656 99.4702Z" stroke="white" stroke-width="2.15"/>
<path d="M86.5308 1.0752C98.6553 1.0752 108.484 10.9038 108.484 23.0283C108.484 35.1529 98.6553 44.9814 86.5308 44.9814C74.4063 44.9814 64.5776 35.1528 64.5776 23.0283C64.5777 10.9039 74.4063 1.07527 86.5308 1.0752Z" stroke="white" stroke-width="2.15"/>
<path d="M159.104 91.7944C165.447 91.7944 170.59 96.9365 170.59 103.28C170.59 109.623 165.447 114.766 159.104 114.766C152.76 114.766 147.618 109.623 147.618 103.28C147.618 96.9366 152.76 91.7947 159.104 91.7944Z" stroke="white" stroke-width="2.15"/>
<rect x="157.501" y="100.5" width="5" height="5" rx="2.5" fill="#4C4C4C" stroke="white"/>
<rect x="31.5015" y="98.5005" width="5" height="5" rx="2.5" fill="#4C4C4C" stroke="white"/>
<rect x="105.501" y="22.5005" width="5" height="5" rx="2.5" fill="#4C4C4C" stroke="white"/>
</svg>
