<svg width="215" height="190" viewBox="0 0 215 190" fill="none" xmlns="http://www.w3.org/2000/svg">
<circle cx="182.5" cy="32.5" r="31.425" stroke="white" stroke-width="2.15"/>
<circle cx="32.5" cy="157.5" r="31.425" stroke="white" stroke-width="2.15"/>
<path d="M87.3087 70.8783C107.233 55.0281 127.378 43.3992 143.816 37.3939C152.041 34.3893 159.279 32.814 165.067 32.7875C170.871 32.7609 175.024 34.2853 177.381 37.2484C179.739 40.2117 180.291 44.6019 178.96 50.2509C177.633 55.8848 174.47 62.5835 169.693 69.9219C160.146 84.589 144.285 101.604 124.361 117.454C104.437 133.305 84.2919 144.933 67.8537 150.939C59.6291 153.943 52.391 155.519 46.6029 155.545C40.7994 155.572 36.6457 154.047 34.2883 151.083C31.9311 148.12 31.3795 143.731 32.7102 138.082C34.0374 132.448 37.1998 125.749 41.9767 118.411C51.5241 103.744 67.3846 86.7286 87.3087 70.8783Z" stroke="white" stroke-width="2.15"/>
<path d="M120.716 68.3953C142.765 81.1251 160.967 95.6079 172.578 108.702C178.387 115.254 182.506 121.411 184.651 126.787C186.803 132.177 186.906 136.599 185.013 139.879C183.12 143.158 179.237 145.28 173.494 146.112C167.765 146.942 160.374 146.454 151.795 144.699C134.65 141.19 113.006 132.668 90.9574 119.938C68.9087 107.208 50.7065 92.7255 39.0952 79.6314C33.2858 73.08 29.1676 66.9226 27.0219 61.5469C24.8705 56.1567 24.7673 51.7332 26.6606 48.4539C28.554 45.1747 32.4361 43.053 38.1796 42.2211C43.908 41.3915 51.2994 41.8792 59.8779 43.6347C77.0235 47.1432 98.6669 55.6654 120.716 68.3953Z" stroke="white" stroke-width="2.15"/>
<rect x="32.1094" y="148.869" width="5" height="5" rx="2.5" fill="#4C4C4C" stroke="white"/>
<rect x="106.109" y="126.869" width="5" height="5" rx="2.5" fill="#4C4C4C" stroke="white"/>
<rect x="174.109" y="33.8691" width="5" height="5" rx="2.5" fill="#4C4C4C" stroke="white"/>
</svg>
