<svg width="32" height="32" viewBox="0 0 32 32" fill="none" xmlns="http://www.w3.org/2000/svg">
<path d="M22.6002 14.0709C22.6002 16.1233 21.9616 18.0192 20.8858 19.5574L26.3119 25.2228C26.8477 25.7817 26.8477 26.6894 26.3119 27.2483C25.7762 27.8073 24.9061 27.8073 24.3704 27.2483L18.9443 21.583C17.4699 22.7098 15.6526 23.3716 13.6854 23.3716C8.76077 23.3716 4.77051 19.2086 4.77051 14.0709C4.77051 8.9332 8.76077 4.77026 13.6854 4.77026C18.61 4.77026 22.6002 8.9332 22.6002 14.0709ZM13.6854 20.5098C14.4959 20.5098 15.2984 20.3433 16.0472 20.0197C16.796 19.6961 17.4764 19.2218 18.0495 18.6239C18.6226 18.026 19.0772 17.3162 19.3874 16.535C19.6976 15.7538 19.8572 14.9165 19.8572 14.0709C19.8572 13.2253 19.6976 12.3881 19.3874 11.6069C19.0772 10.8256 18.6226 10.1158 18.0495 9.51792C17.4764 8.92001 16.796 8.44572 16.0472 8.12214C15.2984 7.79855 14.4959 7.632 13.6854 7.632C12.8749 7.632 12.0723 7.79855 11.3235 8.12214C10.5747 8.44572 9.89434 8.92001 9.32123 9.51792C8.74812 10.1158 8.29351 10.8256 7.98335 11.6069C7.67318 12.3881 7.51354 13.2253 7.51354 14.0709C7.51354 14.9165 7.67318 15.7538 7.98335 16.535C8.29351 17.3162 8.74812 18.026 9.32123 18.6239C9.89434 19.2218 10.5747 19.6961 11.3235 20.0197C12.0723 20.3433 12.8749 20.5098 13.6854 20.5098Z" fill="white"/>
</svg>
